<svg xmlns="http://www.w3.org/2000/svg" viewBox="0 0 750 500"><g id="freepik--background-simple--inject-53"><path d="M692.76,353.87c17.27-32,19.82-68.48,15.77-103.72-3.59-31.26-9-67.11-24.17-95.33C646,83.34,548.89,49.79,470.07,71.29c-32.88,9-55.94,29.74-82.33,49.52-19.52,14.62-40.93,28.89-66.15,31.82-60.39,7-129.12-50-186.39-45s-102,56-104.13,100,41.65,89,37.49,119-31.24,110,76,113,163.48-57,205.14-44,133.28,51,210.33,41c50.27-6.53,99.42-31.21,127-73.14Q690.13,358.75,692.76,353.87Z" style="fill:#92E3A9"></path><path d="M692.76,353.87c17.27-32,19.82-68.48,15.77-103.72-3.59-31.26-9-67.11-24.17-95.33C646,83.34,548.89,49.79,470.07,71.29c-32.88,9-55.94,29.74-82.33,49.52-19.52,14.62-40.93,28.89-66.15,31.82-60.39,7-129.12-50-186.39-45s-102,56-104.13,100,41.65,89,37.49,119-31.24,110,76,113,163.48-57,205.14-44,133.28,51,210.33,41c50.27-6.53,99.42-31.21,127-73.14Q690.13,358.75,692.76,353.87Z" style="fill:#fff;opacity:0.8"></path></g><g id="freepik--Floor--inject-53"><path d="M733.33,416.64H18.2a.5.5,0,0,1-.5-.5.5.5,0,0,1,.5-.5H733.33a.51.51,0,0,1,.5.5A.5.5,0,0,1,733.33,416.64Z" style="fill:#263238"></path></g><g id="freepik--Clouds--inject-53"><path d="M157.17,110.69H55.37l11.48-5c.57-.83,3.83-5.44,7.18-7.11,3.17-1.59,9.15,1.12,11.06,2.06.42-1.74,1.88-6.43,5.45-8,2.49-1.07,6.71.55,10.44,2,2.55,1,5.18,2,6,1.56.59-.29,1.2-1.45,1.91-2.79,1.64-3.13,4.13-7.86,10.08-7.86,8.36,0,17,10.82,17.47,11.37,3.48,4.11,5.1,3,7.35,1.48,1.69-1.14,3.6-2.44,6.52-1.64,6.77,1.84,6.84,13,6.84,13.43Zm-97-1h96c-.1-2.15-.82-10.53-6.09-12-2.48-.67-4.11.44-5.7,1.51-2.27,1.54-4.62,3.14-8.68-1.67h0c-.09-.11-8.78-11-16.69-11-5.34,0-7.57,4.24-9.2,7.33-.82,1.55-1.46,2.78-2.35,3.22-1.23.62-3.7-.33-6.82-1.53-3.37-1.29-7.57-2.9-9.69-2-3.83,1.64-5,7.81-5,7.87l-.13.68-.6-.33c-.08,0-7.47-4-10.73-2.35s-6.83,6.85-6.87,6.9l-.08.12Z" style="fill:#263238"></path><path d="M395.82,176.53H333.53l7.71-3.37c.43-.62,2.36-3.3,4.35-4.29s5.23.46,6.61,1.12c.33-1.21,1.25-3.78,3.32-4.67,1.57-.68,4.15.31,6.42,1.19,1.28.48,3,1.15,3.45.94a4.54,4.54,0,0,0,1.06-1.59c1-1.92,2.54-4.83,6.24-4.83,5.1,0,10.35,6.54,10.64,6.91,2,2.32,2.84,1.74,4.15.85a4.59,4.59,0,0,1,4.08-1c4.21,1.15,4.26,8,4.26,8.26Zm-57.51-1H394.8c-.09-1.52-.61-6-3.5-6.8a3.66,3.66,0,0,0-3.26.88c-1.37.93-2.92,2-5.48-1v0c-.05-.06-5.21-6.53-9.86-6.53-3.09,0-4.34,2.38-5.35,4.3a4.6,4.6,0,0,1-1.5,2c-.78.39-2.06-.07-4.25-.91-2-.77-4.48-1.71-5.67-1.2-2.2.94-2.89,4.54-2.89,4.58l-.13.67-.6-.32c-1.22-.66-4.71-2.19-6.26-1.41-2,1-4,4-4.05,4.07l-.08.13Z" style="fill:#263238"></path><path d="M540.89,112.48H478.6l7.71-3.37c.43-.62,2.36-3.29,4.36-4.29s5.22.46,6.6,1.13c.33-1.22,1.25-3.79,3.32-4.68,1.58-.67,4.15.32,6.42,1.19,1.28.49,3,1.16,3.45.94a4.54,4.54,0,0,0,1.06-1.59c1-1.92,2.54-4.82,6.24-4.82,5.1,0,10.35,6.53,10.64,6.9,2,2.33,2.84,1.74,4.15.85a4.59,4.59,0,0,1,4.08-1c4.21,1.15,4.26,8,4.26,8.26Zm-57.51-1h56.49c-.09-1.51-.61-6-3.5-6.79a3.63,3.63,0,0,0-3.26.88c-1.37.93-2.92,2-5.48-1h0c0-.07-5.21-6.53-9.86-6.53-3.09,0-4.34,2.38-5.35,4.29a4.6,4.6,0,0,1-1.5,2c-.78.39-2.06-.07-4.25-.91-2-.76-4.48-1.71-5.67-1.2-2.2.94-2.89,4.54-2.89,4.58l-.13.68-.6-.33c-1.22-.65-4.7-2.18-6.26-1.41-2,1-4,4.05-4.05,4.08l-.08.12Z" style="fill:#263238"></path></g><g id="freepik--City--inject-53"><path d="M684.55,297.82a.5.5,0,0,1-.5-.5V76.77h-48.8V186.16H613.88V113H579.42V224.64H558.81V158.25H544v69.4H533.16V161.88H519.83v65.77H497.7v-9.8H463.87V132.79H409.68v84.3h-85.5V76H263.32v62.62H226.11V66.08H169V231.43H154.44V146.18H102.63v43H74.71v92H42.53a.5.5,0,1,1,0-1H73.71v-92h27.92v-43h53.81v85.25H168V65.08h59.09v72.55h35.21V75h62.86V216.09h83.5v-84.3h56.19v85.06H498.7v9.8h20.13V160.88h15.33v65.77H543v-69.4h16.84v66.39h18.61V112h36.46v73.18h19.37V75.77h50.8V297.32A.51.51,0,0,1,684.55,297.82Z" style="fill:#263238"></path><path d="M89.05,211.81H82v-8.54h7Zm-6-1h5v-6.54H83Z" style="fill:#263238"></path><path d="M98.85,211.81h-7v-8.54h7Zm-6-1h5v-6.54h-5Z" style="fill:#263238"></path><path d="M108.66,211.81h-7v-8.54h7Zm-6-1h5v-6.54h-5Z" style="fill:#263238"></path><path d="M118.47,211.81h-7v-8.54h7Zm-6-1h5v-6.54h-5Z" style="fill:#263238"></path><path d="M128.28,211.81h-7v-8.54h7Zm-6-1h5v-6.54h-5Z" style="fill:#263238"></path><path d="M138.09,211.81h-7v-8.54h7Zm-6-1h5v-6.54h-5Z" style="fill:#263238"></path><path d="M184.11,156h-7v-8.54h7Zm-6-1h5v-6.54h-5Z" style="fill:#263238"></path><path d="M193.91,156h-7v-8.54h7Zm-6-1h5v-6.54h-5Z" style="fill:#263238"></path><path d="M203.72,156h-7v-8.54h7Zm-6-1h5v-6.54h-5Z" style="fill:#263238"></path><path d="M213.53,156h-7v-8.54h7Zm-6-1h5v-6.54h-5Z" style="fill:#263238"></path><path d="M184.11,142.4h-7v-8.54h7Zm-6-1h5v-6.54h-5Z" style="fill:#263238"></path><path d="M193.91,142.4h-7v-8.54h7Zm-6-1h5v-6.54h-5Z" style="fill:#263238"></path><path d="M203.72,142.4h-7v-8.54h7Zm-6-1h5v-6.54h-5Z" style="fill:#263238"></path><path d="M213.53,142.4h-7v-8.54h7Zm-6-1h5v-6.54h-5Z" style="fill:#263238"></path><path d="M184.11,128.82h-7v-8.54h7Zm-6-1h5v-6.54h-5Z" style="fill:#263238"></path><path d="M193.91,128.82h-7v-8.54h7Zm-6-1h5v-6.54h-5Z" style="fill:#263238"></path><path d="M203.72,128.82h-7v-8.54h7Zm-6-1h5v-6.54h-5Z" style="fill:#263238"></path><path d="M213.53,128.82h-7v-8.54h7Zm-6-1h5v-6.54h-5Z" style="fill:#263238"></path><path d="M184.11,115.24h-7V106.7h7Zm-6-1h5V107.7h-5Z" style="fill:#263238"></path><path d="M193.91,115.24h-7V106.7h7Zm-6-1h5V107.7h-5Z" style="fill:#263238"></path><path d="M203.72,115.24h-7V106.7h7Zm-6-1h5V107.7h-5Z" style="fill:#263238"></path><path d="M213.53,115.24h-7V106.7h7Zm-6-1h5V107.7h-5Z" style="fill:#263238"></path><path d="M184.11,101.67h-7V93.12h7Zm-6-1h5V94.12h-5Z" style="fill:#263238"></path><path d="M193.91,101.67h-7V93.12h7Zm-6-1h5V94.12h-5Z" style="fill:#263238"></path><path d="M203.72,101.67h-7V93.12h7Zm-6-1h5V94.12h-5Z" style="fill:#263238"></path><path d="M213.53,101.67h-7V93.12h7Zm-6-1h5V94.12h-5Z" style="fill:#263238"></path><path d="M223.34,156h-7v-8.54h7Zm-6-1h5v-6.54h-5Z" style="fill:#263238"></path><path d="M233.14,156h-7v-8.54h7Zm-6-1h5v-6.54h-5Z" style="fill:#263238"></path><path d="M184.11,171.07h-7v-8.54h7Zm-6-1h5v-6.54h-5Z" style="fill:#263238"></path><path d="M193.91,171.07h-7v-8.54h7Zm-6-1h5v-6.54h-5Z" style="fill:#263238"></path><path d="M203.72,171.07h-7v-8.54h7Zm-6-1h5v-6.54h-5Z" style="fill:#263238"></path><path d="M213.53,171.07h-7v-8.54h7Zm-6-1h5v-6.54h-5Z" style="fill:#263238"></path><path d="M223.34,171.07h-7v-8.54h7Zm-6-1h5v-6.54h-5Z" style="fill:#263238"></path><path d="M233.14,171.07h-7v-8.54h7Zm-6-1h5v-6.54h-5Z" style="fill:#263238"></path><path d="M89.05,227.65H82v-8.54h7Zm-6-1h5v-6.54H83Z" style="fill:#263238"></path><path d="M98.85,227.65h-7v-8.54h7Zm-6-1h5v-6.54h-5Z" style="fill:#263238"></path><path d="M108.66,227.65h-7v-8.54h7Zm-6-1h5v-6.54h-5Z" style="fill:#263238"></path><path d="M118.47,227.65h-7v-8.54h7Zm-6-1h5v-6.54h-5Z" style="fill:#263238"></path><path d="M128.28,227.65h-7v-8.54h7Zm-6-1h5v-6.54h-5Z" style="fill:#263238"></path><path d="M138.09,227.65h-7v-8.54h7Zm-6-1h5v-6.54h-5Z" style="fill:#263238"></path><path d="M89.05,243.5H82V235h7Zm-6-1h5V236H83Z" style="fill:#263238"></path><path d="M98.85,243.5h-7V235h7Zm-6-1h5V236h-5Z" style="fill:#263238"></path><path d="M108.66,243.5h-7V235h7Zm-6-1h5V236h-5Z" style="fill:#263238"></path><path d="M118.47,243.5h-7V235h7Zm-6-1h5V236h-5Z" style="fill:#263238"></path><path d="M128.28,243.5h-7V235h7Zm-6-1h5V236h-5Z" style="fill:#263238"></path><path d="M138.09,243.5h-7V235h7Zm-6-1h5V236h-5Z" style="fill:#263238"></path><path d="M89.05,259.34H82V250.8h7Zm-6-1h5V251.8H83Z" style="fill:#263238"></path><path d="M98.85,259.34h-7V250.8h7Zm-6-1h5V251.8h-5Z" style="fill:#263238"></path><path d="M108.66,259.34h-7V250.8h7Zm-6-1h5V251.8h-5Z" style="fill:#263238"></path><path d="M118.47,259.34h-7V250.8h7Zm-6-1h5V251.8h-5Z" style="fill:#263238"></path><path d="M128.28,259.34h-7V250.8h7Zm-6-1h5V251.8h-5Z" style="fill:#263238"></path><path d="M138.09,259.34h-7V250.8h7Zm-6-1h5V251.8h-5Z" style="fill:#263238"></path><path d="M89.05,275.18H82v-8.54h7Zm-6-1h5v-6.54H83Z" style="fill:#263238"></path><path d="M98.85,275.18h-7v-8.54h7Zm-6-1h5v-6.54h-5Z" style="fill:#263238"></path><path d="M108.66,275.18h-7v-8.54h7Zm-6-1h5v-6.54h-5Z" style="fill:#263238"></path><path d="M118.47,275.18h-7v-8.54h7Zm-6-1h5v-6.54h-5Z" style="fill:#263238"></path><path d="M128.28,275.18h-7v-8.54h7Zm-6-1h5v-6.54h-5Z" style="fill:#263238"></path><path d="M138.09,275.18h-7v-8.54h7Zm-6-1h5v-6.54h-5Z" style="fill:#263238"></path><path d="M660.15,100.16h-7V91.61h7Zm-6-1h5V92.61h-5Z" style="fill:#263238"></path><path d="M670,100.16h-7V91.61h7Zm-6-1h5V92.61h-5Z" style="fill:#263238"></path><path d="M679.76,100.16h-7V91.61h7Zm-6-1h5V92.61h-5Z" style="fill:#263238"></path><path d="M660.15,119h-7v-8.55h7Zm-6-1h5v-6.55h-5Z" style="fill:#263238"></path><path d="M670,119h-7v-8.55h7Zm-6-1h5v-6.55h-5Z" style="fill:#263238"></path><path d="M679.76,119h-7v-8.55h7Zm-6-1h5v-6.55h-5Z" style="fill:#263238"></path><path d="M660.15,137.88h-7v-8.55h7Zm-6-1h5v-6.55h-5Z" style="fill:#263238"></path><path d="M670,137.88h-7v-8.55h7Zm-6-1h5v-6.55h-5Z" style="fill:#263238"></path><path d="M679.76,137.88h-7v-8.55h7Zm-6-1h5v-6.55h-5Z" style="fill:#263238"></path><path d="M660.15,156.74h-7v-8.55h7Zm-6-1h5v-6.55h-5Z" style="fill:#263238"></path><path d="M670,156.74h-7v-8.55h7Zm-6-1h5v-6.55h-5Z" style="fill:#263238"></path><path d="M679.76,156.74h-7v-8.55h7Zm-6-1h5v-6.55h-5Z" style="fill:#263238"></path><path d="M660.15,175.6h-7v-8.55h7Zm-6-1h5v-6.55h-5Z" style="fill:#263238"></path><path d="M670,175.6h-7v-8.55h7Zm-6-1h5v-6.55h-5Z" style="fill:#263238"></path><path d="M679.76,175.6h-7v-8.55h7Zm-6-1h5v-6.55h-5Z" style="fill:#263238"></path><path d="M660.15,194.46h-7v-8.54h7Zm-6-1h5v-6.54h-5Z" style="fill:#263238"></path><path d="M670,194.46h-7v-8.54h7Zm-6-1h5v-6.54h-5Z" style="fill:#263238"></path><path d="M679.76,194.46h-7v-8.54h7Zm-6-1h5v-6.54h-5Z" style="fill:#263238"></path><path d="M660.15,213.32h-7v-8.54h7Zm-6-1h5v-6.54h-5Z" style="fill:#263238"></path><path d="M670,213.32h-7v-8.54h7Zm-6-1h5v-6.54h-5Z" style="fill:#263238"></path><path d="M679.76,213.32h-7v-8.54h7Zm-6-1h5v-6.54h-5Z" style="fill:#263238"></path><path d="M660.15,232.18h-7v-8.54h7Zm-6-1h5v-6.54h-5Z" style="fill:#263238"></path><path d="M670,232.18h-7v-8.54h7Zm-6-1h5v-6.54h-5Z" style="fill:#263238"></path><path d="M679.76,232.18h-7v-8.54h7Zm-6-1h5v-6.54h-5Z" style="fill:#263238"></path><path d="M660.15,251h-7V242.5h7Zm-6-1h5V243.5h-5Z" style="fill:#263238"></path><path d="M670,251h-7V242.5h7Zm-6-1h5V243.5h-5Z" style="fill:#263238"></path><path d="M595.94,137.88h-7v-8.55h7Zm-6-1h5v-6.55h-5Z" style="fill:#263238"></path><path d="M605.75,137.88h-7v-8.55h7Zm-6-1h5v-6.55h-5Z" style="fill:#263238"></path><path d="M595.94,156.74h-7v-8.55h7Zm-6-1h5v-6.55h-5Z" style="fill:#263238"></path><path d="M605.75,156.74h-7v-8.55h7Zm-6-1h5v-6.55h-5Z" style="fill:#263238"></path><path d="M595.94,175.6h-7v-8.55h7Zm-6-1h5v-6.55h-5Z" style="fill:#263238"></path><path d="M605.75,175.6h-7v-8.55h7Zm-6-1h5v-6.55h-5Z" style="fill:#263238"></path><path d="M595.94,194.46h-7v-8.54h7Zm-6-1h5v-6.54h-5Z" style="fill:#263238"></path><path d="M605.75,194.46h-7v-8.54h7Zm-6-1h5v-6.54h-5Z" style="fill:#263238"></path><path d="M595.94,213.32h-7v-8.54h7Zm-6-1h5v-6.54h-5Z" style="fill:#263238"></path><path d="M605.75,213.32h-7v-8.54h7Zm-6-1h5v-6.54h-5Z" style="fill:#263238"></path><path d="M595.94,232.18h-7v-8.54h7Zm-6-1h5v-6.54h-5Z" style="fill:#263238"></path><path d="M605.75,232.18h-7v-8.54h7Zm-6-1h5v-6.54h-5Z" style="fill:#263238"></path><path d="M595.94,251h-7V242.5h7Zm-6-1h5V243.5h-5Z" style="fill:#263238"></path><path d="M605.75,251h-7V242.5h7Zm-6-1h5V243.5h-5Z" style="fill:#263238"></path><path d="M423.09,156.74h-7v-8.55h7Zm-6-1h5v-6.55h-5Z" style="fill:#263238"></path><path d="M432.89,156.74h-7v-8.55h7Zm-6-1h5v-6.55h-5Z" style="fill:#263238"></path><path d="M423.09,175.6h-7v-8.55h7Zm-6-1h5v-6.55h-5Z" style="fill:#263238"></path><path d="M432.89,175.6h-7v-8.55h7Zm-6-1h5v-6.55h-5Z" style="fill:#263238"></path><path d="M423.09,194.46h-7v-8.54h7Zm-6-1h5v-6.54h-5Z" style="fill:#263238"></path><path d="M432.89,194.46h-7v-8.54h7Zm-6-1h5v-6.54h-5Z" style="fill:#263238"></path><path d="M423.09,213.32h-7v-8.54h7Zm-6-1h5v-6.54h-5Z" style="fill:#263238"></path><path d="M432.89,213.32h-7v-8.54h7Zm-6-1h5v-6.54h-5Z" style="fill:#263238"></path><path d="M423.09,232.18h-7v-8.54h7Zm-6-1h5v-6.54h-5Z" style="fill:#263238"></path><path d="M432.89,232.18h-7v-8.54h7Zm-6-1h5v-6.54h-5Z" style="fill:#263238"></path><path d="M423.09,251h-7V242.5h7Zm-6-1h5V243.5h-5Z" style="fill:#263238"></path><path d="M432.89,251h-7V242.5h7Zm-6-1h5V243.5h-5Z" style="fill:#263238"></path><path d="M445.3,156.74h-7v-8.55h7Zm-6-1h5v-6.55h-5Z" style="fill:#263238"></path><path d="M455.1,156.74h-7v-8.55h7Zm-6-1h5v-6.55h-5Z" style="fill:#263238"></path><path d="M445.3,175.6h-7v-8.55h7Zm-6-1h5v-6.55h-5Z" style="fill:#263238"></path><path d="M455.1,175.6h-7v-8.55h7Zm-6-1h5v-6.55h-5Z" style="fill:#263238"></path><path d="M445.3,194.46h-7v-8.54h7Zm-6-1h5v-6.54h-5Z" style="fill:#263238"></path><path d="M455.1,194.46h-7v-8.54h7Zm-6-1h5v-6.54h-5Z" style="fill:#263238"></path><path d="M445.3,213.32h-7v-8.54h7Zm-6-1h5v-6.54h-5Z" style="fill:#263238"></path><path d="M455.1,213.32h-7v-8.54h7Zm-6-1h5v-6.54h-5Z" style="fill:#263238"></path><path d="M445.3,232.18h-7v-8.54h7Zm-6-1h5v-6.54h-5Z" style="fill:#263238"></path><path d="M455.1,232.18h-7v-8.54h7Zm-6-1h5v-6.54h-5Z" style="fill:#263238"></path><path d="M445.3,251h-7V242.5h7Zm-6-1h5V243.5h-5Z" style="fill:#263238"></path><path d="M455.1,251h-7V242.5h7Zm-6-1h5V243.5h-5Z" style="fill:#263238"></path><path d="M291.13,100.16h-7V91.61h7Zm-6-1h5V92.61h-5Z" style="fill:#263238"></path><path d="M300.94,100.16h-7V91.61h7Zm-6-1h5V92.61h-5Z" style="fill:#263238"></path><path d="M291.13,119h-7v-8.55h7Zm-6-1h5v-6.55h-5Z" style="fill:#263238"></path><path d="M300.94,119h-7v-8.55h7Zm-6-1h5v-6.55h-5Z" style="fill:#263238"></path><path d="M291.13,137.88h-7v-8.55h7Zm-6-1h5v-6.55h-5Z" style="fill:#263238"></path><path d="M300.94,137.88h-7v-8.55h7Zm-6-1h5v-6.55h-5Z" style="fill:#263238"></path><path d="M291.13,156.74h-7v-8.55h7Zm-6-1h5v-6.55h-5Z" style="fill:#263238"></path><path d="M300.94,156.74h-7v-8.55h7Zm-6-1h5v-6.55h-5Z" style="fill:#263238"></path><path d="M291.13,175.6h-7v-8.55h7Zm-6-1h5v-6.55h-5Z" style="fill:#263238"></path><path d="M300.94,175.6h-7v-8.55h7Zm-6-1h5v-6.55h-5Z" style="fill:#263238"></path><path d="M291.13,194.46h-7v-8.54h7Zm-6-1h5v-6.54h-5Z" style="fill:#263238"></path><path d="M300.94,194.46h-7v-8.54h7Zm-6-1h5v-6.54h-5Z" style="fill:#263238"></path><path d="M291.13,213.32h-7v-8.54h7Zm-6-1h5v-6.54h-5Z" style="fill:#263238"></path><path d="M300.94,213.32h-7v-8.54h7Zm-6-1h5v-6.54h-5Z" style="fill:#263238"></path><path d="M291.13,232.18h-7v-8.54h7Zm-6-1h5v-6.54h-5Z" style="fill:#263238"></path><path d="M300.94,232.18h-7v-8.54h7Zm-6-1h5v-6.54h-5Z" style="fill:#263238"></path><path d="M291.13,251h-7V242.5h7Zm-6-1h5V243.5h-5Z" style="fill:#263238"></path><path d="M300.94,251h-7V242.5h7Zm-6-1h5V243.5h-5Z" style="fill:#263238"></path><path d="M679.76,251h-7V242.5h7Zm-6-1h5V243.5h-5Z" style="fill:#263238"></path></g><g id="freepik--Crash--inject-53"><polygon points="463.57 333.25 433.59 350.86 463.23 369.04 429.28 376.53 451.85 402.98 417.24 399.61 430.53 431.74 398.66 417.84 401.37 452.51 375.35 429.44 367.22 463.25 349.61 433.26 331.42 462.9 323.94 428.95 297.48 451.52 300.86 416.91 268.72 430.2 282.63 398.33 247.96 401.04 271.03 375.02 237.22 366.89 267.2 349.28 237.56 331.1 271.52 323.61 248.95 297.16 283.56 300.53 270.26 268.4 302.14 282.3 299.42 247.63 325.44 270.7 333.57 236.89 351.19 266.87 369.37 237.23 376.86 271.19 403.31 248.62 399.94 283.23 432.07 269.94 418.17 301.81 452.84 299.1 429.77 325.11 463.57 333.25" style="fill:#92E3A9"></polygon><polygon points="437.75 337.08 414.61 350.68 437.49 364.71 411.28 370.49 428.7 390.91 401.99 388.31 412.25 413.11 387.65 402.38 389.74 429.13 369.66 411.33 363.38 437.42 349.79 414.28 335.75 437.16 329.97 410.95 309.56 428.37 312.16 401.66 287.36 411.92 298.09 387.32 271.33 389.41 289.14 369.33 263.05 363.05 286.19 349.46 263.31 335.43 289.52 329.65 272.1 309.23 298.81 311.83 288.55 287.03 313.15 297.76 311.06 271.01 331.14 288.81 337.41 262.72 351.01 285.86 365.04 262.98 370.82 289.19 391.24 271.77 388.63 298.48 413.43 288.22 402.7 312.82 429.46 310.73 411.65 330.81 437.75 337.08" style="fill:#fff;opacity:0.5"></polygon></g><g id="freepik--car-1--inject-53"><polygon points="338.41 396.42 350.38 404.39 347.19 411.77 363.88 416.05 379.65 405.31 355.09 394.43 338.41 396.42" style="fill:#263238"></polygon><path d="M363.88,416.55l-.12,0-16.69-4.28a.51.51,0,0,1-.33-.26.51.51,0,0,1,0-.42l3-7-11.63-7.75a.49.49,0,0,1-.2-.53.5.5,0,0,1,.42-.38l16.68-2a.39.39,0,0,1,.26,0l24.56,10.88a.5.5,0,0,1,.3.41.52.52,0,0,1-.22.46l-15.77,10.73A.47.47,0,0,1,363.88,416.55Zm-16-5.12,15.91,4.08,14.83-10.1L355,395l-15.19,1.8L350.66,404a.5.5,0,0,1,.18.61Z" style="fill:#263238"></path><path d="M43.58,379.24,213,390.88a17.36,17.36,0,0,0,4.07-.21l28.12-5a16.82,16.82,0,0,0,12.69-22.84l-.93-2.3a16.81,16.81,0,0,0-14.45-10.5L51.12,336.93c-6.32-.44-6.55,3.11-9.8,8.55l-5.24,8.75a16.84,16.84,0,0,0,2.47,20.45h0C41.43,377.6,39.49,379,43.58,379.24Z" style="fill:#263238"></path><path d="M214.11,391.42c-.39,0-.78,0-1.18,0L43.54,379.74c-2.67-.18-3.08-.86-3.63-2.13A7.57,7.57,0,0,0,38.2,375a17.31,17.31,0,0,1-2.54-21l5.23-8.76c.64-1.07,1.17-2.08,1.64-3,1.94-3.72,3.23-6.18,8.62-5.81l191.36,13.14a17.41,17.41,0,0,1,14.88,10.82l.92,2.29a17.33,17.33,0,0,1-13.06,23.52l-28.13,5A17.82,17.82,0,0,1,214.11,391.42Zm-164-54c-3.94,0-5,2-6.72,5.32-.47.9-1,1.93-1.66,3l-5.24,8.76a16.33,16.33,0,0,0,2.4,19.84,8.23,8.23,0,0,1,1.91,2.88c.44,1,.6,1.38,2.79,1.53h0L213,390.38a16.33,16.33,0,0,0,3.95-.21l28.12-4.95a16.31,16.31,0,0,0,12.31-22.16l-.92-2.3a16.42,16.42,0,0,0-14-10.19L51.08,337.42Z" style="fill:#263238"></path><path d="M242.14,357.37l-10.2-.7-.13,2a27.08,27.08,0,0,0-3.44,50l-.14,2,10.2.7a27.08,27.08,0,1,0,3.71-54Z" style="fill:#263238"></path><path d="M240.32,412c-.64,0-1.28,0-1.93-.06l-10.19-.7a.49.49,0,0,1-.34-.17.56.56,0,0,1-.13-.37l.12-1.66a27.58,27.58,0,0,1,3.48-50.7l.12-1.66a.49.49,0,0,1,.53-.47l10.19.7h0A27.58,27.58,0,0,1,240.32,412Zm-11.55-1.73,9.69.67a26.58,26.58,0,1,0,3.64-53l-9.69-.67-.1,1.5a.5.5,0,0,1-.35.44,26.58,26.58,0,0,0-3.37,49.11.51.51,0,0,1,.28.49Z" style="fill:#263238"></path><circle cx="230.09" cy="383.68" r="27.08" style="fill:#878787"></circle><path d="M230.11,411.26c-.64,0-1.27,0-1.91-.06a27.65,27.65,0,1,1,1.91.06Zm0-54.15a26.54,26.54,0,1,0,1.84.06C231.29,357.13,230.68,357.11,230.07,357.11Z" style="fill:#263238"></path><circle cx="230.09" cy="383.68" r="19.72" transform="translate(-92.8 74.01) rotate(-15.25)" style="fill:#fff"></circle><path d="M230.12,403.9c-.47,0-.94,0-1.42,0a20.15,20.15,0,1,1,1.42,0Zm-.06-39.44A19.22,19.22,0,1,0,249.26,385h0a19.22,19.22,0,0,0-17.85-20.49C231,364.48,230.51,364.46,230.06,364.46Z" style="fill:#263238"></path><path d="M320.79,362.77l-10.19-.7a27.08,27.08,0,0,0-3.72,54l10.2.7a27.08,27.08,0,1,0,3.71-54Z" style="fill:#263238"></path><path d="M319,417.37c-.63,0-1.27,0-1.91-.07l-10.19-.7a27.57,27.57,0,1,1,3.78-55l10.19.7h0A27.58,27.58,0,0,1,319,417.37Zm-10.23-54.86a26.58,26.58,0,0,0-1.8,53.09l10.19.7a26.58,26.58,0,0,0,3.65-53l-10.2-.7C309.94,362.53,309.33,362.51,308.72,362.51Z" style="fill:#263238"></path><path d="M71.13,345.62l-13.64-.93-.79,11.5a41.49,41.49,0,0,0-2.14,31.09l-.79,11.51,13.64.94c9.21.63,17.5-11,18.53-25.91S80.33,346.26,71.13,345.62Z" style="fill:#263238"></path><path d="M68.12,400.25l-.74,0-13.65-.94a.5.5,0,0,1-.46-.53l.78-11.41a42.1,42.1,0,0,1,2.15-31.3l.79-11.4a.51.51,0,0,1,.17-.34.44.44,0,0,1,.36-.12l13.64.93c9.47.66,16.32,13.54,15.28,28.73C85.42,388.65,77.29,400.25,68.12,400.25ZM54.3,398.33l13.14.9c8.9.59,17-10.8,18-25.44S80,346.73,71.09,346.12L58,345.22l-.76,11a.45.45,0,0,1,0,.19A41.05,41.05,0,0,0,55,387.12a.64.64,0,0,1,0,.2Z" style="fill:#263238"></path><ellipse cx="55.63" cy="371.74" rx="27.12" ry="16.71" transform="matrix(0.07, -1, 1, 0.07, -319.05, 401.76)" style="fill:#878787"></ellipse><path d="M54.5,399.32c-.26,0-.51,0-.77,0-9.46-.65-16.32-13.54-15.27-28.73.5-7.32,2.73-14.08,6.29-19.05s8.13-7.64,12.77-7.32,8.77,3.51,11.65,9,4.13,12.41,3.63,19.73S70.06,387,66.51,392C63.1,396.73,58.86,399.32,54.5,399.32Zm2.26-54.16c-4,0-8,2.44-11.2,6.93-3.45,4.82-5.61,11.4-6.1,18.54-1,14.64,5.43,27.05,14.34,27.66,4.27.29,8.5-2.16,11.9-6.9s5.61-11.41,6.1-18.54-.76-14-3.51-19.2-6.56-8.17-10.84-8.46Z" style="fill:#263238"></path><ellipse cx="55.63" cy="371.74" rx="19.21" ry="11.84" transform="translate(-319.05 401.76) rotate(-86.07)" style="fill:#fff"></ellipse><path d="M54.81,391.42l-.53,0c-6.79-.47-11.7-9.67-11-20.51a26.77,26.77,0,0,1,4.48-13.57c2.59-3.61,5.85-5.48,9.18-5.24,6.79.46,11.7,9.66,11,20.5l-.5,0,.5,0C67.21,383.14,61.38,391.42,54.81,391.42Zm1.62-38.36c-2.81,0-5.57,1.7-7.81,4.85a25.6,25.6,0,0,0-4.3,13c-.71,10.29,3.79,19,10,19.44s11.88-7.59,12.59-17.89h0c.7-10.29-3.79-19-10-19.43A3.85,3.85,0,0,0,56.43,353.06Z" style="fill:#263238"></path><path d="M297.31,335.46l-30.64-28.87a49.5,49.5,0,0,0-30.51-13.33l-86-5.91L203.42,329Z" style="fill:#fff"></path><path d="M297.31,336h0l-93.89-6.45a.49.49,0,0,1-.28-.11l-53.29-41.66a.5.5,0,0,1,.34-.89l86,5.91A50,50,0,0,1,267,306.23l30.65,28.87a.49.49,0,0,1,.11.56A.51.51,0,0,1,297.31,336Zm-93.7-7.44L296,334.87,266.32,307a49,49,0,0,0-30.2-13.2l-84.4-5.8Z" style="fill:#263238"></path><path d="M269,310.13a49.46,49.46,0,0,0-30.51-13.34l-70.76-4.86a49.54,49.54,0,0,1,18,14.38L203.42,329l92.41,6.35Z" style="fill:#263238"></path><path d="M295.83,335.86h0l-92.41-6.35a.52.52,0,0,1-.36-.19l-17.67-22.7a49.13,49.13,0,0,0-17.81-14.24.5.5,0,0,1,.25-.95l70.77,4.86a50.13,50.13,0,0,1,30.82,13.47L296.18,335a.49.49,0,0,1,.11.56A.51.51,0,0,1,295.83,335.86Zm-92.15-7.33,90.79,6.23L268.7,310.49a49.08,49.08,0,0,0-30.2-13.2l-68.28-4.69A50.2,50.2,0,0,1,186.15,306Z" style="fill:#263238"></path><polygon points="203.42 329.01 201.11 328.87 205.8 332.54 217.66 333.36 203.42 329.01" style="fill:#fff"></polygon><path d="M217.66,333.86h0L205.77,333a.48.48,0,0,1-.28-.1l-4.69-3.67a.5.5,0,0,1-.16-.57.47.47,0,0,1,.5-.32l2.31.13.12,0,14.24,4.35a.5.5,0,0,1-.15,1ZM206,332.06l7.35.5-10-3.05-.65,0Z" style="fill:#263238"></path><polygon points="218.08 323.98 201.11 328.87 222 341.44 290.48 365.66 380.78 383.48 374.17 367.03 218.08 323.98" style="fill:#263238"></polygon><path d="M380.78,384h-.1l-90.29-17.81-68.56-24.24-.09,0L200.85,329.3a.5.5,0,0,1-.24-.49.52.52,0,0,1,.36-.42l17-4.89a.42.42,0,0,1,.27,0L374.3,366.55a.51.51,0,0,1,.34.3l6.6,16.44a.49.49,0,0,1-.46.68ZM222.21,341l68.44,24.2L380,382.81l-6.17-15.36L218.09,324.5,202.35,329Z" style="fill:#263238"></path><polygon points="380.86 402.7 278.58 395.67 277.59 382.07 269.33 351.04 301.27 350.84 348.55 369.16 377.31 373.53 384.07 389.34 380.86 402.7" style="fill:#e5e5e5"></polygon><path d="M380.86,403.2h0l-102.27-7a.5.5,0,0,1-.47-.46l-1-13.6-8.24-30.94a.53.53,0,0,1,.08-.44.51.51,0,0,1,.4-.19l31.93-.2a.43.43,0,0,1,.19,0l47.23,18.29L377.39,373a.51.51,0,0,1,.38.3l6.76,15.82a.55.55,0,0,1,0,.31l-3.22,13.36A.49.49,0,0,1,380.86,403.2Zm-101.81-8,101.42,7,3.08-12.78L377,374l-28.48-4.33a.2.2,0,0,1-.11,0l-47.2-18.28-31.19.19,8.09,30.41Z" style="fill:#263238"></path><path d="M285.09,379l2.72,10.23a5.24,5.24,0,0,0,4.71,3.88l49.5,3.4,34.47,11.62a3,3,0,0,0,3.16-2.84l-.39-5.21c.07-1.6-1.74-6.62-3.34-6.73L346,379.81l-6.53-.45-51.77-3.56A2.57,2.57,0,0,0,285.09,379Z" style="fill:#263238"></path><path d="M376.7,408.66h-.24a.31.31,0,0,1-.13,0L341.92,397l-49.44-3.4a5.74,5.74,0,0,1-5.15-4.25l-2.72-10.23h0a3.07,3.07,0,0,1,3.17-3.85l58.29,4a.58.58,0,0,1,.18,0l29.81,13.54c2.05.31,3.76,5.69,3.7,7.23l.39,5.16a3.47,3.47,0,0,1-3.45,3.38Zm-.11-1a2.57,2.57,0,0,0,1.75-.63,2.5,2.5,0,0,0,.81-1.74l-.38-5.15c.05-1.63-1.74-6.19-2.88-6.27a.47.47,0,0,1-.17,0l-29.8-13.53-58.21-4a2.08,2.08,0,0,0-2.14,2.59l2.72,10.23a4.76,4.76,0,0,0,4.26,3.51l49.51,3.4.12,0Z" style="fill:#263238"></path><polygon points="378.17 375.86 374.97 374.94 359.55 373.15 362.53 374.78 378.17 375.86" style="fill:#fff"></polygon><path d="M378.17,376.36h0l-15.64-1.08a.37.37,0,0,1-.21-.06l-3-1.63a.5.5,0,0,1,.3-.94L375,374.44l3.28.94a.49.49,0,0,1,.35.57A.49.49,0,0,1,378.17,376.36Zm-15.49-2.07,6,.41-6.64-.76Z" style="fill:#263238"></path><polygon points="306.86 370.96 302.39 354.15 277.8 355.32 281.34 369.21 306.86 370.96" style="fill:#fff"></polygon><path d="M306.86,371.46h0l-25.51-1.75a.5.5,0,0,1-.45-.38l-3.55-13.88a.52.52,0,0,1,.09-.42.49.49,0,0,1,.37-.21l24.59-1.17a.49.49,0,0,1,.51.37l4.47,16.81a.52.52,0,0,1-.1.45A.49.49,0,0,1,306.86,371.46Zm-25.12-2.73,24.45,1.68L302,354.67l-23.58,1.12Z" style="fill:#263238"></path><polygon points="356.12 374.34 353.14 372.71 312.53 362.53 313.26 371.4 356.12 374.34" style="fill:#263238"></polygon><path d="M356.12,374.84h0l-42.86-2.94a.49.49,0,0,1-.46-.46l-.74-8.87a.51.51,0,0,1,.18-.42.48.48,0,0,1,.44-.11l40.61,10.18.12,0,3,1.64a.48.48,0,0,1,.24.57A.49.49,0,0,1,356.12,374.84Zm-42.39-3.91,40.16,2.76-.94-.51-39.86-10Z" style="fill:#263238"></path><path d="M50,320l31-24.5a49.42,49.42,0,0,1,34-10.53l35,2.41a49.44,49.44,0,0,1,35.63,19L203.42,329Z" style="fill:#fff"></path><path d="M203.42,329.51h0L50,320.47a.49.49,0,0,1-.45-.35.51.51,0,0,1,.16-.54l31-24.5a49.84,49.84,0,0,1,34.38-10.64l35,2.41a50,50,0,0,1,36,19.15l17.67,22.7a.5.5,0,0,1-.4.81Zm-152-10,151,8.9-17-21.83a49,49,0,0,0-35.27-18.77l-35-2.41a48.85,48.85,0,0,0-33.69,10.43Z" style="fill:#263238"></path><path d="M66.27,321.09l26.59-22.52A40.67,40.67,0,0,1,122,288.8l29.91,2.06A41,41,0,0,1,182.25,308l15,20.68Z" style="fill:#263238"></path><path d="M197.25,329.21h0l-131-7.62a.51.51,0,0,1-.45-.34.51.51,0,0,1,.15-.54l26.6-22.52A41.11,41.11,0,0,1,122,288.3l29.92,2.06a41.59,41.59,0,0,1,30.73,17.39l15,20.67a.49.49,0,0,1-.4.79Zm-129.7-8.55,128.67,7.49-14.37-19.82a40.61,40.61,0,0,0-30-17l-29.92-2.06A40.11,40.11,0,0,0,93.18,299Z" style="fill:#263238"></path><path d="M135.2,289.71a77.57,77.57,0,0,0-12.93,34.64l9.68.56c1-9.19,4.18-25.56,14-34.46Z" style="fill:#878787"></path><path d="M132,325.41h0l-9.68-.56a.5.5,0,0,1-.36-.18.53.53,0,0,1-.11-.38,78,78,0,0,1,13-34.87.5.5,0,0,1,.45-.21L146,290a.5.5,0,0,1,.44.33.52.52,0,0,1-.14.54c-9.71,8.82-12.82,25.18-13.81,34.15A.5.5,0,0,1,132,325.41Zm-9.12-1.53,8.68.51c1-8.94,4.11-24.49,13.24-33.52l-9.3-.64A77,77,0,0,0,122.83,323.88Z" style="fill:#263238"></path><path d="M100.3,293.52a79.06,79.06,0,0,0-9.27,29l2.19.13c1-8.38,3.49-21.51,10.11-30.61C102.31,292.49,101.3,293,100.3,293.52Z" style="fill:#878787"></path><path d="M93.22,323.16h0L91,323a.5.5,0,0,1-.47-.56,79.85,79.85,0,0,1,9.34-29.2.48.48,0,0,1,.2-.2c1-.54,2.05-1,3.06-1.48a.5.5,0,0,1,.61.75c-6.41,8.82-9,21.38-10,30.37A.51.51,0,0,1,93.22,323.16Zm-1.63-1.1,1.19.07c1-8.57,3.43-20.16,9.11-28.86-.41.2-.81.4-1.22.62A79,79,0,0,0,91.59,322.06Z" style="fill:#263238"></path><polygon points="182.12 327.83 197.25 328.71 185.39 312.36 182.12 327.83" style="fill:#878787"></polygon><path d="M197.25,329.21h0l-15.13-.88a.54.54,0,0,1-.37-.19.51.51,0,0,1-.09-.41l3.27-15.47a.49.49,0,0,1,.38-.39.51.51,0,0,1,.51.2l11.86,16.35a.49.49,0,0,1-.4.79Zm-14.52-1.84,13.49.78-10.58-14.58Z" style="fill:#263238"></path><polygon points="182.8 317.92 190.35 325.52 190.16 328.31 179.1 327.55 182.8 317.92" style="fill:#263238"></polygon><path d="M190.16,328.81h0l-11.06-.76a.49.49,0,0,1-.39-.23.51.51,0,0,1,0-.45l3.69-9.63a.51.51,0,0,1,.83-.17l7.55,7.59a.52.52,0,0,1,.14.39l-.19,2.8a.51.51,0,0,1-.17.34A.5.5,0,0,1,190.16,328.81Zm-10.35-1.71,9.89.68.14-2.07L183,318.82Z" style="fill:#263238"></path><rect x="161.88" y="314.18" width="20.71" height="12.96" rx="3.39" transform="translate(22.38 -11.05) rotate(3.93)" style="fill:#fff"></rect><path d="M179,328.11h-.27l-13.91-1a3.91,3.91,0,0,1-2.66-1.33,3.87,3.87,0,0,1-.95-2.82l.43-6.18a3.9,3.9,0,0,1,4.14-3.61l13.91,1a3.9,3.9,0,0,1,3.61,4.14l-.43,6.18A3.89,3.89,0,0,1,179,328.11Zm-.2-1a2.87,2.87,0,0,0,3.07-2.68l.43-6.18a2.89,2.89,0,0,0-2.68-3.07l-13.91-1a2.87,2.87,0,0,0-3.07,2.68l-.43,6.18a2.88,2.88,0,0,0,2.68,3.08Z" style="fill:#263238"></path><path d="M199.3,375.25c.52-7.57,3.36-24.91,26.6-23.32,17.59,1.21,21.31,26.61,21.31,26.61s.61,11,3.37,15.6c.7,1.19,1.23,2.06,1.62,2.72l4,.27,22.4-1.46-1-13.6-8.26-31-65.91-22L50,320,37.8,323.41a30.1,30.1,0,0,0-6.17,1.73c-3.79,1.52-8.48,3.94-8.88,6.19l-5.73,32c-.86,4.84,10.93,10.28,15.43,12.26l4.78,3.2a33.37,33.37,0,0,1-1.87-12.43c.68-9.85,5.62-27.15,22-26,8.43.58,13.51,2.65,16.58,5.83l0,0,.24.29a14,14,0,0,1,2.48,3.87,39.87,39.87,0,0,1,4.49,15.11c1.2,12.37,5.22,18.45,9.2,20.09l.63.27,113.52,7.8C201,387.88,198.88,381.4,199.3,375.25Z" style="fill:#fff"></path><path d="M256.21,397.63l-4-.27a.49.49,0,0,1-.39-.24l-1.62-2.73c-2.79-4.68-3.41-15.36-3.44-15.82,0-.2-3.86-25-20.85-26.14-9.84-.68-17,2-21.38,8-2.68,3.71-4.26,8.7-4.68,14.84h0c-.49,7.12,2.53,13.74,5.14,18a.49.49,0,0,1-.46.75L91,386.29l-.16,0-.62-.27c-2.35-1-8-4.9-9.51-20.5a39.54,39.54,0,0,0-4.43-14.92,13.5,13.5,0,0,0-2.41-3.78l-.14-.16-.11-.08c-3.18-3.29-8.5-5.15-16.25-5.68-19.08-1.32-21.28,22.8-21.47,25.56a32.68,32.68,0,0,0,1.84,12.23.5.5,0,0,1-.17.56.51.51,0,0,1-.58,0L32.18,376c-11-4.83-16.3-9.14-15.65-12.77l5.72-32c.49-2.7,6-5.27,9.19-6.56a30.73,30.73,0,0,1,6.28-1.76l12.19-3.43.16,0,153.38,9a.28.28,0,0,1,.13,0l65.91,22a.51.51,0,0,1,.32.35l8.26,31,1,13.7a.48.48,0,0,1-.12.36.51.51,0,0,1-.35.17Zm-3.72-1.25,3.72.26,21.84-1.43-1-13.1-8.17-30.68-65.59-21.92-153.23-9-12.16,3.41a30.27,30.27,0,0,0-6.13,1.71c-5.08,2-8.28,4.22-8.57,5.82l-5.72,32c-.32,1.76,1.23,5.61,15.13,11.73l3.68,2.45a32.64,32.64,0,0,1-1.47-11.26c.89-12.88,7.32-27.53,22.54-26.49,7.92.54,13.41,2.46,16.78,5.86a.36.36,0,0,1,.16.11l.25.31a14.11,14.11,0,0,1,2.54,4,40.5,40.5,0,0,1,4.54,15.26c1,10.45,4.34,17.8,8.9,19.68l.55.23L203.6,393c-2.56-4.42-5.28-10.86-4.8-17.8.44-6.33,2.08-11.49,4.87-15.36,4.56-6.29,12.05-9.12,22.26-8.42,17.79,1.22,21.74,26.77,21.78,27s.64,10.94,3.3,15.41ZM199.3,375.25h0Z" style="fill:#263238"></path><path d="M119.73,372.82c1.15,2.67,2,4.4,2,4.4" style="fill:#fff"></path><path d="M121.78,377.72a.51.51,0,0,1-.45-.27s-.92-1.78-2.06-4.43a.5.5,0,0,1,.26-.65.49.49,0,0,1,.66.26c1.12,2.61,2,4.34,2,4.35a.51.51,0,0,1-.21.68A.46.46,0,0,1,121.78,377.72Z" style="fill:#263238"></path><path d="M121.78,329S115,344.87,115,354.51c0,4.35,1.38,9.38,2.9,13.6" style="fill:#fff"></path><path d="M117.87,368.61a.5.5,0,0,1-.48-.33c-1.94-5.4-2.92-10-2.92-13.77,0-9.63,6.57-25.08,6.85-25.73a.5.5,0,0,1,.92.39c-.07.16-6.77,15.91-6.77,25.34,0,3.62,1,8.14,2.87,13.44a.5.5,0,0,1-.31.63A.45.45,0,0,1,117.87,368.61Z" style="fill:#263238"></path><polygon points="281.34 369.21 290.53 369.84 286.96 354.89 277.8 355.32 281.34 369.21" style="fill:#949494"></polygon><path d="M290.53,370.34h0l-9.18-.63a.5.5,0,0,1-.45-.38l-3.55-13.88a.52.52,0,0,1,.09-.42.49.49,0,0,1,.37-.21l9.17-.43a.48.48,0,0,1,.51.38l3.56,15a.49.49,0,0,1-.1.44A.53.53,0,0,1,290.53,370.34Zm-8.79-1.61,8.14.56-3.31-13.88-8.14.38Z" style="fill:#263238"></path><polygon points="373.31 375.52 378.17 375.86 374.97 374.94 370 374.36 373.31 375.52" style="fill:#fff"></polygon><path d="M378.17,376.36h0l-4.87-.34-.13,0-3.31-1.17a.5.5,0,0,1-.32-.58.51.51,0,0,1,.55-.39l5,.58,3.28.94a.49.49,0,0,1,.35.57A.49.49,0,0,1,378.17,376.36Z" style="fill:#263238"></path><path d="M86.6,335.24l-6.48-.45a2.22,2.22,0,0,1-2.07-2.38h0a2.24,2.24,0,0,1,2.38-2.08l6.48.45A2.22,2.22,0,0,1,89,333.16h0A2.24,2.24,0,0,1,86.6,335.24Z" style="fill:#fff"></path><path d="M86.76,335.74h-.19l-6.48-.44a2.73,2.73,0,0,1,.37-5.45l6.48.44a2.73,2.73,0,0,1-.18,5.46Zm-6.49-4.91a1.74,1.74,0,0,0-1.73,1.61A1.71,1.71,0,0,0,79,333.7a1.69,1.69,0,0,0,1.18.59l6.48.45h0a1.72,1.72,0,0,0,1.26-.43,1.69,1.69,0,0,0,.59-1.18,1.76,1.76,0,0,0-.42-1.26,1.71,1.71,0,0,0-1.19-.59l-6.48-.45Z" style="fill:#263238"></path><path d="M138.24,338.78l-6.48-.44a2.23,2.23,0,0,1-2.07-2.38h0a2.24,2.24,0,0,1,2.38-2.08l6.48.45a2.22,2.22,0,0,1,2.07,2.38h0A2.22,2.22,0,0,1,138.24,338.78Z" style="fill:#fff"></path><path d="M138.4,339.29h-.19l-6.48-.44a2.74,2.74,0,0,1,.37-5.46l6.48.45a2.74,2.74,0,0,1,2.54,2.91,2.73,2.73,0,0,1-2.72,2.55Zm-6.49-4.91a1.72,1.72,0,0,0-1.72,1.61,1.67,1.67,0,0,0,.42,1.26,1.69,1.69,0,0,0,1.19.59l6.48.44h0a1.66,1.66,0,0,0,1.25-.42,1.73,1.73,0,0,0,.17-2.44,1.71,1.71,0,0,0-1.19-.59l-6.48-.45Z" style="fill:#263238"></path><path d="M194.26,388.71a.5.5,0,0,1-.46-.31,25.2,25.2,0,0,1-1.45-5.23.5.5,0,0,1,.4-.58.49.49,0,0,1,.58.4,24.71,24.71,0,0,0,1.39,5,.49.49,0,0,1-.27.65A.43.43,0,0,1,194.26,388.71Z" style="fill:#263238"></path><path d="M192.4,380.47a.51.51,0,0,1-.5-.45c-1.47-13.8,1.81-34.1,3-38.66a18.3,18.3,0,0,1,5.68-9.25.51.51,0,0,1,.7.09.51.51,0,0,1-.09.71,17.48,17.48,0,0,0-5.32,8.71c-1.23,4.52-4.48,24.62-3,38.3a.49.49,0,0,1-.44.54Z" style="fill:#263238"></path><path d="M247.9,372.05a.5.5,0,0,1-.5-.5c-.09-6.21-1.62-21.06-13.78-24.91-8.83-2.8-16.22.28-20.86,3.36a.5.5,0,1,1-.55-.83c4.82-3.2,12.5-6.4,21.71-3.49,12.79,4.05,14.39,19.43,14.48,25.86a.51.51,0,0,1-.49.51Z" style="fill:#263238"></path><path d="M206.75,355a.5.5,0,0,1-.38-.82,25.78,25.78,0,0,1,3.24-3.08.5.5,0,0,1,.7.07.5.5,0,0,1-.07.71,25.78,25.78,0,0,0-3.11,2.94A.49.49,0,0,1,206.75,355Z" style="fill:#263238"></path><path d="M22.75,331.33l-2.16,12.06,5.07.35.85-12.31-3.72-.26C22.78,331.23,22.76,331.28,22.75,331.33Z" style="fill:#92E3A9"></path><path d="M25.66,344.24h0l-5.07-.35a.48.48,0,0,1-.36-.19.46.46,0,0,1-.1-.39l2.15-12.06a.78.78,0,0,1,.05-.18.59.59,0,0,1,.53-.4l3.71.26a.51.51,0,0,1,.47.53l-.85,12.32A.5.5,0,0,1,25.66,344.24Zm-4.48-1.31,4,.28L26,331.89l-2.78-.19Zm1.57-11.6h0Zm0,0h0Z" style="fill:#263238"></path><path d="M266.73,325.93l13.5-1.22,13.93-11.3,16,.16s4.68,13.35,17.31,21.31c8.47,5.33,26.57,6.2,26.67,6.56.24.92,1.56,12.07,1.56,12.07S372.75,366,374.17,367s3.14,6.5,3.14,6.5L324,358.66l-22.68-7.82-28.79-.36L232.64,335.2l-21.87-6.15S256.55,321.47,266.73,325.93Z" style="fill:#fff"></path><path d="M377.31,374l-.13,0-53.37-14.86-22.63-7.81L272.47,351a.47.47,0,0,1-.17,0l-39.83-15.28-21.84-6.13a.52.52,0,0,1-.36-.51.49.49,0,0,1,.42-.47c1.86-.31,45.7-7.5,56.12-3.14L280,324.23,293.85,313a.42.42,0,0,1,.32-.11l16,.16a.51.51,0,0,1,.47.34c0,.13,4.77,13.28,17.1,21,6.49,4.09,18.78,5.52,24,6.13,2.75.32,2.75.32,2.85.74.23.87,1.33,10.07,1.55,11.91,1.81,1.33,17,12.47,18.32,13.39,1.52,1.06,3.15,6.18,3.33,6.76a.49.49,0,0,1-.12.49A.48.48,0,0,1,377.31,374ZM272.57,350l28.7.36a.41.41,0,0,1,.16,0l22.68,7.82,52.44,14.6c-.71-2.06-1.85-4.78-2.66-5.35-1.42-1-17.82-13-18.51-13.53a.5.5,0,0,1-.21-.34c-.48-4.12-1.24-10.28-1.49-11.73-.39-.07-1.21-.16-2.06-.26-5.32-.62-17.76-2.08-24.44-6.28-11.53-7.26-16.56-19.1-17.39-21.23l-15.45-.16L280.55,325.1a.54.54,0,0,1-.27.11l-13.5,1.22a.53.53,0,0,1-.25,0c-8.65-3.79-44.11,1.36-53.43,2.8l19.68,5.53Z" style="fill:#263238"></path><path d="M324,359.16a.5.5,0,0,1-.24-.06l-23.9-13L272.57,351a.49.49,0,0,1-.58-.4.5.5,0,0,1,.4-.58l27.42-4.94a.48.48,0,0,1,.33.05l24.05,13.13a.49.49,0,0,1,.2.67A.49.49,0,0,1,324,359.16Z" style="fill:#263238"></path><path d="M349.73,355.83l-.13,0L324.52,349a.49.49,0,0,1-.37-.52.51.51,0,0,1,.45-.46L339,346.67l11.9-5.18a.5.5,0,1,1,.4.92l-12,5.21a.42.42,0,0,1-.15,0l-11.74,1.08,22.41,6.1a.51.51,0,0,1,.35.62A.5.5,0,0,1,349.73,355.83Z" style="fill:#263238"></path><line x1="282.85" y1="327.97" x2="318.7" y2="347.15" style="fill:#fff"></line><path d="M318.7,347.65a.43.43,0,0,1-.24-.06l-35.84-19.18a.5.5,0,0,1-.21-.68.5.5,0,0,1,.68-.2l35.85,19.18a.51.51,0,0,1,.2.68A.49.49,0,0,1,318.7,347.65Z" style="fill:#263238"></path><path d="M277.87,321.69a.49.49,0,0,1-.23-.06l-13.36-7.17a.22.22,0,0,1-.09-.07l-5-4.3-5.15-1.67a.31.31,0,0,1-.1-.05l-4.24-2.49-4.66-1.18-5.25.75a.47.47,0,0,1-.06.15c-.1.2-.15.31-.66.13l0,.08-.51-.27a.36.36,0,0,1-.12-.08c-.88-.4-2.39-1.16-5.07-2.51-8-4-13.27-3.14-13.32-3.13a.49.49,0,0,1-.58-.4.5.5,0,0,1,.4-.58c.23,0,5.69-.95,13.95,3.22l5,2.52,6.19-.89a.67.67,0,0,1,.2,0l4.83,1.23.13.05,4.25,2.5,5.19,1.69a.61.61,0,0,1,.18.09l5,4.34,13.31,7.15a.5.5,0,0,1,.21.68A.52.52,0,0,1,277.87,321.69Z" style="fill:#fff"></path><path d="M271.83,318.59h0l-8.46-.58-5.79-1.3-5.28-.8-5.3-.36a.7.7,0,0,1-.19-.06l-8.11-4.09c-3.95-.22-13.66,2.14-13.76,2.16a.5.5,0,0,1-.6-.37.49.49,0,0,1,.37-.6c.41-.1,10.13-2.46,14.16-2.18a.45.45,0,0,1,.19,0l8.11,4.09,5.24.36,5.35.82,5.76,1.29,8.37.57a.5.5,0,0,1,0,1Z" style="fill:#fff"></path><path d="M218.08,324.48a.5.5,0,0,1-.49-.4.51.51,0,0,1,.4-.59l13.6-2.63,3.4-3,2.26-3.39a.51.51,0,0,1,.36-.22l6.49-.84a.5.5,0,0,1,.56.43.51.51,0,0,1-.43.56l-6.27.81-2.17,3.26a.28.28,0,0,1-.09.1l-3.56,3.1a.46.46,0,0,1-.23.12l-13.73,2.65Z" style="fill:#fff"></path><path d="M249.44,323.81h0l-6.41-.44a.5.5,0,0,1,.07-1l6.35.43,5.67-.88,3.09-.8a.36.36,0,0,1,.14,0l6.43.18,3.8.77,4.6-.69a.5.5,0,0,1,.57.42.51.51,0,0,1-.42.57l-4.68.7h-.18l-3.81-.78-6.26-.17-3.08.8-5.77.9Z" style="fill:#fff"></path><path d="M264.73,322.28a.48.48,0,0,1-.41-.22l-1.64-2.43a.54.54,0,0,1-.08-.35l.28-1.84,1.16-3.58a.51.51,0,0,1,.28-.31l4.22-1.74a.51.51,0,0,1,.66.28.5.5,0,0,1-.28.65l-4,1.65-1.07,3.28-.23,1.57,1.53,2.26a.51.51,0,0,1-.14.7A.46.46,0,0,1,264.73,322.28Z" style="fill:#fff"></path><path d="M259.45,310.14a.51.51,0,0,1-.41-.21l-3.73-5.37-4.12-2a.49.49,0,0,1-.22-.67.5.5,0,0,1,.67-.22l4.23,2.09a.58.58,0,0,1,.19.16l3.64,5.24,3.79-.27a.49.49,0,0,1,.54.46.5.5,0,0,1-.46.53l-4.09.3Z" style="fill:#fff"></path><path d="M258.31,322.1A.46.46,0,0,1,258,322l-2.19-2a.5.5,0,0,1-.12-.58l1.49-3.34.14-2a.49.49,0,0,1,.53-.47.52.52,0,0,1,.47.53l-.15,2.13a.33.33,0,0,1,0,.17l-1.38,3.09,1.91,1.71a.48.48,0,0,1,0,.7A.5.5,0,0,1,258.31,322.1Z" style="fill:#fff"></path><path d="M251.09,326a.48.48,0,0,1-.44-.28l-2.27-4.53-1.6-2.65a.56.56,0,0,1-.07-.23l-.2-3.21a.5.5,0,0,1,.07-.29l3.11-5.33a.42.42,0,0,1,.17-.18l8.59-5.07a.49.49,0,0,1,.68.17.5.5,0,0,1-.17.69l-8.48,5-3,5.1.18,2.94,1.56,2.58,2.28,4.57a.51.51,0,0,1-.22.67A.64.64,0,0,1,251.09,326Z" style="fill:#fff"></path><polygon points="362.53 374.78 384.07 389.34 378.17 375.86 362.53 374.78" style="fill:#fff"></polygon><path d="M384.07,389.84a.48.48,0,0,1-.28-.08L362.25,375.2a.5.5,0,0,1,.32-.91l15.64,1.07a.51.51,0,0,1,.42.3l5.9,13.48a.51.51,0,0,1-.14.59A.54.54,0,0,1,384.07,389.84Zm-19.72-14.43L382.92,388l-5.08-11.62Z" style="fill:#263238"></path><path d="M228.22,286h-.07l-70.81-10.11a.5.5,0,0,1-.42-.57.51.51,0,0,1,.57-.42L228.29,285a.5.5,0,0,1-.07,1Z" style="fill:#263238"></path><path d="M183,275.19H183l-38.44-6.07a.5.5,0,0,1,.16-1l38.44,6.06a.51.51,0,0,1,.41.58A.5.5,0,0,1,183,275.19Z" style="fill:#263238"></path><path d="M150.9,397.64h0L112,396.16a.5.5,0,1,1,0-1l38.88,1.48a.5.5,0,0,1,.49.52A.51.51,0,0,1,150.9,397.64Z" style="fill:#263238"></path><path d="M163,405.06h0l-38.88-1.48a.5.5,0,0,1-.48-.52.5.5,0,0,1,.52-.48l38.88,1.48a.5.5,0,0,1,0,1Z" style="fill:#263238"></path><polygon points="363.02 294.03 358.67 301.55 366.98 306.69 374.89 299.96 363.02 294.03" style="fill:#fff"></polygon><path d="M367,307.19a.5.5,0,0,1-.26-.08L358.41,302a.51.51,0,0,1-.17-.68l4.35-7.51a.5.5,0,0,1,.66-.2l11.87,5.94a.49.49,0,0,1,.27.38.48.48,0,0,1-.17.44l-7.91,6.73A.52.52,0,0,1,367,307.19Zm-7.63-5.81,7.59,4.69,7.05-6-10.77-5.38Z" style="fill:#263238"></path><polygon points="344.83 304.31 341.66 308.67 345.22 310.64 347.99 307.88 344.83 304.31" style="fill:#fff"></polygon><path d="M345.22,311.14a.53.53,0,0,1-.24-.06l-3.56-2a.47.47,0,0,1-.25-.33.48.48,0,0,1,.09-.4l3.16-4.35a.48.48,0,0,1,.38-.2.47.47,0,0,1,.4.16l3.17,3.56a.52.52,0,0,1,0,.69L345.58,311A.54.54,0,0,1,345.22,311.14Zm-2.82-2.64,2.74,1.52,2.17-2.16-2.44-2.75Z" style="fill:#263238"></path><polygon points="365.8 278.6 351.16 280.97 351.95 286.12 366.98 282.95 365.8 278.6" style="fill:#fff"></polygon><path d="M352,286.62a.52.52,0,0,1-.29-.09.55.55,0,0,1-.21-.34l-.79-5.14a.51.51,0,0,1,.42-.57l14.63-2.37a.5.5,0,0,1,.57.36l1.18,4.35a.48.48,0,0,1,0,.39.49.49,0,0,1-.33.23l-15,3.17Zm-.22-5.23.63,4.13,14-2.95-.93-3.4Z" style="fill:#263238"></path><polygon points="406.54 301.94 396.26 296.01 395.07 299.17 409.31 308.27 406.54 301.94" style="fill:#fff"></polygon><path d="M409.31,308.77a.47.47,0,0,1-.27-.08l-14.24-9.1a.49.49,0,0,1-.2-.59l1.19-3.17a.48.48,0,0,1,.3-.29.51.51,0,0,1,.42,0l10.28,5.94a.43.43,0,0,1,.21.23l2.77,6.33a.51.51,0,0,1-.13.58A.52.52,0,0,1,409.31,308.77ZM395.68,299l12.51,8-2-4.67-9.63-5.56Z" style="fill:#263238"></path><polygon points="331.77 283.74 323.86 290.86 330.98 295.61 338.5 281.76 331.77 283.74" style="fill:#fff"></polygon><path d="M331,296.11a.57.57,0,0,1-.28-.08l-7.12-4.75a.5.5,0,0,1-.22-.38.51.51,0,0,1,.17-.41l7.91-7.12a.45.45,0,0,1,.19-.11l6.73-2a.49.49,0,0,1,.53.16.52.52,0,0,1,.05.55l-7.52,13.85a.54.54,0,0,1-.32.25Zm-6.31-5.3,6.13,4.08,6.68-12.31L332,284.19Z" style="fill:#263238"></path></g><g id="freepik--car-2--inject-53"><path d="M650.34,349.72l-8.45.62-.11.19a13.46,13.46,0,0,0-2.2,0c-10.31.75-17.89,12.11-16.92,25.38s10.11,23.41,20.42,22.66a14.21,14.21,0,0,0,2.17-.34l.14.17,8.45-.61c10.31-.75,17.89-12.12,16.92-25.38S660.65,349,650.34,349.72Z" style="fill:#263238"></path><path d="M642,399.09c-10.11,0-18.9-10.12-19.85-23.16a28.29,28.29,0,0,1,4.32-17.7c3.28-4.93,7.92-7.85,13.06-8.22a16.16,16.16,0,0,1,2,0,.51.51,0,0,1,.34-.17l8.46-.61c10.55-.76,20,9.6,21,23.12s-6.81,25.15-17.38,25.92l-8.46.61a.49.49,0,0,1-.35-.11,16.94,16.94,0,0,1-2,.28C642.75,399.08,642.38,399.09,642,399.09ZM640.5,351c-.3,0-.6,0-.88,0-4.83.35-9.2,3.11-12.31,7.77a27.26,27.26,0,0,0-4.15,17.07c1,13,9.86,22.94,19.88,22.2a14.73,14.73,0,0,0,2.1-.32.48.48,0,0,1,.47.14l8.2-.6c10-.73,17.4-11.88,16.45-24.85s-9.87-22.94-19.88-22.2l-8.2.6a.51.51,0,0,1-.44.21C641.3,351,640.89,351,640.5,351Z" style="fill:#263238"></path><path d="M477.13,362.34l-8.46.62-.11.19a13.45,13.45,0,0,0-2.2,0c-10.31.75-17.88,12.11-16.91,25.38s10.1,23.41,20.41,22.66a14.34,14.34,0,0,0,2.18-.34l.13.17,8.46-.61c10.31-.76,17.88-12.12,16.92-25.39S487.44,361.59,477.13,362.34Z" style="fill:#263238"></path><path d="M468.78,411.71c-4.75,0-9.33-2.2-13-6.28a29.7,29.7,0,0,1-2.52-34.58c3.28-4.93,7.92-7.85,13.07-8.22a12.94,12.94,0,0,1,2,0,.47.47,0,0,1,.33-.17l8.46-.62h0c10.56-.76,20,9.61,21,23.13s-6.82,25.14-17.39,25.91l-8.45.62a.48.48,0,0,1-.36-.12,15.11,15.11,0,0,1-2,.29C469.53,411.7,469.15,411.71,468.78,411.71Zm-1.49-48.12c-.31,0-.6,0-.89,0-4.83.35-9.2,3.11-12.31,7.77a28.69,28.69,0,0,0,2.43,33.36c3.75,4.16,8.48,6.26,13.31,5.91a13.71,13.71,0,0,0,2.1-.33.49.49,0,0,1,.46.14l8.2-.59c10-.73,17.4-11.88,16.46-24.85s-9.88-22.93-19.89-22.2l-8.19.6a.47.47,0,0,1-.45.2C468.09,363.61,467.68,363.59,467.29,363.59Z" style="fill:#263238"></path><path d="M730.87,344.57l-4.06.29-5.49-25.22a6.32,6.32,0,0,0-6.63-4.95l-22.75,1.65-39.78-36.5a21.19,21.19,0,0,0-15.88-5.52l-97.9,7.13a15.73,15.73,0,0,0-11,5.64l-163,83.24,2.19,30,252.11-18.36L682,376.88l46.69-6.5,0-.21,3.86-.28a1.54,1.54,0,0,0,1.43-1.65l-1.63-22.43A1.35,1.35,0,0,0,730.87,344.57Z" style="fill:#949494"></path><path d="M366.63,400.8a.5.5,0,0,1-.33-.12.51.51,0,0,1-.17-.34l-2.18-30a.51.51,0,0,1,.27-.49l162.89-83.19A16.3,16.3,0,0,1,538.34,281l97.9-7.13a21.87,21.87,0,0,1,16.26,5.65l39.62,36.36,22.53-1.64a6.84,6.84,0,0,1,7.16,5.34l5.4,24.8,3.62-.26h0a1.86,1.86,0,0,1,2,1.71l1.64,22.42a2.05,2.05,0,0,1-1.89,2.19l-3.45.25a.53.53,0,0,1-.36.24l-46.69,6.49-63.27,5.06L366.66,400.8ZM365,370.62l2.12,29.15L618.7,381.44l63.24-5.06,46.27-6.44a.61.61,0,0,1,.07-.1.47.47,0,0,1,.34-.17l3.85-.28a1,1,0,0,0,1-1.12l-1.63-22.42a.84.84,0,0,0-.91-.78l-4,.29a.51.51,0,0,1-.53-.39l-5.49-25.22a5.84,5.84,0,0,0-6.11-4.57L692,316.84a.5.5,0,0,1-.37-.13l-39.79-36.5a20.8,20.8,0,0,0-15.51-5.39L538.41,282a15.28,15.28,0,0,0-10.6,5.46.51.51,0,0,1-.16.13Z" style="fill:#263238"></path><path d="M661,374.23l.31,4.3L682,376.88l46.69-6.5,0-.21,3.86-.28a1.55,1.55,0,0,0,1.31-1Z" style="fill:#263238"></path><path d="M661.34,379a.5.5,0,0,1-.33-.12.51.51,0,0,1-.17-.35l-.31-4.3a.48.48,0,0,1,.12-.36.49.49,0,0,1,.34-.17l72.79-5.31a.51.51,0,0,1,.5.69,2,2,0,0,1-1.73,1.28l-3.45.25a.53.53,0,0,1-.36.24l-46.69,6.49L661.38,379Zm.22-4.34.24,3.3,20.14-1.61,46.27-6.44a.61.61,0,0,1,.07-.1h0Z" style="fill:#263238"></path><path d="M682,376.88h0a1.54,1.54,0,0,0-.33-3.07l-23.72,1.73-95.19-95.87-24.36,1.78a15.73,15.73,0,0,0-11,5.64l-163,83.24,2.19,30,252.11-18.36Z" style="fill:#263238"></path><path d="M366.63,400.8a.5.5,0,0,1-.33-.12.51.51,0,0,1-.17-.34l-2.18-30a.51.51,0,0,1,.27-.49l162.89-83.19A16.3,16.3,0,0,1,538.34,281l24.37-1.78a.52.52,0,0,1,.39.15l95,95.7,23.5-1.71a2,2,0,0,1,.43,4.06h0l-63.24,5.05L366.66,400.8ZM365,370.62l2.12,29.15L618.7,381.44l63.22-5.06a1,1,0,0,0-.23-2.07L658,376a.52.52,0,0,1-.39-.15l-95-95.7L538.41,282a15.28,15.28,0,0,0-10.6,5.46.51.51,0,0,1-.16.13Zm317,6.26h0Z" style="fill:#263238"></path><polygon points="353.97 324.87 331.44 317.78 327.44 327.53 328.11 334.05 358.14 340.31 353.97 324.87" style="fill:#263238"></polygon><path d="M358.14,340.8H358l-30-6.25a.5.5,0,0,1-.4-.44l-.66-6.52a.5.5,0,0,1,0-.24l4-9.75a.5.5,0,0,1,.62-.28l22.52,7.09a.49.49,0,0,1,.33.34l4.17,15.43a.5.5,0,0,1-.12.48A.48.48,0,0,1,358.14,340.8Zm-29.57-7.17,28.87,6-3.88-14.38-21.83-6.87L328,327.61Z" style="fill:#263238"></path><path d="M448.23,342l-26.7-16.68-8.34-17.52-20.43.84s-26.7-.42-30,1.25-14.18,17.93-14.18,17.93l-10.43,9.6,14.18,7.09,14.6,5.84,1.25,13.76,14.18,1.25,18.77-5.84,10-8.34Z" style="fill:#949494"></path><path d="M382.33,365.83h0l-14.19-1.25a.49.49,0,0,1-.45-.46l-1.22-13.45-14.32-5.73-14.21-7.11a.49.49,0,0,1-.12-.81l10.38-9.55c.79-1.18,11-16.38,14.34-18.06s29.17-1.32,30.26-1.3l20.41-.84a.52.52,0,0,1,.47.29l8.28,17.38,26.57,16.61a.5.5,0,0,1-.14.91l-37,9.15-9.92,8.27a.56.56,0,0,1-.17.09l-18.77,5.84Zm-13.72-2.21,13.67,1.2L400.85,359l9.94-8.27a.49.49,0,0,1,.2-.11l36-8.89-25.69-16.06a.48.48,0,0,1-.19-.21l-8.2-17.21-20.1.82c-7.42-.12-27.18-.13-29.83,1.2s-11,13.27-14,17.76l-.08.09-9.89,9.1L352.52,344l14.56,5.82a.5.5,0,0,1,.32.42Z" style="fill:#263238"></path><path d="M381.5,362.49h-.11l-5.75-1.22a.5.5,0,0,1-.4-.48l-.08-5a.39.39,0,0,1,0-.21L380.94,342,364.8,314.7a.5.5,0,0,1,.86-.51l16.27,27.53a.51.51,0,0,1,0,.45l-5.8,13.66.07,4.53,5.37,1.14a.5.5,0,0,1,.38.6A.49.49,0,0,1,381.5,362.49Z" style="fill:#263238"></path><path d="M403.74,367.69l-8.45.62-5,8.54a29.41,29.41,0,0,0,2.32,31.76l6.14,7.74,8.45-.62c10.31-.75,17.89-12.11,16.92-25.38S414.05,366.94,403.74,367.69Z" style="fill:#263238"></path><path d="M398.79,416.85a.51.51,0,0,1-.4-.19l-6.13-7.74a29.89,29.89,0,0,1-2.36-32.32l5-8.55a.5.5,0,0,1,.4-.24l8.46-.62h0c10.56-.75,20,9.6,21,23.12a28.3,28.3,0,0,1-4.31,17.7c-3.29,4.93-7.93,7.85-13.07,8.22l-8.46.62Zm-3.2-48.06-4.82,8.31A28.91,28.91,0,0,0,393,408.3l6,7.53,8.2-.6c4.83-.35,9.2-3.11,12.3-7.77a27.26,27.26,0,0,0,4.15-17.07c-.94-13-9.87-22.94-19.88-22.2Z" style="fill:#263238"></path><ellipse cx="394.73" cy="392.49" rx="18.72" ry="24.08" transform="translate(-27.47 29.71) rotate(-4.17)" style="fill:#636363"></ellipse><path d="M395.41,417.05c-10.11,0-18.9-10.11-19.85-23.16a28.37,28.37,0,0,1,4.31-17.7c3.29-4.92,7.93-7.84,13.07-8.22s10.16,1.84,14.12,6.24a28.32,28.32,0,0,1,6.84,16.89h0c1,13.52-6.82,25.14-17.38,25.91C396.15,417,395.78,417.05,395.41,417.05Zm-1.35-48.12c-.35,0-.7,0-1,0-4.83.35-9.21,3.12-12.31,7.78a27.23,27.23,0,0,0-4.15,17.07c.94,13,9.86,22.93,19.88,22.2s17.4-11.88,16.46-24.85h0a27.3,27.3,0,0,0-6.58-16.29C402.84,371,398.52,368.93,394.06,368.93Z" style="fill:#263238"></path><ellipse cx="394.73" cy="392.49" rx="14.93" ry="19.21" transform="translate(-27.47 29.71) rotate(-4.17)" style="fill:#fff"></ellipse><path d="M395.27,412.19c-8.12,0-15.17-8.11-15.93-18.57-.79-10.85,5.47-20.17,14-20.79s16,7.7,16.82,18.54-5.47,20.17-14,20.79C395.86,412.18,395.57,412.19,395.27,412.19Zm-1.08-38.39c-.27,0-.55,0-.82,0-7.94.58-13.79,9.42-13,19.71s7.8,18.22,15.76,17.62,13.78-9.42,13-19.71C408.4,381.51,401.79,373.8,394.19,373.8Z" style="fill:#263238"></path><path d="M397.88,392.26c.16,2.24-1.12,4.16-2.86,4.28s-3.27-1.58-3.44-3.82,1.12-4.15,2.85-4.27S397.71,390,397.88,392.26Z" style="fill:#fff"></path><path d="M394.85,397.05c-1.93,0-3.59-1.87-3.77-4.29s1.31-4.67,3.32-4.81,3.79,1.77,4,4.28-1.3,4.66-3.31,4.81Zm-.23-8.11h-.15c-1.46.11-2.53,1.79-2.39,3.75s1.44,3.46,2.91,3.35,2.53-1.78,2.39-3.74h0C397.24,390.41,396,388.94,394.62,388.94Z" style="fill:#263238"></path><path d="M592.16,354l-8.45.62-5,8.54a29.39,29.39,0,0,0,2.31,31.76l6.14,7.74,8.45-.62c10.31-.75,17.89-12.11,16.92-25.38S602.47,353.21,592.16,354Z" style="fill:#263238"></path><path d="M587.21,403.12a.48.48,0,0,1-.39-.19l-6.14-7.74a29.94,29.94,0,0,1-2.36-32.32l4.95-8.54a.53.53,0,0,1,.4-.25l8.46-.62h0c10.56-.75,20,9.61,21,23.13a28.25,28.25,0,0,1-4.31,17.7c-3.28,4.92-7.93,7.84-13.07,8.21l-8.46.62ZM584,355.06l-4.82,8.32a28.89,28.89,0,0,0,2.27,31.19l6,7.53,8.2-.59c4.83-.36,9.2-3.12,12.31-7.78a27.29,27.29,0,0,0,4.14-17.07c-.94-13-9.87-22.93-19.88-22.2Z" style="fill:#263238"></path><path d="M601.82,377.41c1,13.26-6.61,24.63-16.92,25.38s-19.45-9.4-20.42-22.66,6.61-24.63,16.92-25.38S600.85,364.14,601.82,377.41Z" style="fill:#636363"></path><path d="M583.83,403.33c-10.11,0-18.9-10.12-19.85-23.17-1-13.52,6.82-25.14,17.39-25.91s20,9.6,21,23.12h0c1,13.52-6.81,25.15-17.38,25.92C584.57,403.31,584.2,403.33,583.83,403.33Zm-1.36-48.12c-.34,0-.69,0-1,0-10,.73-17.4,11.87-16.46,24.84s9.86,22.93,19.88,22.2,17.4-11.88,16.46-24.85h0C600.41,364.92,592.06,355.21,582.47,355.21Z" style="fill:#263238"></path><path d="M598,377.68c.78,10.59-5.27,19.65-13.49,20.25s-15.52-7.49-16.29-18.08,5.27-19.65,13.5-20.24S597.27,367.1,598,377.68Z" style="fill:#fff"></path><path d="M583.68,398.46a14.08,14.08,0,0,1-10.44-5,23.77,23.77,0,0,1-2-27.71c2.63-4,6.36-6.3,10.5-6.6s8.16,1.47,11.35,5a22.63,22.63,0,0,1,5.47,13.53h0a22.67,22.67,0,0,1-3.45,14.18c-2.64,3.95-6.37,6.3-10.51,6.6Zm-1.06-38.39c-.28,0-.55,0-.83,0-3.82.28-7.28,2.47-9.74,6.16A22.8,22.8,0,0,0,574,392.75c3,3.3,6.71,5,10.53,4.68s7.28-2.46,9.74-6.16a21.66,21.66,0,0,0,3.3-13.55h0a21.63,21.63,0,0,0-5.23-12.93A13.1,13.1,0,0,0,582.62,360.07Z" style="fill:#263238"></path><path d="M586.3,378.54c.16,2.23-1.12,4.15-2.85,4.28s-3.28-1.59-3.45-3.82,1.12-4.15,2.86-4.28S586.13,376.3,586.3,378.54Z" style="fill:#fff"></path><path d="M583.26,383.32a3.38,3.38,0,0,1-2.5-1.19,5.17,5.17,0,0,1-1.25-3.1c-.19-2.5,1.3-4.66,3.31-4.81a3.36,3.36,0,0,1,2.72,1.19,5.21,5.21,0,0,1,1.26,3.09c.18,2.51-1.31,4.67-3.32,4.82Zm-.22-8.11h-.15c-1.46.11-2.53,1.78-2.39,3.74a4.17,4.17,0,0,0,1,2.5,2.29,2.29,0,0,0,1.9.86c1.46-.11,2.53-1.79,2.39-3.74h0a4.2,4.2,0,0,0-1-2.5A2.41,2.41,0,0,0,583,375.21Z" style="fill:#263238"></path><path d="M652.16,279.84c-.33-.3-.68-.57-1-.85l-76.26,5.56,2.74,37.68,111.87-8.15Z" style="fill:#263238"></path><path d="M577.61,322.73a.5.5,0,0,1-.5-.46l-2.74-37.68a.5.5,0,0,1,.46-.54l76.27-5.55a.5.5,0,0,1,.35.1l.22.19c.28.22.56.44.83.68h0l37.32,34.25a.49.49,0,0,1-.3.86l-111.87,8.15ZM575.4,285l2.67,36.69,110.22-8-36.47-33.46c-.25-.23-.51-.43-.77-.64l-.08-.06Z" style="fill:#263238"></path><path d="M666,349.29l-4.44.33L654.92,319l-28.21,2-39.78-36.5A21.21,21.21,0,0,0,571,279.07l-89.86,6.54a15.72,15.72,0,0,0-10.95,5.65l-54.61,42.55-8.39,6.76-6.55,15.58-24.19,9.18-19.81,7a16,16,0,0,0-2.46,9.73l1.39,19,16.75-1.22-.46-6.33c-.56-7.58,3.84-7.6,7.86-13,4.19-5.6,3.27-.82,9-7.36l6.26-9.56c12.38-.9,20.8,8.58,23.73,22.07l2.29,10.6,140-10.2-.46-6.33c-1.13-15.49,4.31-28.51,21.39-29.75h0c15.22-1.11,21.4,8.53,24.76,22l2.54,10.13,54.21-7.05,0-.21,4.45-.32Z" style="fill:#b2b2b2"></path><path d="M355.61,401.6a.5.5,0,0,1-.33-.12.49.49,0,0,1-.17-.34l-1.38-19a16.51,16.51,0,0,1,2.53-10,.44.44,0,0,1,.25-.2l19.81-7,24-9.1,6.47-15.38a.43.43,0,0,1,.15-.2l8.39-6.76,54.57-42.52a16.23,16.23,0,0,1,11.26-5.78L571,278.57a21.85,21.85,0,0,1,16.26,5.66l39.62,36.35,28-2a.5.5,0,0,1,.53.39L662,349.09l4-.3a.49.49,0,0,1,.36.13.47.47,0,0,1,.17.34l1.85,25.3a.53.53,0,0,1-.13.36.45.45,0,0,1-.34.18l-4,.29a.5.5,0,0,1-.37.24l-54.21,7a.51.51,0,0,1-.55-.37l-2.53-10.13c-4-16.1-11.27-22.56-24.24-21.62C562,352,560.29,369.48,561,379.77l.46,6.34a.52.52,0,0,1-.12.36.51.51,0,0,1-.34.17l-140,10.2a.5.5,0,0,1-.52-.4l-2.3-10.59c-3.05-14.09-11.85-22.39-23-21.69l-6.12,9.34c-3.07,3.52-4.31,3.91-5.41,4.26-.93.3-1.66.53-3.6,3.13a26.09,26.09,0,0,1-3.9,4c-2.45,2.15-4.22,3.71-3.87,8.59l.47,6.34a.5.5,0,0,1-.47.53l-16.75,1.22Zm1.4-28.82a15.61,15.61,0,0,0-2.29,9.28l1.35,18.51,15.75-1.15-.42-5.83c-.4-5.39,1.63-7.17,4.2-9.42a25,25,0,0,0,3.76-3.88c2.14-2.86,3-3.15,4.09-3.48s2.08-.66,4.93-3.91l6.21-9.5a.55.55,0,0,1,.38-.23c11.77-.85,21.07,7.75,24.26,22.46l2.2,10.18,139-10.13-.42-5.84c-1.34-18.4,6.42-29.16,21.86-30.28,17.13-1.25,22.51,11.3,25.28,22.37l2.43,9.69L663,374.69l.06-.1a.51.51,0,0,1,.35-.17l3.94-.29-1.77-24.3-3.95.29a.5.5,0,0,1-.52-.4l-6.57-30.15-27.77,2a.49.49,0,0,1-.38-.13L586.59,285a20.76,20.76,0,0,0-15.51-5.39l-89.87,6.54a15.29,15.29,0,0,0-10.6,5.47.27.27,0,0,1-.08.07l-54.6,42.56-8.29,6.67-6.5,15.47a.5.5,0,0,1-.28.27l-24.19,9.18Z" style="fill:#263238"></path><path d="M471.12,296.87l-46.91,36.32,92.12-6.71-2.7-37L481,291.83A14.31,14.31,0,0,0,471.12,296.87Z" style="fill:#263238"></path><path d="M424.21,333.69a.5.5,0,0,1-.3-.9l46.86-36.28A14.92,14.92,0,0,1,481,291.33L513.6,289a.49.49,0,0,1,.36.13.47.47,0,0,1,.17.34l2.7,37a.48.48,0,0,1-.12.36.52.52,0,0,1-.34.18l-92.12,6.71Zm89-43.7-32.12,2.34a13.93,13.93,0,0,0-9.55,4.86.3.3,0,0,1-.08.08l-45.59,35.3,90-6.56Zm-42,6.88h0Z" style="fill:#263238"></path><path d="M462.8,330.38l26.52-39.15-8.3.6a14.31,14.31,0,0,0-9.9,5l-16.41,12.71-15.24,22.5Z" style="fill:#fff"></path><path d="M439.47,332.58a.52.52,0,0,1-.44-.25.53.53,0,0,1,0-.53l15.24-22.5a.63.63,0,0,1,.11-.12l16.37-12.67A14.92,14.92,0,0,1,481,291.33l8.3-.6a.49.49,0,0,1,.47.25.51.51,0,0,1,0,.53l-26.52,39.15a.53.53,0,0,1-.38.22l-23.33,1.7Zm15.6-22.65L440.46,331.5l22.06-1.6,25.8-38.1-7.27.53a13.93,13.93,0,0,0-9.55,4.86.3.3,0,0,1-.08.08Zm7.73,20.45h0Z" style="fill:#263238"></path><polygon points="516.33 326.48 514.39 299.89 495.35 328 516.33 326.48" style="fill:#fff"></polygon><path d="M495.35,328.5a.5.5,0,0,1-.41-.78l19-28.11a.5.5,0,0,1,.54-.2.48.48,0,0,1,.37.45l1.94,26.58a.5.5,0,0,1-.46.54l-21,1.52ZM514,301.37l-17.66,26.06L515.8,326Z" style="fill:#263238"></path><path d="M584.26,290.37l22.51,19.9a5.61,5.61,0,0,1,1.63,2.47h0a5.65,5.65,0,0,1-4.95,7.39l-81,5.9-2.7-37,49.69-3.62A20.11,20.11,0,0,1,584.26,290.37Z" style="fill:#263238"></path><path d="M522.5,326.53a.5.5,0,0,1-.5-.47l-2.69-37a.48.48,0,0,1,.12-.36.5.5,0,0,1,.34-.18l49.69-3.61A20.7,20.7,0,0,1,584.59,290l22.52,19.9a6.19,6.19,0,0,1,1.76,2.68,6.14,6.14,0,0,1-5.39,8.05l-80.94,5.9Zm-2.16-37.06,2.62,36,80.45-5.86a5.13,5.13,0,0,0,4.51-6.73,5,5,0,0,0-1.48-2.25l-22.51-19.9a19.69,19.69,0,0,0-14.4-4.87Z" style="fill:#263238"></path><polygon points="564.19 285.77 556.05 286.36 529.53 325.51 537.67 324.92 564.19 285.77" style="fill:#fff"></polygon><path d="M529.54,326a.5.5,0,0,1-.44-.25.51.51,0,0,1,0-.53l26.52-39.15a.55.55,0,0,1,.38-.22l8.14-.59a.5.5,0,0,1,.45.78L538.09,325.2a.5.5,0,0,1-.38.22l-8.14.59Zm26.79-39.17-25.8,38.1,6.87-.5,25.8-38.1Z" style="fill:#263238"></path><polygon points="520 291.62 522.15 321.19 545.2 287.15 521.87 288.85 520 291.62" style="fill:#fff"></polygon><path d="M522.15,321.69l-.13,0a.49.49,0,0,1-.37-.45l-2.15-29.56a.53.53,0,0,1,.08-.32l1.88-2.77a.53.53,0,0,1,.38-.22l23.33-1.69a.47.47,0,0,1,.46.24.5.5,0,0,1,0,.53l-23.06,34A.49.49,0,0,1,522.15,321.69Zm-1.64-29.93,2,27.95,21.67-32-22.06,1.6Z" style="fill:#263238"></path><path d="M654.92,319l59.77-4.35a6.32,6.32,0,0,1,6.63,4.95l5.49,25.22-65.23,4.76Z" style="fill:#949494"></path><path d="M661.58,350.12a.49.49,0,0,1-.49-.4l-6.66-30.57a.5.5,0,0,1,.09-.41.49.49,0,0,1,.36-.2l59.77-4.35a6.84,6.84,0,0,1,7.16,5.34l5.49,25.23a.51.51,0,0,1-.09.41.52.52,0,0,1-.36.19l-65.24,4.76Zm-6.05-30.62L662,349.09l64.23-4.68-5.37-24.66a5.84,5.84,0,0,0-6.11-4.57Z" style="fill:#263238"></path><rect x="684.71" y="329.86" width="28.42" height="11.67" transform="translate(-22.54 51.67) rotate(-4.17)" style="fill:#fff"></rect><path d="M685.17,343a.52.52,0,0,1-.33-.12.51.51,0,0,1-.17-.34l-.85-11.64a.5.5,0,0,1,.47-.54l28.34-2.06a.52.52,0,0,1,.54.46l.84,11.64a.5.5,0,0,1-.12.37.49.49,0,0,1-.34.17L685.21,343Zm-.31-11.67.77,10.64L713,340l-.77-10.65Z" style="fill:#263238"></path><line x1="730.27" y1="349.4" x2="608.81" y2="358.25" style="fill:#fff"></line><path d="M608.81,359.25a1,1,0,0,1-.07-2l121.46-8.84a1,1,0,1,1,.14,2l-121.45,8.85Z" style="fill:#263238"></path><line x1="554.54" y1="362.2" x2="419.95" y2="372.01" style="fill:#fff"></line><path d="M419.94,373a1,1,0,0,1-.07-2l134.6-9.8a1,1,0,1,1,.14,2L420,373Z" style="fill:#263238"></path><line x1="375.26" y1="375.26" x2="359.86" y2="376.39" style="fill:#fff"></line><path d="M359.86,377.39a1,1,0,0,1-1-.93,1,1,0,0,1,.92-1.07l15.41-1.12a1,1,0,1,1,.14,2l-15.4,1.12Z" style="fill:#263238"></path><path d="M679.44,331.45l-26.78,1.95a6.7,6.7,0,0,0-5.7,4.12l-3.82,9.29a2.7,2.7,0,0,0,2.69,3.72L680.65,348Z" style="fill:#92E3A9"></path><path d="M645.63,351a3.2,3.2,0,0,1-3-4.42l3.82-9.29a7.16,7.16,0,0,1,6.13-4.43L679.41,331a.48.48,0,0,1,.36.12.51.51,0,0,1,.17.34L681.15,348a.5.5,0,0,1-.47.53L645.87,351ZM679,332,652.7,333.9a6.15,6.15,0,0,0-5.27,3.81L643.6,347a2.2,2.2,0,0,0,2.2,3l34.31-2.5Z" style="fill:#263238"></path><polygon points="679.44 331.45 657.86 333.02 661.43 349.39 680.65 348 679.44 331.45" style="fill:#263238"></polygon><path d="M661.43,349.89a.49.49,0,0,1-.49-.39l-3.57-16.37a.55.55,0,0,1,.09-.41.53.53,0,0,1,.37-.2L679.41,331a.48.48,0,0,1,.36.12.51.51,0,0,1,.17.34L681.15,348a.5.5,0,0,1-.47.53l-19.22,1.4Zm-3-16.41,3.35,15.38,18.29-1.33L679,332Z" style="fill:#263238"></path><polygon points="723.09 328.27 716.56 328.75 717.68 345.3 726.66 344.64 723.09 328.27" style="fill:#263238"></polygon><path d="M717.68,345.8a.51.51,0,0,1-.33-.13.49.49,0,0,1-.17-.34l-1.12-16.55a.49.49,0,0,1,.46-.53l6.54-.48a.49.49,0,0,1,.52.39l3.57,16.38a.48.48,0,0,1-.09.4.49.49,0,0,1-.37.2l-9,.66Zm-.59-16.59,1,15.55,7.91-.57L722.7,328.8Z" style="fill:#263238"></path><rect x="414.9" y="325.5" width="17.23" height="14.58" rx="2" transform="translate(-23.06 31.65) rotate(-4.17)" style="fill:#263238"></rect><path d="M417.3,341.05a2.51,2.51,0,0,1-2.49-2.32L414,328.18a2.52,2.52,0,0,1,2.31-2.68l13.2-1a2.52,2.52,0,0,1,2.68,2.31l.77,10.56a2.51,2.51,0,0,1-.6,1.82,2.48,2.48,0,0,1-1.71.85l-13.2,1Zm12.44-15.51h-.11l-13.2,1a1.5,1.5,0,0,0-1.39,1.61l.77,10.55a1.49,1.49,0,0,0,1.6,1.39l13.2-1h0a1.51,1.51,0,0,0,1.39-1.61l-.77-10.55A1.5,1.5,0,0,0,429.74,325.54Z" style="fill:#263238"></path><rect x="498.32" y="334.06" width="16.57" height="6.63" transform="translate(-23.17 37.7) rotate(-4.17)" style="fill:#263238"></rect><path d="M498.58,341.78a.5.5,0,0,1-.33-.12.49.49,0,0,1-.17-.34l-.48-6.61a.5.5,0,0,1,.46-.54l16.53-1.2a.48.48,0,0,1,.36.12.51.51,0,0,1,.17.34l.49,6.61a.5.5,0,0,1-.47.54l-16.53,1.2Zm.05-6.65.41,5.62,15.53-1.13-.41-5.62Z" style="fill:#263238"></path><path d="M522.06,381.28a.5.5,0,0,1-.5-.46l-3.66-50.25a.5.5,0,0,1,.46-.53.51.51,0,0,1,.54.46l3.66,50.25a.5.5,0,0,1-.46.53Z" style="fill:#263238"></path><path d="M424.16,390.85a.49.49,0,0,1-.49-.43c-3.18-22.72-15.45-28.76-15.58-28.81a.51.51,0,0,1-.24-.67.5.5,0,0,1,.67-.24c.52.25,12.72,6.25,16.07,29.12l128-9.33a.52.52,0,0,1,.54.46.5.5,0,0,1-.47.54L424.2,390.85Z" style="fill:#263238"></path><path d="M558.91,358a.44.44,0,0,1-.22-.05.5.5,0,0,1-.23-.66c4.73-9.78,13.07-15.16,24.77-16,21.29-1.54,29.14,14.65,29.22,14.81a.5.5,0,0,1-.24.67.51.51,0,0,1-.67-.24c-.07-.16-7.64-15.75-28.23-14.24-11.33.82-19.39,6-23.95,15.45A.48.48,0,0,1,558.91,358Z" style="fill:#263238"></path><path d="M505.35,274.51a.5.5,0,0,1-.06-1l76.87-9.44a.5.5,0,0,1,.13,1l-76.87,9.44Z" style="fill:#263238"></path><path d="M499.28,266.42a.49.49,0,0,1-.49-.42.51.51,0,0,1,.42-.57l43.15-6.74a.5.5,0,0,1,.57.41.49.49,0,0,1-.41.57l-43.16,6.75Z" style="fill:#263238"></path><path d="M683.37,386.45a.49.49,0,0,1-.49-.44.5.5,0,0,1,.42-.56l45.18-6.07a.5.5,0,0,1,.13,1l-45.17,6.06Z" style="fill:#263238"></path><path d="M673.93,393.19a.51.51,0,0,1-.5-.43.5.5,0,0,1,.43-.56l35.74-4.72a.49.49,0,0,1,.56.43.5.5,0,0,1-.43.56L674,393.19Z" style="fill:#263238"></path><polygon points="288.65 298.78 285.49 302.73 291.42 305.9 293 301.94 288.65 298.78" style="fill:#263238"></polygon><path d="M291.42,306.4a.53.53,0,0,1-.24-.06l-5.93-3.17a.49.49,0,0,1-.25-.34.51.51,0,0,1,.09-.41l3.17-4a.5.5,0,0,1,.68-.09l4.36,3.17a.51.51,0,0,1,.17.59l-1.59,3.95a.52.52,0,0,1-.29.29A.51.51,0,0,1,291.42,306.4Zm-5.17-3.83,4.91,2.62,1.23-3.07-3.65-2.66Z" style="fill:#263238"></path><polygon points="430.28 299.57 427.12 303.52 433.05 306.69 434.63 302.73 430.28 299.57" style="fill:#263238"></polygon><path d="M433.05,307.19a.53.53,0,0,1-.24-.06L426.88,304a.46.46,0,0,1-.25-.34.51.51,0,0,1,.09-.41l3.17-4a.51.51,0,0,1,.68-.09l4.36,3.17a.51.51,0,0,1,.17.59l-1.59,3.95a.49.49,0,0,1-.29.29A.51.51,0,0,1,433.05,307.19Zm-5.17-3.82,4.91,2.61,1.23-3.07-3.65-2.66Z" style="fill:#263238"></path><polygon points="284.69 307.08 281.53 311.04 287.46 314.2 289.05 310.25 284.69 307.08" style="fill:#263238"></polygon><path d="M287.46,314.71a.46.46,0,0,1-.23-.06l-5.94-3.17a.49.49,0,0,1-.25-.34.5.5,0,0,1,.1-.41l3.16-4a.5.5,0,0,1,.69-.09l4.35,3.16a.52.52,0,0,1,.17.59l-1.58,4a.49.49,0,0,1-.3.28A.33.33,0,0,1,287.46,314.71Zm-5.16-3.83,4.91,2.62,1.23-3.08-3.65-2.65Z" style="fill:#263238"></path><polygon points="272.82 294.82 274.01 300.36 278.76 299.96 272.82 294.82" style="fill:#263238"></polygon><path d="M274,300.86a.5.5,0,0,1-.49-.4l-1.18-5.54a.49.49,0,0,1,.23-.53.5.5,0,0,1,.58.05l5.94,5.14a.5.5,0,0,1-.29.88l-4.75.4Zm-.38-4.68.78,3.64,3.13-.26Z" style="fill:#263238"></path><polygon points="430.43 315.94 435.99 314.85 435.67 310.09 430.43 315.94" style="fill:#263238"></polygon><path d="M430.43,316.44a.52.52,0,0,1-.44-.25.5.5,0,0,1,.07-.58l5.24-5.85a.48.48,0,0,1,.53-.14.49.49,0,0,1,.34.44l.32,4.75a.5.5,0,0,1-.41.52l-5.55,1.1Zm4.82-5.13-3.45,3.85,3.66-.72Z" style="fill:#263238"></path><polygon points="410.5 299.17 416.06 298.08 415.74 293.32 410.5 299.17" style="fill:#263238"></polygon><path d="M410.5,299.67a.49.49,0,0,1-.37-.83l5.24-5.85a.5.5,0,0,1,.87.3l.32,4.75a.51.51,0,0,1-.41.53l-5.55,1.09Zm4.82-5.13-3.45,3.85,3.66-.72Z" style="fill:#263238"></path><polygon points="302.89 280.58 304.08 286.12 308.83 285.72 302.89 280.58" style="fill:#263238"></polygon><path d="M304.08,286.62a.5.5,0,0,1-.49-.4l-1.19-5.54a.5.5,0,0,1,.82-.48l5.93,5.14a.51.51,0,0,1,.15.54.5.5,0,0,1-.43.34l-4.75.4Zm-.39-4.69.79,3.65,3.12-.26Z" style="fill:#263238"></path><polygon points="421.18 317.37 422.37 322.91 427.12 322.51 421.18 317.37" style="fill:#263238"></polygon><path d="M422.37,323.41a.49.49,0,0,1-.49-.4l-1.19-5.54a.5.5,0,0,1,.82-.48l5.93,5.15a.5.5,0,0,1,.15.53.48.48,0,0,1-.43.34l-4.75.4Zm-.39-4.68.78,3.64,3.13-.26Z" style="fill:#263238"></path><path d="M267.29,293.24,262.94,296s5.14,3.16,5.93,2S267.29,293.24,267.29,293.24Z" style="fill:#263238"></path><path d="M268.19,298.74c-1.5,0-3.95-1.34-5.52-2.31a.5.5,0,0,1-.23-.42.49.49,0,0,1,.23-.43l4.35-2.76a.49.49,0,0,1,.68.14c.43.64,2.51,3.91,1.59,5.3A1.23,1.23,0,0,1,268.19,298.74Zm-4.3-2.75c2.29,1.32,4.27,2,4.56,1.72.33-.5-.38-2.27-1.32-3.78Z" style="fill:#263238"></path><path d="M288.65,269.9l-2.37,3.16,4.33,1.52,1.2-3.89Z" style="fill:#263238"></path><path d="M290.61,275.08l-.17,0-4.33-1.53a.47.47,0,0,1-.31-.32.48.48,0,0,1,.08-.45l2.37-3.16a.5.5,0,0,1,.52-.19l3.17.79a.53.53,0,0,1,.31.24.48.48,0,0,1,0,.39l-1.2,3.9a.5.5,0,0,1-.25.3A.48.48,0,0,1,290.61,275.08Zm-3.52-2.26,3.2,1.12.89-2.9-2.33-.58Z" style="fill:#263238"></path></g></svg>