<svg xmlns="http://www.w3.org/2000/svg" viewBox="0 0 750 500"><g id="freepik--background-complete--inject-55"><path d="M289.7,130c.42-3-3.84-5.5-7-5.76-1.53-.12-3.11.11-4.56-.39-3.13-1.1-4.38-5.14-7.43-6.43-2.29-1-4.92-.11-7.13,1s-4.41,2.52-6.88,2.67c-2.15.14-4.49-.66-6.37.4-1.41.78-2.14,2.4-3.43,3.35a8.28,8.28,0,0,1-4.49,1.22,12.64,12.64,0,0,0-4.63.75c-1.42.66-2.61,2.17-2.31,3.71Z" style="fill:#f5f5f5"></path><path d="M542.59,168.94c.42-3-3.84-5.5-7-5.76-1.53-.12-3.11.11-4.56-.39-3.13-1.09-4.38-5.14-7.44-6.43-2.28-1-4.91-.1-7.13,1s-4.4,2.52-6.87,2.68c-2.16.14-4.49-.66-6.38.39-1.4.78-2.13,2.4-3.43,3.35a8.14,8.14,0,0,1-4.48,1.22,12.65,12.65,0,0,0-4.63.76,3.64,3.64,0,0,0-2.31,3.71Z" style="fill:#f5f5f5"></path><path d="M683.49,82.39c.41-3-3.85-5.49-7-5.75-1.52-.13-3.11.11-4.55-.4-3.13-1.09-4.38-5.13-7.44-6.42-2.28-1-4.91-.11-7.13,1s-4.4,2.51-6.88,2.67c-2.15.14-4.49-.66-6.37.39-1.4.79-2.14,2.4-3.43,3.36a8.19,8.19,0,0,1-4.49,1.21,12.81,12.81,0,0,0-4.62.76,3.67,3.67,0,0,0-2.32,3.71Z" style="fill:#f5f5f5"></path><path d="M87.72,91c.42-3-3.84-5.5-7-5.76-1.53-.12-3.11.11-4.56-.39-3.13-1.1-4.38-5.14-7.43-6.43-2.29-1-4.92-.11-7.13,1s-4.41,2.52-6.88,2.67c-2.15.14-4.49-.66-6.37.4-1.41.78-2.14,2.4-3.44,3.35a8.22,8.22,0,0,1-4.48,1.22,12.64,12.64,0,0,0-4.63.75,3.65,3.65,0,0,0-2.31,3.71Z" style="fill:#f5f5f5"></path><path d="M406.77,69.58c.73-5.32-6.77-9.69-12.4-10.14-2.69-.22-5.48.19-8-.69-5.51-1.93-7.72-9-13.1-11.32-4-1.7-8.65-.19-12.55,1.77s-7.76,4.44-12.12,4.72c-3.79.24-7.91-1.17-11.22.69-2.47,1.37-3.77,4.22-6.05,5.9s-5.13,2-7.9,2.15-5.62.17-8.14,1.33-4.6,3.81-4.08,6.53Z" style="fill:#f5f5f5"></path><rect x="141.45" y="76.16" width="69.38" height="219.9" style="fill:#f5f5f5"></rect><rect x="176.14" y="76.16" width="34.69" height="219.29" style="fill:#ebebeb"></rect><rect x="149.37" y="54.58" width="24.5" height="21.59" style="fill:#f5f5f5"></rect><rect x="168.04" y="54.58" width="5.84" height="21.59" style="fill:#ebebeb"></rect><polyline points="135.67 76.17 135.67 74.91 212.87 74.91 212.87 76.17" style="fill:#e0e0e0"></polyline><rect x="155.15" y="85.58" width="5.87" height="12.38" style="fill:#fafafa"></rect><path d="M176.14,102.82c0,.13-7.76.24-17.34.24s-17.35-.11-17.35-.24,7.77-.23,17.35-.23S176.14,102.69,176.14,102.82Z" style="fill:#e0e0e0"></path><rect x="190.14" y="85.58" width="5.87" height="12.38" style="fill:#e0e0e0"></rect><path d="M211.14,102.82c0,.13-7.77.24-17.35.24s-17.34-.11-17.34-.24,7.76-.23,17.34-.23S211.14,102.69,211.14,102.82Z" style="fill:#e0e0e0"></path><rect x="190.14" y="110.17" width="5.87" height="12.38" style="fill:#e0e0e0"></rect><path d="M211.14,127.41c0,.13-7.77.24-17.35.24s-17.34-.11-17.34-.24,7.76-.23,17.34-.23S211.14,127.28,211.14,127.41Z" style="fill:#e0e0e0"></path><rect x="190.14" y="135.5" width="5.87" height="12.38" style="fill:#e0e0e0"></rect><path d="M211.14,152.74c0,.13-7.77.24-17.35.24s-17.34-.11-17.34-.24,7.76-.24,17.34-.24S211.14,152.61,211.14,152.74Z" style="fill:#e0e0e0"></path><rect x="190.14" y="160.83" width="5.87" height="12.38" style="fill:#e0e0e0"></rect><path d="M211.14,178.07c0,.13-7.77.24-17.35.24s-17.34-.11-17.34-.24,7.76-.24,17.34-.24S211.14,177.94,211.14,178.07Z" style="fill:#e0e0e0"></path><rect x="190.14" y="185.43" width="5.87" height="12.38" style="fill:#e0e0e0"></rect><path d="M211.14,202.67c0,.13-7.77.24-17.35.24s-17.34-.11-17.34-.24,7.76-.23,17.34-.23S211.14,202.54,211.14,202.67Z" style="fill:#e0e0e0"></path><rect x="190.14" y="210.13" width="5.87" height="12.38" style="fill:#e0e0e0"></rect><rect x="190.14" y="235.16" width="5.87" height="12.38" style="fill:#e0e0e0"></rect><path d="M211.14,227.38c0,.13-7.77.23-17.35.23s-17.34-.1-17.34-.23,7.76-.24,17.34-.24S211.14,227.25,211.14,227.38Z" style="fill:#e0e0e0"></path><rect x="155.15" y="110.54" width="5.87" height="12.38" style="fill:#fafafa"></rect><path d="M176.14,127.79c0,.13-7.76.23-17.34.23s-17.35-.1-17.35-.23,7.77-.24,17.35-.24S176.14,127.66,176.14,127.79Z" style="fill:#e0e0e0"></path><rect x="155.15" y="135.5" width="5.87" height="12.38" style="fill:#fafafa"></rect><path d="M176.14,152.75c0,.13-7.76.24-17.34.24s-17.35-.11-17.35-.24,7.77-.24,17.35-.24S176.14,152.62,176.14,152.75Z" style="fill:#e0e0e0"></path><rect x="155.15" y="160.47" width="5.87" height="12.38" style="fill:#fafafa"></rect><path d="M176.14,177.71c0,.13-7.76.24-17.34.24s-17.35-.11-17.35-.24,7.77-.23,17.35-.23S176.14,177.58,176.14,177.71Z" style="fill:#e0e0e0"></path><rect x="155.15" y="185.43" width="5.87" height="12.38" style="fill:#fafafa"></rect><path d="M176.14,202.67c0,.13-7.76.24-17.34.24s-17.35-.11-17.35-.24,7.77-.23,17.35-.23S176.14,202.54,176.14,202.67Z" style="fill:#e0e0e0"></path><rect x="155.15" y="210.39" width="5.87" height="12.38" style="fill:#fafafa"></rect><path d="M176.14,227.64c0,.13-7.76.23-17.34.23s-17.35-.1-17.35-.23,7.77-.24,17.35-.24S176.14,227.51,176.14,227.64Z" style="fill:#e0e0e0"></path><rect x="155.15" y="235.35" width="5.87" height="12.38" style="fill:#fafafa"></rect><rect x="48.21" y="173.51" width="69.38" height="219.9" style="fill:#f5f5f5"></rect><rect x="82.9" y="173.51" width="34.69" height="219.29" style="fill:#ebebeb"></rect><rect x="56.13" y="151.92" width="24.5" height="21.59" style="fill:#f5f5f5"></rect><rect x="74.79" y="151.92" width="5.84" height="21.59" style="fill:#ebebeb"></rect><polyline points="42.42 173.5 42.42 172.25 119.62 172.25 119.62 173.5" style="fill:#e0e0e0"></polyline><rect x="61.9" y="182.92" width="5.87" height="12.38" style="fill:#fafafa"></rect><path d="M82.9,200.16c0,.14-7.77.24-17.35.24s-17.34-.1-17.34-.24,7.76-.23,17.34-.23S82.9,200,82.9,200.16Z" style="fill:#e0e0e0"></path><rect x="96.9" y="182.92" width="5.87" height="12.38" style="fill:#e0e0e0"></rect><path d="M117.89,200.16c0,.14-7.76.24-17.34.24s-17.35-.1-17.35-.24,7.77-.23,17.35-.23S117.89,200,117.89,200.16Z" style="fill:#e0e0e0"></path><rect x="96.9" y="207.51" width="5.87" height="12.38" style="fill:#e0e0e0"></rect><path d="M117.89,224.75c0,.13-7.76.24-17.34.24s-17.35-.11-17.35-.24,7.77-.23,17.35-.23S117.89,224.62,117.89,224.75Z" style="fill:#e0e0e0"></path><rect x="96.9" y="232.84" width="5.87" height="12.38" style="fill:#e0e0e0"></rect><path d="M117.89,250.08c0,.13-7.76.24-17.34.24s-17.35-.11-17.35-.24,7.77-.24,17.35-.24S117.89,250,117.89,250.08Z" style="fill:#e0e0e0"></path><rect x="96.9" y="258.17" width="5.87" height="12.38" style="fill:#e0e0e0"></rect><path d="M117.89,275.41c0,.13-7.76.24-17.34.24s-17.35-.11-17.35-.24,7.77-.24,17.35-.24S117.89,275.28,117.89,275.41Z" style="fill:#e0e0e0"></path><rect x="96.9" y="282.77" width="5.87" height="12.38" style="fill:#e0e0e0"></rect><path d="M117.89,300c0,.13-7.76.24-17.34.24S83.2,300.14,83.2,300s7.77-.23,17.35-.23S117.89,299.88,117.89,300Z" style="fill:#e0e0e0"></path><rect x="96.9" y="307.47" width="5.87" height="12.38" style="fill:#e0e0e0"></rect><rect x="96.9" y="332.5" width="5.87" height="12.38" style="fill:#e0e0e0"></rect><path d="M117.89,324.72c0,.13-7.76.23-17.34.23s-17.35-.1-17.35-.23,7.77-.24,17.35-.24S117.89,324.59,117.89,324.72Z" style="fill:#e0e0e0"></path><rect x="61.9" y="207.88" width="5.87" height="12.38" style="fill:#fafafa"></rect><path d="M82.9,225.13c0,.13-7.77.23-17.35.23s-17.34-.1-17.34-.23,7.76-.24,17.34-.24S82.9,225,82.9,225.13Z" style="fill:#e0e0e0"></path><rect x="61.9" y="232.84" width="5.87" height="12.38" style="fill:#fafafa"></rect><path d="M82.9,250.09c0,.13-7.77.24-17.35.24s-17.34-.11-17.34-.24,7.76-.24,17.34-.24S82.9,250,82.9,250.09Z" style="fill:#e0e0e0"></path><rect x="61.9" y="257.81" width="5.87" height="12.38" style="fill:#fafafa"></rect><path d="M82.9,275.05c0,.13-7.77.24-17.35.24s-17.34-.11-17.34-.24,7.76-.23,17.34-.23S82.9,274.92,82.9,275.05Z" style="fill:#e0e0e0"></path><rect x="61.9" y="282.77" width="5.87" height="12.38" style="fill:#fafafa"></rect><path d="M82.9,300c0,.13-7.77.24-17.35.24s-17.34-.11-17.34-.24,7.76-.23,17.34-.23S82.9,299.88,82.9,300Z" style="fill:#e0e0e0"></path><rect x="61.9" y="307.73" width="5.87" height="12.38" style="fill:#fafafa"></rect><path d="M82.9,325c0,.13-7.77.23-17.35.23s-17.34-.1-17.34-.23,7.76-.24,17.34-.24S82.9,324.85,82.9,325Z" style="fill:#e0e0e0"></path><rect x="61.9" y="332.69" width="5.87" height="12.38" style="fill:#fafafa"></rect><rect x="218.04" y="218.27" width="69.38" height="175.13" style="fill:#f5f5f5"></rect><rect x="252.73" y="218.27" width="34.69" height="174.65" style="fill:#ebebeb"></rect><rect x="225.96" y="196.68" width="24.5" height="21.59" style="fill:#f5f5f5"></rect><rect x="244.62" y="196.68" width="5.84" height="21.59" style="fill:#ebebeb"></rect><polyline points="212.25 218.27 212.25 217.01 289.45 217.01 289.45 218.27" style="fill:#e0e0e0"></polyline><rect x="231.73" y="227.68" width="5.87" height="12.38" style="fill:#fafafa"></rect><path d="M252.73,244.93c0,.13-7.77.23-17.35.23s-17.34-.1-17.34-.23,7.76-.24,17.34-.24S252.73,244.8,252.73,244.93Z" style="fill:#e0e0e0"></path><rect x="266.73" y="227.68" width="5.87" height="12.38" style="fill:#e0e0e0"></rect><path d="M287.72,244.93c0,.13-7.76.23-17.34.23s-17.35-.1-17.35-.23,7.77-.24,17.35-.24S287.72,244.8,287.72,244.93Z" style="fill:#e0e0e0"></path><rect x="266.73" y="252.27" width="5.87" height="12.38" style="fill:#e0e0e0"></rect><path d="M287.72,269.51c0,.13-7.76.24-17.34.24s-17.35-.11-17.35-.24,7.77-.23,17.35-.23S287.72,269.38,287.72,269.51Z" style="fill:#e0e0e0"></path><rect x="266.73" y="277.6" width="5.87" height="12.38" style="fill:#e0e0e0"></rect><path d="M287.72,294.84c0,.13-7.76.24-17.34.24S253,295,253,294.84s7.77-.23,17.35-.23S287.72,294.71,287.72,294.84Z" style="fill:#e0e0e0"></path><rect x="266.73" y="302.93" width="5.87" height="12.38" style="fill:#e0e0e0"></rect><path d="M287.72,320.17c0,.13-7.76.24-17.34.24S253,320.3,253,320.17s7.77-.23,17.35-.23S287.72,320,287.72,320.17Z" style="fill:#e0e0e0"></path><rect x="266.73" y="327.53" width="5.87" height="12.38" style="fill:#e0e0e0"></rect><path d="M287.72,344.78c0,.13-7.76.23-17.34.23s-17.35-.1-17.35-.23,7.77-.24,17.35-.24S287.72,344.65,287.72,344.78Z" style="fill:#e0e0e0"></path><rect x="266.73" y="352.24" width="5.87" height="12.38" style="fill:#e0e0e0"></rect><rect x="266.73" y="377.26" width="5.87" height="12.38" style="fill:#e0e0e0"></rect><path d="M287.72,369.48c0,.13-7.76.24-17.34.24s-17.35-.11-17.35-.24,7.77-.24,17.35-.24S287.72,369.35,287.72,369.48Z" style="fill:#e0e0e0"></path><rect x="231.73" y="252.64" width="5.87" height="12.38" style="fill:#fafafa"></rect><path d="M252.73,269.89c0,.13-7.77.24-17.35.24S218,270,218,269.89s7.76-.24,17.34-.24S252.73,269.76,252.73,269.89Z" style="fill:#e0e0e0"></path><rect x="231.73" y="277.61" width="5.87" height="12.38" style="fill:#fafafa"></rect><path d="M252.73,294.85c0,.13-7.77.24-17.35.24S218,295,218,294.85s7.76-.24,17.34-.24S252.73,294.72,252.73,294.85Z" style="fill:#e0e0e0"></path><rect x="231.73" y="302.57" width="5.87" height="12.38" style="fill:#fafafa"></rect><path d="M252.73,319.81c0,.13-7.77.24-17.35.24s-17.34-.11-17.34-.24,7.76-.23,17.34-.23S252.73,319.68,252.73,319.81Z" style="fill:#e0e0e0"></path><rect x="231.73" y="327.53" width="5.87" height="12.38" style="fill:#fafafa"></rect><path d="M252.73,344.78c0,.13-7.77.23-17.35.23s-17.34-.1-17.34-.23,7.76-.24,17.34-.24S252.73,344.65,252.73,344.78Z" style="fill:#e0e0e0"></path><rect x="231.73" y="352.49" width="5.87" height="12.38" style="fill:#fafafa"></rect><path d="M252.73,369.74c0,.13-7.77.24-17.35.24s-17.34-.11-17.34-.24,7.76-.24,17.34-.24S252.73,369.61,252.73,369.74Z" style="fill:#e0e0e0"></path><rect x="231.73" y="377.46" width="5.87" height="12.38" style="fill:#fafafa"></rect><rect x="561.36" y="116.69" width="52.13" height="165.2" style="fill:#f5f5f5"></rect><rect x="587.43" y="116.69" width="26.06" height="164.75" style="fill:#ebebeb"></rect><rect x="567.32" y="100.47" width="18.41" height="16.22" style="fill:#f5f5f5"></rect><rect x="581.34" y="100.47" width="4.39" height="16.22" style="fill:#ebebeb"></rect><polyline points="557.02 116.69 557.02 115.75 615.02 115.75 615.02 116.69" style="fill:#e0e0e0"></polyline><rect x="571.65" y="123.77" width="4.41" height="9.3" style="fill:#fafafa"></rect><path d="M587.43,136.72c0,.1-5.84.18-13,.18s-13-.08-13-.18,5.84-.17,13-.17S587.43,136.62,587.43,136.72Z" style="fill:#e0e0e0"></path><rect x="597.95" y="123.77" width="4.41" height="9.3" style="fill:#e0e0e0"></rect><path d="M613.72,136.72c0,.1-5.84.18-13,.18s-13-.08-13-.18,5.83-.17,13-.17S613.72,136.62,613.72,136.72Z" style="fill:#e0e0e0"></path><rect x="597.95" y="142.24" width="4.41" height="9.3" style="fill:#e0e0e0"></rect><path d="M613.72,155.19c0,.1-5.84.18-13,.18s-13-.08-13-.18,5.83-.17,13-.17S613.72,155.1,613.72,155.19Z" style="fill:#e0e0e0"></path><rect x="597.95" y="161.27" width="4.41" height="9.3" style="fill:#e0e0e0"></rect><path d="M613.72,174.22c0,.1-5.84.18-13,.18s-13-.08-13-.18,5.83-.17,13-.17S613.72,174.13,613.72,174.22Z" style="fill:#e0e0e0"></path><rect x="597.95" y="180.3" width="4.41" height="9.3" style="fill:#e0e0e0"></rect><path d="M613.72,193.25c0,.1-5.84.18-13,.18s-13-.08-13-.18,5.83-.17,13-.17S613.72,193.16,613.72,193.25Z" style="fill:#e0e0e0"></path><rect x="597.95" y="198.78" width="4.41" height="9.3" style="fill:#e0e0e0"></rect><path d="M613.72,211.74c0,.1-5.84.18-13,.18s-13-.08-13-.18,5.83-.18,13-.18S613.72,211.64,613.72,211.74Z" style="fill:#e0e0e0"></path><rect x="597.95" y="217.34" width="4.41" height="9.3" style="fill:#e0e0e0"></rect><rect x="597.95" y="236.15" width="4.41" height="9.3" style="fill:#e0e0e0"></rect><path d="M613.72,230.3c0,.1-5.84.18-13,.18s-13-.08-13-.18,5.83-.18,13-.18S613.72,230.2,613.72,230.3Z" style="fill:#e0e0e0"></path><rect x="571.65" y="142.52" width="4.41" height="9.3" style="fill:#fafafa"></rect><path d="M587.43,155.48c0,.09-5.84.17-13,.17s-13-.08-13-.17,5.84-.18,13-.18S587.43,155.38,587.43,155.48Z" style="fill:#e0e0e0"></path><rect x="571.65" y="161.27" width="4.41" height="9.3" style="fill:#fafafa"></rect><path d="M587.43,174.23c0,.1-5.84.18-13,.18s-13-.08-13-.18,5.84-.18,13-.18S587.43,174.13,587.43,174.23Z" style="fill:#e0e0e0"></path><rect x="571.65" y="180.03" width="4.41" height="9.3" style="fill:#fafafa"></rect><path d="M587.43,193c0,.1-5.84.18-13,.18s-13-.08-13-.18,5.84-.17,13-.17S587.43,192.89,587.43,193Z" style="fill:#e0e0e0"></path><rect x="571.65" y="198.78" width="4.41" height="9.3" style="fill:#fafafa"></rect><path d="M587.43,211.74c0,.1-5.84.18-13,.18s-13-.08-13-.18,5.84-.18,13-.18S587.43,211.64,587.43,211.74Z" style="fill:#e0e0e0"></path><rect x="571.65" y="217.54" width="4.41" height="9.3" style="fill:#fafafa"></rect><path d="M587.43,230.49c0,.1-5.84.18-13,.18s-13-.08-13-.18,5.84-.18,13-.18S587.43,230.39,587.43,230.49Z" style="fill:#e0e0e0"></path><rect x="571.65" y="236.29" width="4.41" height="9.3" style="fill:#fafafa"></rect><rect x="614.4" y="170.9" width="69.91" height="221.55" style="fill:#f5f5f5"></rect><rect x="649.36" y="170.9" width="34.95" height="220.94" style="fill:#ebebeb"></rect><rect x="622.39" y="149.15" width="24.69" height="21.75" style="fill:#f5f5f5"></rect><rect x="641.19" y="149.15" width="5.88" height="21.75" style="fill:#ebebeb"></rect><polyline points="608.58 170.9 608.58 169.63 686.36 169.63 686.36 170.9" style="fill:#e0e0e0"></polyline><rect x="628.2" y="180.39" width="5.92" height="12.48" style="fill:#fafafa"></rect><path d="M649.36,197.76c0,.13-7.83.24-17.48.24s-17.48-.11-17.48-.24,7.83-.24,17.48-.24S649.36,197.63,649.36,197.76Z" style="fill:#e0e0e0"></path><rect x="663.46" y="180.39" width="5.92" height="12.48" style="fill:#e0e0e0"></rect><path d="M684.62,197.76c0,.13-7.83.24-17.48.24s-17.48-.11-17.48-.24,7.83-.24,17.48-.24S684.62,197.63,684.62,197.76Z" style="fill:#e0e0e0"></path><rect x="663.46" y="205.16" width="5.92" height="12.48" style="fill:#e0e0e0"></rect><path d="M684.62,222.53c0,.13-7.83.24-17.48.24s-17.48-.11-17.48-.24,7.83-.24,17.48-.24S684.62,222.4,684.62,222.53Z" style="fill:#e0e0e0"></path><rect x="663.46" y="230.68" width="5.92" height="12.48" style="fill:#e0e0e0"></rect><path d="M684.62,248.05c0,.13-7.83.24-17.48.24s-17.48-.11-17.48-.24,7.83-.24,17.48-.24S684.62,247.92,684.62,248.05Z" style="fill:#e0e0e0"></path><rect x="663.46" y="256.2" width="5.92" height="12.48" style="fill:#e0e0e0"></rect><path d="M684.62,273.57c0,.13-7.83.24-17.48.24s-17.48-.11-17.48-.24,7.83-.24,17.48-.24S684.62,273.44,684.62,273.57Z" style="fill:#e0e0e0"></path><rect x="663.46" y="280.99" width="5.92" height="12.48" style="fill:#e0e0e0"></rect><path d="M684.62,298.36c0,.13-7.83.24-17.48.24s-17.48-.11-17.48-.24,7.83-.24,17.48-.24S684.62,298.23,684.62,298.36Z" style="fill:#e0e0e0"></path><rect x="663.46" y="305.88" width="5.92" height="12.48" style="fill:#e0e0e0"></rect><rect x="663.46" y="331.09" width="5.92" height="12.48" style="fill:#e0e0e0"></rect><path d="M684.62,323.25c0,.13-7.83.24-17.48.24s-17.48-.11-17.48-.24,7.83-.24,17.48-.24S684.62,323.12,684.62,323.25Z" style="fill:#e0e0e0"></path><rect x="628.2" y="205.54" width="5.92" height="12.48" style="fill:#fafafa"></rect><path d="M649.36,222.91c0,.13-7.83.24-17.48.24s-17.48-.11-17.48-.24,7.83-.24,17.48-.24S649.36,222.78,649.36,222.91Z" style="fill:#e0e0e0"></path><rect x="628.2" y="230.69" width="5.92" height="12.48" style="fill:#fafafa"></rect><path d="M649.36,248.06c0,.13-7.83.24-17.48.24s-17.48-.11-17.48-.24,7.83-.24,17.48-.24S649.36,247.93,649.36,248.06Z" style="fill:#e0e0e0"></path><rect x="628.2" y="255.84" width="5.92" height="12.48" style="fill:#fafafa"></rect><path d="M649.36,273.21c0,.13-7.83.24-17.48.24s-17.48-.11-17.48-.24,7.83-.24,17.48-.24S649.36,273.08,649.36,273.21Z" style="fill:#e0e0e0"></path><rect x="628.2" y="280.99" width="5.92" height="12.48" style="fill:#fafafa"></rect><path d="M649.36,298.36c0,.13-7.83.24-17.48.24s-17.48-.11-17.48-.24,7.83-.24,17.48-.24S649.36,298.23,649.36,298.36Z" style="fill:#e0e0e0"></path><rect x="628.2" y="306.14" width="5.92" height="12.48" style="fill:#fafafa"></rect><path d="M649.36,323.51c0,.13-7.83.24-17.48.24s-17.48-.11-17.48-.24,7.83-.24,17.48-.24S649.36,323.38,649.36,323.51Z" style="fill:#e0e0e0"></path><rect x="628.2" y="331.29" width="5.92" height="12.48" style="fill:#fafafa"></rect><rect x="505.62" y="248.59" width="109.21" height="144.04" style="fill:#ebebeb"></rect><rect x="563.62" y="248.59" width="51.21" height="144.04" style="fill:#e0e0e0"></rect><rect x="528.52" y="268.1" width="9.82" height="23.86" style="fill:#f5f5f5"></rect><rect x="528.52" y="361.47" width="9.82" height="23.86" style="fill:#f5f5f5"></rect><path d="M563.62,301.31c0,.27-13,.49-29,.49s-29-.22-29-.49,13-.48,29-.48S563.62,301.05,563.62,301.31Z" style="fill:#f5f5f5"></path><rect x="528.52" y="315.13" width="9.82" height="23.86" style="fill:#f5f5f5"></rect><path d="M563.62,348.35c0,.27-13,.49-29,.49s-29-.22-29-.49,13-.48,29-.48S563.62,348.09,563.62,348.35Z" style="fill:#f5f5f5"></path><rect x="574.5" y="268.1" width="9.82" height="23.86" style="fill:#f5f5f5"></rect><rect x="595.8" y="268.1" width="9.82" height="23.86" style="fill:#f5f5f5"></rect><rect x="574.5" y="313.36" width="9.82" height="23.86" style="fill:#f5f5f5"></rect><rect x="595.8" y="313.36" width="9.82" height="23.86" style="fill:#f5f5f5"></rect><rect x="574.5" y="358.63" width="9.82" height="23.86" style="fill:#f5f5f5"></rect><rect x="595.8" y="358.63" width="9.82" height="23.86" style="fill:#f5f5f5"></rect><rect x="497.41" y="243.58" width="125.63" height="5.19" style="fill:#e0e0e0"></rect><path d="M615.59,249.26c0,.27-24.41.49-54.51.49s-54.52-.22-54.52-.49,24.4-.48,54.52-.48S615.59,249,615.59,249.26Z" style="fill:#ebebeb"></path><polygon points="217.95 393.4 115.85 393.4 115.41 232.04 217.51 232.04 217.95 393.4" style="fill:#ebebeb"></polygon><rect x="166.46" y="232.04" width="51.05" height="161.36" style="fill:#e0e0e0"></rect><rect x="127.07" y="200.27" width="36.05" height="31.77" style="fill:#ebebeb"></rect><rect x="154.53" y="200.27" width="8.59" height="31.77" style="fill:#e0e0e0"></rect><rect x="106.9" y="230.18" width="113.6" height="1.85" style="fill:#e0e0e0"></rect><rect x="135.56" y="245.89" width="8.64" height="18.22" style="fill:#fff"></rect><path d="M166.46,271.27c0,.19-11.43.34-25.53.34s-25.52-.15-25.52-.34,11.42-.35,25.52-.35S166.46,271.07,166.46,271.27Z" style="fill:#e0e0e0"></path><rect x="187.06" y="245.89" width="8.64" height="18.22" style="fill:#f5f5f5"></rect><path d="M218,271.27c0,.19-11.43.34-25.52.34s-25.53-.15-25.53-.34,11.43-.35,25.53-.35S218,271.07,218,271.27Z" style="fill:#ebebeb"></path><rect x="187.06" y="282.07" width="8.64" height="18.22" style="fill:#f5f5f5"></rect><path d="M218,307.45c0,.19-11.43.35-25.52.35s-25.53-.16-25.53-.35,11.43-.35,25.53-.35S218,307.26,218,307.45Z" style="fill:#ebebeb"></path><rect x="187.06" y="319.34" width="8.64" height="18.22" style="fill:#f5f5f5"></rect><path d="M218,344.72c0,.19-11.43.35-25.52.35s-25.53-.16-25.53-.35,11.43-.35,25.53-.35S218,344.53,218,344.72Z" style="fill:#ebebeb"></path><rect x="187.06" y="356.62" width="8.64" height="18.22" style="fill:#f5f5f5"></rect><path d="M218,382c0,.19-11.43.35-25.52.35s-25.53-.16-25.53-.35,11.43-.35,25.53-.35S218,381.8,218,382Z" style="fill:#ebebeb"></path><rect x="135.56" y="282.62" width="8.64" height="18.22" style="fill:#fff"></rect><path d="M166.46,308c0,.19-11.43.35-25.53.35s-25.52-.16-25.52-.35,11.42-.35,25.52-.35S166.46,307.81,166.46,308Z" style="fill:#e0e0e0"></path><rect x="135.56" y="319.36" width="8.64" height="18.22" style="fill:#fff"></rect><path d="M166.46,344.73c0,.19-11.43.35-25.53.35s-25.52-.16-25.52-.35,11.42-.35,25.52-.35S166.46,344.54,166.46,344.73Z" style="fill:#e0e0e0"></path><rect x="135.56" y="356.09" width="8.64" height="18.22" style="fill:#fff"></rect><path d="M166.46,381.47c0,.19-11.43.34-25.53.34s-25.52-.15-25.52-.34,11.42-.35,25.52-.35S166.46,381.27,166.46,381.47Z" style="fill:#e0e0e0"></path><polygon points="125.27 422.48 129.71 413.16 251.26 413.16 248.16 422.48 125.27 422.48" style="fill:#f5f5f5"></polygon><polygon points="504.92 416.56 509.36 407.23 630.92 407.23 627.81 416.56 504.92 416.56" style="fill:#f5f5f5"></polygon></g><g id="freepik--Floor--inject-55"><path d="M732.38,393.72c0,.14-160.91.26-359.36.26s-359.4-.12-359.4-.26,160.88-.26,359.4-.26S732.38,393.58,732.38,393.72Z" style="fill:#263238"></path></g><g id="freepik--safety-triangle--inject-55"><rect x="356.63" y="411.81" width="2.21" height="46" transform="translate(-78.27 791.09) rotate(-89.81)" style="fill:#e0e0e0"></rect><path d="M380.73,436a.79.79,0,0,1,0-.14c0-.11,0-.24,0-.41,0-.39,0-.93,0-1.66l.06.06c-5.72.06-24.17.06-46,0h0c.39-.39.11-.1.19-.19h0v2.2l-.2-.2,32.54.19,9.83.1,2.68,0,.7,0h.25l-.22,0h-.68l-2.63,0-9.79,0-32.68,0h-.2v-.2c0-.35,0-.72,0-1.09v-1.11h0c.09-.09-.2.19.2-.2h0c21.83.07,40.28.19,46,.29h.05v.06c0,.75,0,1.3,0,1.69l0,.4A.36.36,0,0,1,380.73,436Z" style="fill:#263238"></path><rect x="329.78" y="432.85" width="6.63" height="3.65" transform="translate(-102.69 766.32) rotate(-89.81)" style="fill:#e0e0e0"></rect><path d="M334.91,438a18.53,18.53,0,0,1-.09-1.92c0-1.18-.07-2.81-.07-4.71l.18.18h-3.65c0,.05.37-.37.2-.19h0v1.85c0,.6,0,1.18,0,1.74,0,1.1,0,2.12,0,3l-.15-.16,2.62.09a7.47,7.47,0,0,1,1,.08,5.25,5.25,0,0,1-.94.06c-.63,0-1.56.06-2.71.07h-.15V438c0-.9,0-1.92,0-3v-3.58h0l.2-.2,3.65,0h.19v.18c0,2-.06,3.66-.1,4.83A14.4,14.4,0,0,1,334.91,438Z" style="fill:#263238"></path><rect x="378.52" y="433.01" width="6.63" height="3.65" transform="translate(-54.28 815.21) rotate(-89.81)" style="fill:#e0e0e0"></rect><path d="M383.64,438.16s-.05-.74-.09-1.92-.06-2.81-.07-4.71l.18.19H380s.37-.37.19-.2h0v.93c0,.31,0,.62,0,.92,0,.6,0,1.18,0,1.74,0,1.11,0,2.12-.05,3L380,438c1.09,0,2,.06,2.62.09a8.85,8.85,0,0,1,1,.07,5.62,5.62,0,0,1-.93.07l-2.72.07h-.15v-.15c0-.91,0-1.92,0-3v-3.59h0l.2-.2,3.65,0h.18v.18c0,2-.07,3.67-.11,4.83A14.4,14.4,0,0,1,383.64,438.16Z" style="fill:#263238"></path><path d="M387,429.34l-28-48.3a2.16,2.16,0,0,0-3.74,0l-27.58,48.12a2.16,2.16,0,0,0,1.86,3.23l55.56.18A2.16,2.16,0,0,0,387,429.34Zm-16.47-6.51-26.29-.08a1,1,0,0,1-.89-1.53l13.06-22.77a1,1,0,0,1,1.76,0l13.24,22.86A1,1,0,0,1,370.55,422.83Z" style="fill:#FF725E"></path><g style="opacity:0.30000000000000004"><path d="M387,429.34l-28-48.3a2.16,2.16,0,0,0-3.74,0l-27.58,48.12a2.16,2.16,0,0,0,1.86,3.23l55.56.18A2.16,2.16,0,0,0,387,429.34Zm-16.47-6.51-26.29-.08a1,1,0,0,1-.89-1.53l13.06-22.77a1,1,0,0,1,1.76,0l13.24,22.86A1,1,0,0,1,370.55,422.83Z"></path></g><path d="M380.22,427l-22.07-38.11a1.06,1.06,0,0,0-1.83,0l-21.76,38a1.05,1.05,0,0,0,.91,1.58l43.83.15A1.05,1.05,0,0,0,380.22,427Zm-9.67-4.13-26.29-.08a1,1,0,0,1-.89-1.53l13.06-22.77a1,1,0,0,1,1.76,0l13.24,22.86A1,1,0,0,1,370.55,422.83Z" style="fill:#FF725E"></path><path d="M358.3,384.5a1.17,1.17,0,1,1-1.17-1.17A1.17,1.17,0,0,1,358.3,384.5Z" style="fill:#e0e0e0"></path><path d="M357.83,383.84c.08.08-.17.45-.56.84s-.77.64-.84.56.17-.45.56-.84S357.76,383.76,357.83,383.84Z" style="fill:#263238"></path><path d="M357.81,385.21c-.1.05-.35-.29-.71-.63s-.7-.6-.65-.7.51,0,.92.41S357.91,385.17,357.81,385.21Z" style="fill:#263238"></path><path d="M333.11,429.37a1.18,1.18,0,0,1-2.35,0,1.18,1.18,0,1,1,2.35,0Z" style="fill:#e0e0e0"></path><path d="M332.64,428.71c.08.08-.18.45-.56.84s-.77.64-.85.56.18-.45.57-.84S332.56,428.63,332.64,428.71Z" style="fill:#263238"></path><path d="M332.62,430.08c-.1,0-.36-.29-.72-.64s-.69-.59-.64-.69.51,0,.92.41S332.72,430,332.62,430.08Z" style="fill:#263238"></path><path d="M384.49,429.54a1.18,1.18,0,1,1-1.17-1.17A1.17,1.17,0,0,1,384.49,429.54Z" style="fill:#e0e0e0"></path><path d="M384,428.88c.07.08-.18.45-.57.84s-.76.64-.84.56.17-.45.56-.84S383.94,428.8,384,428.88Z" style="fill:#263238"></path><path d="M384,430.25c-.1.05-.35-.29-.71-.63s-.7-.6-.65-.7.51,0,.92.41S384.09,430.21,384,430.25Z" style="fill:#263238"></path><g style="opacity:0.30000000000000004"><polygon points="370.04 409.38 366.63 413 368.33 415.95 371.83 412.47 370.04 409.38" style="fill:#fff"></polygon></g><g style="opacity:0.30000000000000004"><polygon points="369.33 417.67 372.7 414 373.25 414.96 369.83 418.54 369.33 417.67" style="fill:#fff"></polygon></g><g style="opacity:0.30000000000000004"><polygon points="356.38 422.73 350.3 428.44 356.29 428.46 361.91 422.8 356.38 422.73" style="fill:#fff"></polygon></g><path d="M354.74,391.88c.1.06-3.72,6.72-8.52,14.88s-8.78,14.74-8.87,14.69,3.72-6.72,8.53-14.89S354.65,391.83,354.74,391.88Z" style="fill:#263238"></path><path d="M367.77,428.66c0,.11-4.91.18-11,.16s-11-.13-11-.24,4.92-.18,11-.16S367.77,428.55,367.77,428.66Z" style="fill:#263238"></path><path d="M375.84,418.86a13.89,13.89,0,0,1-1.41-2c-.82-1.29-1.89-3.09-3.05-5.1l-2.94-5.15a16.94,16.94,0,0,1-1.17-2.16,15.28,15.28,0,0,1,1.41,2c.82,1.28,1.89,3.09,3.05,5.1l2.94,5.14A17.78,17.78,0,0,1,375.84,418.86Z" style="fill:#263238"></path></g><g id="freepik--Crash--inject-55"><path d="M465.56,149.81c6.76-2.28,9.54-6.48,11.68-11.61,2.33-5.58,2.43-10,1.55-15.58a26.65,26.65,0,0,0-5.28-12.23A72.69,72.69,0,0,0,462.7,99.23c-11.07-9.59-29.95-12.37-42.49-4.8l-.89.55c-14.77,9.5-9,25.76-9,25.76a30.16,30.16,0,0,0-3.53-.9C401,119,387,116.76,374.44,131.23c-7.64,8.78-9.25,19.85-5.71,33.34h0c3.57,13.58,5.81,15.55,5.81,15.55s-22.74,11.43-7,21.5c-11.84-1.44-14,10.33-14,10.33a13.35,13.35,0,0,0,2.85,11.7,8.53,8.53,0,0,0,7.36,3.23h0a19.73,19.73,0,0,0,6.5-1.55,8.4,8.4,0,0,0-2.59,4.2h0c-.66,2.47-.48,6,2.48,10.66,6.24,9.81,21.63,7.94,22.18,7.87h0a31.42,31.42,0,0,0-3.95,4c-1.82,2.25-3.46,5.07-2.89,7.54,1.06,4.67,10.12,15.11,11.39,16.57a2.21,2.21,0,0,1,.15.18s-13.21,12-7.68,21.38l9.11,18.46a193.6,193.6,0,0,0,22.08-37.49,91.76,91.76,0,0,0,9.93-12.35c4.44-6.73,8.15-14.9,5.46-20.88-2.56-5.69-7.52-8.74-12.07-10.38a33.24,33.24,0,0,0-9.79-1.91s3.22-5.56-1.12-8.29a12.37,12.37,0,0,0-4-1.76,86,86,0,0,0,9.21-1.13c10.85-1.92,26.27-6.78,31.05-19,7.64-19.58-5.38-34.81-5.38-34.81s6.65-.41,8.72-6.59-1.12-9.3-1.12-9.3h0l-.45-.75A35.7,35.7,0,0,0,465.56,149.81Z" style="fill:#e0e0e0"></path><path d="M355.9,173.82c-1.28-3.62-5.59-6.07-9.19-4.74a10.24,10.24,0,1,0-15.1-13.81l-2.07-1.21c-6.16-4.78-16.51-2.25-19.76,4.83S311.36,175.48,319,177c-5.26,2.74-7.21,10.1-4.52,15.38s9.23,8.06,15.06,7,10.68-5.69,12.81-11.22a15.9,15.9,0,0,0,10.57-3.86C355.73,181.66,357.17,177.43,355.9,173.82Z" style="fill:#e0e0e0"></path><path d="M485.53,235.9c-1.68-2.13-4.44-3-7-3.83s-5.16-1.55-7.76-1.12-5.15,2.48-5.21,5.12c-3.79-1.35-7.65,3.86-7.83,7a6.84,6.84,0,0,0,5.13,6.83,5.37,5.37,0,1,0,9.84,2.44,8.65,8.65,0,0,0,9.35-.43,12.66,12.66,0,0,0,5-8.29C487.45,240.93,487.19,238,485.53,235.9Z" style="fill:#e0e0e0"></path><path d="M421.82,256.7a.28.28,0,0,1,.19.34.34.34,0,0,1-.35.21.42.42,0,0,1-.34-.25.1.1,0,0,1,0-.09.16.16,0,0,1,.07-.09.57.57,0,0,1,.22-.15.23.23,0,0,1,.25.07Z" style="fill:#FF725E;fill-rule:evenodd"></path><path d="M395.75,261.81a.27.27,0,0,1,.18.34.32.32,0,0,1-.35.21.42.42,0,0,1-.33-.25.1.1,0,0,1,0-.09.11.11,0,0,1,.06-.09.7.7,0,0,1,.23-.15.22.22,0,0,1,.24.07Z" style="fill:#FF725E;fill-rule:evenodd"></path><path d="M419.56,263.2a1.14,1.14,0,0,0-1.73-.87,1.49,1.49,0,0,0,1,2,1.27,1.27,0,0,0,.55-1.14Z" style="fill:#FF725E;fill-rule:evenodd"></path><path d="M363.29,243.93a1,1,0,1,1-.07-.1Z" style="fill:#FF725E;fill-rule:evenodd"></path><path d="M422.76,227.49l-1.68.86a1.54,1.54,0,0,0,1.62.49,1,1,0,0,0-.18-1.52Z" style="fill:#FF725E;fill-rule:evenodd"></path><path d="M462.45,273.55a.86.86,0,0,0-.93-.67c-.42.09-.59.75-.22.95s.76-.17,1-.5Z" style="fill:#FF725E;fill-rule:evenodd"></path><path d="M441.55,238.57a1,1,0,1,1-.07-.33Z" style="fill:#FF725E;fill-rule:evenodd"></path><path d="M419.22,252.39a1,1,0,1,1-.07-.33Z" style="fill:#FF725E;fill-rule:evenodd"></path><path d="M448.51,263.86a.78.78,0,0,0-1.08-.54.71.71,0,0,0-.05,1.16.64.64,0,0,0,.92-.62Z" style="fill:#FF725E;fill-rule:evenodd"></path><path d="M443.37,265c-.38-.45-.95-.71-1.33-.29a1.34,1.34,0,0,0,.12,1.7c.43.3,1-.25,1-.94Z" style="fill:#FF725E;fill-rule:evenodd"></path><polygon points="468.08 198.45 444.5 216.13 448.6 219.28 430.7 236.88 458.25 217.38 454.02 214.13 468.08 198.45" style="fill:#FF725E"></polygon><polygon points="354.23 199.6 374.15 216.58 370.34 219.14 385.23 235.72 361.89 216.92 365.82 214.28 354.23 199.6" style="fill:#FF725E"></polygon><polygon points="414.29 159.61 403.33 198.72 410.45 198.72 405.62 232.97 419.41 188.55 412.06 188.55 414.29 159.61" style="fill:#FF725E"></polygon></g><g id="freepik--Car1--inject-55"><polygon points="377.96 268.93 348.56 268.44 347.86 266.33 377.09 261.39 377.96 268.93" style="fill:#263238"></polygon><g style="opacity:0.2"><polygon points="377.96 268.93 348.56 268.44 347.86 266.33 377.09 261.39 377.96 268.93"></polygon></g><path d="M15,341.84h.9a0,0,0,0,1,0,0v1.38a0,0,0,0,1,0,0H15a.67.67,0,0,1-.67-.67v0a.67.67,0,0,1,.67-.67Z" transform="translate(122.65 16.97) rotate(20.8)" style="fill:#455a64"></path><path d="M13.86,344.54h.9a0,0,0,0,1,0,0v1.38a0,0,0,0,1,0,0h-.9a.67.67,0,0,1-.67-.67v0A.67.67,0,0,1,13.86,344.54Z" transform="translate(123.53 17.55) rotate(20.8)" style="fill:#455a64"></path><path d="M12.73,347.24h.9a0,0,0,0,1,0,0v1.38a0,0,0,0,1,0,0h-.9a.67.67,0,0,1-.67-.67v0A.67.67,0,0,1,12.73,347.24Z" transform="matrix(0.93, 0.36, -0.36, 0.93, 124.42, 18.12)" style="fill:#455a64"></path><path d="M12.08,350.44H13a0,0,0,0,1,0,0v1.38a0,0,0,0,1,0,0h-.9a.67.67,0,0,1-.67-.67v0a.67.67,0,0,1,.67-.67Z" transform="translate(59.7 3.01) rotate(9.76)" style="fill:#455a64"></path><path d="M18.87,333.42a1.51,1.51,0,0,0-1.41.61c-.51.76-2.61,4.93-2.18,5.57a2.89,2.89,0,0,0,1.53.91l2.83-5.05-.71-1.83" style="fill:#455a64"></path><rect x="42.06" y="315.21" width="327.96" height="38.75" transform="translate(-37.19 25.98) rotate(-6.62)" style="fill:#263238"></rect><g style="opacity:0.30000000000000004"><rect x="42.06" y="315.21" width="327.96" height="38.75" transform="translate(-37.19 25.98) rotate(-6.62)"></rect></g><path d="M382.92,268.32c-4.27.38-30.81-.26-30.81-.26s-43.51-12.55-64.57-15.5C269.2,250,235,251.47,235,251.47c-7.54.57-16,1.5-23.49,2.55a142.84,142.84,0,0,0-27.35,6.64l-6.83,2.4a106.68,106.68,0,0,0-17.39,8.56c-6.17,3.77-14.23,8.87-19.5,12.92-9.43,7.23-21.94,17-22.29,17.26h0L109.51,304s-33.07,7.42-41.94,9.6c-8.27,2-27.76,5.82-40.07,12.74a29.7,29.7,0,0,0-8.72,7.2c-.36.46,1,1.81.71,2.3a55.15,55.15,0,0,0-6,12.62,23.45,23.45,0,0,0-1.16,8.23c.12,3.07.27,7.07.27,7.08l3.59,11.09-2,.24a.08.08,0,0,0-.07.1A4,4,0,0,0,16.21,378l5.22,2.63,0,.06.28,1.84.06.07c10.5,3.32,21.77,4,33.7,2.43a.08.08,0,0,0,.07-.09l-1.36-10.9c-.25-1.13-.45-2.28-.59-3.46A33.91,33.91,0,0,1,121,362.8l.69,4.29,2,10,.09.06c2.43-.3,70.67-8.75,79.6-9.34s89-11.06,90.72-11.29l.05,0,1.8-2.69A33.94,33.94,0,0,1,323.7,308c1-.13,10.15-7.83,11.18-7.85,1.41-.07,9.33,13.32,10.82,13.58,16.72,5,10.69-16.65,22.52-4.06l20.57-4.08c-.35-1.58,3-13.16,2.57-13.49" style="fill:#263238"></path><g style="opacity:0.30000000000000004"><path d="M262.93,344.4,158.87,356.48a19.21,19.21,0,0,1-13.14-3.3h0l120.19-14.34Z"></path></g><path d="M356.05,312.13a4.09,4.09,0,0,1-.56-.54c-.37-.35-.85-.93-1.57-1.58a38.47,38.47,0,0,0-6.44-5,41.59,41.59,0,0,0-5-2.66,43.54,43.54,0,0,0-6.1-2.13,37.1,37.1,0,0,0-28.6,3.85,39.36,39.36,0,0,0-9.42,7.55,38.56,38.56,0,0,0-4.87,6.54c-.53.82-.83,1.51-1.09,1.94a5.14,5.14,0,0,1-.4.67,3.53,3.53,0,0,1,.3-.71c.23-.46.51-1.16,1-2a36.47,36.47,0,0,1,4.78-6.69,40.93,40.93,0,0,1,4.09-4,42.5,42.5,0,0,1,5.36-3.75,37.12,37.12,0,0,1,29-3.9,42.26,42.26,0,0,1,6.16,2.2,39.79,39.79,0,0,1,5,2.74,36.43,36.43,0,0,1,6.38,5.18c.71.68,1.16,1.29,1.5,1.66A4.43,4.43,0,0,1,356.05,312.13Z" style="fill:#455a64"></path><path d="M352.11,268.06c.16-.08,1.79,3.44,4.65,7.21a36.86,36.86,0,0,0,4,4.48,19.72,19.72,0,0,1,1.85,1.72,8.48,8.48,0,0,1-2.09-1.44,27.86,27.86,0,0,1-4.22-4.44,34.28,34.28,0,0,1-3.24-5.19A9.72,9.72,0,0,1,352.11,268.06Z" style="fill:#455a64"></path><path d="M313.5,268.12s.12.28.34.85a8.43,8.43,0,0,1,.4,2.72c0,2.45-.89,6.14-3.3,10.43h0c-3.5,7.1-8.53,17.22-14.91,29.8-3.19,6.29-6.72,13.2-10.64,20.61-1,1.85-2,3.74-3.05,5.64-.52.95-1.06,1.91-1.63,2.87-.28.47-.55,1-.85,1.43l-1,1.41a23.46,23.46,0,0,1-4.93,4.81,18.21,18.21,0,0,1-6.73,2.28c-9.5,1.36-19.54,2.48-30.08,3.76l-33,3.9-72.83,8.48-.23,0-.06-.21c-1.23-4.7-2.48-9.75-3.61-14.87-.77-3.52-1.49-7-2-10.57s-.81-7.06-1.08-10.57-.43-7-.44-10.45a45.54,45.54,0,0,1,.92-10.25v.05a9.43,9.43,0,0,1,.83-2.73,19.29,19.29,0,0,1,1.36-2.44,32,32,0,0,1,3.43-4.33,101.7,101.7,0,0,1,8.06-7.27,173.37,173.37,0,0,1,16.8-12.76c1.46-.93,2.88-1.9,4.34-2.78l4.38-2.6c1.47-.84,3-1.61,4.43-2.41s3-1.53,4.45-2.24a157.63,157.63,0,0,1,17.88-7.33A163.64,163.64,0,0,1,225.43,256,240.18,240.18,0,0,1,256,255c18.65.6,33.46,3.4,43.31,6.35a59.13,59.13,0,0,1,11,4.27,12.49,12.49,0,0,1,2.52,1.72,2.57,2.57,0,0,1,.64.82,4.29,4.29,0,0,0-.67-.79,13.47,13.47,0,0,0-2.54-1.67,60.9,60.9,0,0,0-11-4.18c-9.85-2.89-24.65-5.63-43.27-6.18a241.76,241.76,0,0,0-30.55,1.12,164.23,164.23,0,0,0-34.54,7.37,157.42,157.42,0,0,0-17.81,7.33c-1.49.71-3,1.42-4.44,2.23s-3,1.57-4.41,2.4l-4.37,2.6c-1.45.89-2.87,1.85-4.32,2.78a172.17,172.17,0,0,0-16.75,12.74,99.35,99.35,0,0,0-8,7.23,31.55,31.55,0,0,0-3.37,4.26,12.9,12.9,0,0,0-2.1,4.91v.06h0a44.66,44.66,0,0,0-.9,10.12c0,3.44.17,6.92.44,10.41s.59,7,1.07,10.53,1.25,7,2,10.53c1.13,5.11,2.37,10.16,3.61,14.85l-.28-.19,72.84-8.44,33-3.87c10.52-1.27,20.61-2.38,30.05-3.71a17.86,17.86,0,0,0,6.59-2.22,23.1,23.1,0,0,0,4.85-4.72l.94-1.36c.29-.47.56-1,.84-1.43.57-.94,1.1-1.9,1.63-2.85,1.07-1.89,2.06-3.78,3.06-5.63,3.94-7.4,7.48-14.3,10.69-20.58,6.41-12.56,11.48-22.66,15-29.73h0c2.42-4.24,3.36-7.91,3.37-10.34A8.86,8.86,0,0,0,313.5,268.12Z" style="fill:#455a64"></path><path d="M20.91,348s-2.08-8.55,6-12.47,30.93-10.06,30.91-8.82-18.93,17-25.39,19.21A35.46,35.46,0,0,1,20.91,348Z" style="fill:#455a64"></path><path d="M136.37,301.49s18.75-20.4,44-30.62S218,260.35,218,260.35l-3.37,30.16-77.94,13.34Z" style="fill:#455a64"></path><path d="M230.83,289.4l.4-.07,1.16-.17,4.45-.65,16.47-2.33,55.78-7.77-.21.3a28.33,28.33,0,0,0-3.16-8.68,8.39,8.39,0,0,0-3.48-3,33,33,0,0,0-4.45-1.84,84.37,84.37,0,0,0-9.66-2.54c-3.22-.67-6.42-1.22-9.58-1.67-6.31-.91-12.43-1.58-18.28-1.89s-11.43-.37-16.64-.35q-3.91,0-7.55.1l-3.55.12c-.28,0-.6,0-.84,0a1.4,1.4,0,0,0-.67.32,1.5,1.5,0,0,0-.48,1.38c.1,8.83.18,16,.24,21,0,2.47,0,4.4.05,5.73,0,.65,0,1.15,0,1.51s0,.52,0,.52,0-.16,0-.48,0-.84,0-1.47c0-1.33-.08-3.24-.14-5.69-.11-5-.26-12.19-.45-21.07a1.9,1.9,0,0,1,.6-1.67,1.73,1.73,0,0,1,.85-.41c.33-.05.59,0,.89-.06l3.56-.13q3.63-.1,7.56-.14c5.22,0,10.8,0,16.66.31s12,1,18.34,1.87c3.16.45,6.37,1,9.61,1.67a82.41,82.41,0,0,1,9.72,2.55,34.51,34.51,0,0,1,4.53,1.87,15.13,15.13,0,0,1,2.06,1.34,7.13,7.13,0,0,1,1.61,1.86,28.66,28.66,0,0,1,3.22,8.86l.06.27-.28,0-56,7.57-16.43,2.18-4.4.57-1.13.14Z" style="fill:#455a64"></path><path d="M222.67,293.87a2.26,2.26,0,0,1-.43.08l-1.26.2-4.86.72-7.67,1.27-10.14,1.77c-15,2.68-35.71,6.6-58.55,11.09s-43.48,8.75-58.39,12c-7.46,1.6-13.47,3-17.62,4-2.08.46-3.67.92-4.76,1.19l-1.24.31a2.32,2.32,0,0,1-.43.09l.41-.14L59,326c1.08-.31,2.67-.8,4.74-1.29,4.13-1.06,10.14-2.47,17.59-4.12,14.9-3.3,35.53-7.61,58.37-12.11s43.56-8.36,58.59-10.94l10.15-1.7,7.69-1.18c2.11-.3,3.76-.48,4.87-.62l1.27-.15A2.43,2.43,0,0,1,222.67,293.87Z" style="fill:#455a64"></path><path d="M113.71,314.23c-.16-.1,1.6-2.41,2.75-5.71s1.14-6.2,1.32-6.18a5.75,5.75,0,0,1,.07,1.88,16.67,16.67,0,0,1-.9,4.48,17.62,17.62,0,0,1-2,4.07A5.78,5.78,0,0,1,113.71,314.23Z" style="fill:#455a64"></path><path d="M32.93,333.09a9.49,9.49,0,0,1-4.39-1.54,9,9,0,0,1-3.47-3.08c.1-.1,1.55,1.37,3.74,2.63S33,332.92,32.93,333.09Z" style="fill:#455a64"></path><path d="M52.64,328.88l-17.92,4.95s-11.27,2.85-11.59,8.47L22.86,346s7.79.3,12.71-2.85S52.64,328.88,52.64,328.88Z" style="fill:#e0e0e0"></path><path d="M54.46,342a12.05,12.05,0,0,1-3.14-1.46,11.72,11.72,0,0,1-2.89-1.91,12,12,0,0,1,3.15,1.46A11.53,11.53,0,0,1,54.46,342Z" style="fill:#455a64"></path><path d="M120,342.86a5.31,5.31,0,0,1-.43-.74c-.14-.24-.28-.55-.49-.89l-.76-1.18c-.29-.44-.67-.89-1-1.4s-.88-1-1.37-1.58a31.38,31.38,0,0,0-3.81-3.34,38.52,38.52,0,0,0-11.77-5.89,43.77,43.77,0,0,0-16-1.55,45.58,45.58,0,0,0-15.57,4.13A39.6,39.6,0,0,0,58,338a40.83,40.83,0,0,0-5.63,6.9c-.56.9-1,1.6-1.25,2.09s-.43.73-.44.73A4.07,4.07,0,0,1,51,347c.23-.51.63-1.22,1.17-2.14a38.08,38.08,0,0,1,5.54-7.06A39.15,39.15,0,0,1,68.5,330a45.45,45.45,0,0,1,15.73-4.22,43.52,43.52,0,0,1,16.2,1.61,38.26,38.26,0,0,1,11.84,6.05,30.7,30.7,0,0,1,3.8,3.45c.49.58,1,1.09,1.35,1.61s.75,1,1,1.45l.72,1.21c.2.36.33.68.46.93A4.66,4.66,0,0,1,120,342.86Z" style="fill:#455a64"></path><path d="M294.27,347.81c0,.14-38.6,4.74-86.23,10.27s-86.27,9.89-86.29,9.75,38.58-4.74,86.23-10.27S294.25,347.67,294.27,347.81Z" style="fill:#455a64"></path><path d="M232.59,266.13l-.08-5.25c1.41-.16,33.78-.76,51.85,2.8,14.32,2.81,18.53,6.66,18.84,7.86l-4.31.51-5.8,1a6,6,0,0,0-3.88,2.4,8.07,8.07,0,0,0-1.83,4.31l-52.77,6.13a.91.91,0,0,1-1-.84Z" style="fill:#455a64"></path><polygon points="275.17 262.11 274.01 281.31 276.68 281 277.93 262.67 275.17 262.11" style="fill:#263238"></polygon><path d="M231.45,267s4.39-.1,5.06,1.28,2.56,11.34,1.89,12.51a5.5,5.5,0,0,1-2.27,1.88l0,.36s3.39.21,3.67,1.92.19,1.71.19,1.71l-8.23,1.08Z" style="fill:#263238"></path><path d="M138.47,301.25l-4.72,1.51s4.15,2.74,5.24,2.95,6.55-1.24,6.55-1.24S141.28,300.63,138.47,301.25Z" style="fill:#263238"></path><g style="opacity:0.1"><path d="M28.94,331c27.42-12.29,53-19,82.67-23.53l-49,16,17.81-7.71s-12.22,2.48-19,4.41S28.94,331,28.94,331Z" style="fill:#fff"></path></g><path d="M40.92,334.25l-7.15,9.83s-6.12,2.36-10.91,1.9v-3.71s.39-3.09,4.47-5.37C30.46,335.15,40.92,334.25,40.92,334.25Z" style="fill:#fff"></path><g style="opacity:0.30000000000000004"><path d="M12.77,364.33s24.34-1.92,27.29,9.82c0,0-15.45,2.82-23.88.7Z"></path></g><path d="M28.43,367.28c-.33,0,1.08,6.5,1.08,6.5s4.84,0,9.17-.29C38.68,373.49,35.34,367.43,28.43,367.28Z" style="fill:#fff"></path><path d="M14.14,375.09s3.49,2.66,11.26,2.6,25.19-2.55,25.19-2.55l-12.26-4.68,1.73,3.69-23.88.7Z" style="fill:#455a64"></path><ellipse cx="87.36" cy="367.18" rx="30.42" ry="31.41" transform="translate(-36.6 10.69) rotate(-5.79)" style="fill:#263238"></ellipse><path d="M57.09,370.17a.25.25,0,0,1,0,.08c1.75,17.26,16.72,29.88,33.43,28.18s28.84-17.06,27.09-34.32c0,0,0-.05,0-.08Z" style="fill:#263238"></path><path d="M66.11,369.34c1.23,12.12,11.74,21,23.47,19.78s20.25-12,19-24.09-11.73-21-23.47-19.79S64.88,357.22,66.11,369.34Z" style="fill:#fafafa"></path><path d="M85.13,345.24c-11.73,1.19-20.25,12-19,24.1L108.6,365C107.37,352.91,96.87,344.05,85.13,345.24Z" style="fill:#e0e0e0"></path><path d="M74.42,368.5A13,13,0,1,0,86,353.82,13.23,13.23,0,0,0,74.42,368.5Z" style="fill:#263238"></path><path d="M298.09,345.61c1.75,17.26,16.71,29.87,33.43,28.18s28.84-17.06,27.09-34.32-16.72-29.88-33.43-28.18S296.33,328.35,298.09,345.61Z" style="fill:#263238"></path><path d="M298.08,345.53a.22.22,0,0,0,0,.08c1.75,17.26,16.71,29.87,33.43,28.18s28.84-17.06,27.09-34.32a.22.22,0,0,1,0-.08Z" style="fill:#263238"></path><path d="M307.1,344.69c1.23,12.12,11.74,21,23.47,19.79s20.25-12,19-24.1-11.74-21-23.47-19.78S305.87,332.58,307.1,344.69Z" style="fill:#fafafa"></path><path d="M326.12,320.6c-11.73,1.19-20.25,12-19,24.09l42.49-4.31C348.36,328.27,337.85,319.41,326.12,320.6Z" style="fill:#e0e0e0"></path><path d="M315.41,343.85A13,13,0,1,0,327,329.17,13.21,13.21,0,0,0,315.41,343.85Z" style="fill:#263238"></path><polygon points="283.17 262.06 284.11 281.31 286.91 280.95 286.52 262.54 283.17 262.06" style="fill:#263238"></polygon><path d="M162,301.26s-2.68-6.67-3.55-7.06-2.77.1-2.66,1,2.5,6.47,2.5,6.47Z" style="fill:#263238"></path><path d="M152.67,292s-2.4-2.87-4.51-2.46-4.73,2.66-6.58,4.92c-1,1.26-3.51,5.29-3,7.71s3,2.31,6,2.29,9.76-1.63,11-2.85S156,295.14,152.67,292Z" style="fill:#263238"></path><path d="M152.67,292a2,2,0,0,1,.41.34,7.15,7.15,0,0,1,1,1.12,11.46,11.46,0,0,1,2.18,5.08,6.42,6.42,0,0,1,.06,1.87,2.94,2.94,0,0,1-.3,1,2,2,0,0,1-.81.74,18.89,18.89,0,0,1-4.15,1.51,37.49,37.49,0,0,1-4.76.93,18.43,18.43,0,0,1-2.58.14,16.12,16.12,0,0,1-2.66-.15,3.17,3.17,0,0,1-2.36-1.43,3.92,3.92,0,0,1-.34-2.65,14.28,14.28,0,0,1,1.89-4.51,17.89,17.89,0,0,1,5.81-5.79,4.57,4.57,0,0,1,3.08-.78,5.39,5.39,0,0,1,2.13,1.12,9.54,9.54,0,0,1,1.09,1c.23.26.33.41.31.42s-.49-.52-1.52-1.3a5.26,5.26,0,0,0-2.07-1,4.27,4.27,0,0,0-2.84.81,16.36,16.36,0,0,0-2.92,2.35,16.16,16.16,0,0,0-2.66,3.36,14,14,0,0,0-1.79,4.36,3.43,3.43,0,0,0,.28,2.3,2.68,2.68,0,0,0,2,1.18,15.7,15.7,0,0,0,2.57.14,19,19,0,0,0,2.52-.12,38.76,38.76,0,0,0,4.7-.9,18.69,18.69,0,0,0,4.05-1.41,1.68,1.68,0,0,0,.67-.58,2.71,2.71,0,0,0,.26-.85,6.09,6.09,0,0,0,0-1.76,11.86,11.86,0,0,0-2-5C153.18,292.56,152.63,292.08,152.67,292Z" style="fill:#455a64"></path><path d="M154.47,302.13c-.09,0,0-.85-.15-2.18a12.63,12.63,0,0,0-1.56-4.93,12.83,12.83,0,0,0-3.43-3.87c-1.08-.8-1.84-1.16-1.8-1.25a5.63,5.63,0,0,1,2,1,11.42,11.42,0,0,1,5.15,9.07A5.7,5.7,0,0,1,154.47,302.13Z" style="fill:#455a64"></path><path d="M136.31,306.38a10.7,10.7,0,0,1,3.39-1.31,11,11,0,0,1,3.59-.6,16.36,16.36,0,0,1-3.45,1.1A16.25,16.25,0,0,1,136.31,306.38Z" style="fill:#455a64"></path><path d="M138.75,301.21a10.55,10.55,0,0,1-3.13,1.19,11.38,11.38,0,0,1-3.28.7,11,11,0,0,1,3.14-1.19A11.41,11.41,0,0,1,138.75,301.21Z" style="fill:#455a64"></path><path d="M163.76,269.24l4,1.84c-17.09,9.42-33.81,21.19-50.25,34.64l.25-3.61s15.21-12.55,24.75-19.4S163.76,269.24,163.76,269.24Z" style="fill:#455a64"></path><path d="M297.37,257.35l40.41,9.88,6.94-1.21s-32.57-8.95-47-11.62Z" style="fill:#455a64"></path><path d="M55.43,382.65a7.32,7.32,0,0,1-1.32.24c-.85.13-2.09.27-3.62.4a84.48,84.48,0,0,1-24-1.49c-1.51-.31-2.72-.61-3.55-.84a6.19,6.19,0,0,1-1.28-.41,6.87,6.87,0,0,1,1.32.21c.84.18,2.06.41,3.58.68a105.48,105.48,0,0,0,11.89,1.44,104.07,104.07,0,0,0,12,0c1.53-.08,2.77-.16,3.63-.23A6.23,6.23,0,0,1,55.43,382.65Z" style="fill:#455a64"></path><path d="M44.35,370.66c-.07.07-1.3-1.37-3.65-3.26a32.45,32.45,0,0,0-21.85-7.16c-3,.13-4.85.56-4.87.47a6.15,6.15,0,0,1,1.28-.35,27.71,27.71,0,0,1,3.57-.49,30.7,30.7,0,0,1,22.11,7.25,28,28,0,0,1,2.59,2.51A6.06,6.06,0,0,1,44.35,370.66Z" style="fill:#455a64"></path><path d="M57,331.26a12.65,12.65,0,0,1-1.29,1c-.85.63-2.05,1.58-3.49,2.79-2.92,2.41-6.65,6.08-11.2,9.67s-9.38,6-13.11,6.81a20,20,0,0,1-4.46.59c-.54,0-.95,0-1.23,0a1.16,1.16,0,0,1-.42-.06,29.81,29.81,0,0,0,6-.84,37,37,0,0,0,12.88-6.87c4.51-3.56,8.29-7.2,11.28-9.54,1.48-1.19,2.72-2.09,3.61-2.68.43-.3.79-.51,1-.65A1.37,1.37,0,0,1,57,331.26Z" style="fill:#455a64"></path><path d="M227.78,355.62a.91.91,0,0,1-.09-.24c-.06-.2-.13-.44-.21-.73-.19-.69-.44-1.63-.76-2.82-.63-2.46-1.53-6-2.52-10.44-.49-2.21-1-4.64-1.48-7.27s-.85-5.45-1.21-8.43-.68-6.1-.93-9.36a81.79,81.79,0,0,1-.33-10.11c.14-3.46.43-6.83.74-10.07.15-1.63.36-3.22.48-4.78s.26-3.09.38-4.58c.5-6,1-11.34,1.33-15.86s.71-8.12.94-10.69c.12-1.23.21-2.2.28-2.91q.06-.45.09-.75c0-.17,0-.26,0-.25a.78.78,0,0,1,0,.25l0,.76c0,.71-.11,1.68-.19,2.92-.18,2.57-.45,6.21-.77,10.7s-.76,9.91-1.22,15.87q-.18,2.24-.36,4.59c-.13,1.57-.33,3.15-.47,4.77-.31,3.25-.59,6.61-.73,10.05a83,83,0,0,0,.32,10.05c.24,3.25.56,6.37.9,9.35s.73,5.79,1.16,8.41.94,5.05,1.41,7.26c.94,4.43,1.78,8,2.36,10.47l.66,2.84.16.74A1.27,1.27,0,0,1,227.78,355.62Z" style="fill:#455a64"></path><g style="opacity:0.1"><path d="M79,328.67a4.18,4.18,0,0,0-1.71.21,46,46,0,0,0-22.89,14.71,8,8,0,0,0-1.14,1.76,6,6,0,0,0-.64,2.84,1.36,1.36,0,0,0,2.34.89,16.26,16.26,0,0,0,1.71-2.25A38.17,38.17,0,0,1,78,331.75a4.63,4.63,0,0,0,1.55-.6,1.32,1.32,0,0,0-.56-2.48Z" style="fill:#fff"></path></g><g style="opacity:0.1"><path d="M84.85,328.81a1.47,1.47,0,0,1-1.27,1.62,1.45,1.45,0,1,1,1.27-1.62Z" style="fill:#fff"></path></g><g style="opacity:0.2"><path d="M365.34,285.31s-1.3-3.85-7.51-4l-1.95-1.11-18.57.09,8.26,8.39,8.66,4.46-4.86,21s18-23.95,17.82-24.42S365.34,285.31,365.34,285.31Z"></path></g><path d="M346.49,313.66c-.31.4-5.35-.93-5.35-.93l-8.24-6.36-5,1.92s-5.75-1.4-9.74-.21-17.52,11.27-19.59,15.39a26.62,26.62,0,0,1-4.25,6.33l-6.58-5.43s26.52-22,27.84-23.21,19.07-1.64,19.07-1.64,7.89,3.06,9.54,7.85S346.49,313.66,346.49,313.66Z" style="fill:#263238"></path><g style="opacity:0.2"><path d="M325.92,269.94c.07.59.63,10.58-1.55,12.48a10.5,10.5,0,0,0-2.87,5s10.82-7.62,9.6-11.65A10.33,10.33,0,0,0,325.92,269.94Z"></path></g><g style="opacity:0.2"><path d="M325,298.69l-2-2.06s-11.59-2.84-12.89-4.42-1.28-6.1-1.28-6.1l-2.2,4.36s-.76,1.06-1.53,8.33a19.47,19.47,0,0,1-6.05,11.78S310.13,298.41,325,298.69Z"></path></g><path d="M391.68,289.54a.52.52,0,0,0-.51-.22c-2.44.37-17.94,2.84-20.53,5.39-2.82,2.76.31,13.76-1.92,18.55s-11.58,11.33-10.82,12.11c1.79,1.84,11.87,13.73,16,13.25S384.55,332,384.55,332l7.57-41.81Z" style="fill:#263238"></path><path d="M391.68,289.54a.72.72,0,0,1,.12.14l.35.47h0v0c-.54,3.52-3.42,19.86-7.37,41.85l0,.08,0,.05a47.65,47.65,0,0,1-4.42,3.59c-.79.56-1.61,1.11-2.47,1.6a13.17,13.17,0,0,1-2.75,1.25,5,5,0,0,1-.76.2,3.38,3.38,0,0,1-.8.09,5,5,0,0,1-1.56-.39,15.12,15.12,0,0,1-2.68-1.61,46.32,46.32,0,0,1-4.75-4.14c-1.67-1.63-3.24-3.3-4.77-5l-1.13-1.25-.57-.61-.28-.31-.08-.08a.53.53,0,0,1-.1-.25.8.8,0,0,1,.07-.32,6.06,6.06,0,0,1,1.13-1.34c.39-.4.8-.77,1.2-1.14,1.61-1.48,3.21-2.91,4.68-4.41a20.53,20.53,0,0,0,3.75-4.77,13.66,13.66,0,0,0,.93-5.65c0-1.89-.1-3.73-.16-5.52a25.6,25.6,0,0,1,.23-5.21,4.56,4.56,0,0,1,1-2.29,6.83,6.83,0,0,1,2.06-1.22,31.59,31.59,0,0,1,4.15-1.34c1.32-.36,2.58-.64,3.76-.9,2.37-.51,4.42-.88,6.09-1.17s3-.49,3.87-.61a3.31,3.31,0,0,1,1-.08c.23.09.27.23.27.23a.71.71,0,0,0-.28-.18,3.63,3.63,0,0,0-1,.13l-3.85.71c-1.67.32-3.71.72-6.06,1.25-1.18.28-2.43.57-3.75.94a31.46,31.46,0,0,0-4.08,1.36,7,7,0,0,0-1.94,1.14,4.35,4.35,0,0,0-.91,2.11,25.21,25.21,0,0,0-.19,5.11c.07,1.78.19,3.63.18,5.55a14,14,0,0,1-.95,5.85,20.93,20.93,0,0,1-3.83,4.91c-1.47,1.51-3.08,2.95-4.68,4.43-.4.37-.81.75-1.19,1.13a6,6,0,0,0-1,1.19l0,.06s0,0,0,0H358s.13-.12.07-.05l0,0,0,0,.29.31.57.62,1.13,1.24c1.53,1.67,3.1,3.33,4.75,4.95a45,45,0,0,0,4.7,4.09,13.62,13.62,0,0,0,2.57,1.55,4.33,4.33,0,0,0,1.37.35,2.36,2.36,0,0,0,.69-.08,3,3,0,0,0,.71-.18,13.15,13.15,0,0,0,2.65-1.2,28,28,0,0,0,2.43-1.57,46.72,46.72,0,0,0,4.37-3.53l-.07.13c4-22,7.05-38.29,7.77-41.77v0c-.13-.21-.24-.37-.32-.49S391.67,289.54,391.68,289.54Z" style="fill:#455a64"></path><path d="M392.12,290.17a2.09,2.09,0,0,1-.53.21l-1.57.47c-1.36.39-3.35.91-5.82,1.49l-8.66,2a7.17,7.17,0,0,0-2.3.9,3.17,3.17,0,0,0-1.33,2,12,12,0,0,0-.14,2.7c0,.94.08,1.89.14,2.86a44.91,44.91,0,0,1,.07,5.67,15,15,0,0,1-1.26,5.17,22.32,22.32,0,0,1-5.59,7c-1.9,1.69-3.49,3-4.54,3.93l-1.2,1.1a3,3,0,0,1-.43.37,2.47,2.47,0,0,1,.36-.45c.25-.27.63-.68,1.14-1.17,1-1,2.57-2.34,4.43-4.05a22.64,22.64,0,0,0,5.4-6.89,14.72,14.72,0,0,0,1.18-5,45.86,45.86,0,0,0-.08-5.6c-.06-1-.11-1.93-.13-2.87a12.23,12.23,0,0,1,.15-2.83,3.7,3.7,0,0,1,1.55-2.34,7.54,7.54,0,0,1,2.47-1l8.69-1.92c2.48-.54,4.47-1,5.85-1.33l1.59-.37A2.88,2.88,0,0,1,392.12,290.17Z" style="fill:#455a64"></path><path d="M376.27,275.24s1.69-9.6-.3-10.57-26.59,4.27-31.15,4c-2.32-.12-8.85-1.87-8.59-2.38.44-.87,10.21-.54,11.87-6.59,0,0,22.62-8.43,25.48-7.83s5.4,9.6,6,13.18-.43,12.33-.43,12.33Z" style="fill:#263238"></path><path d="M352.11,268.06s-.22.06-.64.13-1,.18-1.87.29-1.85.22-3.07.28a16,16,0,0,1-4.21-.23l-26-6.52c-5.49-1.34-11.49-2.88-18-4.3s-13.51-2.54-20.92-3.38c-3.71-.46-7.52-.69-11.43-.81s-7.9-.15-12-.13c-8.13.06-16.55.29-25.14.92-4.3.33-8.54.73-12.68,1.4s-8.19,1.5-12.14,2.45a163.5,163.5,0,0,0-22.36,6.92A182.1,182.1,0,0,0,146.92,284c-9.32,6.39-16.54,12-21.58,15.84l-5.8,4.41L118,305.35c-.35.26-.53.37-.53.37l.49-.41,1.49-1.17,5.74-4.49c5-3.86,12.18-9.55,21.49-16a181.67,181.67,0,0,1,34.83-19,164.82,164.82,0,0,1,22.42-7c4-1,8-1.8,12.18-2.46s8.41-1.08,12.72-1.41c8.61-.63,17-.86,25.18-.91,4.07,0,8.07,0,12,.15s7.76.36,11.47.82c7.43.86,14.45,2.08,21,3.44s12.49,3,18,4.36c11,2.77,19.83,5.05,25.94,6.68a16.13,16.13,0,0,0,4.15.28c1.22-.05,2.24-.15,3.07-.24l1.88-.23Z" style="fill:#455a64"></path><path d="M376.7,255.8c.17,0,.07,2.08,0,4.54a3.16,3.16,0,0,0,.43,1.58,1.9,1.9,0,0,1,.27.82,1.37,1.37,0,0,1-.18.75c-.5.76-1,1-1,.93s.37-.42.7-1.09a1.17,1.17,0,0,0-.18-1.18,3.34,3.34,0,0,1-.53-1.79A17.74,17.74,0,0,1,376.7,255.8Z" style="fill:#455a64"></path><path d="M331.4,276.49a14.89,14.89,0,0,0-6.92-7.29,9.78,9.78,0,0,1,6.92,7.29Z" style="fill:#455a64"></path><path d="M351.44,305.19a3.77,3.77,0,0,1,.13-.91c.14-.68.3-1.51.51-2.51.45-2.15,1.11-5.16,1.91-8.66l.12.27-5-2.54-3.69-1.91,0,0,0,0c-2.75-2.83-5.13-5.32-6.8-7.12a21.29,21.29,0,0,1-2.56-3s.26.24.75.72,1.23,1.21,2,2c1.81,1.81,4.2,4.23,6.93,7l-.06,0,3.7,1.9,4.95,2.56.17.09,0,.19c-.83,3.49-1.56,6.49-2.09,8.62-.26,1-.48,1.81-.65,2.47A3.59,3.59,0,0,1,351.44,305.19Z" style="fill:#455a64"></path><path d="M386.87,318.15c.08.12-4.78,3.6-10.85,7.78s-11.07,7.47-11.15,7.35,4.78-3.6,10.85-7.78S386.79,318,386.87,318.15Z" style="fill:#455a64"></path><path d="M393.48,291.68c-.17-.75,1-2.56.81-3.49l-.84-1.63-.12-2.63-1.09-.59a19.36,19.36,0,0,0,1.06-2.64c-.94-1.49-6.43-3-8.93-3.19s-22.18,2.71-22,3.79c0,0,15.65,9.21,28.93,11.72Z" style="fill:#FF725E"></path><g style="opacity:0.4"><path d="M378.16,278.07s1.11,4.07,1.11,4.07l-1.33,1.41-9.64-3.92-1.11,4.12,8.9.71,1.88,4.21,4.82,1.9,6.83-3,3.86,4.1s-3.79-5.27-3.63-5.29,2.44-6.56,2.44-6.56l-.89-.57-3.79,4.51-.78,0-2.46-6.24-.18,8.52-3.92-4.24Z"></path></g><g style="opacity:0.2"><polygon points="306.53 256.23 306.54 257.32 304.04 258.34 308.09 258.29 308.97 259.99 322.12 261.72 331.03 265.18 339.67 264.65 306.53 256.23"></polygon></g></g><g id="freepik--car-2--inject-55"><rect x="398.64" y="316.72" width="317.79" height="46.63" style="fill:#FF725E"></rect><g style="opacity:0.30000000000000004"><rect x="398.64" y="316.72" width="317.79" height="46.63"></rect></g><circle cx="441.34" cy="363.04" r="30.64" transform="translate(-29.66 39.4) rotate(-4.95)" style="fill:#263238"></circle><path d="M410.71,362.52a.22.22,0,0,0,0,.08,30.64,30.64,0,1,0,61.28.88v-.08Z" style="fill:#263238"></path><path d="M419.83,362.73a21.51,21.51,0,1,0,21.82-21.2A21.51,21.51,0,0,0,419.83,362.73Z" style="fill:#fafafa"></path><path d="M441.65,341.53a21.51,21.51,0,0,0-21.82,21.2l43,.62A21.51,21.51,0,0,0,441.65,341.53Z" style="fill:#e0e0e0"></path><path d="M428.24,362.85a13.1,13.1,0,1,0,13.29-12.91A13.09,13.09,0,0,0,428.24,362.85Z" style="fill:#263238"></path><circle cx="675.67" cy="363.04" r="30.64" transform="translate(-21.85 43.98) rotate(-3.67)" style="fill:#263238"></circle><path d="M645,362.52v.08a30.64,30.64,0,1,0,61.28.88v-.08Z" style="fill:#263238"></path><path d="M654.16,362.73A21.51,21.51,0,1,0,676,341.53,21.51,21.51,0,0,0,654.16,362.73Z" style="fill:#fafafa"></path><path d="M676,341.53a21.51,21.51,0,0,0-21.82,21.2l43,.62A21.51,21.51,0,0,0,676,341.53Z" style="fill:#e0e0e0"></path><path d="M662.56,362.85a13.11,13.11,0,1,0,13.3-12.91A13.1,13.1,0,0,0,662.56,362.85Z" style="fill:#263238"></path><path d="M481.51,290.49s-45.13,3.33-61.85,7.08c-9.58,2.15-26,5.05-31.84,13.92,0,0-.84.37-1.54.66a1,1,0,0,0-.52,1.24c.36.94.89,2.35.93,2.6.17,1.27-1.71,1.95-1.69,2.73l2.22,10.6s-8.34-1.3-1.44,5.69c3.54,3.59,11.22,32.68,10.63,33.67-1.67,2.78,9.4,0,9.4,0l2.54-19.48c0-.23,3.57-.44,4.8-.87a.61.61,0,0,0,.4-.69c-3.44-20.88,11.7-18.28,27.12-18.78,39.17-1.24,36.44,39.43,36.44,39.43H640.6s-2.27-41.05,36.67-40.7c33.63.31,34.54,41,34.54,41s15.51,1.35,22.73-11.69,5.34-22.32,5.34-22.32l-.24-8.24a5.33,5.33,0,0,0-5.13-5.17h0s2.82-20.75-1.5-24.35-28-25.25-28-25.25l1.12-.71a2.65,2.65,0,0,0-.54-4.76c-9-3.1-26.81-9.23-31-10.69a7.91,7.91,0,0,0-1.92-.4c-2.49-.19-9.56-.64-22.55-.78-15.81-.17-78.55,0-78.55,0S550,256,538,261.28C525.3,266.85,481.51,290.49,481.51,290.49Z" style="fill:#FF725E"></path><path d="M488.42,367.69s0-.11,0-.34,0-.57,0-1q0-1.36-.12-4c-.1-3.48-.25-8.56-.43-15s-.39-14.32-.64-23.32q-.09-3.37-.19-7a23.56,23.56,0,0,1,.16-3.64c.09-.61.17-1.22.26-1.84s.25-1.23.38-1.85a37.65,37.65,0,0,1,2.55-7.34,36.84,36.84,0,0,1,4.19-7h0l28.32-17.84,7.64-4.81a59.61,59.61,0,0,1,8.1-4.52,81.29,81.29,0,0,1,8.79-3.51c1.5-.53,3-1,4.58-1.42s3.11-.84,4.7-1.16a107.44,107.44,0,0,1,18.25-2.3,173.08,173.08,0,0,1,17.66.06h.17l0,.17c-2.71,12.12-5.27,23.55-7.61,34v0a37.19,37.19,0,0,0-3.41,7.31,19.91,19.91,0,0,0-1.16,7.56c.2,2.52.27,5,.33,7.36s.09,4.71.14,7c.13,9,.16,16.84.19,23.3s0,11.54,0,15c0,1.73,0,3.05,0,3.95,0,.45,0,.79,0,1s0,.34,0,.34,0-.11,0-.34,0-.57,0-1c0-.9,0-2.22,0-3.95,0-3.47,0-8.55-.09-15s-.1-14.31-.25-23.3q-.07-3.36-.15-6.95c-.07-2.39-.14-4.84-.34-7.35a20.13,20.13,0,0,1,1.16-7.66,37.19,37.19,0,0,1,3.43-7.37l0,0c2.34-10.48,4.88-21.91,7.58-34l.13.18a169.71,169.71,0,0,0-17.63,0,106.63,106.63,0,0,0-18.19,2.3c-1.59.31-3.14.76-4.69,1.15s-3.07.88-4.57,1.41a80.75,80.75,0,0,0-8.76,3.5,58.86,58.86,0,0,0-8,4.49L523,277.82,494.7,295.64l0,0a36.71,36.71,0,0,0-4.17,6.91,37.6,37.6,0,0,0-2.54,7.29c-1.29,4.9-.64,9.75-.63,14.23.23,9,.42,16.85.58,23.31s.27,11.55.36,15c0,1.73.06,3.06.08,4,0,.44,0,.78,0,1S488.42,367.69,488.42,367.69Z" style="fill:#263238"></path><path d="M592.41,260.89l.27,0,.79,0,3-.07,11.27-.22,38-.65h.07l0,.05,5.32,6.53,15.22,18.65,1.73,2.12a12.44,12.44,0,0,1,1.42,2.29,11.89,11.89,0,0,1,.22,9.67c-.61,1.4-1.18,2.75-1.74,4-2.21,5.13-4,9.28-5.25,12.17-.63,1.42-1.11,2.53-1.45,3.3l-.38.85-.14.29s0-.1.11-.3.21-.49.36-.87l1.39-3.32c1.23-2.89,3-7.06,5.17-12.2,1-2.59,2.72-5.31,2.6-8.64a11.66,11.66,0,0,0-1.13-4.87,11.83,11.83,0,0,0-1.39-2.23l-1.74-2.12L651,266.66l-5.32-6.52.11.05-38,.55-11.28.14-3,0h-1.06Z" style="fill:#263238"></path><path d="M573.22,311.45s.16,0,.45-.07a3.24,3.24,0,0,0,1.21-.48,3.06,3.06,0,0,0,1.22-1.59,3.41,3.41,0,0,0,.16-1.26,3.1,3.1,0,0,0-.36-1.36,3,3,0,0,0-2.64-1.61H560.55a3,3,0,0,0-3,2.66,3.37,3.37,0,0,0,.36,2,3.06,3.06,0,0,0,1.47,1.31,4.67,4.67,0,0,0,1.9.23h5.24l4.88.05,1.32,0,.47,0-.47,0-1.32,0-4.88.05h-5.24c-.32,0-.64,0-1,0a3.08,3.08,0,0,1-1-.23,3.27,3.27,0,0,1-1.6-1.41,3.64,3.64,0,0,1-.41-2.2,3.28,3.28,0,0,1,1-2.06,3.34,3.34,0,0,1,2.22-.87l8.85,0h3.87a3.27,3.27,0,0,1,2.82,1.76,3.38,3.38,0,0,1,.36,1.46,3.71,3.71,0,0,1-.19,1.31,3.16,3.16,0,0,1-1.32,1.64,3,3,0,0,1-1.26.44A1.61,1.61,0,0,1,573.22,311.45Z" style="fill:#263238"></path><path d="M658,311.45s.16,0,.45-.07a3.18,3.18,0,0,0,1.21-.48,3,3,0,0,0,1.22-1.59,3.41,3.41,0,0,0,.16-1.26,3,3,0,0,0-.36-1.36,3,3,0,0,0-2.63-1.61H645.28a3,3,0,0,0-2,.79,3,3,0,0,0-1,1.87,3.3,3.3,0,0,0,.37,2,3.09,3.09,0,0,0,1.46,1.31,4.74,4.74,0,0,0,1.91.23h5.24l4.87.05,1.33,0,.46,0-.46,0-1.33,0-4.87.05h-5.24c-.33,0-.64,0-1,0a3,3,0,0,1-1-.23,3.25,3.25,0,0,1-1.61-1.41,3.64,3.64,0,0,1-.41-2.2,3.31,3.31,0,0,1,3.26-2.93l8.86,0H658a3.25,3.25,0,0,1,3.18,3.22,3.5,3.5,0,0,1-.19,1.31,3.11,3.11,0,0,1-1.32,1.64,3,3,0,0,1-1.26.44A1.61,1.61,0,0,1,658,311.45Z" style="fill:#263238"></path><path d="M732.25,297.62h-17a6.26,6.26,0,0,0-5.54,3.35h0a6.24,6.24,0,0,0-.19,5.43l6.65,15.1,17-.16S736.81,302.19,732.25,297.62Z" style="fill:#fafafa"></path><path d="M496.78,295.49l87.49-1.62,56.93-1L660,282a2.92,2.92,0,0,0,.86-4.29l-11.69-15.35a6.51,6.51,0,0,0-5.12-2.57l-63.68-.52s-24-1.39-42.87,9.19C517.59,279.58,496.78,295.49,496.78,295.49Z" style="fill:#263238"></path><path d="M536.88,260.85s4.38,2,1.53,3.85-47.18,29.8-47.18,29.8L481,289.89C499.09,279.83,517.32,270.07,536.88,260.85Z" style="fill:#455a64"></path><path d="M739,334.37c0,.08-5.83.15-13,.15s-13-.07-13-.15,5.83-.15,13-.15S739,334.29,739,334.37Z" style="fill:#263238"></path><path d="M640.31,358.54c0,.08-36.64.15-81.82.15s-81.83-.07-81.83-.15,36.63-.15,81.83-.15S640.31,358.46,640.31,358.54Z" style="fill:#263238"></path><path d="M704.52,271s-3.91,4.37-2.37,7.58S719.55,293,719.55,293l11.52,2.17Z" style="fill:#455a64"></path><polygon points="595 263.12 592.41 291.09 638.76 289.77 657.44 278.91 645.35 263.12 595 263.12" style="fill:#455a64"></polygon><path d="M507.76,292.53s28-20.2,39-24.21c10.65-3.88,16.2-4.85,26.2-5.13,9.56-.27,15.39,0,15.39,0L581,291.62Z" style="fill:#455a64"></path><path d="M503.67,292.62h0a4.88,4.88,0,0,1,2.5-4.27l6.42-3.61a12.24,12.24,0,0,1,6-1.57h0a12.2,12.2,0,0,1,3.81.61,7,7,0,0,1,4.68,6.39h0a7.07,7.07,0,0,1-7.07,7.35H508.57A4.9,4.9,0,0,1,503.67,292.62Z" style="fill:#FF725E"></path><path d="M503.67,292.62s0,.22.07.62a4.85,4.85,0,0,0,.57,1.68,4.81,4.81,0,0,0,3.62,2.46,18.12,18.12,0,0,0,2,0l9.8,0a7.35,7.35,0,0,0,2.73-.45,7,7,0,0,0,4.06-4,7,7,0,0,0,.42-3,6.92,6.92,0,0,0-2.89-5.13,7.27,7.27,0,0,0-2.65-1.11,11.54,11.54,0,0,0-2.78-.33,12,12,0,0,0-5,1.07c-.74.33-1.42.75-2.09,1.11l-1.91,1.07-3.29,1.82a4.89,4.89,0,0,0-2,1.94,5.07,5.07,0,0,0-.57,1.68c-.06.4-.06.62-.07.62a3,3,0,0,1,0-.63,4.63,4.63,0,0,1,.53-1.72,5,5,0,0,1,2-2l3.27-1.87,1.91-1.08c.66-.36,1.34-.79,2.09-1.13a12.41,12.41,0,0,1,5.13-1.13,12,12,0,0,1,2.84.33,7.65,7.65,0,0,1,2.76,1.15,7.24,7.24,0,0,1,3,5.35,7.34,7.34,0,0,1-.45,3.16,7.08,7.08,0,0,1-1.7,2.58,7.23,7.23,0,0,1-2.53,1.6,7.74,7.74,0,0,1-2.83.46l-9.8,0a16.33,16.33,0,0,1-2-.06,4.8,4.8,0,0,1-1.7-.56,5.08,5.08,0,0,1-2-2,5,5,0,0,1-.52-1.72A4.3,4.3,0,0,1,503.67,292.62Z" style="fill:#263238"></path><path d="M579.73,295.49h-.14l-.38,0-1.5,0-5.49.1c-4.64.09-11.05.26-18.13.45s-13.49.33-18.13.36c-2.32,0-4.2,0-5.49,0l-1.5,0h-.52l.13,0,.39,0,1.5,0,5.49-.1c4.64-.08,11-.26,18.13-.45s13.48-.33,18.12-.36c2.32,0,4.2,0,5.5,0l1.5,0h.38Z" style="fill:#fff"></path><path d="M572.13,304.1a83.91,83.91,0,0,1-10,0,83.91,83.91,0,0,1,10,0Z" style="fill:#fff"></path><path d="M641.4,272.36c0,.08-6.2,2.67-13.91,5.8s-14,5.59-14,5.51,6.2-2.67,13.92-5.79S641.37,272.29,641.4,272.36Z" style="fill:#fff"></path><path d="M628.78,274.32c0,.08-5.9,2.69-13.25,5.84s-13.33,5.63-13.36,5.56,5.9-2.69,13.25-5.84S628.75,274.24,628.78,274.32Z" style="fill:#fff"></path><path d="M642.62,295.48c0,.08-12.39.23-27.67.32s-27.67.09-27.67,0,12.38-.22,27.67-.31S642.62,295.4,642.62,295.48Z" style="fill:#fff"></path><path d="M656.34,303.62c0,.08-3.47.18-7.76.22s-7.76,0-7.76-.07,3.47-.19,7.76-.23S656.34,303.54,656.34,303.62Z" style="fill:#fff"></path><path d="M521.4,285.87s-.16-.22-.55-.53a3.63,3.63,0,0,0-1.89-.76,8.08,8.08,0,0,0-3.05.33,22.6,22.6,0,0,0-3.61,1.22,23.66,23.66,0,0,0-5.87,3.65c-1.36,1.14-2.08,2-2.12,2a3.5,3.5,0,0,1,.48-.61c.34-.37.84-.9,1.51-1.5a22,22,0,0,1,9.54-5,8,8,0,0,1,3.15-.27,3.73,3.73,0,0,1,1.94.88,2.14,2.14,0,0,1,.38.44C521.38,285.8,521.41,285.87,521.4,285.87Z" style="fill:#fff"></path><path d="M709.76,338.31a6.93,6.93,0,0,1-.54-.68c-.34-.45-.8-1.14-1.49-2a41.56,41.56,0,0,0-6.25-6.52,36.36,36.36,0,0,0-11.62-6.52,50.77,50.77,0,0,0-16.16-2.5,39.22,39.22,0,0,0-8.42.91,38.26,38.26,0,0,0-7.52,2.41,36.77,36.77,0,0,0-11.13,7.33,34,34,0,0,0-5.63,7c-.57.91-.9,1.67-1.19,2.16a6.69,6.69,0,0,1-.43.75,4.56,4.56,0,0,1,.34-.79c.25-.51.56-1.29,1.1-2.22a32.8,32.8,0,0,1,5.55-7.21,36.9,36.9,0,0,1,11.2-7.5,38.23,38.23,0,0,1,7.6-2.47,39.63,39.63,0,0,1,8.54-.93A50.4,50.4,0,0,1,690,322.17a35.9,35.9,0,0,1,11.69,6.69,38.59,38.59,0,0,1,6.18,6.68c.66.85,1.1,1.56,1.42,2A4.44,4.44,0,0,1,709.76,338.31Z" style="fill:#263238"></path><path d="M478.08,338.56a6.9,6.9,0,0,1-.73-.5l-2-1.5c-1.74-1.31-4.22-3.26-7.27-5.7-1.52-1.22-3.18-2.56-5-3.95A36.67,36.67,0,0,0,457,323a23.21,23.21,0,0,0-7.68-2.12,80.76,80.76,0,0,0-8.64-.4,22.24,22.24,0,0,0-8.36,1.7,48.39,48.39,0,0,0-7.15,3.65c-4.38,2.7-8.09,5.49-11.23,7.8s-5.71,4.16-7.56,5.31a22.43,22.43,0,0,1-2.18,1.27,4.36,4.36,0,0,1-.79.38,7.47,7.47,0,0,1,.74-.47c.5-.29,1.22-.73,2.12-1.35,1.81-1.2,4.34-3.08,7.45-5.44s6.81-5.17,11.2-7.91a48.41,48.41,0,0,1,7.22-3.72,22.61,22.61,0,0,1,8.54-1.74,79.49,79.49,0,0,1,8.7.42,23.55,23.55,0,0,1,7.83,2.19,35.93,35.93,0,0,1,6.15,4c1.81,1.4,3.46,2.77,5,4l7.16,5.83,1.95,1.58A7.34,7.34,0,0,1,478.08,338.56Z" style="fill:#263238"></path><path d="M710.24,301.68c-1.41-1.4-34.53-34.38-36.11-37.34s-2-9.07-2-9.32l1-.06c0,.06.36,6.12,1.86,8.91,1.21,2.26,24,25.26,35.93,37.1Z" style="fill:#263238"></path><g style="opacity:0.4"><path d="M486.11,293.44s-48.14,7.71-54.17,8.78-40.95,8.11-42,8.73a20.37,20.37,0,0,1,3.83-3.69c4.88-3,12.4-5.15,12.4-5.15s20.73-4.64,27.9-5.94c2.57-.47,19.89-2.3,23.44-2.56.83-.07,17-1.93,19.62-2.22C480.31,291,486.11,293.44,486.11,293.44Z"></path></g><path d="M456.36,289.3c-.28.17-8.46,4.23-8.46,4.23l-7.55,7.29s-3.44.53-3.61.59S447,291.78,447,291.78l6.76-2.87Z" style="fill:#263238"></path><path d="M460.42,297.57l8-4.67,9.92-3.93a1.76,1.76,0,0,1,1.65.2l6.08,4.27-4.46.65-2.19-2a1.74,1.74,0,0,0-1.82-.33l-11,4.77Z" style="fill:#263238"></path><path d="M431.94,302.22s-3.33-2.73-4.93-2.58-12.17,2.77-12.53,3.5-1,2.11-1,2.11-8.72.83-8.94,2.07-.13.83-.13.83Z" style="fill:#263238"></path><path d="M444.51,286c.67.45,16.32,5.71,17.18,5.5s24.42-2.05,24.42-2.05l-46.9-5H414.29l-19.41,15.29s3.82,2.39,5,2.46,8.93-3.25,8.93-3.25l4.5-5.62,4.55-3.9,5.41-3.43,7.34,1.82,5-.14Z" style="fill:#FF725E"></path><g style="opacity:0.4"><path d="M444.51,286c.67.45,16.32,5.71,17.18,5.5s24.42-2.05,24.42-2.05l-46.9-5H414.29l-19.41,15.29s3.82,2.39,5,2.46,8.93-3.25,8.93-3.25l4.5-5.62,4.55-3.9,5.41-3.43,7.34,1.82,5-.14Z"></path></g><path d="M486.11,289.4l-22.54-.49L444.83,285l-12.76-.12H414.51l-12.41,12.2-7.22,2.53-.09-1.07c2.4-3.3,16.59-14.59,18.09-16s13.79-5.57,15.3-5.57,44.51,7,44.51,7Z" style="fill:#FF725E"></path><path d="M486.11,289.4a2.66,2.66,0,0,1-.42,0l-1.21,0-4.63-.15-16.58-.68h0L445,284.62h.05l-7.15-.15-12.59-.24-5.85-.07h-2.79c-.46,0-.91,0-1.36,0h-.66l-.29,0c-.09,0-.19,0-.25.07-1.28,1.06-2.51,2.33-3.65,3.44L407.21,291l-5.31,5.38,0,0h0a29.65,29.65,0,0,0-5.25,1.68l-1.33.6a2.25,2.25,0,0,1-.46.19,3,3,0,0,1,.43-.26c.29-.16.72-.39,1.3-.66a26.93,26.93,0,0,1,5.25-1.82l-.07,0,5.24-5.45,3.23-3.29,1.76-1.75a24.82,24.82,0,0,1,1.95-1.79.7.7,0,0,1,.37-.11,2.46,2.46,0,0,1,.37,0l.68,0c.45,0,.91,0,1.36,0h2.8l5.86.05,12.59.22,7.15.16h.05l18.22,4h0l16.57.86,4.62.27,1.22.09Z" style="fill:#263238"></path><path d="M446.55,280.34a4.73,4.73,0,0,1-.5,2.1c-.41,1.11-.85,2-1,1.91a4.7,4.7,0,0,1,.5-2.09C446,281.15,446.41,280.29,446.55,280.34Z" style="fill:#263238"></path><path d="M413,282.52c.13-.07.4.23.66.61s.43.74.32.84-.47-.13-.75-.55S412.88,282.58,413,282.52Z" style="fill:#263238"></path><g style="opacity:0.30000000000000004"><polygon points="419.41 283.91 422.94 282.35 428.32 278.4 424.79 282.35 428.82 283.5 437.88 284.21 419.41 283.91"></polygon></g><polygon points="441.77 300.59 444.25 298.86 449.17 298.17 451.92 296.22 460.05 295.16 461.43 296.45 462.06 297.3 441.77 300.59" style="fill:#263238"></polygon><path d="M483.18,294l-.23.06-.66.13-2.58.47-9.48,1.62-31.31,5.16c-6.13.94-11.92,2.11-17.19,3.11l-14,2.75c-4,.77-7.22,1.38-9.45,1.78l-2.58.45-.68.1-.23,0a1,1,0,0,1,.22-.07l.67-.15,2.56-.55,9.42-1.95,14-2.85c5.27-1,11.06-2.21,17.19-3.16l31.34-5,9.51-1.46,2.59-.37.67-.08A.62.62,0,0,1,483.18,294Z" style="fill:#263238"></path><g style="opacity:0.30000000000000004"><path d="M388.35,335.91a6.81,6.81,0,0,1,3.16,1.89c1.08,1.35,3.85,6.14,3.85,6.14l8-4.88L399,343.94l-.59,3.7-1,1.52,6,4s-7.19-.51-7.86-.68-5.95-10-5.95-10l-.54-6.52"></path></g><path d="M366.22,340.74a.54.54,0,0,1,.34-.44c2.33-.83,17.12-6.07,20.62-5.07,3.79,1.09,6.3,12.25,10.54,15.39S413.31,355,413,356.08c-.69,2.48-3.87,17.74-7.69,19.27s-12.56-.72-12.56-.72l-26.62-33.12Z" style="fill:#FF725E"></path><path d="M366.22,340.74s0,.06,0,.19,0,.34-.05.58v0c2.3,2.71,12.75,15.59,26.78,33l-.13-.08a45.85,45.85,0,0,0,5.53,1,27.48,27.48,0,0,0,2.89.21,12.79,12.79,0,0,0,2.9-.2,4.23,4.23,0,0,0,.7-.18,2.94,2.94,0,0,0,.65-.26,4.44,4.44,0,0,0,1-1,14,14,0,0,0,1.53-2.6,47.58,47.58,0,0,0,2.17-5.83c.68-2.21,1.26-4.43,1.8-6.62.14-.55.27-1.09.41-1.64l.2-.81.11-.41a.51.51,0,0,0,0-.09s0,.06,0,.06a.16.16,0,0,0-.06-.05,5.69,5.69,0,0,0-1.46-.56c-.52-.15-1.05-.29-1.58-.42-2.12-.54-4.21-1-6.24-1.66a20.78,20.78,0,0,1-5.7-2.49,14,14,0,0,1-3.64-4.68c-.91-1.69-1.69-3.37-2.49-5a24.87,24.87,0,0,0-2.6-4.41,4.35,4.35,0,0,0-1.81-1.41,6.73,6.73,0,0,0-2.24-.08,33,33,0,0,0-4.24.76c-1.33.3-2.58.64-3.74,1-2.32.65-4.31,1.28-5.93,1.79l-3.71,1.22a3.92,3.92,0,0,0-.94.36c-.15.16-.14.3-.16.29a.42.42,0,0,1,.13-.33,3.44,3.44,0,0,1,.93-.42c.84-.31,2.08-.76,3.69-1.31s3.59-1.2,5.91-1.88c1.16-.33,2.4-.69,3.74-1a31,31,0,0,1,4.28-.79,7,7,0,0,1,2.4.07,4.64,4.64,0,0,1,2,1.53,25.6,25.6,0,0,1,2.68,4.46c.81,1.6,1.59,3.28,2.51,4.93a13.64,13.64,0,0,0,3.5,4.52,20.75,20.75,0,0,0,5.58,2.41c2,.61,4.09,1.1,6.22,1.63.53.14,1.06.27,1.6.43a6,6,0,0,1,1.62.64.55.55,0,0,1,.22.25.45.45,0,0,1,0,.26.89.89,0,0,0,0,.11l-.11.41-.2.81c-.13.54-.27,1.09-.4,1.64-.55,2.19-1.13,4.41-1.82,6.64a47.27,47.27,0,0,1-2.19,5.9,15.3,15.3,0,0,1-1.59,2.7,5.08,5.08,0,0,1-1.18,1.08,3.4,3.4,0,0,1-.75.31,5,5,0,0,1-.76.19,13.4,13.4,0,0,1-3,.21,28.24,28.24,0,0,1-2.93-.22,48.93,48.93,0,0,1-5.59-1.05l-.08,0-.05-.06c-14-17.44-24.31-30.41-26.46-33.25h0c0-.24.06-.43.08-.58S366.21,340.74,366.22,340.74Z" style="fill:#263238"></path><path d="M366.14,341.51a2,2,0,0,1,.54-.18l1.57-.43c1.37-.36,3.35-.91,5.78-1.62l8.55-2.47a7.58,7.58,0,0,1,2.63-.33,3.69,3.69,0,0,1,2.48,1.31,12.48,12.48,0,0,1,1.48,2.41c.43.85.84,1.71,1.26,2.58a43.81,43.81,0,0,0,2.6,5,14.62,14.62,0,0,0,3.43,3.83,22.67,22.67,0,0,0,8,3.48c2.45.61,4.46,1,5.83,1.44.68.19,1.2.36,1.56.49a2.06,2.06,0,0,1,.52.22,2.59,2.59,0,0,1-.55-.12l-1.58-.39c-1.38-.34-3.39-.71-5.87-1.29a22.23,22.23,0,0,1-8.24-3.44A15.07,15.07,0,0,1,392.6,348a44.93,44.93,0,0,1-2.64-5c-.42-.88-.82-1.74-1.25-2.57a11.85,11.85,0,0,0-1.41-2.32,3.22,3.22,0,0,0-2.14-1.15,7.27,7.27,0,0,0-2.45.3l-8.58,2.36c-2.45.67-4.44,1.16-5.83,1.47-.69.15-1.23.27-1.6.33A2.18,2.18,0,0,1,366.14,341.51Z" style="fill:#263238"></path><g style="opacity:0.2"><path d="M462.84,314s1.23-3.88,7.43-4.13l1.93-1.14,18.57-.26-8.1,8.55-8.57,4.62,8.2,20.87L460.07,323.8Z"></path></g><g style="opacity:0.2"><path d="M447.08,302.45c-.06.6-.43,10.59,1.78,12.46a10.46,10.46,0,0,1,3,4.93s-11-7.42-9.82-11.47A10.34,10.34,0,0,1,447.08,302.45Z"></path></g><g style="opacity:0.2"><path d="M406.42,338.76l6.2-11a7,7,0,0,1,3.92-3.23c3.17-1.06,8.19-2.95,8.25-4.35.09-2.05-5.77-11.75-5.77-11.75l4.38,2.16s1.65.05,6.21,5.76a10,10,0,0,1,2.33,5.65A229.64,229.64,0,0,0,406.42,338.76Z"></path></g><g style="opacity:0.2"><path d="M386.11,329.4s.84,2.42.46,2.64a9.22,9.22,0,0,0-1.08.9l9.16.37-8.87,1.7-2.26-2.8-.47-2.69Z"></path></g><path d="M385.83,312.59s3.25-.7,3.92-.14a4,4,0,0,1,1.17,2.21c.09.57,2.2,10.6,1.78,11.26a3,3,0,0,1-1.64.9l-.16,2.7-6-.16s-2.67-2.34-2.7-3.24S385.83,312.59,385.83,312.59Z" style="fill:#263238"></path><path d="M380.84,329.07s3.62-11.76,3.65-11.88-.44-2.64-.44-2.64l-7.2,9.47.08,2,1.72,3.42Z" style="fill:#FF725E"></path><g style="opacity:0.30000000000000004"><path d="M380.84,329.07s3.62-11.76,3.65-11.88-.44-2.64-.44-2.64l-7.2,9.47.08,2,1.72,3.42Z"></path></g><path d="M383.14,314.34s-6.72,8.69-6.87,10.05c-.12,1.05,1.09,4.92,1.63,6.59a1.2,1.2,0,0,0,1.08.82l5.68.24a.8.8,0,0,0,.78-1.08l-2-5.23-.56-.24s-4.43.28-5,.2a1,1,0,0,1-.5-1.29c.33-.52,6.63-9.85,6.63-9.85Z" style="fill:#FF725E"></path><path d="M383.14,314.34a4.89,4.89,0,0,1,.92.15l.09,0,0,.08c-.6,1-1.87,2.93-3.62,5.59-.45.67-.91,1.38-1.41,2.12l-.76,1.15-.39.6-.21.3a1,1,0,0,0-.15.27c-.12.28.22.89.49.85.49,0,1,0,1.55,0l3.29-.19H383l.06,0,.56.24.09,0,0,.11c.37,1,.76,2,1.16,3,.19.52.39,1.05.59,1.58l.16.4.07.2a1.28,1.28,0,0,1,.07.28,1.09,1.09,0,0,1-.48,1,1.27,1.27,0,0,1-.82.16l-.68,0-1.35-.06-2.64-.11-.65,0a1.64,1.64,0,0,1-.72-.15,1.45,1.45,0,0,1-.57-.5,1.54,1.54,0,0,1-.17-.34l-.1-.3c-.25-.8-.49-1.58-.71-2.35s-.42-1.52-.58-2.27a10.5,10.5,0,0,1-.2-1.12,2.21,2.21,0,0,1,0-.58,1.84,1.84,0,0,1,.17-.59,27.39,27.39,0,0,1,2.14-3.35c1.4-2,2.6-3.51,3.43-4.57l1-1.21c.22-.26.36-.41.37-.39a2.68,2.68,0,0,1-.29.46l-.9,1.26c-.78,1.1-1.93,2.68-3.29,4.66a28.63,28.63,0,0,0-2,3.32,1.23,1.23,0,0,0-.13.44,3,3,0,0,0,0,.5,10.54,10.54,0,0,0,.2,1.07c.17.73.38,1.47.6,2.24s.47,1.53.73,2.33a1.93,1.93,0,0,0,.2.51,1,1,0,0,0,.38.33,4,4,0,0,0,1.17.12l2.64.11,1.35.05c.44,0,1,.12,1.2-.05a.55.55,0,0,0,.24-.5l0-.14-.08-.2-.15-.4-.6-1.58-1.14-3.05.13.15-.55-.25.11,0-3.3.17c-.54,0-1.05,0-1.59,0a1,1,0,0,1-.27,0,1.39,1.39,0,0,1-.22-.15,1.35,1.35,0,0,1-.28-.36,1.15,1.15,0,0,1-.13-.9,1.73,1.73,0,0,1,.21-.37l.21-.3.4-.59.78-1.14,1.44-2.1c1.81-2.63,3.15-4.54,3.82-5.46l0,.1A7.21,7.21,0,0,1,383.14,314.34Z" style="fill:#263238"></path><path d="M389.35,314.65s.4,10.68-.7,10.88-7.46-.62-7.4-1.48,2.7-9.39,3.48-10C385.14,313.77,389.35,314.65,389.35,314.65Z" style="fill:#fafafa"></path><path d="M405.82,356.46a22.83,22.83,0,0,1-1.64,3.16L402.27,363c-.38.63-.7,1.28-1.19,2a4.69,4.69,0,0,1-2,1.54,6.12,6.12,0,0,1-2.5.34h-2.27l-3.86,0a24.72,24.72,0,0,1-3.56-.17,25,25,0,0,1,3.56-.2l3.85-.08,2.28,0a5.78,5.78,0,0,0,2.31-.31,4.25,4.25,0,0,0,1.82-1.37c.42-.6.8-1.31,1.18-1.91l2-3.3A25.89,25.89,0,0,1,405.82,356.46Z" style="fill:#263238"></path><polygon points="489.83 285.03 487.68 288.85 495.96 284.8 495.86 290.77 501.35 284.37 514.04 275.72 527.09 270.78 521.41 270.78 535.13 262.37 515.38 271.44 489.83 285.03" style="opacity:0.2"></polygon></g></svg>