<svg xmlns="http://www.w3.org/2000/svg" viewBox="0 0 1068 510"><style>.st1{fill:gray}.st2{fill:#e6e7e8}.st4{fill:#59595a}</style><g id="Layer_1"><path d="M367.5 126.1c-4.2 6.4-9 12.4-14.3 17.9v1.1h-.6c0-9.6 1.7-17.5 1.7-26.4 0-4.9-2.4-11.6-1.1-15.5 2.4-6.4 6.1-12.3 10.9-17.2 4.8-3.1 16.3-1.7 23.9-1.7-7.5 12.7-13 29.5-20.5 41.8zm81.9-40c4.6 3.6 11 3.6 13 9.8.6 3.2 0 6.5-1.6 9.3-4.5 7.7-10.1 17-14.9 24.5-11.2 17.1-21.2 34.9-29.9 53.4-5.9 13.2-10.2 26.8-16.1 40.2-3.1-.2-6.2-.7-9.1-1.7-6.5-.2-16.2-1.5-18.4 2.9l-11.5-1.7c-1.1-.8-.4.2-1.1-1.1-.6-2.4 3.3-6.5 4.8-8.6 5.4-8.2 10.4-16.6 15.5-24.7 21.7-34.6 39-73.9 67.7-101.6.5-.7.4-.7 1.6-.7zm-168.7-.6c-6.3 9.6-16.4 21.6-23 31-13.7 19.7-24.9 40.4-37.9 60.8-7.5 11.8-15.5 23.7-22.4 36.2h-13.2c1.8-4.4 4.3-8.5 7.5-12.1 4.8-7.5 9.6-14.6 14.3-21.8 14.7-22.2 27.8-44.9 43-66.6 4.2-6 15.2-21.1 17.3-27.6 4.8-.3 9.6-.3 14.4.1zm429.8 12.9c7.7 4.8 17.1 9 24.7 14.3l5.2 5.2c5.1 3.7 10.3 6.6 15.5 10.3l9.6 9.6c12.5 9.2 24.6 18 36.9 27.4 5.4 3.9 9.6 9.1 14.9 13.2 7.5 5.5 14.3 12.1 21.8 17.8 6 4.4 7.6 10.3 17.8 9.6-4.6 12.1-10 12.1-26.4 12.1h-13.6c-5.8-1.2-11.8-1.6-17.8-1.1-.9.3-2.9 2-4 2.3l-24.7-.6c-16.4 0-36.2 1.2-49.9-1.7l-27 1.1-29.3-.6c-5.3-1.1-10.8-1.1-16.1 0-5.5 1.2-17.6 4.2-25.2 2.3-5.9-.9-11.7-2.7-17.2-5.2l-4-4.8-4-.6c-6.2-2.2-12.2-5.1-17.8-8.6-4.3-3-7.7-7.6-12.1-10.3V189c15.4.1 62-6.9 74.8-4.1 4.1.9 12.1 7.4 15.3 6.4.4-.1 2.9-1.7 2.9-1.7 4.7 0 41.7-1.4 46.5 1.7 4.8-.7 5.8-9 9.6-11.8 5.9-4.3 12.2-7.9 18.8-10.8 2.9-1.1 9.4-.2 12-1.8 6.9 0 13.2-.6 20-.6-1.9-2.9-3.9-5.7-6.1-8.3l-7.5-7.3c-7.9-12.7-17.8-24-29.3-33.5l-5.7-6.3c-5.5-5.8-11.7-11-18.4-15.5.6-.6.5-.6 1.7-.6 2.1 1.7 5.6 1.8 8.1 3.6zm-485.1-7.2c-2.3 7.2-14.5 18.8-18.2 24.8-8.7 13.4-24.4 44.1-32.6 57.4-.8 0 .8-16.4 0-16.4.6-3.1 4.4-7.1 5.4-9.6 1.9-6.7 4.5-13.2 7.7-19.4 2.1-3 5-5.6 6.9-8.6 3.7-6 5.8-14.6 11.5-18.4 2.6-1.8 4.4-5.4 8-6.6 1.4-.4 9.5-2.7 11.3-3.2zM484.8 116c-.2 2.7-.8 5.5-1.6 8.1-4.7 6.5-13.2 10.2-17.9 16.6-6 8.7-10 20.3-15.5 29.5-3.4 5.5-7.4 10.6-11.8 15.3v1.1h-.6c1.1-6.9 6-13.6 8.6-19.5 6.3-14.4 3.6-28.6 10.5-42.1 4.8-7.7 10.8-14.5 17.6-20.5l10.7 11.5zm-148.5 15.4c0 6.6-1.7 25.7-4 29.8l-3.4 2.9.6 14.9c-1.7 3.9-3.6 7.8-5.7 11.5-4 9.1-7.6 17.6-11.5 26.4h-12.1c8.6-20.5 14.8-45.2 23.6-65.4 2.8-6.2 7.8-16.5 12.5-20.1zm431 48.2c2.1.8 4.2 1.4 6.3 1.9-.9 3.2-3.1 5.9-6 7.5-4.6 2.9-11 2-17.5 3.4-8.8.8-17.6.8-26.4 0 0-.2.3-1.5.3-1.5 7.5-5.3 16-9.2 25-11.3h18.3zm-330 8.1h-.6c.6-1.1.1-.6.6-1.1v1.1zm-.6 1.1h-.6c.6-1.1.1-.6.6-1.1v1.1zm-.5 1.2h-.6c.6-1.1.1-.6.6-1.1v1.1zm-.8 1.1h-.4c.6-1.1.1-.6.6-1.1l-.2 1.1zm208.9 279.3l62.2-.6c6.5 1.5 26.3 2.1 32.1-.6h22.2l59.1.6c10.7 0 23.9-1.5 33.5.6h10.1l25.8.6c14.2 2.3 30.9-2.4 44.2.6 4.4 1 8.6-.8 12.1 0h19.1c13.8.4 31.9-.5 44.2 2.3 8.5 1.9 21.7-2.9 28.1 1.1 2-.2 4 .2 5.7 1.1v1.3l-2.3 2.3-21 .6c-5-.5-10-.5-14.9 0-5.2.8-13.4-2.1-19.5-.6-2.8 1-5.7 1.4-8.6 1.1-1.5-.6-3.2-.8-4.8-.6-2.8.9-5.7 1.1-8.6.6-5.4-.6-10.8-.1-15.9 1.7l-11.1-1.7c-2.1.3-4.2.9-6.1 1.7-1.8.2-4.4-1.7-5.7-1.7-.6-.1-1.4 1.1-1.7 1.1-2 .4-3-1.1-4-1.1h-11.1l-2.1 2.3c-2.1.8-3.3-1.1-4-1.1-2.9-.1-5.8.3-8.6 1.1-4.1.5-8.3-.1-12.1-1.7-2-.6-3.8.6-5.2.6H860c-3.9 1.1-8 1.5-12.1 1.1-10.3-1.7-20.8-1.3-31 1.1-3.3 1-5.2-2.1-9.2-1.1-7 1.6-14.3 1.4-21.2-.6-6.9 5.9-17.9 1.6-24.7 0-4.2-1-3.8 3.4-8.6 2.3-11.4-2.3-23.2-1.9-34.4 1.1-4.1 1-6.9-1.6-9.6-2.3-4.3-1.2-7.9 1.1-11.5 1.1-4.9.1-8.5-2.4-13.8-1.1-7.5 1.7-13.9-2.4-21.8-.6-4.8 1.1-13-.9-17.8 0-10.1 1.7-20.4 1.7-30.4 0-2.7-.3-5.5.1-8 1.1h-12.8c-8 2.3-16.4 2.9-24.7 1.7-7.6-2.2-15.7-2.8-23.5-1.7-3.1.8-6.4 1-9.6.6-1.6-.7-3.4-1.1-5.2-1.1-4.8 0-6.8 3.9-12.1 2.3-.9-.6-1.9-1.2-2.9-1.7l-12.1.6c-21.9-6.1-47.5 2.5-68.3-2.3-9.6-2.2-21.8 1.8-29.8 0-1.9-.2-3.9 0-5.7.6-3.8.4-7.7.2-11.5-.6-3.6-.7-10 .9-13.8 0h-55.7c-8.7-1.9-17.5-2.6-26.4-2.3-4 .7-8 .9-12.1.6-5.9-1.1-11.8-1.5-17.8-1.1-2.8 1.1-5.7 1.9-8.6 2.3-5.1.1-10.1-.7-14.9-2.3H212c-13.1 1.9-26.5 1.7-39.6-.6h-21.2c-11.6-.8-29.4.4-41.3-2.3-5.9-1.4-15.9 2.3-20.7-.6-3.3 0-4-.4-5.2-2.3 8.4-2.4 17.1-3.6 25.8-3.4 7.3 1.8 14.9 2.2 22.4 1.1 8.9-1.3 18-1.7 27-1.1l6.3.6c14.7-2.8 37.3-1.7 53.4-1.7l25.8.6c3.9 1.3 8 1.7 12.1 1.1 5.8-1.6 17.2 1.3 25.2-.6 10.9-2.5 25.2 1.1 39.6.6 17.7-.7 46.4-2 70-1.1 5.6.3 11.1.1 16.6-.6 3.2-.6 7.8.6 10.9 0l10.3.6c5.4-1.4 11.1-1.8 16.6-1.1 10.1 2.3 40.8 2.9 48.8 0h14.9c12.1 0 27.1-1.6 38.3.6l9.2-.6c6.3 1.1 12.7 1.5 19.1 1.1 4.2-.1 8.6 2 13.8.6 10-1.8 20.2-2.4 30.4-1.7 3.4 2.4 18.5 1.7 23.8 1.5z" fill="#bfbfbf"/><path class="st1" d="M598.2 418.6c-.6 2.5 6.6 12.3 10.4 17.1 1.3 0 1.9-1.1 2.6-1.5 1.7-1.6 1.7-1.2 2.3-2.5-.5-.1-.9-.4-1.2-.8-3.1-3.8-5.5-8.1-7.1-12.8v-.6c-.5-.2-1-.6-1.2-1.1-.2-.4-.3-.9-.3-1.3-2 .8-3.9 2-5.5 3.5zM300.5 216.3c7.6-19.4 15.4-38.4 23.3-57.8 3.7-8.7 9.2-18.6 12.1-27.5v-9.2c-.8-2.8-2.6-7.1-3.4-10.3-1.7-7.2.6-12.7-2.9-17.8s-12.4-5.3-17.2-9.2c-6.9-.6-13.8-.4-20.7.6-4.2 1.6-8.7 2.6-13.2 2.9-8.4 13-19.2 25.1-27.5 38.3-18.1 28.6-36 57.3-53.4 86.6h4.8c4.4 2.7 16.3-.1 22.4 1.1 2.7.6 7.6-.1 10.9.6 7 .8 14.2 1 21.2.6 14.5-.4 29 0 43.6 1.1zM744 380.8c3.2 1.8 2.8 5.6 6.3 6.9 6.2 4.5 19.4-1 22.4-4 1.4-1.4 2.1-3.7 3.4-5.2.2-10.4.8-17.5-4-23.9l-6.3-5.7h-2.3c-2.1 2.9-4 3.2-6.9 5.2-8.2 5.5-12.6 12.9-12.6 26.7zm-20.1-188h23c4-2.5 10.5.3 16.1-1.1s6.9-4.4 10.3-8c0-1.8.3-2.3 0-2.9-1.3-1-4.3-.8-5.7-1.7-19.4-.5-36.3 2.7-43.7 13.7zM611.1 410.6c5 2 10.2 3.3 15.5 3.8 2.2-.4 2.1-13.2.4-14.1-1.7-.9-16.9 1.2-18.3 4.1l-1.7 4.8c.5.3 3.7.9 4.1 1.4zm242 26.5c2.8 2.1 4.2 6.6 6.3 9.6 7.7 9.1 17.1 16.7 27.5 22.4 6.9 2.8 18 1.7 26.4 1.7 8.4 0 19.6 2 28.1 0 12.9-3.5 24.8-9.8 35-18.4 5.5-4.3 14.3-11.2 15.5-19.1-1.2-.8-2.6-1.2-4-1.1-3.2 2-12.7.6-17.2.6-12.5 0-28.2 1.9-39.6-.6-4.6-1.1-11.4 1.1-14.9-1.1-14.8-.3-29.7 1-44.2 4-5.7 1.1-14.9-1.5-18.9 2zm-197.4-246c12.7-3.2 36.6-1.8 53.9-.6 7.7-11.7 22.1-19.9 37.9-23.5h20.7v-.6c-2.5-2.8-4.6-5.9-6.3-9.2l-7.5-7.5c-2.6-3.7-4.2-7.3-6.9-10.9l-16.6-16.6c-8.3-9.8-17.6-18.7-27.7-26.6-6-4.6-14.8-6.1-23.9-8-4.5-1-6.9 2.4-10.3-.6h-49.3c-11.5-.6-23 0-34.4 1.7h-30.4c-6 1.6-11.9 3.8-17.6 6.5-3.3 1.3-7 1.3-9.2 2.9-2.2 1.5-3.3 4.5-5.2 6.3-.4 15.1 6.5 21.9 12.1 31 6.2 10.1 9.8 21 16.1 31 1.3 2.1 3.7 3.8 5.2 5.7 4 5.4 7.7 16.1 16.6 16.1 2.3 1.6 6.1.3 9.6 1.1 10.8 2.5 23.9 1 35.6.6l37.6 1.2zm154.9 188.2c-2.2 2.8-5.9 3.2-7.3 6.7-2.5 5.7-1.1 12.4 3.4 16.6 10.8 4.9 22.7 6.7 34.4 5.2 16.2-3.9 32.7-5.9 49.3-5.7H926c8 .6 16 .4 23.9-.6 4.6-1.1 10.9 4.2 14.8 3.3 9.2-2.2 17.5 2.7 27.1-3.9 5.7-3.9 8.8-16.2 5.7-25.2-4.8-14.3-10.6-28.7-22.9-36-4.8-2.7-14.6-1.2-19.1-4-22.6-.1-42.1 1.1-64.3 1.1h-37.3c-7.2 1.5-14.5 2.3-21.8 2.3-4.1 5.5-8.2 8.1-11.4 15.5-3.2 7.4-5.9 14.1-9.2 20.7l-.9 4zM528.8 179c-1.7-2-3.3-4.1-4.7-6.3-1.6-3.7-.8-7.5-2.3-10.9-4.5-10.6-13-18.8-19.5-27.5-3.4-4.9-12.2-17.6-17.8-19.5-5.6 9.8-14 17.5-20.7 27-6.6 9.4-11.6 19.2-17.8 29.3-4.3 5.9-7.8 12.3-10.3 19.1h-.6c2-8.1 7.6-16.4 10.9-23.9 5.9-13.2 9.8-26.5 15.5-39.6 3.4-7.7 9.8-15.3 12.1-23.5l-9.1-7.1c-3.3 1.5-3.9 5.7-5.7 8.6-4.3 6.9-8.2 14-12.6 21.2-12.5 20.2-22.2 41.9-33.5 63.7-4 7.7-7.8 15.3-11.5 23.5-2 3-3.7 6.2-5.2 9.6h2.3c2.9 1.8 9.6-.6 14.3-.6 9.4-.4 18.8-.2 28.1.6.7.2 2.1 2.3 2.9 2.3 2.7.5 5.4.3 8-.6 7.8-2.2 6.7-7.7 10.3-13.2 5.3-3.5 11.1-6.2 17.2-8l27 2.9c1.4 1.8 3.6 2.4 5.2 4 6.3 6.3 8.3 13.1 21.2 11.5 1.7-1.9 4-3.1 4.8-5.7v-6.3c3.1-10.5-1-16.1-5.7-23.5-1.2-2.3-1.4-5-2.8-7.1zm-145.1 2.9c14.7-23.9 27.8-47.6 43.6-69.8 6-9.3 12.9-18 20.7-25.8l-.6-.6c-1.9-1.2-6-.5-8-1.7h-51.1c-4.7 8.3-10.2 16.7-15.7 25-3.6 6.2-5.8 12.2-9.6 18.4-4 5.4-7.5 11.1-10.3 17.2v21.2c-.6 2.8-1 5.7-1.1 8.6-.5 14.8-3.4 43 8.6 45.3 1.5-3.3 3.4-6.4 5.7-9.2 6-9.5 11.9-19 17.8-28.6zm-134.5-69.6c5.6-7.7 13.2-15.2 17.8-23.9h-16.1c-5.5 3.4-15.2 1.5-22.4 3.4-3.3 1-5.4 3.4-9.6 4-1.9.1-7.6 7.4-11.2 13-8 12.7-16.4 26.1-25.4 38-1.1 1.4-2.1 7.2-3 8.8-1.9 2.7-1.5 7.1-2.9 10.3-4.2 10.2-11.5 22.2-8.6 35.6 5.2 3.4 10.5 10.4 18.1 11.1 6.3-12.2 13.5-24 21.5-35.2 14-21.9 27.2-43.8 41.8-65.1zm74.7 77.6c-4.1 8.4-7.8 17-10.9 25.8h3.4c1.5-1.1 3.5-1.2 5.2-2.3 3.2-2.1 3.8-5.1 5.7-8.6.6-1 2.4-2.1 2.9-3.4v-23h-1.1c-1.1 4.1-2.9 8-5.2 11.5zm633.3 111.9c.9-1.1 1.3-1.4.6-2.9s.4-.2-1.1-1.1-3.5-1.2-4.8-2.3c-8.3 1.2-16.6 1.6-25 1.2h-9.6c-4.1.9-10.7-.5-15.5.6-7.6.9-15.3 1.1-23 .6H837c-.7 1-1.1 2.2-1.1 3.4.6.6.2.1.6 1.1 1.9 1.6 4 3 6.3 4l14.9 2.3h12.1c6.5.7 13 .9 19.5.5 11.7.4 23.4 0 35-1.1 12.1-1.8 29 3.9 32.9-6.3zm65.1 74.6c1.3 4.4 4.5 6.4 7.5 9.2h6.9c.3-.7.5-1.5.6-2.3-1.7-2.8-.3-7.8-1.1-11.5-1.3-7-1.9-14.1-1.7-21.2-7.3 1.6-15.4 14.7-12.2 25.8zm-859.7 31.1c-1.6.9-10.2 6.1-12 11.7-.3 2.2 5.1 6.2 7.9 7 .6.4.6-1.4 1.5-1 2.8-4.5 9.1-9.1 9.6-15.5-1.7-1-2.5-2.3-3.7-2.7l-3.3.5zm4.5-22.9c2.6-.5 6.6-2 7.8-4.1s-4.3-13.3-5.7-15.5c-4.3 1.2-8.1 3.5-11.1 6.7-1.9 1.1 6.5 12.1 9 12.9zm432.9 9.9c1.9 1.2 3.7 4.2 6.6 3.7 4.8-3.8 8.2-9.2 9.6-15.2 0-1.2-5-4.2-8.4-4.8.4 1.2 2.5 2.8 2 4.1-1.4 3.3-3 6.5-4.8 9.6-.7 1.4-3.5 1.7-5 2.6z"/><path class="st1" d="M113.7 379c-1.2 5.1-2 20.3-2.6 22.1v7.1c0 13.1-.4 28.9 25.2 50.5 4.5 3 9.3 5.5 14.3 7.5 18.2 7.3 42.5 2.6 56.8-4.8 15-8.3 26.4-21.8 32.1-37.9-4.8-3.4-5-10.7-7.5-16.6-1.8-4.3-4.3-9.6-5.7-14.3l-1.7-10.3c-.7-2.2-1.7-4.6-2.7-7-1.6-.7-2.9-1.7-3.9-3.2-2.3-3.5-4.3-7.2-6.1-11-.9-1.7-1.9-3.3-3.2-4.8-1.5-1.8-4.5-2.7-6.3-4.5-1.9-1.7-2.7-4.3-2.1-6.7-8-5.2-19.4-10.8-24.5-11 .1.8.3 1.6.6 2.3-5 .9-10 2-14.9 3.4-3.6.8-8.7-2.4-13.8-1.1-4.5 1.1-8.8 3.1-12.6 5.7-8.1 5.9-20.4 30.3-21.4 34.6zm62.4-19.8c4.2 1 8.4 1.8 12.6 2.3 10.1 3.2 18.4 10.5 23 20.1 6.9 16.4-3.1 37.5-12.6 44.8-3.9 2.7-8.1 4.8-12.6 6.3-6.1 2.4-12.7 3.2-19.1 2.3-13.3-3.4-23-9-28.1-20.7-12.8-29 8.8-55.4 36.8-55.1z"/><path class="st1" d="M142.6 392.5c-.2 2.7-.2 5.4 0 8.1.4 1.6 0 1.6 5.2 1.6 4.9-.6 9.7-1.5 14.3-2.9.9-2.2 1.3-4.5 1.1-6.9-3.2-1.5-6.8-2.1-10.3-1.7-3.4.5-6.9 1.1-10.3 1.8zm44.8 6.7c6.1 2.8 12.8 4.1 19.5 4 1.2-2.6 1.6-5.5 1.1-8.4-.2-.7-.4-1.4-.7-2-.3-.6-.7-1.2-1.1-1.6-7.1-.3-26.2-1.1-18.8 8zm-2 8.6c-2-1.7-7 2.2-7.3 4.8 3 4.8 1.3 15.7 8.6 16.1 1.2-.4 6.2-1.8 7.5-5.2.5-.9.7-1.9.6-2.9-3.2-3.3-5.9-7-8-11.1l-1.4-1.7zm397.8 9.8c-2.5 5.2-9.1 8.5-9.6 15.5 3.1 2.9 7.2 4.7 11.5 4.8 3-5.3 5-11.2 5.7-17.3l-4-3.4-3.6.4zm-394.1-31.4c4.2-3.5 10.8-6.3 12.6-12.1-3.7-2.2-7.4-5.5-11.5-8-2.3-.1-6.8 10.8-7.5 16.1 2.1 1.9 2.8 3.5 6.4 4zm371.6 10.4c-1.1.6-2.4 10.2-.8 10.9 2.9 1.9 13.8.6 18 .6.3.1 1-.5 1-1.1.6-2 .6-4.1 0-6-5.8-2.5-12-4-18.2-4.4zm29.1-4.8c-.3-1.3-7.2-14.3-10.3-14.3-4.6.5-8.1 4.5-8 9.2 4.4 2.9 8.7 10.2 14.3 11.7 1.5-.4 3.7-2.4 4-6.6zm-373.7-54.3c11.4-.5 22.9 0 34.2 1.5 15.7 3.4 35.9 1.7 53.9 1.7h44.2c7.5-.5 15-.3 22.4.6H384c11.2-.5 22.4.1 33.5 1.7h10.9c7.1 1.7 18.2.3 24.7 1.7l16.6.6c4 .9 11.3 3.5 16.1 2.3 2-.5 3.7-2.8 5.2-3.4 4.5-1.9 9.9 1.5 13.8.6 7.3-1.8 16.5 2.4 19.1-4.8 1.6-2.1.9-4.1.6-6.9-1.6-1.3-1.8-2.6-4-3.4-6.2-4.5-22.5-3.2-31.6-5.2h-7.5c-16.3-3.6-35.2-2.6-52.2-6.3-6.5-1.4-13.6.1-19.5-1.1l-35-.6c-1.3-.5-3.2-2.4-4.8-2.9l-22.4-1.9c-4-.2-9.2.9-10.9-1.7h-4v1.1l-14.9-.6h-48.2c-14.3 0-29.6-1-41.9 1.7-10.3 2.1-30.8-2-33.9 6.9-1 3-1.8 6.1-2.3 9.2 5.3 1.7 8.8 7.9 13.2 9.2h11.5z"/><path class="st1" d="M524.2 411.4c-.7 5.4-.7 10.9 0 16.3 7 22.2 25.2 37.5 47.1 44.8 3.9 1.3 7.1.7 11.5 1.7 13.3 3.1 27.2 2.5 40.2-1.7 3-1.1 4.6-3.6 6.9-5.2 4.5-3 9.6-4.3 13.8-7.5 15.3-11.5 20.9-28.1 27.5-47.8 1.6-4.7-1.9-16.3-2.9-19.5-5.2-16.9-12.6-30.3-25.2-39.6-9.2-6.6-19.5-11.4-30.4-14.3-6.4-1.8-17.7-3.1-21.9-7.1-11.4-.4-32.9 5.1-36 11.7-.8.8-19.9 16.9-19.9 18.5.9.4-10.7 18.7-10.7 49.7zm33.9.6c-1.1-4.9-1.3-10-.4-14.9 1.1-4.2 2.7-8.3 4.8-12.1 6.5-10.1 17.2-13.7 33.5-13.7.5-.7 1.2-1.1 2.1-1.1 2.1.1 4.1.5 6 1.3.4.1.8.4 1.1.8.6 0 1.3.1 1.9.3 12.1 4.6 21.5 14.6 25.2 27 1.4 6.8.8 13.9-1.7 20.4-5.2 14-14.2 23.5-33.9 23.5h-10.3c-11.7-2.4-21.6-10.3-26.4-21.2-1-3.4-1.6-6.8-1.9-10.3zm78.1-194.1c.9-.4 1.8-.6 2.8-.4-.7.4-1.4.4-2.8.4z"/><path class="st2" d="M599.3 399.3c-3.6-2-8-1.2-10.8 1.9v.6c2.3-.3 3.4-2.6 9.2.6 2.7 2.4 3.4 6.4 1.7 9.6l1.8-.4c5-5.3 1-12.3-1.9-12.3zm2-22.1v-.8c-1.8-2.3-14.8-1.7-16.4-.5-1.5.4-1.9.8-1.5 1.3l4 8h.6c1.5-8.3 7.7-4.7 13.3-8zm390.1-19.7c2.6-3.9 3.2-8.8 1.7-13.2-3.4-8.8-13.6-12.3-20.1-18.4-10.2 1.1-24.6.6-37.3.6h-14.3c-9.5.8-19.1 1-28.7.6h-56.8c-1.3 1.7-4 2.3-5.2 4-1.9 2.7-2.3 5.9-4 8.6-3.4 5.3-8.4 9.7-10.3 16.6h.6c7.5-7.3 16.2-13.1 25.8-17.2 6-1.5 14.7 1.4 19.5.6 12.4-1.5 24.9-1.3 37.3.6l27.5-.6c11.1 0 25.1-1.7 35 .6l13.2.6c6.6 2.3 12.6 11 15.5 17.2l.6-.6zM868.8 212.9h.6c6.8 6.1 18.3 10.1 26.4 14.9 9.7 6 18.6 13.5 28.1 19.5 8.2 5.2 16.5 9.3 24.7 14.3s15.1 13.1 23.3 18.7c3.8.9 7.8 1.2 11.7.9 1.7-3.7 1.9-7.8.5-11.6-2.9-6.9-12.4-10.4-18.4-14.3-20.9-14-45.5-24.3-70-35-6.3-2.8-14-4.7-20.7-6.9-2.1-.7-3.4-.2-4.8-1.1-1.1.2-1 .2-1.4.6zM562 408.6v6.1l2.9 8c3.1 3.6 6.3 7.3 9.6 10.9 0 0 7-14.7 12.2-15.6.7 0 5.5 1.8 3.9 4.8-1 1-7.5 16.3-7.5 16.3 4.2 4.2 23 4.4 25.8-1.1-3 .3-3.9-4-6-7-1.6-2.2-4.6-7.9-6.1-10.3-3.1-5.7-8.2-9.9-14.3-12-2.8 2.5-17.2 2.2-17.8 1.9-2.3-.8-1.9-.6-2.7-2zm-423.9-7c-2.1 3.9 5.1 19.1 10.7 19.1 3.9-5.1 8.1-9.9 12.6-14.3l-3.3 1.1c-4.8 1.7-16.1-2.8-20-5.9zm25.8-10.5l-.8-2.8c-3.6-2.8-6.8-6-9.6-9.6l-4.5-4.5c-2.1 3.2-7.8 9.2-8.5 13.5 7.9.6 15.7 1.7 23.4 3.4z"/><path class="st2" d="M102.5 332.7c-4.3 13.6-3.4 32.3-3.8 49.5v20c1.2 3.3 3 6.4 5.2 9.2h1.1c-.1-3-.7-8 1.1-9.2 1.8 1.9 4 1.1 4.8-1.1 2.1-3.4.6-14 1.7-18.4 3.7-14 11.4-34.8 21.2-41.9 9.5-6.6 20.2-11.3 31.6-13.8 20.8-4.8 46.6 10.6 47.1 25.2l-2.3 1.1v.6c2.6.1 4 .3 4.8 2.3 3.4 4 3.6 10.8 5.7 16.1 3.8 8.9 1.3 15.5 3.8 21.5 1.1 2.5 2.1 5.1 3 7.8.1.5 3.2-.2 3.5 1.1 2 6.6 4.5 13 7.5 19.1 1.9 2.5 4.5 4.5 7.5 5.7h6.9l2.3 2.3c5.5 2.6 16.3 1.1 23.5 1.1l53.9-.6c.5-1.9.7-3.8.6-5.7-2.3-4.4-3.6-9.3-3.8-14.3l2.1 3.3c-.1 6.3 3 16.7 6.8 16.4 2.6 1.6 16.3.6 20.7.6 2.5 1.5 9.6.6 13.2.6h32.7c10.7 0 24.3-1.5 33.9.6 4.8 1 11.4-.3 15.5.6h17.2l16.6 1.7c12.7.1 30 .9 35.6-6.3.6-.9 1-1.9 1.1-3-.8-1.3-1.2-2.8-1.1-4.3 1.5-28.5 3.9-67 34.7-79.4 3.5-5.1 7.7-9.7 12.3-13.8 4-1.7 8.3-2.7 12.6-2.9 2.1.5 4.2 2.9 6.9 2.3 21.2-4.6 30.3.4 43.6 8.6 6.2 3.1 12 6.9 17.2 11.5 1.9 3.3 3.7 6.8 5.2 10.3 2.8 4.2 7.5 7.4 8 13.8-1.1.8-1.2.8-1.7 2.3 7.5 5.9 10.3 16.8 14.3 26.4 5.1 12 14.8 21.5 27 26.4 15.8 6.4 40.3-.5 58.5 3.4h10.3c11.4 1.4 22.9 1.8 34.4 1.1h11.5c12.7 2.7 35 .6 49.3.6h49.3c10.4 1.6 21 2.2 31.6 1.7 22.3 0 55.2 2.7 68.9-6.3 10.6-6.9 16.7-19.7 17.8-36.2h-.6v.6c-3.7 2.1-3.9 7-6.3 10.3-4.1 4.8-9.5 8.4-15.5 10.3-5.1 1.5-12-.7-17.8.6-13.2 2.8-32.1 1.7-47.1 1.7h-16.6c-10.5 2.2-24.5 1.1-36.7 1.1-4.8.3-9.6.3-14.3 0-8.5-1.7-15.8 1.1-23.5-.6-7.3-1-14.7-.6-21.8 1.1-9.2 2-30.5-.7-37.9-2.3l-17.2-1.1c-9.3-2.1-21.1-3.1-29.3-5.2-8.1-2.1-15.5-2.1-20.1-7.5-7.2-8.6-6.3-22.9-6.3-39 0-13.1-1.2-25.5-1.7-38.3h1.1c4.5-1.3 9.4-1.1 13.8.6 10.7 4.4 20.8 11.5 36.2 11.5 10.3 0 20.9.6 21.2-9.2l-1.7-.6c-3.6-2.2-18.7 3.1-26.4 1.1-12.9-2.5-24.9-8.7-34.4-17.8-2.9-4.1-5.6-8.3-8-12.6-.7-.9-2.8-.9-3.4-1.7v-.6l-1.1-7.5c-.6-2-2.2-3.1-2.9-5.2 1.8-.6 1.7-.6 2.3-2.3-6.1 1.2-11.3-2.9-16.1-5.2-8-4-16.6-7-24.7-10.3-11-4.5-22-6.5-33.5-10.3-7.8-2.7-16-6.3-23.9-9.2-4.7-1.8-9-2.1-13.8-4-8.7-4.1-17.2-8.8-25.3-14l-6.9-2.3c-12.6-6.5-15.6-19.9-23-31.6-5.8-9.3-12.6-18.7-17.8-28.7-3.5-6.7-4.7-14.4-8.6-20.7-3.3-5.4-8.2-9.7-11.5-14.9s-4.7-10.1-8.6-15.5c-3.9-5.4-9.9-9.7-13.8-14.9-1.6-2.7-3.8-5-6.3-6.9C462.5 74.4 425 73.3 386 73.3l-35 1.1c-9.8-1.4-19.1 2.1-30.4 0-3.6-.7-8.6 1.1-13.8 0-6.8-1.2-13.8-1.2-20.7 0l-35.5 1.9c-4.8 1.1-11 .4-16.1 1.7-8.1 2.1-17.2 4-25.2 6.3-6.2 1.7-12 1.2-17.8 3.4-10.6 5.6-20.3 12.5-29.1 20.7-5 5.7-9.4 11.8-13.2 18.4-2.5 5.7-2.8 10.8-4.8 16.6-5.5 17-10.3 34.5-16 51.8-1 3.1-2 6.9-3.4 10.3-.9 2-3.3 4.3-4 6.3-1.1 2.9 0 4.5-1.7 6.9-1.8 2.3-6.8 2.1-8 4.8l-3.4 24.5c1.5 2.6 0 14.2-.9 18.2-1 .5 1.3 9.7.3 10-.1 3.7-.7 7.4-1.7 10.9h-1.2c-1.5.8-1.5.1-2.9-.6v1.1c4.4 2.9 11.7 20.8 8.6 29.3-2 5.4-5.8 10.3-7.6 15.8zm411.3-112.3c-17-1.6-35.6-2.9-53.4-2.9-1.3 4.2-5.2 5.4-8 8h-8c-.8-.3-2.2-2.1-2.9-2.3h-24.7c-6.1-1.3-13.3 1.6-17.8.6-7.9-1.7-15.9-2.4-23.9-2.3-.9 1.6-1.1 2.4-3.4 2.9-6-3.7-15.1.3-17.8-7.5-3.1-4.8-1.7-24.9-1.7-34.4 0-19.1-1.1-41.5 2.9-57.4 1.9-7.5-3-16.2-1.1-21.8 2.4-6.4 6.1-12.3 10.9-17.2 4.7-2.9 15.1-1.7 22.4-1.7h52.6c1.3.6 3.3.1 5.2.6 4.9.9 9.7 2.6 14 5.2 2.2 1.5 2.6 4.3 5.2 6.3s5.5 3.2 8 5.2l10.3 10.9c12.9 12.1 24.5 25.6 34.4 40.2 2.2 3.3 4.1 6.7 5.7 10.3 1.3 4.5 2.9 8.9 4.8 13.2 2.2 3.3 3 6.7 5.2 10.3 4.9 7.9 9.5 11.4 5.7 23.5-2 5.9.7 9.5-4.8 11.5-4 3.1-9.1-.2-12.1-1.1h-7.7zM342.2 322l1.7-.6c10.7-1.3 21.5-1.3 32.1 0 7.9 1.7 90.2 1.3 106.7 7.5 5.4 2 13.8 2.1 17.7 6.2 3.9 4.2 2.1 4 2.4 5.8-8.3 2.6-48.9 1.1-56.8-.6-9.8-.2-47 .1-55.7-1.7-2.9-.7-35.6-2.3-45.9-2.3-2-4.4-2.8-9.4-2.2-14.3zm-8.4.5c-.6-.8-1.1-1.8-1.3-2.9h2.9l-1.1 4c-.6-.6-.2-.2-.6-1.1h.1zm-3.6 12.7l1.7-.6v1.1h-1.7v-.5zm-33.1-.6c-6.8 0-89.5 1.4-89.9-10.3 1.9-2.5 1.8-5.2 5.2-6.3 1.8-1.4 55.3.6 64.3.6l47.1.6c1.4 1.8 2 4.1 1.7 6.3-1.7 2.1-2.3 4.8-4 6.9-1 1.1-2.9 1.7-4 2.9l-20.7-.6.3-.1zM168.5 200.9c-1.7-4-1.8-8.4-.3-12.5.8-2.2 1.6-4.4 2.5-6.6-.1-.2-.3-.4-.3-.6-3.8-10.2 1.5-21.3 4.2-31.2.6-2.8 2.8-4.9 5.6-5.3 3.6-14 7.9-27.8 17.2-38.3 8.6-9.6 17.3-12.3 29.6-14.3 20.6-3.4 40.3-7.2 61.2-8.8 2.3-.3 4.7.8 6 2.7 6.2-.7 12.4-1.1 18.6-1.1 4.8 3.8 13.9 4.3 17.2 9.2s1.1 10.6 2.9 17.8c.9 3.7 3.1 8 4 10.9 2.2 7-1.1 21.8-2.3 27-1 4.3.1 8.2-1.7 11.5l-3.4 2.9c-.4 5 0 10 1.1 14.9v9.6c0 14.6-3 24.5-13.8 27.5-10.8 3.1-23.6-.6-35-.6-17.8 0-41.1 2.2-56.8-1.1-7.5-1.7-15.6.3-22.4-1.1h-18.4c-4.1-1.1-14.7-8.9-16.1-12.6l.4.1z"/><path class="st2" d="M159 430.7l2.5.9c4.6 3.6 20.9-.1 25.2-1.1v-1.1c-3.9-5.1-6.6-11-8.1-17.3.9-.9 1.7-1.8 2.3-2.9-3.2-.2-6.5.2-9.6 1.1-1 2.6-3 6.2-4.8 9.6-2.2 3.7-4.8 7.3-7.5 10.8zm14.7-96.1c-3.2 0-6.4.8-9.2 2.3 8.7.4 6 2.2 13.8 0 1.5-.6 2.5 0 3.4-.6-2.7-.1-5.4-.7-8-1.7zm11.8 73.4c6.5 9.7 8.8 11.8 12.6 17.2 5.3-5.6 10.7-11.1 11.5-21.2-1.3.2-14.7-.9-23.9 3.4l-.2.6zm-8.9-14.5c2.5-.2 4.9.9 6.2 3.1h.2v-1.7c.2-2-1.2-3.6-5.2-4.8-1.7-.3-3.5-.1-5.2.6-4.1 1.7-6.4 6-5.7 10.3l.4.3v-.4c.9-2.4 2.6-4.5 4.8-5.8.2-.1.5-.4.5-.4 1-.9 1.1-1.1 2.9-1.1.4-.1.8-.1 1.1-.1zm690.8-181.1v-.6h1.1c-.5.4-.1.2-1.1.6zM191.5 338v-.6h1.1c-.6.5-.1.1-1.1.6zm16 14.4v.6h-1.1l-.6-.6c.2-1.2.1-1.1.6-1.7.5 1.1.2 1.1 1.1 1.7zm-26.4 56.8v-.6h1.1c-.5.6-.2.2-1.1.6z"/><path d="M104.1 273.7c.2 1.2 0 2.4-.6 3.4.1 1.4-.3 2.8-1.1 4-1.4-.1-2.6 5.6-3.4 5.2-5.8-2.7-7.6-30-5.8-39 .6-2.4-.5-5.3.6-6.9 1.4-5.2 11.5-6.9 13.8-13.2 1.7-3.4 1.7-7.5 0-10.9v-3.4l.6.6c2.8 2.3 1.7 10.1 1.7 14.9.1 9.2-.7 18.5-2.3 27.5-1 4.9.9 13.7 0 15.5l-.6 1.7-2.9.6zm897.3-5.7c5.7 8 10.5 18.3 20.1 22.4 2.5 9.8 4.5 25.8-9.2 25.8-2.6-2.6-6.9-4-9.2-6.9-7.9-11-13.4-23.5-16.1-36.7-.8-3.3-3.2-18.4-1.7-20.7 5.7 5 11.1 10.4 16.1 16.1zm-217.1 24.8c3.1.1 6.2-.9 8.6-2.9 1.4-.7 3.4.9 4.8 1.7l1.1 23.9-5.4 5.8c-10.5 4.8-22.5 5.4-33.5 1.7-5.8-3-11.4-6.5-16.6-10.4-14.6-9.2-28.7-19.1-28.7-43 28.7.2 55.2 9.4 69.7 23.2z" fill="#fdb913"/><path class="st4" d="M176.5 411.2c1.5 5.3 3.8 10.2 7 14.6 1.7 4.8 7.7 2.4 8.5 0 .5-.8 1.4-.3 1.4-1.8-4.2-5-8-10.2-11.5-15.7-1.1.9-4.7 1.5-5.4 2.9zm411.9 7.5c-4.1 5.5-7.8 11.3-11 17.4 1.5 2.2 4 3.4 6.6 3.2 2.8-5.8 5-11.9 6.6-18.1-.1-.8-.6-1.6-2.2-2.5zm-386.9-44.3c-.2-1.4-2.7-3.1-7.5-5.7-5.1 2.6-5.3 11.3-9.3 15.2.4 1 3.5 1.9 4 2.4 4.7-3.9 11.5-7.6 12.8-11.9zm399.1 43.1c-.9 1.9 2.8 5 3.6 6.6 2.4 4.4 4.8 10.5 7.2 10.9l1.8-1.1c2.3-1.5 3.7-3.9 3.8-6.6-.3-2.2-6.5-8.3-11.3-12.3-.4-.3-1.6-1.1-2.2 0-.7 1.1-2 1.5-2.9 2.5zm-.1-23.4c1.2 1.4 2.9 2.3 4.8 2.5.6-.6.1-.2 1.1-.6 2.3-4.9 6.6-7.7 7.5-13.8.3-.5-5.9-4.6-6.4-4-1 4.3-7.4 14.7-7 15.9zm25.4 16.7v-9.6c-.5-.6.3 0 0-1.1-5.7.3-18.4.1-18.4 8.5h.5c12.7.6 16.6 3.6 17.9 2.2zm-52.8-26.6c-.5 1.1-.8 2.3-1.1 3.5 3.9 3.5 8.1 6.7 12.4 9.6h.4c.2.1.4.2.7.3h1.6c1.6-.6 1.6-1.3 1.6-3.7-4.1-4-6.4-10.2-10.3-14.3-3.3.5-3 1.9-4.8 3.3-.3.3-.4.8-.5 1.3z"/><path class="st4" d="M576.5 447.1c6.8 1.6 13.8 1.8 20.7.6 4.1-.9 6.7 0 10.3-1.1 16.4-5.6 33.9-21.7 26.8-46.5-.8-3.6-2.5-7.3-3.3-10.9-4.8-9.2-12.7-16.3-22.4-20.1-4.1-1.5-8.3-2.5-12.6-2.9-21.1 0-36.3 3.6-44 16.2-1.9 3.3-3.5 6.7-4.8 10.3-8.6 27.9 8.8 48.4 29.3 54.4zm-20.6-35.5c-1-4.8-1.1-9.9-.2-14.7 1-4.2 2.6-8.3 4.8-12.1 6.6-10.6 17.9-14.1 35.6-13.8.3.2.7.3 1.1.3 1.6-.1 3.2.1 4.8.4.9 0 1.8.1 2.7.4 12.1 4.6 21.5 14.6 25.2 27 1.5 6.9.9 14.1-1.7 20.7-5.5 14.3-14.1 23.5-33.9 23.5H584c-11.7-2.4-21.6-10.3-26.4-21.2-.8-3.4-1.4-6.8-1.7-10.3v-.2z"/><path class="st4" d="M559.1 406.4l1.2 1.4c2.2 1.1 18.6 1.5 18.6-.6v-4.1c-6.1-2.6-12.5-4-19.1-4.2-.8 2.5-1 5-.7 7.5zm-388.7-22.7c2.2-1.7 4.3-.4 4.8-4-1.5-5.1-3.5-10-5.9-14.7-2.7 1-6.6 1.5-7.8 4.1-1.4.7 5.3 11.4 8.9 14.6zm16.3 8.9c-.7 1-1.1 2.2-1.1 3.4 8.5.2 13.5 4 22 4 1-2.6.9-5.5-.2-8-.8-.2-.2-.8-.8-.8-3.2-2.2-18.1-.6-19.9 1.4zm9.9-219.2c-2 8.3-5 20.6-3.4 29.3 2.3 1.1 4.6 1.8 5.7-1.1 2.7-3.8 2.5-22.4 4-28.7 4.1-17.3 6.6-34.4 12.1-49.3 2.3-6 4-12.1 5.2-18.4l-2.3-2.3h-2.3c-9.3 15-12.4 36.5-17.2 55.7l-1.8 14.8zm-29.3 234.7c-2.4 1.5-15.5 12-14.9 13.9 1 2.1 2.9 3.6 5.1 4.1.6.4 1.3.3 2.2-.6 2.9-4.5 9.4-9.3 9.9-15.6-.8-.6-1.6-1.1-2.3-1.8zm211.8-183c7-.7 14.1-.3 21 1.1l52.6 1.7c3.4 13.5 23.1 11.5 40.2 11.5 6.4 0 19 .7 23-1.7.7-.5 1.1-2.5 1.7-2.9 2.6-1.7 8 .7 11.5-1.7 3.4-2.4 2.2-4.9 4-8.6.6-1.2 3.2-2.2 4-3.4 1.6-3.3 2.8-6.7 3.4-10.3 2-8.5-9.5-28.4-12.1-34.4-8.2-19.4-18.8-37.7-31.6-54.5-3.5-4.8-9.1-8.4-12.6-13.2-8.3-10.8-19.1-19.3-31.6-24.7-9.7-4-24.2-4.1-36.2-5.2-5.5-.6-19.4 1.6-23-.6-5.4 0-27.4-.9-30.4 1.1-3.3 1.1-5 4.3-6.9 6.9-1.7 1.6-3.3 3.3-4.8 5.2-3.5 5.9-2.3 17.2-2.3 26.4s-.6 19.2-.6 27.5c.4 6.9.2 13.8-.6 20.7-1.1 5.9 0 12.4-1.1 17.8-2 9.1.4 27.4 3.4 32.1 4.1 5.8 17.9 11.2 29 9.2zm140.8-1.7l6.3.6v2.3l-1.7 1.1c-1.4 1-3.1 1.4-4.8 1.1l.2-5.1zm-60.8 0c1.2-1.9 1.1-4.4 2.3-6.3 2.1-3 4.6-5.7 7.5-8h8.6c4.8 3.1 17.4-.4 23.9 1.7 4.4 2.2 8.3 5.4 11.5 9.2.4 7.3.8 12.3-6.9 12.1-3.9.9-8 1.1-12.1.6h-24.7l-8-2.9c-1.4-1.9-2.1-4.2-2.1-6.4zm-50.1-3.5c-17-3.7-36.7.4-50.7-4.8-1.6-2.3-3-4.8-4-7.5-1.4-8.5-1.6-17.2-.6-25.8 1.1-4.8 0-10.8 1.1-16.1.8-6.9 1-13.8.6-20.7l.6-27c0-13.9-.2-31.3 12.1-32.1 3.1-2 21.1-.6 26.4-.6 3.3 2 17.2.3 22.4.6 11.5.4 25.4 1.3 34.4 5.2 11.5 5.5 21.6 13.7 29.3 23.9 3.6 4.8 9.4 9.2 13.2 14.3 10.6 13.9 19.7 28.9 27 44.8 4.8 10 8.8 20.4 12.1 31 1.4 5.5-.4 12.2-4 13.2-2.3-1.7-7.9 0-10.3-1.7-.9-.6-1.5-2.6-2.3-3.4-2.9-2.8-6.1-5.3-9.6-7.5-4.3-2.6-10.5-.6-16.1-1.7-5.5-1.1-18.7-3.6-24.7-1.1-4.7 2.7-8.4 6.7-10.9 11.5l-2.3 6.9H447c-4.6-2.8-14.3.7-20.1-.6-4.9-1.1-12.2.6-17.8-.6v-.2zm-252.9 30.2c-.3 5.3.4 8.8 5.2 9.2 3.8.9 7.6 1.1 11.5.6 10.2 0 20.9 1.5 20.7-9.6-1.8-1.9-3.2-3.4-4.8-5.2H164c-2.1.6-4.5 2.4-6.9 3.4-.3.7-.6 1.2-1 1.6zm7.8 2.7l.6-.6h21.2c-4.2 2.7-15.6 1.1-21.8 1.1v-.5z"/><path class="st4" d="M163.4 205.6c11.2 17.6 34.7 5.2 58.2 10.1 7.8 1.7 17.6 0 25.8 1.7 3.1.6 8.7-.3 12.6.6 11.1 2.4 25.2 1.1 37.9 1.1 6.4.6 12.9.2 19.1-1.1 4.2-1.6 7.9-4.1 10.9-7.5 5.6-7.8 4-25.1 4-38.3 0-20.8 6.5-45.1 1.7-66.6-1.5-6.6-.5-11.9-3.4-16.6-3-4.1-7.2-7.1-12.1-8.5-2.1-.6-4.4.2-5.7-.6-11.3-.7-22.7-.1-33.9 1.7h-9.6c-5.2 1.1-11.9 1.2-16.6 2.3L236.8 85c-10.7 2.5-21.8 4-29.8 9.2-17.2 11.1-22.9 32.6-31.6 52.6-2 3.5-3.7 7.2-5.2 10.9l-1.1 9.6c-2.7 8.4-13 26.9-5.7 38.3zm14.5 2.6c-4.4-1.2-6.5-5.3-9.2-8-1.2-13.9 4.4-22.6 7.5-32.7l1.1-9.2c2.2-6.8 6.4-13.7 9.2-20.1 6.7-15.2 10.7-29.2 23.5-38.3 8.8-6.1 20.6-6.5 32.7-9.2H253c17.1-4 39.4-4 59.7-4 2.3 1.2 4.9 1.8 7.5 1.7l5.2 5.2c2.3 4.5 1.1 10.4 2.3 16.1 3 13.8.3 43.2-2.3 55.1v15.5c.2 8.7-.6 17.3-2.3 25.8-2.6 2.3-5.5 4.3-8.6 5.7l-13.2.6c-9.9 1.4-20 1.2-29.8-.6-4.5-1-10.6.2-14.3-.6-6.8-1.5-14.1.1-20.1-1.1-8.4-1.7-17.9 0-25.8-1.7l-33.4-.2z"/><path class="st4" d="M85.9 352.5c0 13.6-2.1 30.9 1.7 41.9 2.1 4.2 4.8 8.1 8 11.5 2.7 4.9 7.6 8.3 13.2 9.2 4.5-7.7 2.6-21.4 5.2-31 2.2-9.5 6.5-18.3 12.6-25.8 5.1-6.9 12.4-11.9 20.7-14.3 4.7-1.6 11.1-2.8 16.6-4 6.9-1 14-.4 20.7 1.7 21.2 6.4 26.1 20.2 32.7 40.7 1.7 5.4 1.3 9.9 3.4 15.5 2.1 5.6 4.6 11.8 6.9 17.2.4 2.1 1 4.2 1.7 6.3 1.3 2.7 4.1 4.4 5.2 7.5-2.7 2-3 5.9-4.8 8.6-3.6 5.1-7.6 9.9-12.1 14.3-2.8 2.1-8.3 6.6-10.9 8l-25.8 8.6v.6h6.9c3.1-1.9 9.1.4 13.2-.6 7.8-1.2 15.5-3.3 22.9-6.1 9.3-5 18.1-10.8 26.4-17.2 2.3-1.8 5.7-8.1 7.5-9.2H306c2.9-1.8 11.3-.6 15.5-.6l38.3.6H408c8.4-.6 16.9-.4 25.2.6h16.1c7.9 1.7 17.5-.7 25.8 1.1 11.7 2.3 23.8 2.3 35.6 0 6.9-.9 12.9-5.2 16.1-11.5.9-5.1 1.1-10.3.6-15.5-.4-8.7.4-17.4 2.3-25.8 5.8-22.5 18.6-32.9 38.3-41.9 1.3-.6 2.6-2.3 4-2.9 10.6-2.9 21.8-3.5 32.7-1.7 18.5 4.5 38.6 14.1 48.2 27.5 3.3 5.6 6 11.6 8 17.8 6.4 14.6 6.6 31.2.6 45.9-3.3 7.1-7.3 13.8-12.1 20.1-5.1 7-22.9 18.7-32.1 21.8-3.4 1.2-15.3 1.8-17.8 3.4 8.4.1 17.5 3.1 26.4 1.1 22-4.9 43.1-7.2 54.5-22.4 3.9-5.2 8-10.5 11.5-16.1 1.4-2.4 1.8-7.7 4-9.2 8.6 7.7 28.8 2.2 42.5 5.2 8.8 1.9 20.8-1.5 30.4.6 12.3 1.8 24.8 2.4 37.3 1.7l36.7.6c5.6 13 15.8 23.5 28.7 29.3 18.6 7.6 48.8 4.8 63.7-4 6.4-4.4 11.9-10.1 16.1-16.6.8-1.1 2.7-7 3.4-7.5h31.6c3.8-2.2 17.5-2.8 23-3.4 17.8-2.5 21-18 22.4-19.1 6.9-10 6.9-33.9 6.9-50.5 0-13.3 2.2-33.8-1.1-44.8-1.5-4.6-3.6-9-6.3-13-1.1-1.7-3.3-3.1-4-4.8l-1.7-8c-3.4-10.7-8.1-20.9-14-30.4-22-31.8-62.5-42.5-103.3-55.7-6.5-2.1-12.5-1.7-19.5-3.4-9.5-2.1-18.9-4.8-28.1-8-7.2-3.7-14-8.4-20.1-13.8-14-10-25.4-22.4-39-32.7-4.5-3.4-8.1-8.7-12.6-12.1-21.5-16.2-43.3-32.7-66.6-47.1-7.2-4.4-15.2-5.8-23.5-9.2-12.5-5.1-25.3-9.6-38.3-13.2-7.8-2.2-15 0-22.4-1.7-22.6-5.4-49.5-4-72.9-9.2-7.6-1.7-15.4-.8-22.4-2.3-9.6-2.3-19.7-.3-28.7-2.3l-56.4-1.7C380 50.9 294 46.7 232.8 63.8L219 66.1c-16 4.5-35.2 7.4-48.2 15.5-14.5 9.5-25.9 23.1-32.7 39-3.4 8.3-6.3 17.1-9.6 25.2-1.2 2.9-.9 5.8-2.3 8.6-1.3 2.1-3.8 4-4.8 6.3l-2.9 12.1c-1.3 4-3.8 7.6-5.7 12.1-1.9 4.4-2.1 8.8-4 13.2-1.2 2.7-4.2 4.9-5.7 7.5C97 215 92.3 225.2 89.3 236c-3.1 13-2.9 26.6.6 39.6 1.4 3.9 7.7 18.4 5.7 24.7-1 3.6-4.3 7-5.7 10.3-1.8 4.6-3.1 9.5-4 14.3v27.6zm9.2-105.6c3.1-13.6 3.3-26.8 12.6-33.9.3 10.4-.7 20.8-2.9 31-1.4 6.5-.5 13.5-1.7 19.1-1.6 6.8.6 15.6-2.9 20.7l-6.3-19.1c-.8-6-.4-12 1.2-17.8zM852 201.2c.2 4.8-.5 7.6-3.4 9.6-1.4 1.1-14.9 5-18.4 3.4-1.6-.7-3.3-3.3-5.2-4-4-1.5-9.6.7-14.3-.6-7.8-2.5-15.8-4.4-23.9-5.7-9.9-1.3-21.2-2.9-31.6-5.2h-9.6c-9.4.4-18.8 0-28.1-1.1h-34.3c-1.3.5-1.1 2.2-4 1.7-10.7-2.2-25.1-2.3-36.2-4.8l-16.1-.6c-7-1.4-14.1-1.8-21.2-1.1-.9 1.4-1.3 3.1-1.1 4.8 1.1 1 2.5 1.6 4 1.7 4.4 2.5 22.7.2 29.3 1.7 10.5 2.3 23.1.8 34.4 3.4 6.8 1.6 13.5 3.3 20.1 5.2s15.6 1.5 20.7 5.2c-48.8.4-103.3 1.1-132.6-18.4-4.2-3.2-7.9-7.1-10.9-11.5l-6.9-6.4c-6.5-8.7-10.3-18-16.1-27.5-4.1-6.9-7.3-14.3-11.5-21.2-5-8.2-11.9-15.5-8.6-28.7 7.8-4.9 15-5.1 25.8-7.5h30.4c29.5-6.6 68.2-.3 99.3-3.9 3.3 1.7 9.4.6 13.2 1.7 10.9 3.1 23.8 5.4 32.7 10.9 22.4 13.6 42.9 31.4 63.7 47.1 10 7.6 18.1 18.2 28.1 25.8 5.4 3.9 9.7 8.8 14.9 12.6 6.2 4.1 11.9 8.5 17.4 13.4zm-142.4 4.9c-2.5-.8-5.1-.4-6.9-1.7h20.1c4.6 2.7 27.2-.5 34.4 1.1 15 3.3 31.8 3.5 45.3 8.6v.6h-65.9c-4.7-4.2-19.9-6.4-27-8.6zm305.9 103.2c-2.9.1-4.4.8-6.3-.6-4.4-1.5-6-6.8-8.3-10.8-4.8-9.3-11.5-30.5-9.6-43.6h1.1c.6-.6.5-.6 1.7-.6 9.3 10 16.5 21.7 21.2 34.4 3.8 8.9 7 14 .2 21.2zM92.8 342.7v-18.6c3.2-12.5 10.4-21.9 13.8-33.9 2.9-10.2 1.5-21.1 4-32.1 1.1-4.4 0-10.1 1.1-14.9 2.3-10.2 5.5-28.3 0-37.9 3.7-2.8 3.9-8.4 5.7-13.2 2.1-5.6 5.4-11.2 7.5-16.6l2.3-10.3c1.3-3.4 4.3-6.2 5.7-9.6 5.9-13.7 8.1-28.6 15.5-40.7 4.1-5.9 8.5-11.5 13.2-16.8 3.2-4.6 7.3-8.5 12.1-11.5 2.6-.9 5.3-1.7 8-2.3 12.2-4.5 24.7-8.4 37.3-11.5l9.2-1.1c44.5-12 95.3-13.8 152.6-13.8h55.7c9 0 20.8-1.1 28.1.6 7.3 1.7 16.9-1 23.5.6h16.1c12.4 2.8 27 .6 39 3.4l10.9.6c11.3 2.8 24.9 2.2 36.2 4.8l11.5.6c11.9 2.7 25.7 2.5 37.3 5.2 5.7 1.3 12.2-.5 20.1 1.7 7.9 2.2 16.7 5.4 24.7 7.5v.8h-14.3c-4.3 2.5-19.5-1.5-26.4 0-18.6 4-43.3-.5-60.8 3.4-8.4 1.9-19.6-1.1-27.5.6H548c-10.2 2.1-22.8 2.2-27.5 9.6-2.9 6.3-3.3 13.5-1.1 20.1 3.3 6.8 7.2 13.3 11.5 19.5 5.9 9.6 9.9 19.6 15.5 28.7 14.4 23.3 27.5 37.8 54.5 48.8 6.6 2.7 13.8 1.6 21.8 3.4 19.9 4.5 44.5 3.4 67.7 3.4l92.4.6c14 0 35.6 2.1 47.8-.6h6.3c5.6-1.3 11.3-2.8 16.6-4 3.6-3.7 5.7-8.6 5.7-13.8l23.5 6.9 12.6 1.7c8.9 2.1 17.9 3.9 27 6.9 22.3 7.1 43.6 16.7 63.7 28.7-1.9 6.7-2.3 13.8-1.1 20.7 3.5 15.5 8.8 42.4 21.2 47.8 9 3.8 14.3-3.3 19.1-5.2v.6c7.4 7.3 6.3 22.5 6.3 37.3-15.2 3.2-19.4 37.1-1.1 39.6 0 11.6-3.8 25.8-9.6 31.6-13.4 13.4-44.5 10.9-71.2 10.9-9.8.5-19.6.2-29.3-1.1h-19.5c-6.1-1-12.2-1.2-18.4-.6-8.8 1.9-21.4.6-31 .6-8.4.6-16.9.4-25.2-.6h-15.5c-14.9 0-30.9 1-43.6-1.7h-14.7c-8.8.5-17.7.1-26.4-1.1l-19.1-.6c-29.7-7.4-34.8-37.3-45.9-63.1-3.3-6.8-7.3-13.2-12.1-19.1-1.9-3.2-4.2-6.1-6.9-8.6-7.1-5.1-15.1-8.8-23.5-10.9-5.6-1.4-11 .1-17.2-1.1-10.5-1.6-21.2-.2-31 4-4 .9-7.8 2.3-11.5 4l-5.2 5.2c-18 13.5-26.6 30.9-32.7 56.8-2.2 9.4-.1 22.6-1.1 32.1l-6.3 5.2-8 .6c-10.4 2.1-21.1 2.1-31.6 0-4.2-1-10.2.2-13.8-.6l-29.3-.6c-8.9-2-21.6-.6-31.6-.6h-63.1c-.3-3.1-.8-6.2-1.7-9.2v-47.1c0-34.7.9-68.3 1.1-103.9-.4-11.7.3-23.4 2.3-35 1-4.4 3.5-5.9 2.9-10.3-.9-.1-1.7-.5-2.3-1.1-2.4.1-4.5 1.7-5.2 4-2.9 4-1.6 10.7-2.9 16.6-2.6 11.6-1.1 27.8-1.1 41.3 0 35-1.7 65.6-1.7 100.4-.4 14.7 0 29.5 1.1 44.2-18-.3-37.1 0-56.2 0-12.8 0-25.2.2-32.7-5.2-4.2-3-4.8-8.7-6.9-14.3-2.1-5.7-8-24.3-8.6-27.5-2.5-6.7-10.5-31.9-12.1-34.4-8.6-13.7-35.5-25.6-58.5-19.5-10.5 2.8-20.2 4.7-25.8 12.1-8.4 11.1-14.9 23.5-19.1 36.7-1.8 5.5-2.6 22.1-5.2 25.8-2.8-4.4-7.5-7.2-9.6-12.6-3.4-9.2-1.1-35.4-1.1-47.4zm937.6 38.5v-.6c-2.9-1-3.3-3.3-5.2-5.2 0-5.9.9-11.7 2.9-17.2 1.3-.9 1.7-1.7 3.4-2.3v25.2l-1.1.1z"/><path class="st4" d="M713.8 278.6c-.3 4.3.3 8.6 1.7 12.6 7.4 17 26.4 29 44.8 35 11.6 3.1 23.9 1.7 34.4-4 6.8-5 9-18.7 5.2-29.3-5.9-16-21.4-25-36.7-31.6-4.2-1.9-16.5-2.9-19.1-4.8-17.4-.3-30.4 5.1-30.3 22.1zm6.7-6.3c2.6-1.5 4.4-4.7 6.9-6.3 4.4-2.9 12.3-2.3 19.5-2.3 2.9 1.7 8.8 2.1 12.1 3.4 13 5.5 25.6 12.1 32.1 24.7 2.3 4 6.3 15.8 2.3 21.8-5.2 7.9-23.3 9.1-33.9 5.2-14.7-5.7-34.8-18-39-33.5v-13zm-349.4-14.5c-13.3-.4-25.7-2.6-25.2 11.5.6.6.2.1.6 1.1 8.2 5.1 35.9 5 46.5 2.3 1.6-3.4 1.8-7.3.6-10.9-4.9-3-7.3-2-13.8-3.4-2.9-.6-6.7.6-8.7-.6zm-1.7 9.7c-3.5-1.8-14.5 1-16.8-2.5h1.1c2.7-1.7 17.3-.6 21.8-.6 2.7 1.7 9.9.7 11.5 1.7.6.6.2.1.6 1.1h-18.2v.3zm363.2 87.8c-9 14.4 4.6 31 14.9 34.4 19.4 6.5 34.7-10.7 27.5-29.8-3.6-9.4-8.2-9.9-15.5-14.9-12.4-.3-22.3 2.8-26.9 10.3zm17.8 28.2c-7.6-2.2-18.8-14.5-11.3-25.4 3.3-5 11.7-6.3 20.1-6.3 3.7 3.4 7.7 5.3 9.6 10.9 4.2 13-4.4 24.7-18.4 20.7v.1zM973 299.6c.7-1.8 1-3.8 1.1-5.7H973c-5.2-3.2-16.4.8-23-.6-5.5-.7-11.1-.9-16.6-.6 0 0-50.5.5-55.7-.6-6.4-1.4-42.1 0-50.5 0-3 0-9.2-.5-10.3.6-1.1 1.1-1.1 2.6-1.1 4.8 4.4 2.3 14.3 1.1 20.7 1.1 5.1 3.2 24.4-1.7 32.1 0 2.5.6 7.1-.1 10.3.6 6.1.7 12.2.9 18.4.5h35c13.5 0 28.1 2.4 40.7-.1zm-830.5 92.7c-.1 2-.1 4.1 0 6.1 7.7.1 13.2-2 20.7-2.3v-3.4c-3.6-1.6-7.6-2.2-11.5-1.8-2.6 0-5.1.4-7.6 1.1h-1.5l-.1.3z"/><path class="st4" d="M172.4 355.3c-32.5-.5-56.6 26.5-42.5 60.4 5.5 13 20.8 20.1 36.2 23.5 8.9 1.8 17.2-2.5 22.4-4.8 17.2-7.5 34.2-28 23.5-53.4-4.6-10.9-13.5-19.5-24.7-23.5-3.6-1.1-12-.4-14.9-2.2zm1.5 3.6c4.2 1 8.4 1.8 12.6 2.3 10.1 3.2 18.4 10.5 23 20.1 6.9 16.1-3.1 37.5-12.6 44.8-3.9 2.7-8.1 4.8-12.6 6.3-6.1 2.4-12.7 3.2-19.1 2.3-13.3-3.4-23-9-28.1-20.7-12.9-29.4 8.7-55.6 36.8-55.1zm633.1 6.9c-4.3 9.6-14.5 26.9-6.3 38.3 5.1 7 15.6 5.2 26.4 5.2h12.6c4.8-1.1 12.2.6 17.8-.6 11.1-1.5 22.3-1.8 33.5-1.1h59.1c10.5 0 35.9 2.3 42.5-1.7 7.5-4.6 9.3-18.9 6.3-30.4-4.8-18.5-5.4-44.5-23.5-49.9-11.9-2.5-24-3.5-36.2-2.9-4.8 0-14.9 1.5-18.4-.6h-54.5c-9.3 0-20.4-1.2-28.1 1.1-4.5 1.7-8.8 4-12.6 7-8.7 6.2-13.7 24.7-18.6 35.6zm.2 19.9l1.7-8c1.3-3.6 3.7-7.5 5.2-10.9 5.8-13.3 9.3-27.8 21.2-35 6.6-4.1 19.5-2.9 29.8-2.9h65.2c3 1.8 11.3.6 15.5.6 9.5-.4 18.9.5 28.1 2.9 12.8 4.2 15.6 35.6 19.1 49.9.7 5.2.1 10.5-1.7 15.5-8.8 5.5-35.6 2.9-49.9 2.9h-75.7c-12.6 1.8-25.3 2.3-37.9 1.7-6.5.5-13 .3-19.5-.6-1.5-1.7-2.7-3.6-3.4-5.7-1.3-2.7 1.3-8.3 2.3-10.4z"/><path class="st4" d="M814.7 376.5c-.9 1.3-.3 2.4 0 4 8.8 1.3 17.7 1.7 26.6 1.1-.2 4 0 8.1.6 12.1 1.5.8 3.1 1.2 4.8 1.1.5-.8 1.1-1.6 1.9-2.2v-10.3l20.7.6V396c1.4 1.2 3.3 1.8 5.2 1.7 1.8-4.8 2.3-9.9 1.7-14.9h27l.6 14.3c1.4 1.2 3.3 1.8 5.2 1.7l.6-1.1c1.6-2.2.6-10.1.6-14.9h24.7c-.2 4.2 0 8.4.6 12.6l1.7.6c1.8 1.2 3.3.1 4-1.7.9-3.8 1.1-7.6.6-11.5H961l.6.6c-.2 3.8.1 7.6 2.9 8.6 1.8 1.2 3.3.1 4-1.7.5-2.5.3-5.1-.6-7.5h15.5c1.2-1.4 1.8-3.3 1.7-5.2-.8-.5-1.6-1-2.3-1.7h-14.3v-18.4c7 .3 13.8 1.4 13.8-5.7-4.6-1.5-9.5-1.9-14.3-1.1l-.6-11.5c-1.2-.9-2.5-1.5-4-1.7l-1.7 1.8c-2.1 2.6-.6 7.5-.6 11.5h-21.2c.3-5.6.1-11.1-.6-16.6-8.1-3.7-6.7 8.8-6.3 16.6-7.2-.1-15.5-.6-23.5-.6.7-5.7.9-11.5.6-17.2H909c-6.7-3.9-5.6 12.4-6.3 17.2H879c.4-6.1 1.7-11.7 1.7-18.4-1.6-1-1.4-1.7-4-1.7-.6.6-.2.2-1.1.6-2.2 6.3-3.3 12.9-3.3 19.5l-23 1.1c.1-5.2 1.1-14.9-.6-17.2-1-.9-1.2-1.1-2.9-1.1-4.7 4-3.4 9.9-3.4 18.4-5.2-.1-10.4.5-15.5 1.7l-.6 1.7c-1.2 1.8.1 3 1.7 4 1.6 1.1 10.4-.6 14.3-.6v16.6c-5.5 1.8-15.2.6-21.8.6-1.6-1.3-3.1-1-5.2-.6l-.6 1.7zm125.5-19.4l21.2.6c-.2 6.1 0 12.3.7 18.4h-21.2l-.7-19zm-30.9-.2h23.9l.6 19.1h-23.9c-.5-6.4-.7-12.8-.6-19.1zm-30.8 0h23.9V376h-24.7c-.1-6.4.2-12.8.8-19.1zm-29.2 1.3c4.7-.8 9.6-1 14.3-.6 2.6-.8 5.3-1 8-.6l-.6 17.2c-3.5 2.4-11.2 1.7-17.2 1.7-1.5-.6-3.2-.8-4.8-.6l.3-17.1z"/></g><path d="M804.3 368.5c5.5-2 10.9-4.6 16.1-7.5 4.5-4.5 8.7-9.2 12.8-14 15.9-18.7 29-39.7 34.3-63.9 5.1-23.4 2.9-48.3-7.3-70.1-9.5-20.3-25.8-37.4-31.5-59.5-2.6-10.2-3.2-21.2-.3-31.4 1.3-4.5 3.1-8.6 5.2-12.7-8.9 5-16.8 12.2-23.7 19.5-4.7 5-9.2 10.1-12 16.4-.6 1.3-1 2.6-1.4 3.9-.6 4.7-.8 9.4-.8 14 0 .6-.1 1.1-.2 1.6.3 1.4.5 2.7.8 4.1.1.8 0 2.8.1 4.1-.1 0-.2 0-.3-.1-2-.4-4.1-.4-6.1-.9-.7-.2-1.5-.4-2.2-.7-.2-.1-.4-.1-.6-.2-3.9-1.5-7.6-3.8-10.7-6.5-7-5.9-12.4-15.6-15.8-23.9-3.9-9.4-7.9-19.6-9.3-29.8-2.3-16.8-.2-33.6 2.3-50.2.9-6 5.4-17.8 2.4-23.3-1.2-2.1-2.6-2.8-4.7-1-3.6 3-6.9 6.3-10.3 9.5-8.9 8.8-17.3 18.1-26.1 27-.4.4-.8.7-1.2.9-2 3-4.1 6-6.5 8.8-4.9 5.7-8.9 11.6-12.2 18.3-5.6 11.8-11.9 24.2-14.5 37.1-2.8 14.3-6.3 28.3-8.3 42.8-2 14.6-1.8 28.8.9 43.4 2.5 13.4 6.8 26.4 10.6 39.5 4.4 14.9 8.1 30.7 17.3 43.6 6.6 9.3 13 20.2 20.9 28.4 2.3 2.4 4.5 4.8 7 7.1 2.6 2.4 5.8 3.6 8.6 5.6 2.9 2.1 5.4 4.3 8.6 6 18.5 9.6 36.1 22.2 58.1 14.1zm-204.4 26.4c.5-2 1-4 1.3-6.1 1.7-10.3-1.7-20.2-.8-30.5.5-5.3 2.3-10.3 5.1-14.4-1.5-.9-3.3-1.2-5.1-.8-8 2.1-11.6 10.1-16 16.5-2.2 3.2-4.9 6.1-7.8 8.6l1.2-4.2c1.9-7.3 3.2-15.2 3.9-22.7.7-8.2.1-16.5-.8-24.6-.8-7.3-1.4-14.7-2.9-21.9-2.8-13-9.1-27.2-17.8-37.3-4.5-5.2-9.6-8.7-15.7-11.6-6.1-2.9-12-6.2-19-4.6-.5.1-1.1.3-1.6.6 23.2 15.2 17.1 52.1 13.8 75.7-.1.9-.4 1.7-.8 2.3-1 5.2-2.4 10.4-4.3 15.3-.7 1.8-1.9 2.8-3.3 3.1-.1.4-.2.9-.3 1.3-.4-.4-.8-.8-1.1-1.2-2.3-.1-4.6-1.9-5-4.7-.9-.5-1.6-1.4-2-2.8-1.7-6.2-6.8-10.6-10.8-15.4-1.7-2-3.3-4.1-4.5-6.3-2.8 1.2-5 4.1-4.7 8.4.5 7.1-2.3 13.7-5.5 19.8-3.6 6.7-6.7 13.6-8.8 20.9-2.2 7.6-4.3 14.9-3.1 22.8 1 6.8 2.8 13.3 6.4 19.2 3.8 6.3 9 11.2 14.6 16.1 5.5 4.8 11.2 10 17.7 13.3 6.7 3.4 13.8 2.1 21 2.4 5.4.3 12.3 3.8 16.9-.9.8-.8 1.4-1.9 2.4-2.5.8-.6 1.9-.9 2.9-1.1 13.5-3.8 24.3-13.4 30.8-25.7 1.2-2.4 2.5-4.7 3.7-7zM459 58.6c-.5-.8-1-1.5-1.5-2.3-2-1.5-4.1-2.8-6.2-3.8-5.8-2.9-11.8-4.9-17.7-7.4-.2.2-.3.4-.5.5 8.2 11.2 9.6 26.6 8.6 40-1.2 15.6-5.6 33.4-16.4 45.3-1.8 2-4 2.2-5.7 1.5 0 .1-.1.1-.1.2-.1-.1-.1-.2-.2-.4-2-1-3.4-3.3-2.9-5.6-2.8-5.2-5.4-10.5-8.1-15.7-5.5-10.6-12.8-21.1-24.9-24.5-2.1-.6-3.9-.5-5.5.1 6.8 14.3 8.9 29.7 5.3 45.1-1.5 6.4-.8 12.9-2.9 19.4-2.1 6.4-5.1 11.9-9.2 16.9-4.5 5.4-8.1 11.1-8 18.5.2 15.9 11.9 25.4 26.4 29.2 3.2.8 6.9 2 10.2 2.1 2.4.1 4.9-.8 7.2-.6 5.1.5 9.6 3.1 15 2.5 3.9-.5 8-1.7 11.6-3.2 6.4-2.7 11.8-7.2 16.4-12.3 4.8-5.3 9.7-10.5 13.6-16.5 4.1-6.4 7.6-13.4 10.4-20.5 11.2-28.7 11.4-63-3.4-90.4-3.4-6.4-8-11.9-11.5-18.1zM215.1 263.5c-3.7-7.1-7.7-14.8-13.5-20.4-5.5-5.2-14.1-11.1-22-9.9-2.4.4-4.3 1.9-5.4 3.8 6.4 7.8 11.2 16.8 12.9 27 1.1 6.7.8 13.4-.6 19.9.2 1.4.3 2.9.1 4.4-.4 2.6-1.4 5.2-2.3 7.6-3.4 9.2-9.2 17.1-12.9 26.1-1.5 3.7-2.3 7.3-2.4 11-2-4.6-2.2-10.7-2-15.4.2-6.4.7-12.8-.4-19.1-.5-2.8-1.2-5.6-2-8.3-.5-.5-.9-1.3-1.2-2.2-1.7-6.3-5.3-12.1-8.5-17.8-3.8-6.9-7.5-13.9-10.2-21.3-2.4-6.8-3.9-14.5-2.1-21.6 1.5-6.1 5.1-10.8 9.9-14.4-1.1-5.5-8.6-9.6-13.1-4.8-2.5 2.7-5.5 4.5-8.4 6.7-3.5 2.7-6.5 6.2-9.5 9.5-5.5 6.2-10.9 12.3-16 19-5.1 6.8-10.8 14.1-13.9 22.1-3.3 8.5-4 18.1-5.7 26.9-3.4 18.1-1.9 35.7 4.5 53 5.4 14.6 18.5 29.7 32.2 37.2 8.7 4.8 18.3 8.1 28 10.2 7.5 1.6 16.2 1.8 23.4 4.3 2.6.9 5.2 1.9 8 1.9s5.7-1.4 6.7-4c.3-.9.4-1.8 1-2.6.6-.7 1.5-1.1 2.3-1.5 11.8-5.1 19.2-16.1 24.6-27.3 7.2-15.1 10.9-32.4 11.3-49.1.6-17.9-4.5-35.1-12.8-50.9z" fill="#feba12" id="fire"/></svg>