<svg xmlns="http://www.w3.org/2000/svg" viewBox="0 0 500 500"><g id="freepik--Shadow--inject-97"><ellipse id="freepik--path--inject-97" cx="250" cy="416.24" rx="193.89" ry="11.32" style="fill:#f5f5f5"></ellipse></g><g id="freepik--Clipboard--inject-97"><rect x="117.56" y="157.74" width="157.45" height="228.27" rx="7.25" style="fill:#263238"></rect><rect x="117.56" y="157.74" width="157.45" height="228.27" rx="7.25" style="fill:#fff;opacity:0.4"></rect><rect x="131.07" y="174.45" width="136.44" height="202.68" style="opacity:0.2"></rect><path d="M200.47,154.75a4.19,4.19,0,0,0-8.38,0h-30a2.1,2.1,0,0,0-2.11,2.11v21.83h72.53V156.86a2.1,2.1,0,0,0-2.11-2.11Zm-4.19-2.19a2.19,2.19,0,1,1-2.19,2.19A2.19,2.19,0,0,1,196.28,152.56Z" style="fill:#263238"></path><rect x="128.06" y="171.45" width="136.44" height="202.68" style="fill:#BBBFCB"></rect><rect x="128.06" y="171.45" width="136.44" height="202.68" style="fill:#fff;opacity:0.7000000000000001"></rect><g style="opacity:0.4"><rect x="149.6" y="193.88" width="93.36" height="5"></rect></g><g style="opacity:0.4"><rect x="159.61" y="211.64" width="83.36" height="2"></rect></g><g style="opacity:0.4"><rect x="149.6" y="219.39" width="93.36" height="2"></rect></g><g style="opacity:0.4"><rect x="149.6" y="227.14" width="93.36" height="2"></rect></g><g style="opacity:0.4"><rect x="149.6" y="234.9" width="93.36" height="2"></rect></g><g style="opacity:0.4"><rect x="149.6" y="242.65" width="93.36" height="2"></rect></g><g style="opacity:0.4"><rect x="149.6" y="250.4" width="93.36" height="2"></rect></g><g style="opacity:0.4"><rect x="149.6" y="258.15" width="43.33" height="2"></rect></g><g style="opacity:0.4"><path d="M166,289.68H149.6V273.34H166Zm-14.35-2H164V275.34H151.6Z"></path></g><g style="opacity:0.4"><rect x="171.27" y="277.48" width="71.7" height="2"></rect><rect x="171.27" y="283.54" width="48.86" height="2"></rect></g><g style="opacity:0.4"><path d="M166,319.7H149.6V303.36H166Zm-14.35-2H164V305.36H151.6Z"></path></g><g style="opacity:0.4"><rect x="171.27" y="307.5" width="71.7" height="2"></rect><rect x="171.27" y="313.56" width="48.86" height="2"></rect></g><g style="opacity:0.4"><path d="M166,349.72H149.6V333.37H166Zm-14.35-2H164V335.37H151.6Z"></path></g><g style="opacity:0.4"><rect x="171.27" y="337.51" width="71.7" height="2"></rect><rect x="171.27" y="343.58" width="48.86" height="2"></rect></g><polygon points="156.03 286.13 153.11 282.1 154.73 280.92 156.2 282.96 160.89 277.8 162.37 279.15 156.03 286.13" style="fill:#BBBFCB"></polygon><polygon points="156.03 316.14 153.11 312.11 154.73 310.94 156.2 312.98 160.89 307.82 162.37 309.17 156.03 316.14" style="fill:#BBBFCB"></polygon><polygon points="156.03 346.16 153.11 342.13 154.73 340.96 156.2 343 160.89 337.84 162.37 339.19 156.03 346.16" style="fill:#BBBFCB"></polygon><g style="opacity:0.2"><path d="M221.55,184.68H173a2.94,2.94,0,0,1-3-3.3l1.33-13A3.75,3.75,0,0,1,175,165h48.52a2.93,2.93,0,0,1,3,3.31l-1.33,13A3.74,3.74,0,0,1,221.55,184.68ZM174.82,167a1.48,1.48,0,0,0-1.44,1.31l-1.33,13a1.16,1.16,0,0,0,1.18,1.3h48.52a1.48,1.48,0,0,0,1.44-1.3l1.33-13a1.16,1.16,0,0,0-1.17-1.31Z"></path></g><path d="M220.55,183.68H172a3.31,3.31,0,0,1-3.31-3.3v-13A3.31,3.31,0,0,1,172,164h48.53a3.31,3.31,0,0,1,3.31,3.31v13A3.31,3.31,0,0,1,220.55,183.68ZM172,166a1.31,1.31,0,0,0-1.31,1.31v13a1.31,1.31,0,0,0,1.31,1.3h48.53a1.31,1.31,0,0,0,1.31-1.3v-13a1.31,1.31,0,0,0-1.31-1.31Z" style="fill:#fff"></path><rect x="175.71" y="160.94" width="41.14" height="8.18" rx="1.49" style="fill:#263238"></rect><rect x="175.71" y="160.94" width="41.14" height="8.18" rx="1.49" style="fill:#fff;opacity:0.1"></rect></g><g id="freepik--Character--inject-97"><path d="M317.57,203.68,309,199.16l5.1-6.79s6.46,2.32,6.61,8Z" style="fill:#e4897b"></path><polygon points="305.09 193.44 310.11 189.3 314.08 192.37 308.98 199.16 305.09 193.44" style="fill:#e4897b"></polygon><path d="M355.69,190.62a15,15,0,0,0-4.64,1.84,19.38,19.38,0,0,0-3.54,2.77,58.76,58.76,0,0,0-4.77,5.37c-2.77,3.45-5.36,6.86-8,10.28-.46-.28-.93-.6-1.41-.93-.82-.56-1.64-1.18-2.47-1.82-3.29-2.56-6.63-5.41-9.95-8.17l-4.08,3.53a83.47,83.47,0,0,0,8.33,10.81,37.22,37.22,0,0,0,5.46,5,14.26,14.26,0,0,0,2,1.22,8.24,8.24,0,0,0,1.51.58,7,7,0,0,0,2.57.23,6.06,6.06,0,0,0,.92-.17,5.06,5.06,0,0,0,1-.36,5.89,5.89,0,0,0,1.83-1.31l.73-.81,1.12-1.22c3-3.27,5.87-6.65,8.69-9.89,1.4-1.61,2.82-3.2,4.06-4.41a9.48,9.48,0,0,1,1.62-1.32,5.52,5.52,0,0,1,1.44-.61Z" style="fill:#BBBFCB"></path><path d="M358.16,201.22a5.52,5.52,0,0,0-1.44.62,8.37,8.37,0,0,0-1.62,1.32c-.52.51-1.08,1.09-1.65,1.71-.79.84-1.61,1.77-2.41,2.7-1.77,2-3.58,4.12-5.42,6.21-1.07,1.23-2.17,2.46-3.27,3.67l-1.12,1.23-.73.8a5.87,5.87,0,0,1-1.83,1.32,5.79,5.79,0,0,1-1,.36,6.06,6.06,0,0,1-.92.17,7.2,7.2,0,0,1-2.57-.23,9,9,0,0,1-1.51-.58,14.61,14.61,0,0,1-2-1.23,37.18,37.18,0,0,1-5.46-5,83.47,83.47,0,0,1-8.33-10.81l4.08-3.54c3.31,2.77,6.66,5.62,9.95,8.18.82.64,1.65,1.25,2.47,1.81.47.34,1,.66,1.41.94,2.62-3.43,5.21-6.83,8-10.28a58.81,58.81,0,0,1,4.77-5.38,19.72,19.72,0,0,1,3.53-2.77,15.37,15.37,0,0,1,4.64-1.83Z" style="fill:#fff;opacity:0.7000000000000001"></path><path d="M353.45,204.87c-.79.84-1.61,1.77-2.41,2.7-1.77,2-3.58,4.12-5.42,6.21a15.59,15.59,0,0,1,6.75-11.63A6.82,6.82,0,0,1,353.45,204.87Z" style="opacity:0.1"></path><path d="M395.45,192.91v0a100.8,100.8,0,0,0-4.35,19.84c-.7,5.51-1.11,11-1.33,16.05s-.26,9.78-.23,13.38c.05,4.69.21,7.62.21,7.62H349.43c-5.71-40.85,5.81-59.29,5.81-59.29a75.81,75.81,0,0,1,9.17-1.15c.64,0,1.3-.06,2-.08a141.33,141.33,0,0,1,16.32,1.11c1,.11,2.06.26,3.08.43C390.91,191.67,395.45,192.91,395.45,192.91Z" style="fill:#BBBFCB"></path><path d="M395.45,192.9s0,0,0,0a74.67,74.67,0,0,0-2.37,8.38c-.68,3-1.23,6.14-1.69,9.29-.1.73-.2,1.45-.29,2.18-.45,3.56-.78,7.12-1,10.54-.13,1.88-.24,3.72-.32,5.5-.13,3.18-.2,6.17-.22,8.83,0,1.65,0,3.18,0,4.55,0,4.7.2,7.63.2,7.63h-40.3c-5.71-40.86,5.81-59.29,5.81-59.29a73.51,73.51,0,0,1,9.16-1.15c.65,0,1.31-.07,2-.08a141.33,141.33,0,0,1,16.32,1.11c1,.11,2.06.26,3.07.42C390.91,191.67,395.45,192.9,395.45,192.9Z" style="fill:#fff;opacity:0.7000000000000001"></path><path d="M319.37,416.77s13.42-4,14.4-9.24a.9.9,0,0,1,1.08-.77l9.75,1.63a1.27,1.27,0,0,1,1,.87l3,9.48-2.75.08-1-1.36-1.16,1.43c-15,.47-21.43.51-24.42-.33C318.74,417.25,319.37,416.77,319.37,416.77Z"></path><path d="M373.4,416.77s13.42-4,14.4-9.24a.91.91,0,0,1,1.09-.77l9.74,1.63a1.24,1.24,0,0,1,1,.87l3,9.48-2.76.08-1-1.36-1.15,1.43c-15,.47-21.43.51-24.43-.33C372.77,417.25,373.4,416.77,373.4,416.77Z"></path><path d="M376.86,251.53h0c-.08.24-2.49,7.8-5.74,18.64l-.56,1.9c-1.53,5.16-3.22,11-4.92,17-2.08,7.37-4.17,15.12-6,22.54-2.67,10.73-4.83,20.77-5.69,28-2.81,23.77-8.28,70.7-8.28,70.7L333,407.11s-2.31-50.82.09-75.1c1.53-15.43,8.39-46.84,12.88-66.36,2.29-10,4-16.91,4-16.91l14.52,1.51Z" style="fill:#263238"></path><path d="M359.62,311.64c3.36-13.52,7.53-28.12,10.93-39.55L367.9,266C361,273.69,358.64,298.23,359.62,311.64Z" style="opacity:0.2"></path><path d="M400.3,409.61l-14,1.36S370.11,363.91,368,339.29c-.9-10.71-1.76-31.43-2.4-50.19-.48-13.74-.84-26.42-1-33.35-.09-3.47-.14-5.5-.14-5.5l12.4,1.29,13.27.41s.62,3.05.44,15.95c-.29,20-1,55.29-.58,74.24C390.49,366.69,400.3,409.61,400.3,409.61Z" style="fill:#263238"></path><path d="M379.24,173.31,369.36,182c1.09,4.07-.52,7.89-2.49,8.65l1.47,4.07,12.21-4.7C377.42,186.78,378.31,178.57,379.24,173.31Z" style="fill:#e4897b"></path><path d="M375.21,176.84l-5.85,5.1a15.94,15.94,0,0,1,.56,2.9c2.24-.34,5.27-2.82,5.47-5.17A8,8,0,0,0,375.21,176.84Z" style="opacity:0.2"></path><path d="M379.55,187.53s-7.57,2.38-8.64,3-2.31,3.64-2.31,3.64.83-3.1.41-4.87-1.17-1.77-1.17-1.77l-1.94,4s-.41,3.43,2.7,3.93,12.59-5.17,12.59-5.17Z" style="fill:#BBBFCB"></path><path d="M379.55,187.53s-7.57,2.38-8.64,3-2.31,3.64-2.31,3.64.83-3.1.41-4.87-1.17-1.77-1.17-1.77l-1.94,4s-.41,3.43,2.7,3.93,12.59-5.17,12.59-5.17Z" style="fill:#fff;opacity:0.6000000000000001"></path><path d="M361.48,158.78c-1.78,2.11.28,4.8.2,6.86s-.44,4.75,2.21,1.91S364.26,155.86,361.48,158.78Z" style="fill:#263238"></path><path d="M379.93,167.79c-.89,6.88,0,8.05-3.71,11.33-5.62,4.94-14.28,5.41-15.06-1.67-.7-6.38-.59-17.84,6.37-20.08A9.56,9.56,0,0,1,379.93,167.79Z" style="fill:#ff8b7b"></path><path d="M378.91,172.42c-3.1,1.88-4.11-2.49-3.9-2.83.94-1.48.89-2.74-.23-5.57s4.55-6.1,8.68-4.88c3.79,1.13,0,4.09.44,6.56C384.78,170.1,381.42,170.91,378.91,172.42Z" style="fill:#263238"></path><path d="M363.39,175.21a42.73,42.73,0,0,1,7.48-.8c-.61,1.55-1.78,2.85-4.61,3S363.39,175.21,363.39,175.21Z" style="fill:#fff"></path><path d="M382.78,172.62a6.31,6.31,0,0,1-3.41,3.16c-1.9.68-2.8-1.2-2.23-3.24.51-1.84,2.11-4.41,4-4.2S383.68,170.77,382.78,172.62Z" style="fill:#ff8b7b"></path><path d="M371.52,167.94c-.06.58-.33.62-.72.57s-.73-.15-.67-.73.42-1,.81-1S371.58,167.35,371.52,167.94Z" style="fill:#263238"></path><path d="M364.28,167.91c-.06.59-.33.62-.72.58s-.73-.15-.67-.74.43-1,.81-1S364.35,167.32,364.28,167.91Z" style="fill:#263238"></path><path d="M365.42,167.72a16.1,16.1,0,0,1-2.34,3.76,2.63,2.63,0,0,0,2.15.52Z" style="fill:#ff5652"></path><path d="M372.79,165.36a.33.33,0,0,0,.16-.07.35.35,0,0,0,.06-.48,3.46,3.46,0,0,0-2.87-1.39.36.36,0,0,0-.32.38.35.35,0,0,0,.38.31h0a2.81,2.81,0,0,1,2.26,1.12A.33.33,0,0,0,372.79,165.36Z" style="fill:#263238"></path><path d="M360.84,166.54a.35.35,0,0,0,.32-.08,2.67,2.67,0,0,1,2.38-.77.34.34,0,0,0,.41-.26.35.35,0,0,0-.25-.42,3.44,3.44,0,0,0-3,.94.34.34,0,0,0,0,.49A.33.33,0,0,0,360.84,166.54Z" style="fill:#263238"></path><path d="M369.06,160s-5.21,2.31-7.52-2.24,3.88-7.26,3.88-7.26a3.76,3.76,0,0,0,0,3.17s1.05-3.3,5.41-2.24,11.3,2.42,12.73,4.74a3.93,3.93,0,0,1,.33,3.76l-7.12,1.72A5.57,5.57,0,0,0,369.06,160Z" style="fill:#263238"></path><path d="M349,246.39l-.31,7.65,41.92,6.76c0-6.62-1-15.23-1-15.23Z" style="fill:#263238"></path><polygon points="389.33 249.55 390.19 249.53 389.89 246.76 389.13 246.77 389.33 249.55" style="fill:#263238"></polygon><polygon points="357.44 250.1 374.75 249.8 374.56 247.03 357.32 247.33 357.44 250.1" style="fill:#263238"></polygon><polygon points="355.99 247.35 348.67 247.48 348.67 250.25 356.08 250.12 355.99 247.35" style="fill:#263238"></polygon><polygon points="387.79 246.79 375.89 247 376.11 249.78 387.97 249.57 387.79 246.79" style="fill:#263238"></polygon><g style="opacity:0.2"><polygon points="389.33 249.55 390.19 249.53 389.89 246.76 389.13 246.77 389.33 249.55" style="fill:#fff"></polygon><polygon points="357.44 250.1 374.75 249.8 374.56 247.03 357.32 247.33 357.44 250.1" style="fill:#fff"></polygon><polygon points="355.99 247.35 348.67 247.48 348.67 250.25 356.08 250.12 355.99 247.35" style="fill:#fff"></polygon><polygon points="387.79 246.79 375.89 247 376.11 249.78 387.97 249.57 387.79 246.79" style="fill:#fff"></polygon></g><path d="M363.24,250.3a.89.89,0,0,1-.88-.83l-.09-1.69a.87.87,0,0,1,.23-.65.92.92,0,0,1,.63-.28l4.29-.07a.89.89,0,0,1,.89.81l.13,1.76a.9.9,0,0,1-.24.66.86.86,0,0,1-.64.28Zm4.19-2.77h0l-4.29.07a.12.12,0,0,0-.09,0,.13.13,0,0,0,0,.1h0l.09,1.68a.13.13,0,0,0,.13.13h4.32a.12.12,0,0,0,.09,0,.13.13,0,0,0,0-.1l-.13-1.75A.12.12,0,0,0,367.43,247.53Z" style="fill:#fff"></path><path d="M367.41,248.88h-1.32a.38.38,0,1,1,0-.75h1.32a.38.38,0,0,1,0,.75Z" style="fill:#fff"></path><path d="M393.07,201.31c-.68,3-1.23,6.14-1.69,9.29a20.42,20.42,0,0,1-.79-8.45A3.87,3.87,0,0,1,393.07,201.31Z" style="opacity:0.1"></path><path d="M390.07,223.32c-.13,1.88-.24,3.72-.32,5.5-.13,3.18-.2,6.17-.22,8.83-4.22-1.75-11.86-5.21-12.76-7.91-1.25-3.75.82-5.47.82-5.47A100,100,0,0,0,390.07,223.32Z" style="opacity:0.1"></path><path d="M371.61,222.59l-2.13.64a2.35,2.35,0,0,0-1.65,2.52l.32,2.78a2.36,2.36,0,0,0,1.93,2l1.28.23a6.64,6.64,0,0,0,8.28-1.2l.06-4.56-6.6-2.41A2.37,2.37,0,0,0,371.61,222.59Z" style="fill:#e4897b"></path><path d="M377.6,224.9s-2-3.66-2.06-5.87-2,.37-1.05,2a2.05,2.05,0,0,1-.73,2.72Z" style="fill:#e4897b"></path><path d="M407.34,223.89l-.07-.52-.07-.37-.08-.42-.15-.84c-.81-4.5-1.72-9-2.88-13.51a68.62,68.62,0,0,0-2.15-7,27.64,27.64,0,0,0-1.81-3.87,12.2,12.2,0,0,0-1.78-2.39,8.85,8.85,0,0,0-1.69-1.36,8,8,0,0,0-2.5-1,6.58,6.58,0,0,0-3.16,4.74,14.17,14.17,0,0,0-.33,5.58,17.52,17.52,0,0,1,1,2.26c.7,1.82,1.35,3.87,2,5.94,1.24,4.09,2.37,8.33,3.54,12.57-.5.15-1.07.28-1.67.4a28.9,28.9,0,0,1-3,.42c-4.14.42-8.64.48-13,.5l-.83,5.33a66.56,66.56,0,0,0,14,2.48c1.22.06,2.47.09,3.78,0a19.81,19.81,0,0,0,4.21-.58,12,12,0,0,0,2.54-1,8,8,0,0,0,3-2.66,7.18,7.18,0,0,0,1-2.38A7.66,7.66,0,0,0,407.34,223.89Z" style="fill:#BBBFCB"></path><path d="M407.34,223.89l-.07-.52-.07-.37-.08-.42-.15-.84c-.81-4.5-1.72-9-2.88-13.51a68.62,68.62,0,0,0-2.15-7,27.64,27.64,0,0,0-1.81-3.87,12.2,12.2,0,0,0-1.78-2.39,8.85,8.85,0,0,0-1.69-1.36,8,8,0,0,0-2.5-1,6.58,6.58,0,0,0-3.16,4.74,14.17,14.17,0,0,0-.33,5.58,17.52,17.52,0,0,1,1,2.26c.7,1.82,1.35,3.87,2,5.94,1.24,4.09,2.37,8.33,3.54,12.57-.5.15-1.07.28-1.67.4a28.9,28.9,0,0,1-3,.42c-4.14.42-8.64.48-13,.5l-.83,5.33a66.56,66.56,0,0,0,14,2.48c1.22.06,2.47.09,3.78,0a19.81,19.81,0,0,0,4.21-.58,12,12,0,0,0,2.54-1,8,8,0,0,0,3-2.66,7.18,7.18,0,0,0,1-2.38A7.66,7.66,0,0,0,407.34,223.89Z" style="fill:#fff;opacity:0.7000000000000001"></path></g></svg>
