<svg xmlns="http://www.w3.org/2000/svg" viewBox="0 0 184.585 131.743"><path d="M170.938 86.366a6.91 6.91 0 0 0-7.832-3.981c-.21.047-1.069.238-2.428.546a38.449 38.449 0 0 0 4.977-3.74 6.909 6.909 0 0 0-6.935-11.58c-4.966 1.668-11.993 4.423-20.202 7.788a4218.375 4218.375 0 0 1 18.44-10.378l4.58-2.568a6.91 6.91 0 0 0-5.35-12.648q-10.772 3.205-21.066 6.745 1.917-1.03 3.842-2.067 7.004-3.767 14.183-7.636a6.909 6.909 0 0 0-5.466-12.634c-15.583 5.195-34.31 12.236-53.527 20.015 18.524-10.63 37.595-20.516 55.814-28.822a6.909 6.909 0 0 0-4.12-13.08c-11.573 2.138-17.585 5.012-25.906 8.99a426.654 426.654 0 0 1-6.688 3.148A15851.458 15851.458 0 0 1 77.81 40.6a680.467 680.467 0 0 1 25.968-16.787 6.91 6.91 0 0 0-5.95-12.39c-11.895 4.267-22.538 8.549-32.66 13.004a7.034 7.034 0 0 0-.555-.904 6.91 6.91 0 0 0-9.648-1.545c-4.8 3.476-9.53 7.096-14.104 10.596-4.524 3.463-9.2 7.044-13.878 10.426a6.91 6.91 0 0 0 7.223 11.735q1.404-.726 2.798-1.441c-5.553 4.402-11.03 8.955-16.304 13.618a6.909 6.909 0 0 0 7.45 11.458q3.487-1.595 7.065-3.227c-6.851 4.789-13.373 9.569-19.463 14.279a6.91 6.91 0 0 0 7.328 11.639q3.508-1.763 7.25-3.582a8.521 8.521 0 0 0-2.362 5.072c-.78.51-1.56 1.018-2.342 1.532a6.909 6.909 0 0 0 6.813 11.988q7.392-3.588 14.858-7.195c1.016-.015 2.045-.019 3.067-.056a8.503 8.503 0 0 0 8.504 8.853l.198-.007a6.909 6.909 0 0 0 7.561 2.193c3.952-1.328 9.21-3.344 15.329-5.807a8.485 8.485 0 0 0 3.176-.761l5.574-2.543c.141.111.287.217.434.318a6.906 6.906 0 0 0 9.062 9.097 111.187 111.187 0 0 1 14.368-4.767 6.912 6.912 0 0 0 8.538 4.288c16.717-5.134 44.257-24.065 45.42-24.869a6.91 6.91 0 0 0 2.41-8.45" fill="#f4f5f5"/><path d="M63.275 57.177l1.686 13.715c.069.558.955.565.885 0L64.16 57.177c-.069-.558-.954-.564-.885 0m27.172-34.669l1.868 15.201c.069.557.954.564.885 0l-1.868-15.2c-.07-.559-.954-.566-.885 0m5.552-1.317a89.143 89.143 0 0 0 3.404 13.572c.18.537 1.035.307.854-.235a89.183 89.183 0 0 1-3.404-13.572c-.095-.56-.95-.323-.854.235" fill="#fff"/><path d="M116.89 74.57a126.841 126.841 0 0 0-1.09-6.443c-.748-.398-.896-1.665.13-1.848a70.287 70.287 0 0 0 2.212-.44l.122-.078c1.653-.651 3.326-1.25 4.991-1.869a1.05 1.05 0 0 1 1.047-.75c.025-.097.038-.2.056-.302-.063-.993-.122-1.952-.179-2.87a65.086 65.086 0 0 0-2.099-6.3c-1.196-3.83-2.399-7.177-6.21-9.041-4.532-2.219-10.396-2.074-14.584-5.061a4.164 4.164 0 0 1-1.95.497l.003.242a12.112 12.112 0 0 1 .753 5.775 39.631 39.631 0 0 1 .158 4.314 59.175 59.175 0 0 1 1.637 13.725 26.942 26.942 0 0 1 .837 3.848.907.907 0 0 1 .456.577 26.237 26.237 0 0 1 .79 7.502 7.167 7.167 0 0 1 .465.547c.161-.01.32-.01.477-.008.312-.196.625-.39.921-.612a1.029 1.029 0 0 1 1.496.609 3.866 3.866 0 0 1 .265 1.722 3.296 3.296 0 0 1 .148 1.913 6.766 6.766 0 0 1-3.032 3.77 1.061 1.061 0 0 1 .321.644q.591 4.791.932 9.59c.366 2.479.778 4.953 1.15 7.433a20.431 20.431 0 0 0 5.357 6.524 54.998 54.998 0 0 0 7.427-5.513c-.474-5.375-1.606-10.67-2.226-16.025-1.62-3.333-1.448-7.948-.782-12.071M92.478 90.18a.924.924 0 0 1-.632-.88c-.159-5.915-1.858-11.576-1.502-17.45-1.018-4.269-1.56-8.652-.234-11.978-.01-.179-.012-.36-.024-.54-.046-.685-.098-1.369-.15-2.053a.962.962 0 0 1-.647-.639c-1.042-3.152-.747-6.382-.133-9.59-.054-.934-.093-1.869-.123-2.805a3.467 3.467 0 0 1-.986-1.689 2.587 2.587 0 0 1 .431-2.09c-.029-.15-.066-.298-.092-.449-2.179 1.553-4.652 3.146-7.163 3.664a32.284 32.284 0 0 0-8.493 4.009c-1.683 1.836-3.226 3.786-4.775 5.734-1.097 2.164-2.318 4.26-3.573 6.336a.772.772 0 0 1 .023.24l-.469 4.212c.331.24.667.48 1.002.72a26.292 26.292 0 0 1 6.853 4.829l1.166-1.275s.208.9.553 2.54a3.674 3.674 0 0 1 .665-.641 2.469 2.469 0 0 1 .721-1.126c.761-.62 1.805.309 1.348.997a.828.828 0 0 1 .088.376c.008 1.672.094 3.423.051 5.161a.776.776 0 0 1 .956.579 31.513 31.513 0 0 1 .41 5.998c.031.695.026 1.383.004 2.07a.96.96 0 0 1 1.09.972c-.005.882-.038 1.763-.065 2.644 1.258 3.607.64 7.707.27 11.586a46.218 46.218 0 0 0 7.181 5.36c2.143 1.165 4.338 2.229 6.54 3.283.135-.005.272 0 .402-.018-.05-1.376-.022-2.765.029-4.144.173-4.708-.454-9.304-.722-13.942" fill="#e0e0df"/><path d="M76.246 70.254a.951.951 0 0 0-1.003-.865 1.094 1.094 0 0 0-.683.23 1.886 1.886 0 0 1 .337-.36.86.86 0 0 1 .55-.204c.61 0 1.147.67.799 1.199m-2.153.194c.027-.022.055-.043.083-.063a2.46 2.46 0 0 1 .045-.122.972.972 0 0 0-.006.11l-.002.033a2.33 2.33 0 0 0-.12.042m-.925.394a39.445 39.445 0 0 0-2.814-2.088c.022-.074.047-.15.077-.224q.699.594 1.36 1.23l1.166-1.274s.182.785.487 2.224q-.14.063-.276.132m3.188 1.33a1.049 1.049 0 0 0-.172-.2c.009-.204.026-.41.034-.615l.004-.126c.01-.286.025-.572.028-.858 0-.04-.001-.076-.004-.113a.827.827 0 0 1 .087.372 89.5 89.5 0 0 0 .023 1.54m1.324 7.09q-.228-.748-.504-1.488l-.071-.178c-.001-.56-.018-1.12-.057-1.68a.644.644 0 0 1 .292.456c.149.977.266 1.937.34 2.89m1.163 6.244l-.034-.381a1.121 1.121 0 0 1 .035.287l-.001.094m.243 13.753a2.238 2.238 0 0 1-.515-1.72c.23-2.935.45-5.883.42-8.808.935 3.319.442 7.004.095 10.528" fill="#dad9d9"/><path d="M80.963 100.03a2.493 2.493 0 0 1-1.878-.771c.347-3.523.841-7.209-.095-10.528a42.782 42.782 0 0 0-.148-3.225l.001-.094a1.123 1.123 0 0 0-.035-.287 29.7 29.7 0 0 0-1.129-5.863 38.849 38.849 0 0 0-.34-2.89.644.644 0 0 0-.292-.455 17.909 17.909 0 0 0-.574-3.481.92.92 0 0 0-.118-.263c-.01-.519-.02-1.034-.023-1.541a.827.827 0 0 0-.087-.372v-.006c.348-.529-.187-1.199-.799-1.199a.862.862 0 0 0-.55.204 1.912 1.912 0 0 0-.336.36.928.928 0 0 0-.34.644l-.045.122c-.028.02-.056.041-.083.063a8.515 8.515 0 0 0-.648.262c-.305-1.439-.488-2.224-.488-2.224l-1.166 1.275q-.66-.636-1.36-1.23a2.605 2.605 0 0 1 .348-.609 58.435 58.435 0 0 0 4.758-7.337 2.456 2.456 0 0 1 2.223-1.218 2.39 2.39 0 0 1 2.608 2.526c-.377 3.469-1.114 6.518 0 9.963.863 2.675 2.187 5.138 2.853 7.887 1.414 5.838 1.001 11.87.536 17.797a2.69 2.69 0 0 1-2.793 2.49" fill="#d2d0d0"/><path d="M112.974 43.525c-1.028-.31-2.087-.563-3.15-.813a2.665 2.665 0 0 1 .625-.689c.74.29 1.483.567 2.234.821.103.226.2.452.291.68" fill="#dad9d9"/><path d="M114.02 59.36a2.475 2.475 0 0 1-.352-.025l-.003-.013a28.797 28.797 0 0 0-.592-3.457 36.339 36.339 0 0 0-3.57-12.35 2.452 2.452 0 0 1 .32-.804c1.064.25 2.124.505 3.15.813 2.009 5.012 1.273 10.479 1.175 15.833a2.66 2.66 0 0 1-.127.003" fill="#d2d0d0"/><path d="M97.975 19.857a41.46 41.46 0 0 1-6.646 2.32c-1.26.318-3.464.256-4.52 1.117-.785.639-.998 2.478-1.139 3.368a5.392 5.392 0 0 0 .425 3.423l.764-.447c-1.35-1.832-3.728-4.066-3.737-6.498-.008-2.731 1.652-6.057 4.363-6.796.962-.262 1.985-.289 2.96-.516a22.364 22.364 0 0 1 3.82-.908c2.176-.116 4.098 1.103 6.283 1.011l-.382-.666a4.851 4.851 0 0 0-.749 3.086c.23 2.055 2.203 3.333.33 5.629l.694.089a16.822 16.822 0 0 0-3.253-4.371c-.408-.397-1.035.228-.626.626a16.177 16.177 0 0 1 3.114 4.192.445.445 0 0 0 .695.089c2.534-3.103-1.28-5.726.56-8.893a.446.446 0 0 0-.383-.666c-1.898.08-3.51-.843-5.363-.996a10.024 10.024 0 0 0-3.404.483c-2.382.624-5.498.541-7.24 2.504a10.397 10.397 0 0 0-2.303 6.103c-.02 2.703 2.36 4.913 3.857 6.945a.443.443 0 0 0 .764-.447c-.684-1.483-.503-4.936 1.196-5.894.952-.536 2.88-.548 3.942-.827a42.902 42.902 0 0 0 6.424-2.296c.52-.23.071-.993-.446-.764" fill="#5b595b"/><path d="M101.27 21.69a132.928 132.928 0 0 0-1.528-2.032 6.398 6.398 0 0 1 .36-3.369.524.524 0 0 0-.363-.638 20.169 20.169 0 0 0-1.454-.287c-1.063-1.059-3.096-.638-4.393-.46-.905.124-1.883.286-2.86.508a.468.468 0 0 0-.368-.166l-.223.016a.405.405 0 0 0-.35-.01l-.087.042a5.697 5.697 0 0 0-1.68.451.446.446 0 0 0-.544-.198 6.634 6.634 0 0 0-4.422 5.529 6.992 6.992 0 0 0-.303 3.363.4.4 0 0 0 .236.315 5 5 0 0 0 .874 1.859l.021.045.004-.003.077.108a.422.422 0 0 0 .328.175c.04.093.067.187.117.281.247.461.972 1.131.972.629a24.123 24.123 0 0 1 .146-2.697c.195-.341.41-.655.63-.963 2.182-1.544 7.016-2.303 8.474-2.945a8.843 8.843 0 0 0 1.678-.857c.17.416.851.302.957-.137a8.623 8.623 0 0 0 1.193 1.375l.457.957c.165.346.8 1.212 1.01.951.365.051.391-.903.853-1.132a.521.521 0 0 0 .187-.71m-2.337-5.152l.004.001-.002.005zM86.484 29.28a2.144 2.144 0 0 0-2.184-.165 1.78 1.78 0 0 0-1.07 2.128c.262 1.696 2.491 4.577 4.234 2.567.298-.343-.201-.846-.5-.501-1.203 1.388-2.622-.708-2.937-1.774-.191-.646-.231-1.396.449-1.731a1.562 1.562 0 0 1 1.507-.024c.347.293.85-.206.501-.5" fill="#5b595b"/><path d="M86.31 32.327a31.093 31.093 0 0 1 1.52 6.996c.144 1.599-.279 3.554.217 5.098.695 2.16 4.322 3.975 6.243 4.75 2.102.849 5.124.873 6.098-1.64 1.004-2.59-.914-6.613-1.359-9.15-.078-.447-.76-.257-.683.189.401 2.283 1.581 4.873 1.506 7.193-.189 5.772-6.259 2.476-8.7.772a5.082 5.082 0 0 1-2.494-4.49c-.11-1.206-.072-2.417-.217-3.626a32.113 32.113 0 0 0-1.449-6.28c-.143-.43-.827-.246-.683.187" fill="#5b595b"/><path d="M91.057 37.756c3.092 1.221 7.541 2.24 9.1-1.703 1.5-3.795 1.788-9.126-.022-12.813-.2-.409-.81-.05-.61.357 1.6 3.262 1.115 6.856.441 10.298-.38 1.941-1.022 3.418-3.014 4.074-1.938.638-3.903-.183-5.708-.896-.423-.167-.607.517-.187.683" fill="#5b595b"/><path d="M94.433 27.253a27 27 0 0 0 2.934 3.657v-.438a6.393 6.393 0 0 1-1.942 1.193c-.367.145-.207.744.165.598a7.297 7.297 0 0 0 2.215-1.352.314.314 0 0 0 0-.438 26.184 26.184 0 0 1-2.838-3.531c-.22-.331-.757-.021-.534.312M93.175 34a3.246 3.246 0 0 0 5.812-1.077.31.31 0 0 0-.598-.164 2.621 2.621 0 0 1-4.679.929c-.222-.33-.758-.02-.535.312m-4.058-6.838a1.544 1.544 0 0 1 2.14-.937c.353.184.667-.35.312-.535a2.175 2.175 0 0 0-3.05 1.307.31.31 0 0 0 .598.165m8.217-1.236l.26.518c.179.357.714.043.535-.312l-.26-.518c-.18-.357-.714-.043-.535.312m-6.949 1.997l.26.518c.178.357.714.043.535-.312l-.26-.518c-.18-.357-.714-.044-.535.312m5.435-2.748a1.794 1.794 0 0 1 1.518-.702.31.31 0 0 0 0-.62 2.436 2.436 0 0 0-2.053 1.01c-.241.317.297.626.535.312m4.92-.52c1.094-.317 2.69.38 2.512 1.712a3.23 3.23 0 0 1-1.901 2.143c-.415.185-.055.795.358.61 1.163-.517 2.545-1.965 2.24-3.358a2.713 2.713 0 0 0-3.396-1.79.354.354 0 0 0 .188.683M88.002 39.15a56.722 56.722 0 0 0-6.412 5.762.359.359 0 0 0 .156.592c1.384.438 2.864-.535 4.123.047 1.249.577 2.24 2.475 3.064 3.599.266.364.88.011.61-.357-.852-1.164-1.822-3.096-3.07-3.874-1.42-.886-3.045.375-4.538-.098.05.197.104.394.156.591a56.905 56.905 0 0 1 6.41-5.762c.355-.288-.15-.786-.5-.5m10.437-.424a21.047 21.047 0 0 0 5.871 3.252l-.247-.435a3.686 3.686 0 0 0 .353 3.13.354.354 0 0 0 .611-.358 3.023 3.023 0 0 1-.28-2.584.362.362 0 0 0-.248-.435 19.955 19.955 0 0 1-5.56-3.07c-.354-.278-.858.22-.5.5" fill="#5b595b"/><path d="M103.686 41.306c-.992 1.652-2.485 2.962-3.479 4.615a.354.354 0 0 0 .612.357c.993-1.652 2.486-2.962 3.478-4.615a.354.354 0 0 0-.61-.357m1.217 43.22c1.254 6.58 0 13.833 3.313 19.93.924 1.702 2.394 4.273 4.698 3.89 2.649-.44 4.083-3.653 6.507-4.64a.365.365 0 0 0 .259-.341c-1.098-15.839-4.135-31.486-4.724-47.368-.018-.454-.726-.456-.708 0 .289 7.805 1.15 15.564 2.112 23.311.459 3.694.936 7.385 1.369 11.081.44 3.763 1.192 7.742 1.14 11.535-.02 1.435-.156 1.2-1.21 1.954a31.933 31.933 0 0 0-2.561 2.317 6.68 6.68 0 0 1-1.593 1.203c-1.546.681-2.858-.566-3.716-1.758a15.459 15.459 0 0 1-2.161-4.407c-1.722-5.455-.981-11.322-2.042-16.895-.085-.447-.768-.258-.683.188m-5.195-37.655c1.138 9.948 2.506 19.866 3.98 29.77.068.45.749.258.683-.188-1.465-9.84-2.824-19.697-3.955-29.582-.052-.448-.76-.453-.708 0M84.08 42.192c-3.416 1.308-7.088 2.395-10.37 4.014-3.274 1.614-4.555 5.06-6.158 8.128l-3.097 5.925c-.417.798-1.172 1.726-.912 2.694.325 1.217 2.997 2.668 3.947 3.444l5.654 4.613a.366.366 0 0 0 .5 0 9.755 9.755 0 0 0 2.019-2.413c.244-.387-.368-.742-.611-.357-.58.923-.963 1.946-2.161 1.655-.536-.13-1.83-1.493-2.262-1.845l-4.146-3.382c-.802-.657-1.793-1.118-1.982-2.16-.165-.907.38-1.535.787-2.314l2.654-5.08c1.58-3.024 2.895-6.691 6.124-8.296 3.219-1.6 6.846-2.657 10.203-3.942.42-.162.239-.847-.188-.683" fill="#5b595b"/><path d="M75.663 68.597a30.424 30.424 0 0 0 3.845-8.592.354.354 0 0 0-.683-.188 29.907 29.907 0 0 1-3.773 8.423c-.25.382.362.737.61.357m-2.434-21.23a10.509 10.509 0 0 1 5.812 3.698c.285.355.783-.148.5-.5a11.103 11.103 0 0 0-6.124-3.88c-.443-.107-.63.576-.188.682" fill="#5b595b"/><path d="M75.59 67.622c.592 2.628.809 5.329 1.399 7.957.1.444.782.256.682-.188-.59-2.628-.807-5.33-1.397-7.957-.1-.444-.783-.256-.683.188" fill="#5b595b"/><path d="M59.767 67.527c5.408 1.437 9.185 3.127 14.49 5" fill="#f6b718"/><path d="M59.673 67.869c4.942 1.348 9.671 3.282 14.49 5 .43.153.614-.53.188-.683-4.82-1.718-9.547-3.652-14.49-5a.354.354 0 0 0-.188.683" fill="#5b595b"/><path d="M59.767 67.527c-1.61 4.833-3.306 10.573-.669 14.932 2.777 4.59 8.87 5.671 14.22 6.07a192.418 192.418 0 0 0 26.128.17 1.513 1.513 0 0 0 1.674-1.938 73.54 73.54 0 0 0-.848-10.697 20.176 20.176 0 0 0-5.503.537 3.625 3.625 0 0 1 1-1.756 23.386 23.386 0 0 1-4.5-1.568 2.166 2.166 0 0 1-1.338 2.418 6.302 6.302 0 0 1-2.973.315q-4.815-.262-9.629-.526a5.052 5.052 0 0 1-2.5-.577 1.743 1.743 0 0 1-.726-2.23" fill="#f6b718"/><path d="M59.426 67.434c-1.709 5.17-3.688 11.69.22 16.396 3.362 4.049 9.247 4.729 14.153 5.088a190.678 190.678 0 0 0 23.713.244c1.731-.09 3.52.2 3.938-1.813.344-1.653-.047-3.8-.168-5.464a81.397 81.397 0 0 0-.669-5.914.355.355 0 0 0-.34-.26 24.163 24.163 0 0 0-5.598.549q.218.217.435.436l.908-1.6a.358.358 0 0 0-.156-.591 27.264 27.264 0 0 1-4.415-1.533c-.215-.096-.565.009-.533.306.39 3.562-6.516 2.239-8.289 2.142-1.204-.066-9.066.264-8.18-2.648a.354.354 0 0 0-.683-.188c-1.265 4.154 6.315 3.405 8.382 3.518 2.374.13 9.974 1.72 9.478-2.824-.177.1-.355.203-.532.305a28.287 28.287 0 0 0 4.583 1.604l-.156-.591a5.396 5.396 0 0 0-1.09 1.91.358.358 0 0 0 .436.437 23.125 23.125 0 0 1 3.1-.48c1.376-.104 1.675-.345 2.225 1.535a21.22 21.22 0 0 1 .42 4.374c.108 1.658.58 3.885-.502 5.182-1.062 1.272-2.92.923-4.53.99q-9.435.39-18.878-.147c-5.04-.286-10.994-.4-15.132-3.707-5.379-4.298-3.293-11.512-1.457-17.068.143-.434-.54-.62-.683-.188" fill="#5b595b"/><path d="M61.351 67.706a13.827 13.827 0 0 1 2.491-3.875c.326-.318-.175-.819-.5-.5a14.365 14.365 0 0 0-2.602 4.018c-.205.405.405.764.611.357m11.627 4.072l.641-.911c.328-.467-.439-.91-.765-.447l-.64.912c-.328.467.44.909.764.446m19.495 1.768a16.17 16.17 0 0 1 1.312-1.477c.335-.293.751-.326.905.174a1.96 1.96 0 0 1-.283 1.282c-.187.411.423.771.611.356.392-.862.755-2.206-.383-2.697a1.092 1.092 0 0 0-1.163.21 14.432 14.432 0 0 0-1.5 1.652c-.302.338.197.841.501.5m8.237 4.178a11.493 11.493 0 0 0 2.826-.66c.516-.202 1.011-.596 1.525-.753 1.67-.511 2.573 1.166 2.625 2.528.162 4.226-3.296 5.652-6.44 7.51a.354.354 0 0 0 .358.612c1.856-1.098 4.246-2.097 5.632-3.818a6.976 6.976 0 0 0 1.084-5.311c-.122-1.033-.393-2.423-1.588-2.746a1.952 1.952 0 0 0-1.521.302 12.767 12.767 0 0 1-4.501 1.628c-.446.054-.451.763 0 .708m1.794-36.481c3.353.617 6.74 1.05 10.077 1.76a19.791 19.791 0 0 1 4.839 1.36c2.135 1.09 2.596 3.63 3.302 5.733q1.621 4.836 3.092 9.72a3.351 3.351 0 0 1 .294 2.306c-.391 1.059-1.715 1.183-2.691 1.553-.488.185-5.57 1.873-5.608 1.508-.048-.448-.757-.453-.708 0 .253 2.358 7.14-1.06 8.206-1.515.904-.387 1.766-.614 1.837-1.69a9.445 9.445 0 0 0-.782-2.793q-.605-1.997-1.234-3.986a276.379 276.379 0 0 0-2.47-7.486c-.543-1.562-1.08-3.04-2.606-3.86-1.97-1.058-4.48-1.391-6.647-1.804-2.894-.553-5.815-.955-8.714-1.49-.445-.081-.635.6-.187.684" fill="#5b595b"/><path d="M112.737 44.865a13.642 13.642 0 0 1 .93 4.105c.03.453.738.456.708 0a14.265 14.265 0 0 0-.955-4.293c-.165-.419-.85-.237-.683.188M78.902 89.326l-.021 7.732c-.003 1.18-.291 2.442.53 3.377 1.163 1.325 3.67 2.257 5.195 3.136q3.012 1.737 6.084 3.364c2.33 1.234 3.769 1.47 3.546-1.537-.391-5.28-.91-10.552-1.364-15.826-.039-.451-.747-.455-.708 0l.937 10.88c.119 1.377.758 3.618.427 4.946q.627 1.492-.993 1.066a1.822 1.822 0 0 1-1.897-.357 15.803 15.803 0 0 1-2.039-1.103q-2.031-1.113-4.037-2.277c-1.286-.745-3.364-1.526-4.377-2.614-1.069-1.15-.596-3.54-.592-4.988l.017-5.8a.354.354 0 0 0-.708 0m11.384-13.629c.106-10.37.206-20.824-1.277-31.111-.066-.45-.747-.258-.683.188 1.474 10.22 1.358 20.62 1.252 30.923a.354.354 0 0 0 .708 0" fill="#5b595b"/><path d="M93.57 103.85a24.917 24.917 0 0 0 13.961-1.523c.416-.172.233-.857-.188-.683a24.271 24.271 0 0 1-13.585 1.523c-.445-.076-.636.606-.188.683m11.358-59.427a7.957 7.957 0 0 0-2.237-.81c-.445-.089-.635.593-.188.682a7.323 7.323 0 0 1 2.068.74c.401.216.758-.395.357-.612m-18.586-.241l1.978-4.11c.197-.41-.414-.768-.612-.358l-1.977 4.11c-.198.409.413.769.611.358m28.644 22.898c.366 3.66 2.084 7.01 2.622 10.641a93.703 93.703 0 0 1 .572 15.631.354.354 0 0 0 .708 0 100.638 100.638 0 0 0-.499-15.105c-.5-3.823-2.312-7.34-2.695-11.168-.045-.449-.754-.454-.708 0m7.514-3.363a71.442 71.442 0 0 1 1.262 26.456 25.01 25.01 0 0 0-.444 4.986 18.238 18.238 0 0 0 1.215 4.614 19.39 19.39 0 0 1 .747 3.107c.093.6.688 6.576-1.763 4.965-1.507-.991-2.228-4.3-2.65-5.898a.354.354 0 0 0-.681.188 19.59 19.59 0 0 0 3.208 6.732.364.364 0 0 0 .399.163c2.737-.922 2.569-3.892 2.193-6.293a52.536 52.536 0 0 0-1.605-5.537c-.705-2.63-.15-5.166.197-7.803a71.64 71.64 0 0 0-1.394-25.868c-.106-.443-.788-.256-.683.188" fill="#5b595b"/><path d="M118.663 103.825a2.209 2.209 0 0 0 2.647 2.253c.445-.098.257-.78-.188-.682a1.497 1.497 0 0 1-1.751-1.57c.035-.456-.673-.453-.708 0M95.424 76.568a24.595 24.595 0 0 0-5.299 11.852c-.068.445.613.637.684.188a23.913 23.913 0 0 1 5.116-11.539c.285-.351-.213-.855-.501-.501m-7.391 12.115a32.989 32.989 0 0 1-2.251-12.612.354.354 0 0 0-.708 0 33.385 33.385 0 0 0 2.276 12.8c.163.42.848.238.683-.188" fill="#5b595b"/><path d="M95.85 77.11a26.576 26.576 0 0 0 1.65 11.487c.16.423.843.24.682-.188a26.211 26.211 0 0 1-1.625-11.298c.034-.455-.675-.452-.708 0M81.48 87.92a25.259 25.259 0 0 1 .947-11.452c.14-.435-.545-.621-.682-.188a26.044 26.044 0 0 0-.949 11.828c.066.449.748.258.683-.188m-7.596-13.233c-4.835.81-11.146 2.989-15.592.05-.38-.251-.735.362-.356.613 4.625 3.056 11.132.859 16.136.02.45-.076.258-.758-.188-.683" fill="#5b595b"/><path d="M66.492 76.664a18.296 18.296 0 0 0-4.244 8.664c-.087.445.596.636.682.188a17.593 17.593 0 0 1 4.062-8.352c.299-.34-.2-.844-.5-.5m10.037-.234a.354.354 0 0 0 0-.707.354.354 0 0 0 0 .708" fill="#5b595b"/><path d="M76.226 75.776a19.257 19.257 0 0 0-5.24 12.237c-.028.455.68.454.707 0a18.455 18.455 0 0 1 5.034-11.737c.311-.332-.189-.834-.5-.5M73.683 72.5a30.99 30.99 0 0 1-14.353-2.94c-.41-.192-.77.417-.358.611a31.84 31.84 0 0 0 14.712 3.035c.454-.015.456-.723 0-.708" fill="#5b595b"/></svg>