<svg xmlns="http://www.w3.org/2000/svg" viewBox="0 0 750 500"><g id="freepik--background-complete--inject-31"><path d="M417.26,342.42a29.88,29.88,0,1,1-33.86-25.2A29.85,29.85,0,0,1,417.26,342.42Z" style="fill:#f5f5f5"></path><path d="M410.22,343.45a22.77,22.77,0,1,1-25.8-19.21A22.74,22.74,0,0,1,410.22,343.45Z" style="fill:#ebebeb"></path><path d="M410.11,342.74a14.3,14.3,0,0,1-1-2.62,24.22,24.22,0,0,0-3.6-6.53,22.75,22.75,0,0,0-8.55-6.74,21.35,21.35,0,0,0-3-1.09,20.9,20.9,0,0,0-3.22-.69,22.56,22.56,0,0,0-3.41-.2,24.81,24.81,0,0,0-3.5.34,25.71,25.71,0,0,0-3.4.89,22.42,22.42,0,0,0-3.13,1.36,20.82,20.82,0,0,0-2.79,1.75,21.87,21.87,0,0,0-2.41,2.05,22.72,22.72,0,0,0-3.61,4.6,24,24,0,0,0-2.1,4.67,24.27,24.27,0,0,0-1.13,7.37,12.85,12.85,0,0,1,0,2.8,6.66,6.66,0,0,1-.65-2.77,21.13,21.13,0,0,1,.63-7.75,22.89,22.89,0,0,1,2-5,23.74,23.74,0,0,1,3.73-5,22.16,22.16,0,0,1,2.55-2.25,22.83,22.83,0,0,1,3-1.93,23.14,23.14,0,0,1,3.36-1.49,24.71,24.71,0,0,1,3.67-1,24.28,24.28,0,0,1,3.77-.36,24.82,24.82,0,0,1,3.68.24,23.87,23.87,0,0,1,3.46.78,22.69,22.69,0,0,1,3.17,1.24,23.55,23.55,0,0,1,5.23,3.43,23.15,23.15,0,0,1,3.64,4,21,21,0,0,1,3.25,7.06A6.68,6.68,0,0,1,410.11,342.74Z" style="fill:#e0e0e0"></path><path d="M392.19,359.79l.63,3.92-3.5.56-.61-3.81a16.77,16.77,0,0,1-9.15-1.41l1.24-4.57a14.42,14.42,0,0,0,7.18,1.4L387,350c-4-.33-8.57-.93-9.37-5.93-.6-3.7,1.59-7.32,7-8.83l-.62-3.88,3.5-.56.61,3.81a16,16,0,0,1,7.44,1l-1.06,4.58a14.49,14.49,0,0,0-5.65-1l1,5.94c4,.29,8.5.9,9.29,5.83C399.73,354.68,397.57,358.25,392.19,359.79Zm-6-14.89-.8-5c-1.78.72-2.35,1.85-2.17,3S384.6,344.65,386.22,344.9Zm7.36,7.46c-.19-1.22-1.31-1.73-2.9-2l.77,4.83C393.14,354.51,393.76,353.48,393.58,352.36Z" style="fill:#e0e0e0"></path><path d="M441.26,117.2a25.83,25.83,0,1,1-14.33-33.56A25.81,25.81,0,0,1,441.26,117.2Z" style="fill:#f5f5f5"></path><path d="M435.56,114.9a19.69,19.69,0,1,1-10.92-25.58A19.66,19.66,0,0,1,435.56,114.9Z" style="fill:#ebebeb"></path><path d="M435.78,114.32a12.31,12.31,0,0,1,.41-2.39,21.09,21.09,0,0,0,.15-6.44,20.74,20.74,0,0,0-1.08-4.29,19.78,19.78,0,0,0-2.38-4.47,18.89,18.89,0,0,0-1.74-2.11A19.33,19.33,0,0,0,429,92.71a19.07,19.07,0,0,0-2.46-1.63,21,21,0,0,0-2.76-1.27,21.26,21.26,0,0,0-2.92-.82,20,20,0,0,0-2.93-.35,19.16,19.16,0,0,0-2.85.1,17.77,17.77,0,0,0-2.69.48,19.79,19.79,0,0,0-4.7,1.87,20.51,20.51,0,0,0-3.6,2.57,20.85,20.85,0,0,0-4.06,5,11.67,11.67,0,0,1-1.23,2.09,5.64,5.64,0,0,1,.71-2.35,18.21,18.21,0,0,1,3.84-5.52,19.92,19.92,0,0,1,11.56-5.58,19.45,19.45,0,0,1,3.07-.14,20.23,20.23,0,0,1,3.16.35,21.24,21.24,0,0,1,3.16.88,22.32,22.32,0,0,1,3,1.37,20.65,20.65,0,0,1,2.64,1.78A20,20,0,0,1,434,95.94a20,20,0,0,1,3.38,9.43,18.53,18.53,0,0,1-.64,6.7C436.3,113.59,435.87,114.36,435.78,114.32Z" style="fill:#e0e0e0"></path><path d="M415,119.26l-1.24,3.2-2.86-1.1,1.21-3.12a14.48,14.48,0,0,1-6.23-5l2.92-2.88a12.3,12.3,0,0,0,4.75,4.17l1.85-4.77c-2.88-2-6-4.42-4.43-8.5,1.17-3,4.37-4.78,9.08-3.55l1.23-3.17,2.85,1.11-1.2,3.11a13.73,13.73,0,0,1,5.12,4l-2.78,3a12.56,12.56,0,0,0-3.8-3.17l-1.87,4.85c2.88,2,6,4.37,4.4,8.4C422.83,118.72,419.67,120.45,415,119.26Zm2-13.73,1.56-4c-1.64-.24-2.56.35-2.93,1.3S415.89,104.65,417,105.53Zm2.25,8.79c.39-1-.23-1.87-1.29-2.77l-1.53,3.94C418,115.73,418.9,115.23,419.25,114.32Z" style="fill:#e0e0e0"></path><path d="M654,58.92a40.47,40.47,0,1,1-47.84-31.31A40.42,40.42,0,0,1,654,58.92Z" style="fill:#f5f5f5"></path><path d="M644.6,60.88A30.84,30.84,0,1,1,608.15,37,30.81,30.81,0,0,1,644.6,60.88Z" style="fill:#ebebeb"></path><path d="M644.39,59.93c-.18,0-.58-1.25-1.55-3.46a32.82,32.82,0,0,0-5.4-8.54,31.72,31.72,0,0,0-5.14-4.65,30.7,30.7,0,0,0-7-3.76,29.17,29.17,0,0,0-4.1-1.24,30.15,30.15,0,0,0-9-.65,31.87,31.87,0,0,0-4.7.74A33.31,33.31,0,0,0,603,39.84a31.24,31.24,0,0,0-4.12,2.1,26.75,26.75,0,0,0-3.63,2.6,27.24,27.24,0,0,0-3.09,3A30.6,30.6,0,0,0,587.61,54a31.1,31.1,0,0,0-2.46,6.49,32.7,32.7,0,0,0-.93,10.05c.15,2.41.38,3.75.2,3.79s-.68-1.23-1.11-3.68a28.6,28.6,0,0,1,.21-10.54,31,31,0,0,1,7-14.06,30.43,30.43,0,0,1,3.27-3.25A29.5,29.5,0,0,1,597.62,40a33.05,33.05,0,0,1,4.43-2.29,33.56,33.56,0,0,1,4.88-1.6,33.07,33.07,0,0,1,5.08-.79,32,32,0,0,1,5,0,30.25,30.25,0,0,1,4.74.78,29.9,29.9,0,0,1,4.38,1.41,30.86,30.86,0,0,1,12.6,9.36,28.54,28.54,0,0,1,5,9.29C644.43,58.53,644.53,59.9,644.39,59.93Z" style="fill:#e0e0e0"></path><path d="M621.55,84.45l1.17,5.24-4.68,1-1.14-5.11c-4.7.75-9.47.29-12.49-1.15l1.3-6.28a19.46,19.46,0,0,0,9.83,1.3l-1.75-7.82c-5.47-.11-11.67-.55-13.16-7.25-1.1-5,1.56-10,8.77-12.51l-1.16-5.2,4.68-1,1.14,5.1a21.78,21.78,0,0,1,10.14.74l-1.06,6.28a19.75,19.75,0,0,0-7.71-.84l1.78,8c5.46.06,11.56.53,13,7.13C631.33,76.92,628.7,81.92,621.55,84.45Zm-9.29-19.66-1.48-6.64c-2.35,1.11-3,2.69-2.69,4.23S610.06,64.6,612.26,64.79Zm10.57,9.5c-.37-1.64-1.92-2.23-4.09-2.48l1.44,6.46C622.4,77.23,623.16,75.79,622.83,74.29Z" style="fill:#e0e0e0"></path><path d="M161.08,55.12,114.4,37.93l-46.23,17c-5.9,2.86-11.08,4.57-11.08,10.21V93.18a108.14,108.14,0,0,0,15.23,55.87c8.62,14.35,22,29.13,42.53,38.53,18.9-6.3,33-23.08,41.62-37.43A108.15,108.15,0,0,0,171.7,94.27V69C171.7,61,167.55,57.06,161.08,55.12Z" style="fill:#f5f5f5"></path><path d="M142.9,126.2h-8.58V79.51a19.93,19.93,0,1,0-39.85,0V126.2H85.89V79.51a28.51,28.51,0,1,1,57,0Z" style="fill:#e0e0e0"></path><rect x="75.98" y="105.43" width="76.83" height="49.29" rx="5.81" style="fill:#ebebeb"></rect><path d="M120.82,123.65a6.43,6.43,0,1,0-8.18,6.15v9.6h3.51v-9.6A6.4,6.4,0,0,0,120.82,123.65Z" style="fill:#e0e0e0"></path><path d="M80.08,150.05c-.18,0-.32-8.23-.32-18.36s.14-18.36.32-18.36.32,8.22.32,18.36S80.25,150.05,80.08,150.05Z" style="fill:#fafafa"></path><path d="M109.37,131.88s-.3-.1-.76-.42a8,8,0,0,1-1.65-1.69,9,9,0,0,1,3.2-13.5,7.66,7.66,0,0,1,2.23-.77,1.91,1.91,0,0,1,.87,0,19,19,0,0,0-2.89,1.2,8.91,8.91,0,0,0-3,12.85A18.28,18.28,0,0,0,109.37,131.88Z" style="fill:#fafafa"></path><path d="M172.1,176.69l.56-.75.31-.41c.11-.16.2-.34.32-.54a8.41,8.41,0,0,0,.7-1.41c.11-.28.24-.57.36-.88s.18-.66.28-1a7.52,7.52,0,0,0,.23-1.13,11.79,11.79,0,0,0,.17-1.25,23.41,23.41,0,0,0-.27-6,54.38,54.38,0,0,0-5.53-15.57,122.27,122.27,0,0,0-11.87-18.47,189.72,189.72,0,0,0-17.71-19.88,216.52,216.52,0,0,0-23.24-19.84c-4.34-3.19-8.92-6.28-13.74-9.2a132.65,132.65,0,0,0-15.26-8,71.26,71.26,0,0,0-17-5.32,30.23,30.23,0,0,0-9.06-.23A17.52,17.52,0,0,0,57,68a12.47,12.47,0,0,0-3.68,2.69,12.31,12.31,0,0,0-2.25,4,17.11,17.11,0,0,0-.77,4.49,30.15,30.15,0,0,0,1.25,9,71.28,71.28,0,0,0,7.22,16.27,133.57,133.57,0,0,0,9.69,14.26c3.44,4.46,7,8.66,10.7,12.61a215.77,215.77,0,0,0,22.36,20.83,188.45,188.45,0,0,0,21.77,15.33,121.43,121.43,0,0,0,19.7,9.69,54.12,54.12,0,0,0,16.09,3.72,23.36,23.36,0,0,0,6-.41c.44-.06.83-.22,1.23-.31a6.64,6.64,0,0,0,1.09-.37l1-.39c.3-.15.58-.31.84-.45a8.16,8.16,0,0,0,1.32-.86c.18-.14.36-.25.5-.38s.26-.25.38-.35l.67-.64s-.21.23-.65.66l-.37.37c-.14.12-.32.24-.5.38a7.62,7.62,0,0,1-1.31.88c-.27.15-.54.31-.84.46l-1,.41a7.22,7.22,0,0,1-1.11.37c-.39.1-.79.26-1.22.33a24,24,0,0,1-6,.44,53.88,53.88,0,0,1-16.16-3.67,121.51,121.51,0,0,1-19.76-9.66,189.58,189.58,0,0,1-21.83-15.32A215.14,215.14,0,0,1,78.92,131.5c-3.67-4-7.28-8.15-10.73-12.62a134.2,134.2,0,0,1-9.72-14.29,71.61,71.61,0,0,1-7.26-16.35A30.15,30.15,0,0,1,50,79.16a17.26,17.26,0,0,1,.78-4.6,11.29,11.29,0,0,1,6.11-6.84,17.68,17.68,0,0,1,4.48-1.3,30.22,30.22,0,0,1,9.16.23A71.59,71.59,0,0,1,87.55,72a132.42,132.42,0,0,1,15.29,8c4.84,2.92,9.42,6,13.76,9.22a217.09,217.09,0,0,1,23.26,19.9,187.89,187.89,0,0,1,17.7,19.94,121.59,121.59,0,0,1,11.85,18.53,54.1,54.1,0,0,1,5.49,15.64,24,24,0,0,1,.24,6.05c0,.44-.13.85-.18,1.25a7.36,7.36,0,0,1-.25,1.14l-.29,1c-.11.32-.25.61-.36.89a8.74,8.74,0,0,1-.73,1.41c-.11.19-.21.38-.32.54s-.23.28-.32.41C172.31,176.45,172.1,176.69,172.1,176.69Z" style="fill:#e0e0e0"></path><path d="M194.07,123.66s0-.32-.08-.93c0-.15,0-.32,0-.51s-.08-.39-.12-.62a8.85,8.85,0,0,0-.42-1.52c-.1-.28-.19-.58-.32-.89l-.47-1a7.36,7.36,0,0,0-.58-1c-.23-.33-.42-.71-.7-1a24.13,24.13,0,0,0-4.21-4.31A54.23,54.23,0,0,0,172.64,104a122,122,0,0,0-21.15-5.88A188.67,188.67,0,0,0,125,95a218.76,218.76,0,0,0-30.56.67c-5.36.51-10.83,1.25-16.37,2.29a132.24,132.24,0,0,0-16.72,4.18,71.39,71.39,0,0,0-16.21,7.33,30.07,30.07,0,0,0-6.91,5.87,16.75,16.75,0,0,0-2.42,3.85,12.37,12.37,0,0,0-1,4.45,12.57,12.57,0,0,0,.94,4.45A17.16,17.16,0,0,0,38.26,132a30.07,30.07,0,0,0,6.91,5.87,71.27,71.27,0,0,0,16.22,7.33,131.87,131.87,0,0,0,16.72,4.19c5.54,1,11,1.78,16.37,2.29a217.18,217.18,0,0,0,30.56.66,190.06,190.06,0,0,0,26.45-3.05,121.75,121.75,0,0,0,21.15-5.88,54,54,0,0,0,14.49-7.94,23.49,23.49,0,0,0,4.21-4.31c.28-.33.47-.71.7-1a7.46,7.46,0,0,0,.58-1l.47-.94c.13-.31.22-.61.32-.89a8.7,8.7,0,0,0,.42-1.53c0-.22.09-.42.12-.61s0-.36,0-.51c0-.62.08-.93.08-.93s0,.31,0,.93c0,.15,0,.33,0,.52s-.08.39-.12.61a8.58,8.58,0,0,1-.4,1.54c-.1.28-.19.59-.32.9l-.46,1a8.59,8.59,0,0,1-.57,1c-.23.33-.42.72-.7,1.06a23.92,23.92,0,0,1-4.21,4.35,54,54,0,0,1-14.51,8,121.78,121.78,0,0,1-21.17,5.94,188.84,188.84,0,0,1-26.49,3.1,216.15,216.15,0,0,1-30.6-.64c-5.37-.5-10.85-1.24-16.41-2.27a133.3,133.3,0,0,1-16.76-4.19A71.7,71.7,0,0,1,45,138.13a30.48,30.48,0,0,1-7-5.94,17.36,17.36,0,0,1-2.47-3.95,12.63,12.63,0,0,1-1-4.59,12.84,12.84,0,0,1,1-4.59A17.12,17.12,0,0,1,38,115.12a30.19,30.19,0,0,1,7-5.93,71.2,71.2,0,0,1,16.29-7.37,133,133,0,0,1,16.77-4.19c5.55-1,11-1.77,16.4-2.28a216.09,216.09,0,0,1,30.6-.63,188.51,188.51,0,0,1,26.48,3.1,121.65,121.65,0,0,1,21.18,5.94,53.87,53.87,0,0,1,14.5,8,23.36,23.36,0,0,1,4.22,4.35,10.61,10.61,0,0,1,.69,1.06,7.46,7.46,0,0,1,.58,1c.16.33.32.65.46,1s.22.61.32.9a8.71,8.71,0,0,1,.4,1.53c0,.23.09.43.12.62s0,.36,0,.52C194.06,123.34,194.07,123.66,194.07,123.66Z" style="fill:#e0e0e0"></path><path d="M165,57.65l-.79-.51-.43-.28-.56-.28a9,9,0,0,0-1.46-.6c-.28-.09-.58-.21-.9-.29l-1-.21a6.81,6.81,0,0,0-1.14-.16c-.41,0-.82-.1-1.26-.09a24.1,24.1,0,0,0-6,.69,54.5,54.5,0,0,0-15.15,6.59,121.82,121.82,0,0,0-17.6,13.12,188.93,188.93,0,0,0-18.62,19,215.13,215.13,0,0,0-18.19,24.55c-2.89,4.55-5.66,9.33-8.23,14.34a132.07,132.07,0,0,0-6.93,15.78,71.15,71.15,0,0,0-4.14,17.31,29.59,29.59,0,0,0,.4,9.05A16.7,16.7,0,0,0,64.5,180a11,11,0,0,0,7,5.46,16.92,16.92,0,0,0,4.54.45A29.81,29.81,0,0,0,84.93,184a71.66,71.66,0,0,0,15.74-8.32A133.36,133.36,0,0,0,114.22,165c4.22-3.74,8.15-7.62,11.84-11.54a216.34,216.34,0,0,0,19.25-23.74A189.32,189.32,0,0,0,159.1,107a122.38,122.38,0,0,0,8.31-20.32A53.84,53.84,0,0,0,170,70.35a23.45,23.45,0,0,0-.82-6,10.55,10.55,0,0,0-.4-1.2,8,8,0,0,0-.43-1.07c-.17-.33-.32-.65-.47-1s-.34-.55-.5-.8a8.77,8.77,0,0,0-.95-1.26c-.15-.17-.28-.34-.41-.47l-.38-.35c-.46-.41-.68-.63-.68-.63l.7.6.39.34c.14.14.27.3.42.48a8.12,8.12,0,0,1,1,1.25c.16.25.34.51.51.8s.31.62.48,1a7,7,0,0,1,.44,1.08,9.93,9.93,0,0,1,.41,1.2,23.15,23.15,0,0,1,.86,6,53.65,53.65,0,0,1-2.55,16.37,120.4,120.4,0,0,1-8.28,20.37,188.22,188.22,0,0,1-13.77,22.84,216.71,216.71,0,0,1-19.25,23.79c-3.69,3.94-7.63,7.82-11.85,11.58A133,133,0,0,1,100.86,176a71.45,71.45,0,0,1-15.81,8.37,30.28,30.28,0,0,1-9,1.88,17.3,17.3,0,0,1-4.64-.46,12.72,12.72,0,0,1-4.22-2.05,12.54,12.54,0,0,1-3-3.58,17.25,17.25,0,0,1-1.6-4.37,30.68,30.68,0,0,1-.41-9.16,71.56,71.56,0,0,1,4.17-17.4,132.64,132.64,0,0,1,7-15.81c2.58-5,5.36-9.81,8.25-14.36A215.92,215.92,0,0,1,99.8,94.47a188.12,188.12,0,0,1,18.68-19,120.64,120.64,0,0,1,17.67-13.1,53.58,53.58,0,0,1,15.22-6.55,23.27,23.27,0,0,1,6-.66c.44,0,.86.07,1.27.09a6.92,6.92,0,0,1,1.15.17l1,.22c.32.09.62.2.91.3a8.76,8.76,0,0,1,1.45.62c.21.11.4.19.56.29l.43.29Z" style="fill:#e0e0e0"></path><path d="M33.85,156.54a3,3,0,1,1-4.18,0A3,3,0,0,1,33.85,156.54Z" style="fill:#e0e0e0"></path><path d="M200.81,64.85a3,3,0,1,1-3-3A3,3,0,0,1,200.81,64.85Z" style="fill:#e0e0e0"></path><path d="M52.54,166.27a.76.76,0,1,1-.75-.75A.76.76,0,0,1,52.54,166.27Z" style="fill:#e0e0e0"></path><path d="M68.59,83.35a.75.75,0,1,1-1.5,0,.75.75,0,0,1,1.5,0Z" style="fill:#e0e0e0"></path><path d="M185.94,123.66a.75.75,0,1,1-.75-.75A.75.75,0,0,1,185.94,123.66Z" style="fill:#e0e0e0"></path><path d="M196.39,88.6a.75.75,0,1,1-.75-.75A.75.75,0,0,1,196.39,88.6Z" style="fill:#e0e0e0"></path><path d="M668.52,372.85a22.92,22.92,0,0,0-6.1-15.15C660.58,365.31,668.52,372.85,668.52,372.85Z" style="fill:#ebebeb"></path><path d="M659.67,368.56a23,23,0,0,0-16.32-.45C649.58,372.83,659.67,368.56,659.67,368.56Z" style="fill:#ebebeb"></path><path d="M658.66,363.64A18.06,18.06,0,0,0,656.44,351C653.77,356.52,658.66,363.64,658.66,363.64Z" style="fill:#ebebeb"></path><path d="M692.89,345.87C680,349.32,673,360.57,673,360.57,684.07,360.57,692.89,345.87,692.89,345.87Z" style="fill:#ebebeb"></path><path d="M672.22,351.17c.68-13.94-13-29.73-13-29.73,2.06,17.32,13,29.73,13,29.73" style="fill:#ebebeb"></path><path d="M672.29,311.45a37.37,37.37,0,0,0,4.9,20C679.12,322.46,672.29,311.45,672.29,311.45Z" style="fill:#ebebeb"></path><path d="M677.55,339.79c10.19-1.1,15.74-11.24,15.74-11.24C681,332,677.55,339.79,677.55,339.79Z" style="fill:#ebebeb"></path><path d="M699.54,382.43a23,23,0,0,0-16-3.09C688.89,385,699.54,382.43,699.54,382.43Z" style="fill:#ebebeb"></path><path d="M673.12,387a15,15,0,0,0,6.85,7.72C679.53,390,673.12,387,673.12,387Z" style="fill:#ebebeb"></path><path d="M674.43,385.51a18.07,18.07,0,0,0,12.19,2.17C682.7,383.59,674.43,385.51,674.43,385.51Z" style="fill:#ebebeb"></path><path d="M669.21,404.28s0-.07,0-.21,0-.36,0-.6v-2.34c0-1,0-2.26,0-3.7s0-3.08.11-4.89c.08-3.63.34-7.94.71-12.72s1-10,1.8-15.49c1.61-11,3.81-20.75,5.58-27.78.89-3.52,1.64-6.35,2.19-8.31l.61-2.25.15-.59q0-.21,0-.21a.79.79,0,0,0-.08.19c0,.16-.11.35-.19.58l-.69,2.23c-.6,1.94-1.4,4.77-2.33,8.28a257.42,257.42,0,0,0-5.73,27.79c-.8,5.49-1.37,10.74-1.76,15.53s-.57,9.11-.62,12.74c0,1.82,0,3.46,0,4.9s0,2.69.05,3.7l.08,2.34,0,.61C669.2,404.21,669.21,404.28,669.21,404.28Z" style="fill:#e0e0e0"></path><path d="M687.93,374.76c-.07-.11-4.19,2.6-9.2,6s-9,6.31-9,6.41,4.19-2.59,9.2-6S688,374.86,687.93,374.76Z" style="fill:#e0e0e0"></path><path d="M669.78,376.25a3.76,3.76,0,0,0-.64-.7l-1.83-1.77L661.18,368l-6.13-5.75-1.86-1.74c-.44-.41-.69-.63-.72-.6a3.69,3.69,0,0,0,.6.72c.4.45,1,1.08,1.75,1.85,1.51,1.54,3.65,3.61,6,5.85s4.6,4.23,6.22,5.65c.81.71,1.47,1.28,1.94,1.66A3.82,3.82,0,0,0,669.78,376.25Z" style="fill:#e0e0e0"></path><path d="M701,368.15s-10.54-.2-15,8.09A19,19,0,0,0,701,368.15Z" style="fill:#ebebeb"></path><path d="M686.63,363.92s-8.58,6.12-7.22,15.44A19,19,0,0,0,686.63,363.92Z" style="fill:#ebebeb"></path><path d="M641.43,348.84s3.39,11.79,14.15,13.91A22.1,22.1,0,0,0,641.43,348.84Z" style="fill:#ebebeb"></path><path d="M691.31,305s-13.44,8.77-12,23A28.92,28.92,0,0,0,691.31,305Z" style="fill:#ebebeb"></path><path d="M646.56,383a4.91,4.91,0,0,0,.87.7c.59.42,1.41,1.05,2.42,1.85a59,59,0,0,1,13.3,14.81c.68,1.08,1.22,2,1.57,2.59a5.5,5.5,0,0,0,.61.95,4.76,4.76,0,0,0-.45-1c-.31-.65-.8-1.57-1.45-2.68a52.56,52.56,0,0,0-6-8.11,51.1,51.1,0,0,0-7.43-6.79c-1-.77-1.89-1.36-2.5-1.73A5.61,5.61,0,0,0,646.56,383Z" style="fill:#e0e0e0"></path><path d="M658.26,391.75a22.88,22.88,0,0,0-3.09-16C653.73,385.72,658.26,391.75,658.26,391.75Z" style="fill:#ebebeb"></path><path d="M649.21,386.82A16.67,16.67,0,0,0,637.48,385C644,388.44,649.21,386.82,649.21,386.82Z" style="fill:#ebebeb"></path><polygon points="688.82 405.38 683.77 438.53 654.47 438.53 647.66 405.86 688.82 405.38" style="fill:#ebebeb"></polygon><path d="M651.76,426.63c0,.09,7.51.17,16.77.17s16.78-.08,16.78-.17-7.51-.18-16.78-.18S651.76,426.53,651.76,426.63Z" style="fill:#fafafa"></path><path d="M651.65,425c0,.09,7.56.17,16.88.17s16.89-.08,16.89-.17-7.56-.18-16.89-.18S651.65,424.9,651.65,425Z" style="fill:#fafafa"></path><path d="M651.71,423.15c0,.1,7.56.18,16.88.18s16.89-.08,16.89-.18-7.56-.17-16.89-.17S651.71,423.06,651.71,423.15Z" style="fill:#fafafa"></path><path d="M680.41,436.64a28.17,28.17,0,0,0,.9-4.18,27.44,27.44,0,0,0,.56-4.23,25.44,25.44,0,0,0-.9,4.18A24.77,24.77,0,0,0,680.41,436.64Z" style="fill:#fafafa"></path><path d="M678.41,436.29a32.44,32.44,0,0,0,.37-4.08,34.07,34.07,0,0,0,.19-4.08,32.2,32.2,0,0,0-.56,8.16Z" style="fill:#fafafa"></path><path d="M674.78,436.28a33.67,33.67,0,0,0,1-8.41,34.33,34.33,0,0,0-.57,4.2A35.64,35.64,0,0,0,674.78,436.28Z" style="fill:#fafafa"></path><path d="M672.23,436.46a21.21,21.21,0,0,0,.41-4.24,21.62,21.62,0,0,0-.13-4.26,35.42,35.42,0,0,0-.22,4.25A36.52,36.52,0,0,0,672.23,436.46Z" style="fill:#fafafa"></path><path d="M667.71,436.29a22.55,22.55,0,0,0,.31-4,24.22,24.22,0,0,0,0-4,22.55,22.55,0,0,0-.31,4A24.33,24.33,0,0,0,667.71,436.29Z" style="fill:#fafafa"></path><path d="M664.42,436.46a26.47,26.47,0,0,0,.13-4.16,25.32,25.32,0,0,0-.2-4.17,49.64,49.64,0,0,0,.07,8.33Z" style="fill:#fafafa"></path><path d="M661.32,436a26.07,26.07,0,0,0-.25-4.36,26.9,26.9,0,0,0-.59-4.32,28.92,28.92,0,0,0,.25,4.36A28.32,28.32,0,0,0,661.32,436Z" style="fill:#fafafa"></path><path d="M657.34,435.58a15.1,15.1,0,0,0-.5-3.7,14.15,14.15,0,0,0-1.09-3.57,33,33,0,0,0,.76,3.64A29.34,29.34,0,0,0,657.34,435.58Z" style="fill:#fafafa"></path><path d="M692.18,398.82V405a2.44,2.44,0,0,1-2.44,2.44H647.3a2.44,2.44,0,0,1-2.44-2.44v-6.2Z" style="fill:#ebebeb"></path><polygon points="688.5 407.46 688.15 409.44 648.99 412.23 648 407.46 688.5 407.46" style="fill:#e0e0e0"></polygon><rect x="705.96" y="133.04" width="4.76" height="102.41" style="fill:#e0e0e0"></rect><rect x="636.86" y="133.83" width="68.37" height="101.76" rx="0.07" style="fill:#f5f5f5"></rect><path d="M706,236.38H636.14a.07.07,0,0,1-.07-.07V133.11a.07.07,0,0,1,.07-.07H706a.07.07,0,0,1,.06.07v103.2A.07.07,0,0,1,706,236.38Zm-68.23-1.58h66.64a.07.07,0,0,0,.07-.07v-100a.07.07,0,0,0-.07-.07H637.73a.07.07,0,0,0-.07.07v100A.07.07,0,0,0,637.73,234.8Z" style="fill:#ebebeb"></path><rect x="643.75" y="140.11" width="54.72" height="89.13" rx="0.07" style="fill:#fff"></rect><rect x="655.69" y="165.38" width="30.72" height="36.01" rx="0.06" style="fill:#ebebeb"></rect><path d="M684,197c0,.12-1.48.78-4.36.44a10.63,10.63,0,0,1-4.91-2,9.91,9.91,0,0,1-3.81-6,8.6,8.6,0,0,1,2.92-8.19A7.69,7.69,0,0,1,676,180a5.74,5.74,0,0,1,2.76-.32,4.86,4.86,0,0,1,2.76,1.2,3.61,3.61,0,0,1,1.09,3.22,5.28,5.28,0,0,1-1.51,2.77,10,10,0,0,1-2.32,1.7,12.66,12.66,0,0,1-5.52,1.58,11,11,0,0,1-5.88-1.34,10.68,10.68,0,0,1-4.34-4.49,9.16,9.16,0,0,1-.77-6.29,9.38,9.38,0,0,1,3.31-5.18,8.19,8.19,0,0,1,2.78-1.4,7,7,0,0,1,3.13-.1,5.15,5.15,0,0,1,2.84,1.61,4.69,4.69,0,0,1,1.11,3,5.92,5.92,0,0,1-.74,2.89A7.72,7.72,0,0,1,673,181a11.84,11.84,0,0,1-4.36,2.32,11.2,11.2,0,0,1-4.58.35,9.33,9.33,0,0,1-4-1.53,8.62,8.62,0,0,1-3.81-6,7.32,7.32,0,0,1,1.41-5.17,6.17,6.17,0,0,1,2.61-2.09c.72-.27,1.13-.26,1.15-.19s-.33.25-.91.64a6.89,6.89,0,0,0-2,2.18,6.47,6.47,0,0,0-.83,4.42,7.22,7.22,0,0,0,3.38,4.74,8.34,8.34,0,0,0,7,.66,9.86,9.86,0,0,0,3.49-2,4.3,4.3,0,0,0,1.63-3.28,2.35,2.35,0,0,0-2.1-2.32,4.73,4.73,0,0,0-2,.09,5.8,5.8,0,0,0-1.9,1,6.92,6.92,0,0,0-2.39,3.81,6.68,6.68,0,0,0,.59,4.56,8.26,8.26,0,0,0,3.31,3.44,8.65,8.65,0,0,0,4.54,1.06,10.45,10.45,0,0,0,4.48-1.23,7.81,7.81,0,0,0,1.78-1.25,3,3,0,0,0,.91-1.48,1.29,1.29,0,0,0-.37-1.19,2.66,2.66,0,0,0-1.48-.65,3.76,3.76,0,0,0-1.74.15,5.44,5.44,0,0,0-1.62.89,6.66,6.66,0,0,0-2.12,2.91,6.81,6.81,0,0,0-.36,3.35,8.68,8.68,0,0,0,2.93,5.19,10.32,10.32,0,0,0,4.21,2.1C682.4,197.06,684,196.76,684,197Z" style="fill:#e0e0e0"></path><path d="M50.67,350.15a31.42,31.42,0,0,0-13.46-4.64c-2.2-.22-4.61-.16-6.37,1.17a1.32,1.32,0,0,0-.66,1.17,1.39,1.39,0,0,0,.63.79,19.24,19.24,0,0,0,19.86,1.51" style="fill:#e0e0e0"></path><path d="M50.33,349.77a65.43,65.43,0,0,1-8.7-7.66A21.94,21.94,0,0,1,36.18,332a4,4,0,0,1,.43-3.37c6.93,5.41,12.38,12.41,13.72,21.11" style="fill:#e0e0e0"></path><path d="M50.6,350.1a31.52,31.52,0,0,1,.16-11.42,15.44,15.44,0,0,1,6.09-9.43c1.19,2.8.68,6-.16,9a43.33,43.33,0,0,1-6,12.69" style="fill:#e0e0e0"></path><path d="M57.4,362.27c-4.13.5-7.72,2.68-10.8,5.47a20.47,20.47,0,0,0-6.18,10.6c4-.25,7.48-3.1,10-6.3s4.22-6.71,7-9.7" style="fill:#e0e0e0"></path><path d="M58.87,364.22A26.65,26.65,0,0,1,62,339c2.35,8.36,1.49,17.8-3.08,25.19" style="fill:#e0e0e0"></path><path d="M67.85,374.91a19.25,19.25,0,0,0-18.41,10.6c-.23.46-.43,1-.12,1.45a1.37,1.37,0,0,0,1.22.36c3.63-.24,6.84-2.42,9.5-4.91s5-5.36,7.9-7.51" style="fill:#e0e0e0"></path><path d="M67.57,374.33a34.3,34.3,0,0,1-.34-19.16c.67-2.46,1.8-5.06,4.08-6.22a.84.84,0,0,1,.63-.11.87.87,0,0,1,.4.46,11.62,11.62,0,0,1,1,5.5,33.83,33.83,0,0,1-.86,5.56c-.72,3.4-1.1,7.06-3,10a21,21,0,0,0-1.18,2.19c-.36.75-.36,1-.68,1.61" style="fill:#e0e0e0"></path><path d="M91.34,377.87c-1.76-6.7.11-14.82,4.33-20.31.31-.4.72-.84,1.23-.79.78.07,1,1.11.94,1.89a36.69,36.69,0,0,1-6.5,19.21" style="fill:#e0e0e0"></path><path d="M93.48,379.34a29.55,29.55,0,0,0,24.25-4.93,19.57,19.57,0,0,0-13.13-1.61c-4.38,1-8.39,3-11.12,6.54" style="fill:#e0e0e0"></path><path d="M95.29,374.88c4.56-7.43,13.29-12.28,22-12.73-1,3.55-3.91,6.3-7.2,8a39.88,39.88,0,0,1-10.56,3.09c-1.4.27-3.33.57-4.24,1.68" style="fill:#e0e0e0"></path><path d="M91.79,353.23a62.78,62.78,0,0,0,2.81-12.88A21.45,21.45,0,0,0,92,327.6c-4.26,8.24-4.69,17.87-.38,26.08" style="fill:#e0e0e0"></path><path d="M106.13,346c5-9.05,15.13-16.28,25.41-17.29-4,9.87-14.78,17.5-25.41,17.29" style="fill:#e0e0e0"></path><path d="M103,347.76c7.43,1.13,13.75,5.88,20.69,8.75a9.23,9.23,0,0,0,4.68.9,3.66,3.66,0,0,0,2.29-6.48,10,10,0,0,0-3.39-2.06c-7.56-3.15-15.67-3.23-23.63-1.32" style="fill:#e0e0e0"></path><path d="M98.7,353c1.68.48,2.25,1.35,3.58,2.49A38.84,38.84,0,0,0,118,363.52c.6.15,1.39.2,1.69-.34s-.07-1-.41-1.46a21.59,21.59,0,0,0-9.47-6.44c-3.62-1.34-6.76-3-11.08-2.62" style="fill:#e0e0e0"></path><path d="M93.85,321.52a29.72,29.72,0,0,0,22.76,7.74,1.52,1.52,0,0,0,1-.37c.57-.62-.12-1.59-.78-2.11-6.7-5.22-14.8-7.38-23-5.26" style="fill:#e0e0e0"></path><path d="M99.6,319.41a31.74,31.74,0,0,1,28.4-4.69,22.51,22.51,0,0,1-13.53,5.95,42.87,42.87,0,0,1-14.87-1.26" style="fill:#e0e0e0"></path><path d="M97.31,305c-.66-6.68-.23-12-.69-18.67,0-.54-.16-1.18-.66-1.37-.7-.27-1.28.59-1.51,1.3a21.39,21.39,0,0,0,2.85,18.59" style="fill:#e0e0e0"></path><path d="M96.83,305.7a39.38,39.38,0,0,0,11.07-10.76c2.18-3,4-6.57,3.53-10.25a10.59,10.59,0,0,0-8,4,22.12,22.12,0,0,0-4.07,8.19c-.89,2.94-1.51,6-2.55,8.85" style="fill:#e0e0e0"></path><path d="M107.7,302.67a89.3,89.3,0,0,0,27.24-16.05c-3.26-1.31-7-.53-10.23.78a32.28,32.28,0,0,0-17.15,15.2" style="fill:#e0e0e0"></path><path d="M99.89,309.35a55.09,55.09,0,0,0,15.12.07c4.9-.82,9.54-2.76,14.12-4.69a1.66,1.66,0,0,0,1-.73,1.1,1.1,0,0,0-.35-1.2,2.9,2.9,0,0,0-1.2-.57c-5-1.39-10.36-.74-15.26.91a71.07,71.07,0,0,0-13.39,6.21" style="fill:#e0e0e0"></path><path d="M71.18,321.74c-3.43-6.92-3.21-15-.24-22.14,2.08,3.18,2.34,7.23,2,11s-1.54,7.68-1.61,11.48" style="fill:#e0e0e0"></path><path d="M57.48,314.83a30.9,30.9,0,0,0-22.95,9.78,21.46,21.46,0,0,0,12.57-2.33,63.77,63.77,0,0,0,10.76-7.21" style="fill:#e0e0e0"></path><path d="M48.26,311.75c-4.18-.34-8.22-.86-12.24.38A14.67,14.67,0,0,0,26.68,320a22.1,22.1,0,0,0,11.48-2.16,65.83,65.83,0,0,0,10.1-6.13" style="fill:#e0e0e0"></path><path d="M61.91,311.89c-3.77-2.47-7.64-5-12-6s-9.48-.27-12.54,3c3.56,2.08,7.87,2.33,12,2.32s9.17-.05,13.06,1.33" style="fill:#e0e0e0"></path><path d="M61.93,312.09c-6.45-6.33-8.89-17.69-6.3-26.34a40.1,40.1,0,0,1,6.3,26.34" style="fill:#e0e0e0"></path><path d="M79.65,294.16c1.21-2.82,2.06-5.79,3.16-8.66a24.81,24.81,0,0,1,4.5-8,11.92,11.92,0,0,1,8-4.14A32.11,32.11,0,0,1,79.8,294.21" style="fill:#e0e0e0"></path><path d="M76.44,297.9c-2-2.77-4.34-6.52-7.06-8.59s-6.28-3.32-9.61-2.52A22.38,22.38,0,0,0,76.44,297.9" style="fill:#e0e0e0"></path><path d="M77.08,294.4a47.58,47.58,0,0,1-3.18-10.3,16.09,16.09,0,0,1,1.61-10.47c3.54,6.69,4.68,13.87,1.75,20.84" style="fill:#e0e0e0"></path><path d="M79.68,273.63c2-6.62,8.07-11.5,14.62-13.74a5.43,5.43,0,0,1,2.57-.39,2.26,2.26,0,0,1,1.89,1.58c.23,1.13-.7,2.14-1.57,2.89a49.74,49.74,0,0,1-17.51,9.66" style="fill:#e0e0e0"></path><path d="M79.75,268.21c.25-4.27.52-8.6,1.91-12.65s4.07-7.85,8-9.62c.66,4.31-1.24,8.61-3.54,12.32s-5.07,7.22-6.44,11.36" style="fill:#e0e0e0"></path><path d="M79.65,271.16c-1.66-4.83-1.83-11-4.72-15.18-2-2.94-5.26-4.94-7-8.06a12.3,12.3,0,0,0,.41,9.15,26.38,26.38,0,0,0,5.35,7.66c2.14,2.29,4,4,6,6.43" style="fill:#e0e0e0"></path><path d="M79.68,413.4c-.13,0-.24-32.22-.25-72s.09-72,.22-72,.24,32.22.24,72S79.81,413.4,79.68,413.4Z" style="fill:#e0e0e0"></path><path d="M107.84,316.88a7.59,7.59,0,0,1-1.22.46l-3.33,1.12c-2.81,1-6.67,2.35-10.86,4.06s-8.07,3.23-10.3,5.16a7.58,7.58,0,0,0-2.07,2.74c-.32.75-.37,1.22-.41,1.21s0-.12,0-.34a5,5,0,0,1,.24-.94,7.31,7.31,0,0,1,2-2.92,17.94,17.94,0,0,1,4.47-2.77c1.79-.83,3.77-1.7,5.87-2.57,4.2-1.72,8.1-3.06,10.94-3.94,1.42-.45,2.58-.77,3.38-1A7,7,0,0,1,107.84,316.88Z" style="fill:#e0e0e0"></path><path d="M117.07,294.21a2.08,2.08,0,0,1-.34.36l-1,1-3.86,3.51L99,310.49c-5,4.46-9.34,8.73-12.35,11.94-1.5,1.6-2.69,2.93-3.49,3.86l-.94,1.07c-.21.24-.33.36-.35.35a2.62,2.62,0,0,1,.28-.41c.19-.26.48-.65.87-1.13.76-1,1.91-2.33,3.39-4a162.52,162.52,0,0,1,12.28-12.07c5-4.45,9.62-8.45,12.94-11.34l4-3.39,1.09-.91A2.38,2.38,0,0,1,117.07,294.21Z" style="fill:#e0e0e0"></path><path d="M93.57,315c-.13-.06.92-2.48,2-5.54s1.55-5.64,1.68-5.62A18.41,18.41,0,0,1,96,309.64a34.85,34.85,0,0,1-1.56,3.87A5.83,5.83,0,0,1,93.57,315Z" style="fill:#e0e0e0"></path><path d="M79.71,334.53a5.53,5.53,0,0,1-.78-.9c-.52-.67-1.18-1.52-2-2.53-1.66-2.15-4-5.12-6.53-8.37s-5-6.16-6.67-8.27l-2-2.5a6.71,6.71,0,0,1-.7-1,5.72,5.72,0,0,1,.84.84c.51.56,1.24,1.38,2.13,2.41,1.79,2.06,4.2,4.94,6.78,8.19s4.84,6.26,6.44,8.46c.8,1.1,1.43,2,1.86,2.63A6.47,6.47,0,0,1,79.71,334.53Z" style="fill:#e0e0e0"></path><path d="M73.53,326.61A11.49,11.49,0,0,1,71,321.76a13.71,13.71,0,0,1-.59-4.88l.21,0c-.1.37-.16.57-.2.56s0-.21,0-.6l.21,0a21.71,21.71,0,0,0,.82,4.75A38.12,38.12,0,0,0,73.53,326.61Z" style="fill:#e0e0e0"></path><path d="M65.56,316.58a8.35,8.35,0,0,0-1.8-1.05,12.07,12.07,0,0,0-5-.4,30.74,30.74,0,0,0-5.05.82,14.56,14.56,0,0,1-2.07.49,7.32,7.32,0,0,1,2-.81,23.18,23.18,0,0,1,5.11-1,11,11,0,0,1,5.17.55A3.22,3.22,0,0,1,65.56,316.58Z" style="fill:#e0e0e0"></path><path d="M63.67,314.15c0,.07-1.05-.42-2.76-1A27.86,27.86,0,0,0,47,312.08c-1.78.32-2.86.65-2.88.58s.25-.15.73-.32a16.53,16.53,0,0,1,2.09-.58A24.66,24.66,0,0,1,61,312.83a17.33,17.33,0,0,1,2,.9C63.45,314,63.69,314.12,63.67,314.15Z" style="fill:#e0e0e0"></path><path d="M79.65,303.87a55.64,55.64,0,0,1-2-7,58.69,58.69,0,0,1-1.57-7.12,56.29,56.29,0,0,1,2,7A58.69,58.69,0,0,1,79.65,303.87Z" style="fill:#e0e0e0"></path><path d="M79.77,303.87a34.76,34.76,0,0,0-2.23-4.19,18.79,18.79,0,0,0-3.29-3.4,3,3,0,0,1,1.27.66,10.31,10.31,0,0,1,2.4,2.47A9.24,9.24,0,0,1,79.77,303.87Z" style="fill:#e0e0e0"></path><path d="M79.68,396.23c-.05,0-.15-.78-.51-2.15A31.14,31.14,0,0,0,77,388.5a77.34,77.34,0,0,0-11.43-16.09c-2.55-2.92-5-5.66-7.12-8.3a56.55,56.55,0,0,1-5.1-7.35,34.61,34.61,0,0,1-2.57-5.45c-.24-.67-.41-1.2-.51-1.56a3,3,0,0,1-.13-.56s.28.74.81,2.06a40.42,40.42,0,0,0,2.68,5.35,61.74,61.74,0,0,0,5.15,7.24c2.11,2.61,4.59,5.34,7.14,8.26,5.16,5.8,9.2,11.64,11.37,16.26a28.21,28.21,0,0,1,2,5.68,16.34,16.34,0,0,1,.28,1.62A3,3,0,0,1,79.68,396.23Z" style="fill:#e0e0e0"></path><path d="M105.12,367.49a11.39,11.39,0,0,1-1.33.74,28.25,28.25,0,0,0-3.46,2.29,39.7,39.7,0,0,0-4.54,4.14c-1.6,1.69-3.24,3.64-4.92,5.74-3.35,4.21-6.48,7.93-8.36,10.9-1,1.47-1.64,2.71-2.1,3.58a15,15,0,0,1-.73,1.35s0-.14.12-.38.24-.6.45-1.05a35.68,35.68,0,0,1,2-3.68,123,123,0,0,1,8.28-11c1.68-2.1,3.34-4.06,5-5.74a36.19,36.19,0,0,1,4.65-4.11,24.71,24.71,0,0,1,3.57-2.19c.45-.22.81-.35,1-.46S105.12,367.47,105.12,367.49Z" style="fill:#e0e0e0"></path><path d="M105.62,376.81a18.85,18.85,0,0,1-2.82.41,36.2,36.2,0,0,0-6.68,1.32,20,20,0,0,0-6,3.14c-1.38,1.06-2,1.94-2.09,1.89s.11-.25.41-.65a11.64,11.64,0,0,1,1.47-1.5,18.26,18.26,0,0,1,6-3.33,30.22,30.22,0,0,1,6.8-1.2A15.17,15.17,0,0,1,105.62,376.81Z" style="fill:#e0e0e0"></path><path d="M88.86,382.55c-.15-.08,1.12-2,2.11-4.63S92.11,373,92.28,373a4.68,4.68,0,0,1,0,1.51,16,16,0,0,1-.82,3.56,17,17,0,0,1-1.64,3.27A4.57,4.57,0,0,1,88.86,382.55Z" style="fill:#e0e0e0"></path><path d="M113.36,342.45a1.67,1.67,0,0,1-.45.24l-1.32.61c-.58.25-1.29.56-2.08,1s-1.73.83-2.69,1.41l-1.54.88c-.53.31-1.06.67-1.62,1-1.14.69-2.27,1.53-3.48,2.4a64.73,64.73,0,0,0-7.27,6.39,66.13,66.13,0,0,0-6.14,7.48c-.82,1.24-1.63,2.41-2.28,3.57-.33.57-.68,1.11-1,1.65l-.82,1.57c-.55,1-.94,1.93-1.32,2.74s-.68,1.52-.91,2.11-.41,1-.56,1.34a2.19,2.19,0,0,1-.22.46,1.9,1.9,0,0,1,.13-.49q.2-.54.48-1.38a22.53,22.53,0,0,1,.84-2.15c.36-.82.74-1.78,1.27-2.78.25-.51.52-1,.8-1.59s.62-1.1,1-1.68c.63-1.17,1.44-2.35,2.25-3.61a57.75,57.75,0,0,1,13.51-14c1.23-.86,2.38-1.7,3.53-2.38.57-.34,1.11-.7,1.65-1l1.56-.85c1-.57,1.93-1,2.74-1.37s1.52-.69,2.12-.91l1.36-.52A2.55,2.55,0,0,1,113.36,342.45Z" style="fill:#e0e0e0"></path><path d="M93.23,356a3.14,3.14,0,0,1,1.1-1.65,7,7,0,0,1,4.46-1.71,12.31,12.31,0,0,1,4.7.91,6.17,6.17,0,0,1,1.77.87,11.31,11.31,0,0,1-1.88-.56,14.15,14.15,0,0,0-4.57-.76,7.26,7.26,0,0,0-4.26,1.5A10.87,10.87,0,0,0,93.23,356Z" style="fill:#e0e0e0"></path><path d="M90.22,359.05a17,17,0,0,0,1.26-4.12,16.69,16.69,0,0,0-.28-4.3,2.74,2.74,0,0,1,.52,1.2A8.56,8.56,0,0,1,91,358C90.61,358.72,90.26,359.08,90.22,359.05Z" style="fill:#e0e0e0"></path><path d="M57.42,400.84c.7,12.32,4.41,24.84,10.12,37.5H92.36c5.44-12.53,8.89-25,9.51-37.5Z" style="fill:#e0e0e0"></path><path d="M97.84,420.77c0,.13-8.17.23-18.25.23s-18.25-.1-18.25-.23,8.17-.23,18.25-.23S97.84,420.64,97.84,420.77Z" style="fill:#fafafa"></path><path d="M97.29,425.23c0,.13-7.66.23-17.11.23s-17.11-.1-17.11-.23,7.66-.23,17.11-.23S97.29,425.1,97.29,425.23Z" style="fill:#fafafa"></path><path d="M67.94,408.93a71.12,71.12,0,0,1,0,11.43,68.16,68.16,0,0,1,0-11.43Z" style="fill:#fafafa"></path><path d="M81.23,408.93a73.13,73.13,0,0,1,0,11.84,76.3,76.3,0,0,1,0-11.84Z" style="fill:#fafafa"></path><path d="M93.72,408.83a79.29,79.29,0,0,1,0,12.07,79.29,79.29,0,0,1,0-12.07Z" style="fill:#fafafa"></path><path d="M101.08,408.93c0,.13-9.59.23-21.41.23s-21.4-.1-21.4-.23,9.58-.23,21.4-.23S101.08,408.8,101.08,408.93Z" style="fill:#fafafa"></path></g><g id="freepik--Floor--inject-31"><path d="M701.51,438.86c0,.15-146.59.26-327.36.26s-327.4-.11-327.4-.26,146.55-.26,327.4-.26S701.51,438.72,701.51,438.86Z" style="fill:#263238"></path></g><g id="freepik--device-2--inject-31"><path d="M578.74,439.22l-121.45-.08a26.45,26.45,0,0,1-26.44-26.46l.06-304.47a26.46,26.46,0,0,1,26.47-26.45l121.45.07a26.46,26.46,0,0,1,26.44,26.46l-.06,304.48A26.46,26.46,0,0,1,578.74,439.22Z" style="fill:#263238"></path><path d="M578.7,92.6H555.15a5.84,5.84,0,0,0-5.71,6v4.27a5.85,5.85,0,0,1-5.71,6l-45.9,0a5.86,5.86,0,0,1-5.72-6V98.53a5.85,5.85,0,0,0-5.71-6h-28.9A18.53,18.53,0,0,0,439,111.06l-.06,297.18a18.53,18.53,0,0,0,18.52,18.53l121.2.08a18.53,18.53,0,0,0,18.54-18.53l.06-297.19A18.53,18.53,0,0,0,578.7,92.6Z" style="fill:#fafafa"></path><path d="M451.64,132.83l.23,0,.64,0,2.34-.07-.08.09q0-.8,0-1.71c0-.31,0-.61,0-1a.94.94,0,0,1,.81-.74c.38,0,.71,0,1.13,0a.94.94,0,0,1,.79.93c0,.8,0,1.63,0,2.48l-.14-.13,3,0-.14.14q0-1.78,0-3.69c0-.31,0-.63,0-.94s-.17-.46-.41-.68l-1.29-1.27-1.25-1.24-.61-.59c-.21-.21-.36-.41-.6-.46a.76.76,0,0,0-.65.13c-.18.15-.37.36-.55.54l-1.07,1.07c-.66.69-1.36,1.33-1.87,1.92a2,2,0,0,0-.14,1.09v1l0,1.68c0,.42,0,.78,0,1.08a3.06,3.06,0,0,1,0,.39,1.39,1.39,0,0,1,0-.35c0-.3,0-.65,0-1.06s0-1-.05-1.69c0-.34,0-.69,0-1.07a2.18,2.18,0,0,1,.16-1.21c.55-.68,1.2-1.27,1.87-2l1.06-1.08c.19-.19.34-.37.57-.57a1,1,0,0,1,.88-.17,1.58,1.58,0,0,1,.73.51c.2.2.4.39.6.6l1.26,1.22,1.29,1.28a1.23,1.23,0,0,1,.5.87v.95c0,1.26,0,2.5,0,3.69v.14h-.15l-3,0h-.13v-.13c0-.86,0-1.69,0-2.49a.67.67,0,0,0-.57-.69c-.33,0-.74,0-1.07,0a.71.71,0,0,0-.62.56c0,.29,0,.64,0,.94,0,.61,0,1.18,0,1.71v.08h-.08l-2.39,0h-.62C451.7,132.84,451.63,132.84,451.64,132.83Z" style="fill:#263238"></path><path d="M510.73,130.61c0,.73-.58,1.15-1.69,1.15h-2.19v-4.23h2.07c1.06,0,1.6.44,1.6,1.1a1,1,0,0,1-.56.93A1,1,0,0,1,510.73,130.61Zm-2.91-2.34v1h1c.47,0,.73-.17.73-.5s-.26-.49-.73-.49Zm1.93,2.23c0-.35-.28-.52-.78-.52h-1.15v1H509C509.47,131,509.75,130.87,509.75,130.5Z" style="fill:#263238"></path><path d="M514.26,130.86h-2l-.38.9h-1l1.88-4.23h1l1.9,4.23h-1Zm-.31-.75-.67-1.62-.67,1.62Z" style="fill:#263238"></path><path d="M520,127.53v4.23h-.81l-2.11-2.57v2.57h-1v-4.23h.81L519,130.1v-2.57Z" style="fill:#263238"></path><path d="M522.53,130.1l-.57.59v1.07h-1v-4.23h1v2l1.88-2h1.09l-1.76,1.89,1.86,2.34h-1.14Z" style="fill:#263238"></path><path d="M580.08,125.27a.89.89,0,1,1-.88-.89A.88.88,0,0,1,580.08,125.27Z" style="fill:#263238"></path><path d="M580.07,128.45a.89.89,0,1,1-.89-.89A.89.89,0,0,1,580.07,128.45Z" style="fill:#263238"></path><path d="M580.05,131.63a.88.88,0,1,1-.88-.89A.88.88,0,0,1,580.05,131.63Z" style="fill:#263238"></path><path d="M507.06,297.13V299h-1.7v-1.86a8,8,0,0,1-4.24-1.36l.93-2.08a6.94,6.94,0,0,0,3.31,1.21v-2.84c-1.89-.46-4-1.09-4-3.53,0-1.8,1.31-3.35,4-3.66V283h1.7v1.86a7.64,7.64,0,0,1,3.46,1l-.85,2.09a7,7,0,0,0-2.61-.88V290c1.89.44,4,1.07,4,3.47C511,295.28,509.73,296.81,507.06,297.13Zm-1.7-7.53v-2.41c-.9.2-1.26.7-1.26,1.26S504.61,289.37,505.36,289.6Zm2.93,4.11c0-.6-.5-.92-1.23-1.18v2.35C507.91,294.7,508.29,294.25,508.29,293.71Z" style="fill:#263238"></path><path d="M517.92,297.13V299h-1.7v-1.86a8.1,8.1,0,0,1-4.24-1.36l.94-2.08a6.9,6.9,0,0,0,3.3,1.21v-2.84c-1.89-.46-4-1.09-4-3.53,0-1.8,1.31-3.35,4-3.66V283h1.7v1.86a7.64,7.64,0,0,1,3.46,1l-.85,2.09a7,7,0,0,0-2.61-.88V290c1.9.44,4,1.07,4,3.47C521.89,295.28,520.6,296.81,517.92,297.13Zm-1.7-7.53v-2.41c-.9.2-1.26.7-1.26,1.26S515.47,289.37,516.22,289.6Zm2.93,4.11c0-.6-.49-.92-1.23-1.18v2.35C518.78,294.7,519.15,294.25,519.15,293.71Z" style="fill:#263238"></path><path d="M528.79,297.13V299h-1.71v-1.86a8.1,8.1,0,0,1-4.24-1.36l.94-2.08a6.9,6.9,0,0,0,3.3,1.21v-2.84c-1.89-.46-4-1.09-4-3.53,0-1.8,1.31-3.35,4-3.66V283h1.71v1.86a7.6,7.6,0,0,1,3.45,1l-.85,2.09a7,7,0,0,0-2.6-.88V290c1.89.44,4,1.07,4,3.47C532.75,295.28,531.46,296.81,528.79,297.13Zm-1.71-7.53v-2.41c-.9.2-1.26.7-1.26,1.26S526.33,289.37,527.08,289.6Zm2.93,4.11c0-.6-.49-.92-1.22-1.18v2.35C529.64,294.7,530,294.25,530,293.71Z" style="fill:#263238"></path><path d="M539.65,297.13V299H538v-1.86a8,8,0,0,1-4.24-1.36l.93-2.08A6.9,6.9,0,0,0,538,295v-2.84c-1.89-.46-4-1.09-4-3.53,0-1.8,1.32-3.35,4-3.66V283h1.7v1.86a7.64,7.64,0,0,1,3.46,1l-.85,2.09a7,7,0,0,0-2.61-.88V290c1.89.44,4,1.07,4,3.47C543.62,295.28,542.32,296.81,539.65,297.13ZM538,289.6v-2.41c-.91.2-1.26.7-1.26,1.26S537.2,289.37,538,289.6Zm2.93,4.11c0-.6-.5-.92-1.23-1.18v2.35C540.5,294.7,540.88,294.25,540.88,293.71Z" style="fill:#263238"></path><path d="M551.23,220.69a31.26,31.26,0,1,1-32.33-30.14A31.26,31.26,0,0,1,551.23,220.69Z" style="fill:#3E54AC"></path><g style="opacity:0.1"><path d="M518.9,190.55a31.25,31.25,0,0,0-30.15,32.33s22,.21,27-8.81S518.9,190.55,518.9,190.55Z" style="fill:#fff"></path></g><path d="M543.22,220.48a23.76,23.76,0,1,1-24.57-22.92A23.76,23.76,0,0,1,543.22,220.48Z" style="fill:#3E54AC"></path><g style="opacity:0.2"><path d="M543.22,220.48a23.76,23.76,0,1,1-24.57-22.92A23.76,23.76,0,0,1,543.22,220.48Z"></path></g><path d="M543.93,221.44a23.44,23.44,0,1,1-24.25-22.61A23.44,23.44,0,0,1,543.93,221.44Z" style="fill:#3E54AC"></path><g style="opacity:0.2"><path d="M543.93,221.44a23.44,23.44,0,1,1-24.25-22.61A23.44,23.44,0,0,1,543.93,221.44Z" style="fill:#fff"></path></g><path d="M521.36,220.2l-.21-6h0a12.73,12.73,0,0,1,3.22.72,10.17,10.17,0,0,1,1.52.89l.07-.19.85-2.19.2-.5-1.11-1.09-.5.25A11.28,11.28,0,0,0,521,211l-.11-3.3-1.06-.79,0,.83-1.41.05.12,3.36c-4.62.6-6.72,3.32-6.62,6.35.15,4.13,3.72,5.08,7,5.76l.21,5.94a11.4,11.4,0,0,1-6-2.05L512,230.19a13,13,0,0,0,7.36,2.21l.09,2.49-1.16.06,1.19.75,2.43-.09-.11-3.33c4.64-.63,6.78-3.33,6.67-6.35C528.32,221.8,524.69,220.88,521.36,220.2Zm-2.45-.54c-1.74-.45-3-1-3.09-2.48s.8-2.41,2.9-2.81Zm2.24-5.46Zm.52,14.85-.18-5.26c1.8.44,3.13,1.08,3.18,2.54C524.71,227.6,523.83,228.64,521.67,229.05Z" style="fill:#3E54AC"></path><g style="opacity:0.30000000000000004"><path d="M521.36,220.2l-.21-6h0a12.73,12.73,0,0,1,3.22.72,10.17,10.17,0,0,1,1.52.89l.07-.19.85-2.19.2-.5-1.11-1.09-.5.25A11.28,11.28,0,0,0,521,211l-.11-3.3-1.06-.79,0,.83-1.41.05.12,3.36c-4.62.6-6.72,3.32-6.62,6.35.15,4.13,3.72,5.08,7,5.76l.21,5.94a11.4,11.4,0,0,1-6-2.05L512,230.19a13,13,0,0,0,7.36,2.21l.09,2.49-1.16.06,1.19.75,2.43-.09-.11-3.33c4.64-.63,6.78-3.33,6.67-6.35C528.32,221.8,524.69,220.88,521.36,220.2Zm-2.45-.54c-1.74-.45-3-1-3.09-2.48s.8-2.41,2.9-2.81Zm2.24-5.46Zm.52,14.85-.18-5.26c1.8.44,3.13,1.08,3.18,2.54C524.71,227.6,523.83,228.64,521.67,229.05Z"></path></g><path d="M520.75,231.5l.12,3.33-2.44.09-.11-3.3a13.07,13.07,0,0,1-7.37-2.21l1.23-3a11.43,11.43,0,0,0,6,2l-.2-5.94c-3.33-.68-6.9-1.63-7.05-5.76-.1-3,2-5.75,6.62-6.36l-.12-3.35,2.44-.09.11,3.3a12.76,12.76,0,0,1,6.1,1.6l-1.12,3a12.27,12.27,0,0,0-4.86-1.43l.21,6c3.32.68,6.95,1.6,7.1,5.73C527.53,228.18,525.4,230.87,520.75,231.5Zm-2.88-12.62-.19-5.29c-2.09.4-2.95,1.5-2.9,2.81S516.13,218.43,517.87,218.88Zm5.76,6.67c0-1.46-1.38-2.1-3.18-2.54l.19,5.26C522.79,227.87,523.68,226.82,523.63,225.55Z" style="fill:#3E54AC"></path><path d="M520.9,245.93l.19,0,.56-.06.92-.09a9.33,9.33,0,0,0,1.24-.17l1.55-.3a5.78,5.78,0,0,0,.86-.23l.93-.27c.32-.11.66-.18,1-.32l1-.42c.35-.15.72-.28,1.07-.46l1.1-.58a24.84,24.84,0,0,0,4.51-3.13l1.09-1.06c.18-.18.37-.35.55-.54s.33-.4.51-.6c.33-.41.7-.8,1-1.24l.94-1.35.24-.34c.08-.12.14-.25.21-.37l.42-.74.42-.75c.15-.25.24-.53.37-.79.23-.53.48-1.07.69-1.62l.57-1.71a25.45,25.45,0,0,0,.93-7.41,25.18,25.18,0,0,0-1.45-7.33c-.23-.56-.45-1.12-.68-1.67s-.54-1.05-.81-1.57a8.09,8.09,0,0,0-.42-.76l-.47-.72-.47-.71c-.08-.12-.15-.24-.23-.35l-.27-.33-1-1.28c-.36-.41-.75-.78-1.11-1.16l-.55-.56c-.19-.18-.39-.34-.59-.51l-1.15-1a25.06,25.06,0,0,0-4.73-2.82l-1.13-.5c-.37-.15-.75-.25-1.1-.38l-1.06-.34a7.69,7.69,0,0,0-1-.25l-.95-.22a7.46,7.46,0,0,0-.88-.16l-1.56-.19a8.3,8.3,0,0,0-1.25-.08l-.92,0-.57,0h1.49a8.05,8.05,0,0,1,1.25.06l1.57.17a5.75,5.75,0,0,1,.89.16l1,.2c.32.08.67.12,1,.24l1.06.34c.36.13.75.22,1.12.38l1.14.49a25.3,25.3,0,0,1,4.78,2.81l1.16,1,.6.51.55.56c.37.39.77.76,1.13,1.17l1,1.29.27.33.24.36.47.71.48.73c.17.23.28.51.43.76.27.53.56,1,.82,1.59l.68,1.68a23.49,23.49,0,0,1,.52,14.88l-.56,1.73c-.22.56-.48,1.09-.71,1.64-.13.26-.22.54-.37.79s-.29.5-.43.76l-.42.74c-.07.13-.14.25-.22.37l-.24.35-.95,1.36c-.33.44-.7.83-1,1.24l-.52.6c-.18.19-.37.37-.55.55L536,240a24.75,24.75,0,0,1-4.57,3.14l-1.1.57c-.36.18-.73.31-1.09.46l-1,.41a10.37,10.37,0,0,1-1,.31l-.94.27a5.84,5.84,0,0,1-.87.22l-1.55.28a9.33,9.33,0,0,1-1.25.15l-.92.06-.57,0Z" style="fill:#263238"></path><path d="M493.9,237.37a1.55,1.55,0,0,1-.16-.24l-.4-.7c-.17-.3-.38-.68-.59-1.13s-.48-1-.7-1.55l-.37-.91c-.13-.32-.23-.66-.35-1-.26-.7-.45-1.46-.68-2.26a35.46,35.46,0,0,1-.87-5.34,34.45,34.45,0,0,1,.07-5.41c.1-.82.18-1.61.33-2.33.07-.37.12-.72.2-1.05l.23-1c.14-.62.32-1.16.47-1.63a10.52,10.52,0,0,1,.41-1.21l.3-.76c.06-.17.1-.26.11-.25a1.49,1.49,0,0,1-.07.27l-.25.77c-.12.33-.25.73-.38,1.21s-.3,1-.43,1.64c-.07.3-.14.62-.21.95s-.12.69-.19,1.05c-.14.72-.21,1.5-.3,2.33a33.92,33.92,0,0,0-.05,5.36,35,35,0,0,0,.84,5.3c.22.8.41,1.56.65,2.26.12.35.22.69.34,1l.35.91c.22.59.47,1.1.67,1.55s.39.84.55,1.15l.37.72A1,1,0,0,1,493.9,237.37Z" style="fill:#fff"></path><path d="M513.07,219.12a1.93,1.93,0,0,1-.71-.66,3.66,3.66,0,0,1,0-4.44,1.83,1.83,0,0,1,.72-.66s-.26.26-.58.75a3.87,3.87,0,0,0-.66,2.13,4,4,0,0,0,.65,2.13C512.81,218.86,513.1,219.09,513.07,219.12Z" style="fill:#fff"></path><path d="M518.06,209.84c-.07,0-.14-.43-.15-1s0-1,.08-1a2.24,2.24,0,0,1,.15,1A2.21,2.21,0,0,1,518.06,209.84Z" style="fill:#fff"></path><path d="M520.77,196.87a3.7,3.7,0,0,1-.76,0c-.25,0-.55,0-.9,0s-.74,0-1.18,0-.91.05-1.43.11-1,.14-1.62.22a24.7,24.7,0,0,0-7.11,2.38c-.51.28-1,.53-1.43.81s-.85.52-1.21.77-.68.49-1,.69-.51.39-.7.55a4.59,4.59,0,0,1-.61.46,5.7,5.7,0,0,1,.55-.53c.18-.17.41-.37.68-.58s.58-.48,1-.72.75-.54,1.2-.81.92-.54,1.43-.83a25.78,25.78,0,0,1,3.49-1.49,26.27,26.27,0,0,1,3.68-.91c.58-.08,1.13-.17,1.65-.2s1-.07,1.44-.08.84,0,1.19,0a7.28,7.28,0,0,1,.89.05A5.4,5.4,0,0,1,520.77,196.87Z" style="fill:#fff"></path><path d="M524.83,251.27a2.18,2.18,0,0,1-.55.17c-.36.1-.89.21-1.54.32a22.06,22.06,0,0,1-5.18.25,23.3,23.3,0,0,1-5.11-.94c-.63-.2-1.14-.38-1.48-.53a2.92,2.92,0,0,1-.52-.24,2.48,2.48,0,0,1,.55.15c.35.12.86.28,1.5.46a25.14,25.14,0,0,0,10.21.69c.66-.09,1.19-.17,1.55-.25A4.43,4.43,0,0,1,524.83,251.27Z" style="fill:#fff"></path><path d="M555.65,221.69s0-.2-.06-.58-.06-1-.11-1.69c0-.38-.05-.79-.07-1.25s-.15-.95-.23-1.49a26.29,26.29,0,0,0-.74-3.68,33.92,33.92,0,0,0-4-9.45,35.65,35.65,0,0,0-24-16.68,33,33,0,0,0-4.48-.52c-.77,0-1.54-.1-2.31-.09l-2.35.13c-.39,0-.79,0-1.18.07l-1.18.18c-.79.13-1.59.23-2.38.39a38.94,38.94,0,0,0-9.35,3.42c-.74.4-1.46.88-2.2,1.32a17.27,17.27,0,0,0-2.14,1.47,39.08,39.08,0,0,0-4,3.41,38.07,38.07,0,0,0-3.47,4.11,34.39,34.39,0,0,0-5.07,9.75,35.19,35.19,0,0,0,0,22.34l1,2.63c.4.83.81,1.67,1.2,2.5a9.92,9.92,0,0,0,.66,1.2l.72,1.18.71,1.16.81,1.09a32.09,32.09,0,0,0,7.49,7.52,18.51,18.51,0,0,0,2.14,1.48c.74.43,1.46.91,2.2,1.31a38.94,38.94,0,0,0,9.35,3.42c.79.17,1.59.26,2.38.39l1.18.18c.39,0,.79,0,1.19.08l2.34.12c.78,0,1.55-.06,2.31-.09a32.65,32.65,0,0,0,4.48-.52,35.59,35.59,0,0,0,24-16.68,33.92,33.92,0,0,0,4-9.45,26,26,0,0,0,.74-3.68c.08-.54.18-1,.23-1.49s.05-.87.07-1.24c0-.73.09-1.3.11-1.7s.06-.57.06-.57,0,.19,0,.57,0,1-.06,1.7l-.05,1.25c0,.46-.13,1-.21,1.5a24.69,24.69,0,0,1-.7,3.71,33.91,33.91,0,0,1-3.89,9.55,35.85,35.85,0,0,1-24.13,17,35.26,35.26,0,0,1-4.53.54c-.78,0-1.56.1-2.34.09l-2.38-.12c-.4,0-.8,0-1.2-.07l-1.19-.18c-.8-.13-1.62-.22-2.42-.39a39.52,39.52,0,0,1-4.79-1.39,38,38,0,0,1-4.69-2.06c-.76-.41-1.48-.88-2.24-1.33a18.18,18.18,0,0,1-2.17-1.49,39,39,0,0,1-4.07-3.46,40.56,40.56,0,0,1-3.53-4.16l-.82-1.1-.73-1.18-.72-1.19a9.12,9.12,0,0,1-.67-1.23c-.41-.84-.81-1.68-1.22-2.53s-.65-1.77-1-2.66a35.65,35.65,0,0,1,0-22.67,34.84,34.84,0,0,1,5.14-9.89,33,33,0,0,1,7.61-7.62,18.44,18.44,0,0,1,2.16-1.49c.76-.44,1.48-.92,2.24-1.33a36.44,36.44,0,0,1,4.69-2.05,37.85,37.85,0,0,1,4.79-1.4c.8-.16,1.62-.25,2.41-.39l1.2-.18c.4-.05.8-.05,1.2-.07l2.38-.12c.78,0,1.56.07,2.33.1a33.53,33.53,0,0,1,4.54.53,35.8,35.8,0,0,1,24.12,17,33.67,33.67,0,0,1,3.9,9.55,24.69,24.69,0,0,1,.7,3.71c.08.54.17,1,.21,1.5l.05,1.25c0,.73,0,1.3.06,1.7S555.65,221.69,555.65,221.69Z" style="fill:#3E54AC"></path><path d="M560.69,222.23s0-.23-.06-.66-.07-1.1-.12-1.93c0-.43,0-.9-.08-1.43s-.17-1.08-.26-1.7-.2-1.27-.32-2a19.63,19.63,0,0,0-.53-2.22,38.25,38.25,0,0,0-4.51-10.79,40.29,40.29,0,0,0-10.3-11.5l-1.76-1.31c-.61-.4-1.26-.77-1.9-1.16s-1.28-.83-2-1.15l-2.1-1-1.07-.51-1.12-.41-2.28-.83c-.78-.26-1.59-.42-2.39-.64a19.78,19.78,0,0,0-2.45-.55,37.12,37.12,0,0,0-5.12-.6c-.87,0-1.75-.11-2.64-.1l-2.68.14c-.44,0-.9,0-1.35.09l-1.35.21c-.9.15-1.81.25-2.72.44a44.24,44.24,0,0,0-5.4,1.58,42.21,42.21,0,0,0-5.27,2.32c-.86.47-1.68,1-2.52,1.51a14.63,14.63,0,0,0-1.25.79l-1.19.89a44.44,44.44,0,0,0-4.59,3.9,47.26,47.26,0,0,0-4,4.69l-.93,1.24-.81,1.33-.81,1.34-.41.68-.35.7c-.45.95-.91,1.9-1.37,2.86l-1.1,3a40,40,0,0,0,0,25.53c.37,1,.73,2,1.1,3s.91,1.91,1.37,2.86l.34.71.41.67.82,1.34.81,1.33.93,1.24.93,1.24.46.62.52.57,2.06,2.26a44.55,44.55,0,0,0,4.59,3.91l1.19.89c.39.3.83.52,1.25.79.84.5,1.66,1,2.52,1.5a40.79,40.79,0,0,0,5.27,2.32,42.59,42.59,0,0,0,5.4,1.59c.91.18,1.82.29,2.72.44l1.35.21c.45.06.91,0,1.36.09l2.67.13c.89,0,1.77-.07,2.64-.1a37.12,37.12,0,0,0,5.12-.59,19.81,19.81,0,0,0,2.45-.56c.81-.21,1.62-.38,2.39-.63l2.28-.83,1.12-.41,1.07-.51,2.1-1c.71-.32,1.33-.77,2-1.14s1.29-.77,1.91-1.17l1.75-1.3a40.62,40.62,0,0,0,10.31-11.5,38.65,38.65,0,0,0,4.5-10.8,19.14,19.14,0,0,0,.53-2.22c.12-.7.22-1.36.32-2s.2-1.18.26-1.7.06-1,.08-1.42c0-.84.1-1.48.12-1.93s.06-.66.06-.66,0,.22,0,.66,0,1.1-.07,1.94c0,.42,0,.9-.06,1.42s-.15,1.09-.24,1.71-.19,1.29-.29,2a21.89,21.89,0,0,1-.51,2.23,38.64,38.64,0,0,1-4.45,10.9,40.84,40.84,0,0,1-10.34,11.64L543,256.05c-.62.41-1.27.79-1.92,1.19s-1.28.83-2,1.16l-2.12,1-1.08.51-1.13.42-2.3.84c-.78.26-1.6.43-2.41.66a22.32,22.32,0,0,1-2.48.56,38,38,0,0,1-5.17.62c-.88,0-1.77.12-2.67.11L517,263c-.45,0-.91,0-1.36-.08l-1.37-.21c-.91-.15-1.84-.26-2.76-.44a44,44,0,0,1-5.46-1.6,41.13,41.13,0,0,1-5.34-2.33c-.87-.47-1.7-1-2.56-1.52-.42-.27-.86-.5-1.26-.8l-1.21-.9a45.6,45.6,0,0,1-4.65-3.95l-2.09-2.29-.52-.58-.47-.62-.94-1.25-.94-1.26-.83-1.35-.82-1.36-.42-.68-.35-.71c-.46-1-.92-1.93-1.39-2.89l-1.11-3a40.46,40.46,0,0,1,0-25.85l1.11-3c.47-1,.93-1.93,1.4-2.88l.35-.72.41-.68.82-1.36.83-1.34L487,198a47.12,47.12,0,0,1,4-4.75,46.6,46.6,0,0,1,4.65-3.94l1.21-.9c.4-.3.84-.53,1.26-.8.86-.51,1.69-1,2.56-1.52a42.61,42.61,0,0,1,5.34-2.34,43.93,43.93,0,0,1,5.46-1.59c.92-.19,1.85-.29,2.76-.44l1.36-.21c.46-.06.92-.05,1.37-.09l2.71-.13c.9,0,1.79.08,2.67.11a38,38,0,0,1,5.17.61,20.74,20.74,0,0,1,2.48.57c.8.22,1.62.39,2.4.65l2.3.85,1.14.41,1.08.52,2.12,1c.7.32,1.33.78,2,1.16s1.3.77,1.92,1.18l1.76,1.33a40.58,40.58,0,0,1,10.34,11.64,38.71,38.71,0,0,1,4.45,10.89,22.05,22.05,0,0,1,.51,2.24c.1.71.2,1.37.29,2s.19,1.19.24,1.71,0,1,.06,1.43c0,.84,0,1.48.07,1.94S560.69,222.23,560.69,222.23Z" style="fill:#3E54AC"></path><path d="M519.19,380.34a20.4,20.4,0,1,1,20.4-20.4A20.42,20.42,0,0,1,519.19,380.34Zm0-39.8a19.4,19.4,0,1,0,19.4,19.4A19.42,19.42,0,0,0,519.19,340.54Z" style="fill:#3E54AC"></path><polygon points="510.38 359.83 513.2 357.01 518.63 361.84 527.53 352.61 530.14 355.42 518.23 367.28 510.38 359.83" style="fill:#3E54AC"></polygon><path d="M577.16,310.73c0,.14-24.21.26-54.08.26s-54.08-.12-54.08-.26,24.21-.26,54.08-.26S577.16,310.58,577.16,310.73Z" style="fill:#263238"></path><path d="M561.63,320.16c0,.15-18.42.26-41.13.26s-41.12-.11-41.12-.26,18.41-.26,41.12-.26S561.63,320,561.63,320.16Z" style="fill:#263238"></path></g><g id="freepik--Coins--inject-31"><path d="M372.16,251.06A27.81,27.81,0,1,1,359.09,214,27.82,27.82,0,0,1,372.16,251.06Z" style="fill:#3E54AC"></path><g style="opacity:0.1"><path d="M359.09,214A27.8,27.8,0,0,0,322,227s17.25,9.23,24.89,4.16S359.09,214,359.09,214Z" style="fill:#fff"></path></g><path d="M365.94,247.59A21.15,21.15,0,1,1,356,219.38,21.14,21.14,0,0,1,365.94,247.59Z" style="fill:#3E54AC"></path><g style="opacity:0.2"><path d="M365.94,247.59A21.15,21.15,0,1,1,356,219.38,21.14,21.14,0,0,1,365.94,247.59Z"></path></g><path d="M366.1,248.64a20.86,20.86,0,1,1-9.81-27.82A20.86,20.86,0,0,1,366.1,248.64Z" style="fill:#3E54AC"></path><g style="opacity:0.2"><path d="M366.1,248.64a20.86,20.86,0,1,1-9.81-27.82A20.86,20.86,0,0,1,366.1,248.64Z" style="fill:#fff"></path></g><path d="M348.81,238.36l2.31-4.82,0,0a10.62,10.62,0,0,1,2.24,1.89,8.76,8.76,0,0,1,.84,1.33l.13-.12,1.57-1.38.37-.32-.43-1.31h-.5a10,10,0,0,0-3-2.68l1.27-2.64-.51-1.06-.31.66-1.13-.54-1.3,2.7c-3.89-1.43-6.67-.15-7.83,2.28-1.59,3.32.84,5.53,3.17,7.45l-2.28,4.77a10.22,10.22,0,0,1-3.9-4.1l-2.23,1.89a11.58,11.58,0,0,0,4.9,4.78l-1,2-.94-.43.63,1.08,2,.93,1.27-2.67c3.93,1.41,6.72.17,7.89-2.26C353.64,242.49,351.15,240.27,348.81,238.36Zm-1.71-1.44c-1.19-1.07-2-2.08-1.42-3.23s1.63-1.56,3.45-1Zm4-3.38Zm-5.71,11.92,2-4.22c1.24,1.09,2,2.14,1.46,3.31S347.28,246,345.41,245.46Z" style="fill:#3E54AC"></path><g style="opacity:0.30000000000000004"><path d="M348.81,238.36l2.31-4.82,0,0a10.62,10.62,0,0,1,2.24,1.89,8.76,8.76,0,0,1,.84,1.33l.13-.12,1.57-1.38.37-.32-.43-1.31h-.5a10,10,0,0,0-3-2.68l1.27-2.64-.51-1.06-.31.66-1.13-.54-1.3,2.7c-3.89-1.43-6.67-.15-7.83,2.28-1.59,3.32.84,5.53,3.17,7.45l-2.28,4.77a10.22,10.22,0,0,1-3.9-4.1l-2.23,1.89a11.58,11.58,0,0,0,4.9,4.78l-1,2-.94-.43.63,1.08,2,.93,1.27-2.67c3.93,1.41,6.72.17,7.89-2.26C353.64,242.49,351.15,240.27,348.81,238.36Zm-1.71-1.44c-1.19-1.07-2-2.08-1.42-3.23s1.63-1.56,3.45-1Zm4-3.38Zm-5.71,11.92,2-4.22c1.24,1.09,2,2.14,1.46,3.31S347.28,246,345.41,245.46Z"></path></g><path d="M343.67,247l-1.28,2.67-2-.93,1.27-2.65a11.49,11.49,0,0,1-4.89-4.78l2.22-1.89a10.13,10.13,0,0,0,3.9,4.09l2.29-4.77c-2.34-1.91-4.77-4.13-3.18-7.44,1.17-2.43,3.95-3.71,7.84-2.29l1.29-2.69,2,.93-1.27,2.65a11.25,11.25,0,0,1,4.14,3.77l-2.13,1.95a11,11,0,0,0-3.24-3.14l-2.31,4.81c2.34,1.92,4.82,4.13,3.24,7.45C350.39,247.19,347.6,248.43,343.67,247Zm2.93-11.14,2-4.25c-1.81-.55-2.94,0-3.44,1S345.41,234.81,346.6,235.88Zm1.8,7.63c.56-1.17-.23-2.22-1.46-3.31l-2,4.22C346.78,245,347.91,244.54,348.4,243.51Z" style="fill:#3E54AC"></path><path d="M337.84,258.46l.16.06.47.18.76.31a7.37,7.37,0,0,0,1,.38l1.34.4a4.46,4.46,0,0,0,.78.18l.84.17c.3,0,.6.13.92.15l1,.09c.33,0,.68.08,1,.09h1.09a22.2,22.2,0,0,0,4.86-.61l1.29-.39c.22-.06.44-.12.66-.2l.64-.26c.44-.18.89-.34,1.32-.55l1.3-.68.33-.17.32-.21.63-.41.64-.42a6.74,6.74,0,0,0,.62-.47c.4-.33.82-.64,1.22-1l1.15-1.12a22.8,22.8,0,0,0,3.79-5.46,22.39,22.39,0,0,0,1.87-6.37c.06-.54.11-1.07.16-1.6s0-1.05,0-1.57a6.57,6.57,0,0,0,0-.77c0-.26-.06-.51-.08-.76s-.05-.51-.08-.76,0-.25,0-.37l-.07-.37c-.1-.48-.19-1-.29-1.44s-.26-.92-.39-1.37l-.2-.67c-.08-.21-.18-.43-.26-.64l-.51-1.24a21.92,21.92,0,0,0-2.56-4.17l-.69-.86c-.23-.28-.48-.51-.71-.76l-.69-.7a7.55,7.55,0,0,0-.69-.61l-.66-.56a6.88,6.88,0,0,0-.63-.5l-1.15-.79a8.17,8.17,0,0,0-1-.58l-.71-.4-.44-.25a.92.92,0,0,1-.15-.09l.16.07.45.24.72.38a6.77,6.77,0,0,1,1,.56l1.17.78a7.13,7.13,0,0,1,.63.49l.67.56a7.83,7.83,0,0,1,.7.61c.23.22.46.46.7.7s.5.48.73.76l.69.86a21.89,21.89,0,0,1,2.61,4.19l.52,1.25c.08.21.18.42.26.64l.2.68c.13.45.29.91.41,1.38s.19,1,.29,1.45l.07.37c0,.12,0,.25,0,.38l.08.76.08.76a6.89,6.89,0,0,1,0,.79c0,.52,0,1.05,0,1.58l-.15,1.61a22.81,22.81,0,0,1-1.9,6.44,22.21,22.21,0,0,1-3.83,5.51l-1.16,1.13c-.4.35-.83.67-1.23,1a6.74,6.74,0,0,1-.62.47l-.65.42-.64.42-.32.2-.33.17-1.32.69c-.44.21-.89.37-1.33.55l-.65.26c-.22.08-.45.14-.67.2l-1.3.39a22.44,22.44,0,0,1-4.89.59h-1.11c-.36,0-.71-.06-1.05-.09l-1-.1a8.82,8.82,0,0,1-.92-.16l-.85-.17c-.27-.06-.53-.11-.78-.19l-1.34-.42a7.1,7.1,0,0,1-1-.4l-.76-.33-.46-.2C337.89,258.49,337.84,258.47,337.84,258.46Z" style="fill:#263238"></path><path d="M320.08,240.58a.87.87,0,0,1,0-.25c0-.19,0-.42,0-.72a11.09,11.09,0,0,1,0-1.14c0-.44,0-.95.08-1.5l.08-.88c0-.3.1-.61.14-.94.09-.65.25-1.34.4-2.06a30.94,30.94,0,0,1,1.52-4.57,29.91,29.91,0,0,1,2.28-4.23c.42-.61.81-1.2,1.22-1.71.21-.26.39-.51.59-.75l.58-.66c.36-.43.73-.77,1-1.09s.59-.58.82-.79l.55-.47.19-.15s0,.07-.17.18l-.51.5c-.23.22-.5.48-.8.81s-.66.68-1,1.11c-.18.21-.37.43-.56.67s-.38.49-.58.75c-.41.51-.79,1.09-1.2,1.7a31.25,31.25,0,0,0-2.25,4.21,30.92,30.92,0,0,0-1.52,4.53c-.16.72-.33,1.4-.42,2.05-.05.32-.11.63-.15.93l-.09.87c-.08.55-.09,1.06-.12,1.5s0,.82,0,1.13,0,.53,0,.72S320.08,240.58,320.08,240.58Z" style="fill:#fff"></path><path d="M342.72,234.09a1.7,1.7,0,0,1-.29-.81,3.26,3.26,0,0,1,.32-2.06,3.34,3.34,0,0,1,1.51-1.45,1.69,1.69,0,0,1,.84-.22s-.32.1-.77.35a3.41,3.41,0,0,0-1.76,3.36C342.62,233.78,342.75,234.08,342.72,234.09Z" style="fill:#fff"></path><path d="M350.47,228.83a2.06,2.06,0,0,1,.28-.83c.21-.43.42-.76.47-.74a1.85,1.85,0,0,1-.28.83C350.73,228.52,350.52,228.86,350.47,228.83Z" style="fill:#fff"></path><path d="M358,219.72a4.13,4.13,0,0,1-.6-.32c-.19-.11-.42-.24-.7-.38s-.59-.31-.94-.46-.75-.34-1.17-.51-.89-.32-1.38-.49a23.13,23.13,0,0,0-3.25-.78,23.78,23.78,0,0,0-3.34-.27c-.51,0-1,0-1.46,0s-.88.07-1.26.11-.74.11-1.05.15L342,217a4.91,4.91,0,0,1-.67.12,5.41,5.41,0,0,1,.65-.19,7.67,7.67,0,0,1,.78-.18c.31-.06.66-.14,1-.18s.81-.11,1.27-.14,1,0,1.47-.06a22.51,22.51,0,0,1,3.37.25,23.14,23.14,0,0,1,3.28.81c.49.17,1,.33,1.38.52s.82.35,1.17.53.66.34.93.49.51.29.69.41A4.17,4.17,0,0,1,358,219.72Z" style="fill:#fff"></path><path d="M338.74,264.29a2.1,2.1,0,0,1-.51-.09c-.32-.07-.78-.2-1.34-.38a20.08,20.08,0,0,1-7.83-4.79,14,14,0,0,1-.95-1,3.12,3.12,0,0,1-.31-.4,2.17,2.17,0,0,1,.37.35c.23.24.57.57,1,1a22.43,22.43,0,0,0,3.64,2.78,23.71,23.71,0,0,0,4.12,2c.56.2,1,.35,1.32.44A3.48,3.48,0,0,1,338.74,264.29Z" style="fill:#fff"></path><circle cx="392.41" cy="184.58" r="27.58" transform="translate(-24.38 64.82) rotate(-9.16)" style="fill:#3E54AC"></circle><g style="opacity:0.1"><path d="M386,157.76A27.56,27.56,0,0,0,365.59,191s19.05-3.65,21.77-12.32S386,157.76,386,157.76Z" style="fill:#fff"></path></g><circle cx="391.89" cy="184.26" r="20.97" transform="translate(-33.29 102.09) rotate(-14.24)" style="fill:#3E54AC"></circle><g style="opacity:0.2"><circle cx="391.89" cy="184.26" r="20.97" transform="translate(-33.29 102.09) rotate(-14.24)"></circle></g><path d="M413.06,180.11a20.68,20.68,0,1,1-24.92-15.32A20.69,20.69,0,0,1,413.06,180.11Z" style="fill:#3E54AC"></path><g style="opacity:0.2"><path d="M413.06,180.11a20.68,20.68,0,1,1-24.92-15.32A20.69,20.69,0,0,1,413.06,180.11Z" style="fill:#fff"></path></g><path d="M393.33,183l-1.23-5.14h0a11,11,0,0,1,2.91.06,8.44,8.44,0,0,1,1.47.5l0-.17.36-2.05.08-.46-1.15-.75-.39.3a9.89,9.89,0,0,0-4-.18l-.67-2.83-1.06-.5.17.71-1.21.28.69,2.89c-3.89,1.33-5.23,4-4.61,6.65.84,3.54,4.1,3.74,7.09,3.75l1.22,5.1a10,10,0,0,1-5.56-.72l-.54,2.85a11.53,11.53,0,0,0,6.76.63l.5,2.13-1,.26,1.16.44,2.09-.5-.68-2.86c3.91-1.36,5.28-4.06,4.66-6.66C399.62,183.14,396.32,183,393.33,183Zm-2.22,0c-1.59-.08-2.82-.38-3.11-1.61s.28-2.22,2-2.93Zm1-5.12Zm3,12.75-1.08-4.51c1.63.07,2.9.39,3.19,1.64C397.52,188.79,396.93,189.85,395.14,190.57Z" style="fill:#3E54AC"></path><g style="opacity:0.30000000000000004"><path d="M393.33,183l-1.23-5.14h0a11,11,0,0,1,2.91.06,8.44,8.44,0,0,1,1.47.5l0-.17.36-2.05.08-.46-1.15-.75-.39.3a9.89,9.89,0,0,0-4-.18l-.67-2.83-1.06-.5.17.71-1.21.28.69,2.89c-3.89,1.33-5.23,4-4.61,6.65.84,3.54,4.1,3.74,7.09,3.75l1.22,5.1a10,10,0,0,1-5.56-.72l-.54,2.85a11.53,11.53,0,0,0,6.76.63l.5,2.13-1,.26,1.16.44,2.09-.5-.68-2.86c3.91-1.36,5.28-4.06,4.66-6.66C399.62,183.14,396.32,183,393.33,183Zm-2.22,0c-1.59-.08-2.82-.38-3.11-1.61s.28-2.22,2-2.93Zm1-5.12Zm3,12.75-1.08-4.51c1.63.07,2.9.39,3.19,1.64C397.52,188.79,396.93,189.85,395.14,190.57Z"></path></g><path d="M394.77,192.86l.68,2.86-2.09.5-.68-2.84a11.43,11.43,0,0,1-6.75-.62l.53-2.85a10.16,10.16,0,0,0,5.57.72l-1.22-5.1c-3,0-6.25-.21-7.1-3.76-.62-2.6.73-5.32,4.62-6.65l-.69-2.88,2.09-.5.68,2.83a11.27,11.27,0,0,1,5.55.32l-.43,2.83a10.82,10.82,0,0,0-4.46-.39l1.22,5.15c3,0,6.3.17,7.14,3.71C400.05,188.8,398.68,191.5,394.77,192.86Zm-4.7-10.42L389,177.9c-1.74.71-2.29,1.81-2,2.94S388.49,182.36,390.07,182.44Zm6.15,4.76c-.29-1.25-1.56-1.57-3.19-1.63l1.08,4.51C395.9,189.36,396.49,188.3,396.22,187.2Z" style="fill:#3E54AC"></path><path d="M397.41,205.31l.17-.05.47-.15.78-.24a9.41,9.41,0,0,0,1.05-.36l1.28-.53a5.83,5.83,0,0,0,.71-.35l.76-.4c.25-.15.54-.27.79-.45l.82-.54c.27-.19.57-.36.85-.58l.84-.69a21.77,21.77,0,0,0,3.36-3.51l.76-1.1c.12-.18.26-.37.38-.56l.33-.61c.22-.41.47-.82.67-1.25l.58-1.33.15-.34.12-.35c.07-.24.15-.48.23-.72l.23-.72a6.3,6.3,0,0,0,.18-.75c.1-.5.23-1,.32-1.52s.13-1.05.19-1.58a20.73,20.73,0,0,0-3-12.66l-.88-1.32c-.31-.42-.65-.81-1-1.22a6.93,6.93,0,0,0-.5-.58l-.53-.54-.53-.53-.27-.27-.28-.23-1.12-.93c-.38-.3-.78-.54-1.16-.81l-.57-.39-.6-.34-1.17-.64a21.7,21.7,0,0,0-4.58-1.61l-1.06-.23c-.35-.07-.69-.09-1-.14l-1-.12c-.31,0-.62,0-.91,0h-.86a5.18,5.18,0,0,0-.79,0l-1.38.1a9.47,9.47,0,0,0-1.1.15l-.8.14-.49.08-.17,0,.16,0,.49-.1.8-.16a9.16,9.16,0,0,1,1.1-.17l1.39-.12a6.83,6.83,0,0,1,.79,0h.86c.3,0,.61,0,.92,0l1,.11c.33,0,.68.06,1,.13l1.07.23a22,22,0,0,1,4.63,1.6l1.18.64.6.34.58.39c.38.27.79.52,1.17.81l1.13.94.29.23.27.27.53.53.54.55a5.84,5.84,0,0,1,.51.59c.32.4.67.8,1,1.22s.59.89.89,1.34a22.36,22.36,0,0,1,2.56,6.14,22.79,22.79,0,0,1,.49,6.64c-.07.53-.13,1.07-.19,1.59s-.22,1-.33,1.54a6.3,6.3,0,0,1-.18.75l-.24.73c-.08.24-.16.48-.23.72l-.12.36-.15.34L411.6,194c-.21.44-.46.85-.68,1.26-.12.2-.23.41-.34.61s-.26.38-.39.57l-.76,1.11a21.93,21.93,0,0,1-3.4,3.51c-.3.23-.58.46-.86.69s-.58.39-.86.58l-.82.54a8.06,8.06,0,0,1-.81.44l-.76.4a6.63,6.63,0,0,1-.72.34l-1.3.51a7.58,7.58,0,0,1-1,.35l-.79.22-.48.13C397.47,205.31,397.42,205.32,397.41,205.31Z" style="fill:#263238"></path><path d="M372.57,202.62l-.18-.18-.47-.54c-.2-.23-.45-.52-.71-.87s-.57-.75-.87-1.22l-.48-.72c-.17-.26-.32-.54-.48-.82-.34-.55-.65-1.18-1-1.83a29.78,29.78,0,0,1-1.68-4.47,30.11,30.11,0,0,1-.89-4.68c-.05-.74-.12-1.43-.12-2.08,0-.33,0-.65,0-1s0-.59,0-.87c0-.55.08-1,.12-1.49a9,9,0,0,1,.15-1.12l.12-.7c0-.16.05-.24.05-.24a.67.67,0,0,1,0,.25c0,.18-.05.41-.08.7s-.09.68-.12,1.12-.08.94-.08,1.49c0,.27,0,.56,0,.86s0,.62,0,.94c0,.65.08,1.34.14,2.07a32.56,32.56,0,0,0,.89,4.65,31.56,31.56,0,0,0,1.66,4.43c.33.66.62,1.28,1,1.84.16.28.3.56.46.81l.47.73c.29.47.59.87.85,1.23s.48.65.68.89.32.42.44.56Z" style="fill:#fff"></path><path d="M386,183.49a1.74,1.74,0,0,1-.74-.44,3.36,3.36,0,0,1-1-1.8,3.28,3.28,0,0,1,.26-2.05,1.88,1.88,0,0,1,.5-.7s-.17.28-.37.76a3.37,3.37,0,0,0,.74,3.68C385.7,183.31,386,183.46,386,183.49Z" style="fill:#fff"></path><path d="M388.66,174.6c-.06,0-.19-.36-.3-.82s-.16-.85-.1-.86a2,2,0,0,1,.3.81A2,2,0,0,1,388.66,174.6Z" style="fill:#fff"></path><path d="M388.74,162.9a3.42,3.42,0,0,1-.66.13c-.21,0-.47.08-.77.15s-.65.12-1,.23-.78.2-1.22.34-.89.3-1.37.48a24.16,24.16,0,0,0-3,1.42,23.38,23.38,0,0,0-2.74,1.88c-.39.32-.77.63-1.1.94s-.63.6-.9.88-.5.54-.71.76-.38.43-.52.6a3.65,3.65,0,0,1-.44.51,3.62,3.62,0,0,1,.38-.56c.13-.18.29-.39.49-.62s.42-.51.69-.79a12.72,12.72,0,0,1,.9-.9c.32-.33.7-.64,1.09-1a21.5,21.5,0,0,1,2.76-1.9,22.14,22.14,0,0,1,3-1.43c.48-.17.94-.34,1.38-.46a12.67,12.67,0,0,1,1.24-.32c.37-.1.72-.15,1-.21s.56-.09.78-.11A6.47,6.47,0,0,1,388.74,162.9Z" style="fill:#fff"></path><path d="M401.75,209.24a2.56,2.56,0,0,1-.45.25A13.35,13.35,0,0,1,400,210a20.15,20.15,0,0,1-9,1.19,13.07,13.07,0,0,1-1.38-.2,1.77,1.77,0,0,1-.49-.12,2.77,2.77,0,0,1,.51,0c.32,0,.79.09,1.37.13a22.54,22.54,0,0,0,4.54-.13,23.32,23.32,0,0,0,4.41-1c.55-.19,1-.36,1.3-.48A2.34,2.34,0,0,1,401.75,209.24Z" style="fill:#fff"></path><path d="M486.72,188.61a27.58,27.58,0,1,1-18-34.61A27.58,27.58,0,0,1,486.72,188.61Z" style="fill:#3E54AC"></path><g style="opacity:0.1"><path d="M468.74,154a27.57,27.57,0,0,0-34.61,18s18.22,6.67,25,.63S468.74,154,468.74,154Z" style="fill:#fff"></path></g><path d="M480.13,186.07a21,21,0,1,1-13.67-26.31A21,21,0,0,1,480.13,186.07Z" style="fill:#3E54AC"></path><g style="opacity:0.2"><path d="M480.13,186.07a21,21,0,1,1-13.67-26.31A21,21,0,0,1,480.13,186.07Z"></path></g><path d="M480.43,187.08a20.68,20.68,0,1,1-13.48-26A20.68,20.68,0,0,1,480.43,187.08Z" style="fill:#3E54AC"></path><g style="opacity:0.2"><path d="M480.43,187.08a20.68,20.68,0,1,1-13.48-26A20.68,20.68,0,0,1,480.43,187.08Z" style="fill:#fff"></path></g><path d="M462,179.38l1.59-5h0a11.09,11.09,0,0,1,2.46,1.55,8.76,8.76,0,0,1,1,1.19l.12-.14,1.35-1.57.31-.36-.6-1.23-.49.06a10,10,0,0,0-3.32-2.21l.87-2.77-.64-1-.22.69-1.19-.37-.89,2.82c-4-.86-6.57.78-7.38,3.33-1.1,3.48,1.59,5.32,4.16,6.87l-1.59,5a10,10,0,0,1-4.39-3.48l-1.93,2.17a11.53,11.53,0,0,0,5.47,4l-.66,2.1-1-.3.76,1,2.05.64.89-2.8c4.05.85,6.62-.76,7.43-3.31C467.35,182.76,464.6,180.93,462,179.38Zm-1.89-1.17c-1.31-.89-2.21-1.78-1.84-3s1.39-1.76,3.25-1.47Zm3.48-3.88Zm-3.95,12.5,1.4-4.43c1.36.9,2.28,1.83,1.9,3S461.59,187.13,459.68,186.83Z" style="fill:#3E54AC"></path><g style="opacity:0.30000000000000004"><path d="M462,179.38l1.59-5h0a11.09,11.09,0,0,1,2.46,1.55,8.76,8.76,0,0,1,1,1.19l.12-.14,1.35-1.57.31-.36-.6-1.23-.49.06a10,10,0,0,0-3.32-2.21l.87-2.77-.64-1-.22.69-1.19-.37-.89,2.82c-4-.86-6.57.78-7.38,3.33-1.1,3.48,1.59,5.32,4.16,6.87l-1.59,5a10,10,0,0,1-4.39-3.48l-1.93,2.17a11.53,11.53,0,0,0,5.47,4l-.66,2.1-1-.3.76,1,2.05.64.89-2.8c4.05.85,6.62-.76,7.43-3.31C467.35,182.76,464.6,180.93,462,179.38Zm-1.89-1.17c-1.31-.89-2.21-1.78-1.84-3s1.39-1.76,3.25-1.47Zm3.48-3.88Zm-3.95,12.5,1.4-4.43c1.36.9,2.28,1.83,1.9,3S461.59,187.13,459.68,186.83Z"></path></g><path d="M458.19,188.6l-.89,2.8-2.05-.65.88-2.77a11.49,11.49,0,0,1-5.47-4l1.92-2.16a10.19,10.19,0,0,0,4.4,3.48l1.58-5c-2.56-1.56-5.25-3.4-4.15-6.87.81-2.55,3.36-4.19,7.38-3.33l.89-2.83,2.05.65-.87,2.77a11.26,11.26,0,0,1,4.59,3.13L466.63,176a10.81,10.81,0,0,0-3.63-2.64l-1.59,5c2.56,1.56,5.31,3.39,4.21,6.86C464.81,187.84,462.24,189.44,458.19,188.6Zm1.33-11.35,1.41-4.45c-1.86-.29-2.9.38-3.25,1.48S458.21,176.37,459.52,177.25Zm2.82,7.25c.39-1.23-.53-2.15-1.89-3.05l-1.4,4.43C461,186.18,462,185.57,462.34,184.5Z" style="fill:#3E54AC"></path><path d="M454.05,200.64l.17,0,.48.12.79.2a10,10,0,0,0,1.08.23l1.37.2a5,5,0,0,0,.79.07l.86,0a6.9,6.9,0,0,0,.92,0l1,0c.34,0,.68,0,1-.07l1.08-.15a22.08,22.08,0,0,0,4.68-1.28l1.22-.56c.2-.09.41-.18.61-.29l.6-.34c.4-.24.82-.46,1.22-.73l1.18-.85.3-.21.29-.24.56-.5.57-.49c.2-.17.36-.37.54-.55.35-.38.72-.74,1.06-1.14l1-1.26a22.47,22.47,0,0,0,3-5.89,22.78,22.78,0,0,0,1-6.52c0-.53-.05-1.06-.08-1.59s-.14-1-.21-1.54a6.66,6.66,0,0,0-.12-.76l-.18-.73-.18-.73-.09-.36-.12-.35-.49-1.38c-.17-.44-.39-.86-.58-1.29-.09-.21-.19-.42-.29-.63s-.22-.39-.34-.59c-.22-.39-.45-.77-.67-1.15a21.9,21.9,0,0,0-3.09-3.74l-.8-.75c-.26-.24-.54-.43-.8-.64l-.78-.6a8.26,8.26,0,0,0-.76-.5l-.73-.46a6,6,0,0,0-.68-.4l-1.24-.62a7.3,7.3,0,0,0-1-.43l-.76-.3-.46-.18-.16-.07.17.05.47.16.76.28a6.78,6.78,0,0,1,1,.42l1.26.61a5.43,5.43,0,0,1,.69.39l.73.45a8.5,8.5,0,0,1,.78.5l.78.6c.26.21.55.4.81.64l.81.75a21.77,21.77,0,0,1,3.14,3.75l.68,1.15.34.6.3.63c.19.43.41.86.59,1.31l.49,1.38.12.35c0,.12.06.24.09.37l.19.73.18.74c.07.25.08.51.13.77.07.51.16,1,.21,1.56s.05,1.06.08,1.6a22.3,22.3,0,0,1-1,6.59,22.55,22.55,0,0,1-3,5.94l-1,1.27c-.34.4-.72.77-1.07,1.15-.18.18-.34.38-.54.55l-.58.5-.57.5-.29.24-.3.22c-.41.28-.8.57-1.2.85s-.83.48-1.23.72l-.6.35c-.21.11-.42.2-.63.29l-1.22.56a22.09,22.09,0,0,1-4.73,1.26l-1.08.15c-.36,0-.71,0-1,.06l-1,0a7.11,7.11,0,0,1-.93,0l-.85-.05a6.56,6.56,0,0,1-.8-.08l-1.37-.22a9.21,9.21,0,0,1-1.08-.25l-.79-.22-.48-.13C454.1,200.66,454.05,200.65,454.05,200.64Z" style="fill:#263238"></path><path d="M434.13,185.55a1,1,0,0,1-.06-.25c0-.18-.07-.41-.13-.7s-.11-.68-.15-1.12-.12-.93-.13-1.49c0-.27,0-.56,0-.87s0-.61,0-.94c0-.65.05-1.35.11-2.08a28.8,28.8,0,0,1,.85-4.69,29.94,29.94,0,0,1,1.65-4.48c.33-.65.63-1.28,1-1.84.16-.28.31-.56.47-.82s.33-.49.48-.73c.29-.47.61-.86.86-1.22s.5-.65.71-.88l.46-.54.18-.18-.14.21c-.12.14-.26.33-.44.56s-.43.54-.67.9-.56.76-.84,1.23l-.46.73c-.16.26-.3.54-.46.82-.33.56-.63,1.19-.95,1.84a28.82,28.82,0,0,0-2.49,9.11c-.05.73-.12,1.42-.12,2.06,0,.33,0,.64,0,.94l0,.87c0,.55.06,1,.09,1.48s.08.82.12,1.12.07.52.09.71A.94.94,0,0,1,434.13,185.55Z" style="fill:#fff"></path><path d="M455.46,176a1.8,1.8,0,0,1-.4-.76,3.26,3.26,0,0,1,1.32-3.7,1.79,1.79,0,0,1,.79-.34s-.3.15-.71.46a3.46,3.46,0,0,0-1.17,1.58,3.52,3.52,0,0,0-.09,2C455.32,175.74,455.49,176,455.46,176Z" style="fill:#fff"></path><path d="M462.34,169.8a3.93,3.93,0,0,1,.52-1.65c.06,0,0,.4-.16.86S462.4,169.81,462.34,169.8Z" style="fill:#fff"></path><path d="M468.43,159.81a5.1,5.1,0,0,1-.63-.23c-.2-.08-.45-.18-.74-.27s-.62-.23-1-.33-.78-.23-1.22-.33-.92-.2-1.42-.3a25.19,25.19,0,0,0-3.3-.31,24.5,24.5,0,0,0-3.31.19c-.51.08-1,.15-1.43.25s-.86.19-1.23.29-.71.2-1,.29a6.54,6.54,0,0,0-.75.25,5.48,5.48,0,0,1-.64.2,4.46,4.46,0,0,1,.61-.28,6.52,6.52,0,0,1,.74-.28c.3-.1.62-.23,1-.32s.79-.23,1.24-.32.92-.18,1.43-.26a23.22,23.22,0,0,1,3.34-.22,22.3,22.3,0,0,1,3.33.34c.51.1,1,.19,1.43.32s.85.23,1.22.35.7.25,1,.36.53.22.73.31A4.28,4.28,0,0,1,468.43,159.81Z" style="fill:#fff"></path><path d="M455.74,206.24a2.46,2.46,0,0,1-.51,0c-.32,0-.8-.09-1.37-.19a19.81,19.81,0,0,1-4.38-1.32,20.6,20.6,0,0,1-4-2.29c-.47-.36-.83-.66-1.07-.88a2.22,2.22,0,0,1-.37-.36,2.7,2.7,0,0,1,.42.3c.25.2.63.48,1.11.82a22.9,22.9,0,0,0,4,2.22,23.4,23.4,0,0,0,4.32,1.37c.57.12,1,.2,1.36.25A2.87,2.87,0,0,1,455.74,206.24Z" style="fill:#fff"></path></g><g id="freepik--Device1--inject-31"><path d="M312.39,439.22l-121.45-.08a26.45,26.45,0,0,1-26.44-26.46l.06-304.47A26.46,26.46,0,0,1,191,81.76l121.45.07a26.46,26.46,0,0,1,26.44,26.46l-.06,304.48A26.45,26.45,0,0,1,312.39,439.22Z" style="fill:#263238"></path><path d="M312.35,92.6H288.81a5.85,5.85,0,0,0-5.72,6v4.27a5.85,5.85,0,0,1-5.72,6l-45.9,0a5.86,5.86,0,0,1-5.72-6V98.53a5.86,5.86,0,0,0-5.72-6H191.15a18.53,18.53,0,0,0-18.54,18.53l-.06,297.18a18.53,18.53,0,0,0,18.52,18.53l121.2.08a18.53,18.53,0,0,0,18.54-18.53l.06-297.19A18.53,18.53,0,0,0,312.35,92.6Z" style="fill:#fafafa"></path><path d="M185.29,132.83l.23,0,.64,0,2.34-.07-.08.09q0-.8,0-1.71c0-.31,0-.61,0-1a.94.94,0,0,1,.81-.74c.39,0,.71,0,1.13,0a.94.94,0,0,1,.79.93c0,.8,0,1.63,0,2.48l-.14-.13,3,0-.15.14q0-1.78,0-3.69c0-.31,0-.63,0-.94a.92.92,0,0,0-.4-.68c-.44-.43-.87-.86-1.3-1.27l-1.25-1.24-.6-.59c-.21-.21-.37-.41-.6-.46a.77.77,0,0,0-.66.13c-.17.15-.37.36-.55.54l-1.06,1.07c-.67.69-1.37,1.33-1.87,1.92a2.11,2.11,0,0,0-.15,1.09v2.72c0,.42,0,.78,0,1.08a3.06,3.06,0,0,1,0,.39s0-.11,0-.35,0-.65,0-1.06,0-1,0-1.69c0-.34,0-.69,0-1.07a2.27,2.27,0,0,1,.15-1.21c.55-.68,1.2-1.27,1.88-2l1.05-1.08c.19-.19.34-.37.57-.57a1,1,0,0,1,.89-.17,1.6,1.6,0,0,1,.72.51l.61.6,1.25,1.22,1.3,1.28a1.19,1.19,0,0,1,.49.87c0,.32,0,.63,0,.95,0,1.26,0,2.5,0,3.69v.14H194l-3,0h-.14v-.13c0-.86,0-1.69,0-2.49a.69.69,0,0,0-.58-.69c-.33,0-.74,0-1.07,0a.74.74,0,0,0-.62.56c0,.29,0,.64,0,.94v1.79h-.08l-2.4,0h-.62Z" style="fill:#263238"></path><path d="M244.39,130.61c0,.73-.58,1.15-1.7,1.15H240.5v-4.23h2.07c1.06,0,1.6.44,1.6,1.1a1,1,0,0,1-.56.93A1,1,0,0,1,244.39,130.61Zm-2.91-2.34v1h1c.48,0,.74-.17.74-.5s-.26-.49-.74-.49Zm1.92,2.23c0-.35-.27-.52-.78-.52h-1.14v1h1.14C243.13,131,243.4,130.87,243.4,130.5Z" style="fill:#263238"></path><path d="M247.92,130.86h-2l-.38.9h-1l1.89-4.23h1l1.89,4.23h-1Zm-.31-.75-.67-1.62-.68,1.62Z" style="fill:#263238"></path><path d="M253.64,127.53v4.23h-.8l-2.11-2.57v2.57h-1v-4.23h.81l2.1,2.57v-2.57Z" style="fill:#263238"></path><path d="M256.18,130.1l-.56.59v1.07h-1v-4.23h1v2l1.87-2h1.09l-1.75,1.89,1.85,2.34h-1.14Z" style="fill:#263238"></path><path d="M313.73,125.27a.89.89,0,1,1-.88-.89A.88.88,0,0,1,313.73,125.27Z" style="fill:#263238"></path><path d="M313.72,128.45a.89.89,0,1,1-.88-.89A.88.88,0,0,1,313.72,128.45Z" style="fill:#263238"></path><path d="M313.71,131.63a.89.89,0,1,1-.88-.89A.9.9,0,0,1,313.71,131.63Z" style="fill:#263238"></path><rect x="197.09" y="176.63" width="124.28" height="78.84" rx="4.3" style="fill:#f5f5f5"></rect><rect x="193.67" y="171.51" width="124.28" height="78.84" rx="4.3" style="fill:#e0e0e0"></rect><rect x="189.73" y="167.26" width="124.28" height="78.84" rx="4.3" style="fill:#3E54AC"></rect><path d="M210.2,185.27c0,1-.8,1.59-2.34,1.59h-3V181h2.85c1.46,0,2.21.6,2.21,1.51a1.4,1.4,0,0,1-.78,1.29A1.43,1.43,0,0,1,210.2,185.27Zm-4-3.23v1.38h1.34c.66,0,1-.24,1-.69s-.36-.69-1-.69Zm2.65,3.09c0-.49-.37-.73-1.08-.73h-1.57v1.44h1.57C208.47,185.84,208.84,185.63,208.84,185.13Z" style="fill:#fff"></path><path d="M215.06,185.61h-2.71l-.51,1.25h-1.39l2.6-5.83h1.34l2.6,5.83h-1.41Zm-.42-1-.93-2.23-.92,2.23Z" style="fill:#fff"></path><path d="M223,181v5.83h-1.11l-2.91-3.54v3.54H217.6V181h1.12l2.9,3.54V181Z" style="fill:#fff"></path><path d="M226.45,184.57l-.78.81v1.48h-1.34V181h1.34v2.72l2.58-2.72h1.5l-2.41,2.6,2.55,3.23h-1.57Z" style="fill:#fff"></path><path d="M209.11,209.53H208v1.4h-.55v-1.4h-3v-.4l2.84-3.55h.61L205.17,209h2.33V207.8H208V209h1.08Z" style="fill:#fff"></path><path d="M213,209.4c0,.89-.65,1.58-1.94,1.58a2.78,2.78,0,0,1-1.93-.69l.27-.43a2.33,2.33,0,0,0,1.66.62c.88,0,1.37-.42,1.37-1.08s-.45-1.07-1.44-1.07h-.39v-.4l1.49-1.86h-2.74v-.49h3.44V206l-1.51,1.9C212.46,207.94,213,208.54,213,209.4Z" style="fill:#fff"></path><path d="M217.37,209.36c0,.91-.64,1.62-2,1.62a2.79,2.79,0,0,1-1.92-.69l.27-.43a2.34,2.34,0,0,0,1.65.62c.91,0,1.39-.45,1.39-1.1s-.43-1.12-1.79-1.12h-1.14l.28-2.68h2.93v.49h-2.45l-.19,1.71h.69C216.76,207.78,217.37,208.41,217.37,209.36Z" style="fill:#fff"></path><path d="M222.09,209.34a1.67,1.67,0,0,1-1.83,1.64c-1.42,0-2.2-1-2.2-2.68s1-2.77,2.45-2.77a2.51,2.51,0,0,1,1.27.29l-.22.45a1.83,1.83,0,0,0-1-.25c-1.16,0-1.9.74-1.9,2.19,0,.12,0,.28,0,.44a1.72,1.72,0,0,1,1.64-.92A1.62,1.62,0,0,1,222.09,209.34Zm-.55,0c0-.7-.52-1.15-1.34-1.15a1.24,1.24,0,0,0-1.38,1.17c0,.59.49,1.14,1.42,1.14A1.16,1.16,0,0,0,221.54,209.35Z" style="fill:#fff"></path><path d="M233.66,210.93l-1.28-1.68-1.28,1.68h-.61l1.59-2.06-1.52-2h.61l1.21,1.58,1.21-1.58h.6l-1.52,2,1.61,2.06Z" style="fill:#fff"></path><path d="M237.75,210.93l-1.28-1.68-1.29,1.68h-.61l1.59-2.06-1.51-2h.61l1.21,1.58,1.21-1.58h.59l-1.51,2,1.61,2.06Z" style="fill:#fff"></path><path d="M241.83,210.93l-1.28-1.68-1.28,1.68h-.62l1.6-2.06-1.52-2h.61l1.21,1.58,1.21-1.58h.6l-1.52,2,1.61,2.06Z" style="fill:#fff"></path><path d="M245.91,210.93l-1.27-1.68-1.29,1.68h-.61l1.59-2.06-1.51-2h.61l1.21,1.58,1.21-1.58h.59l-1.51,2,1.61,2.06Z" style="fill:#fff"></path><path d="M260,210.93l-1.28-1.68-1.28,1.68h-.61l1.59-2.06-1.52-2h.61l1.21,1.58,1.21-1.58h.6l-1.52,2,1.61,2.06Z" style="fill:#fff"></path><path d="M264.1,210.93l-1.27-1.68-1.29,1.68h-.61l1.59-2.06-1.51-2h.61l1.21,1.58,1.21-1.58h.59l-1.51,2,1.6,2.06Z" style="fill:#fff"></path><path d="M268.19,210.93l-1.28-1.68-1.28,1.68H265l1.6-2.06-1.52-2h.61l1.21,1.58,1.21-1.58h.6l-1.52,2,1.61,2.06Z" style="fill:#fff"></path><path d="M272.27,210.93,271,209.25l-1.29,1.68h-.61l1.59-2.06-1.51-2h.61l1.21,1.58,1.21-1.58h.59l-1.51,2,1.6,2.06Z" style="fill:#fff"></path><path d="M284.94,205.58v5.35h-.55v-4.86h-1.26v-.49Z" style="fill:#fff"></path><path d="M289.76,209.4c0,.89-.65,1.58-1.94,1.58a2.78,2.78,0,0,1-1.93-.69l.27-.43a2.33,2.33,0,0,0,1.66.62c.89,0,1.37-.42,1.37-1.08s-.45-1.07-1.44-1.07h-.38v-.4l1.48-1.86h-2.74v-.49h3.44V206l-1.51,1.9C289.19,207.94,289.76,208.54,289.76,209.4Z" style="fill:#fff"></path><path d="M295.08,209.53H294v1.4h-.55v-1.4h-3v-.4l2.84-3.55h.61L291.15,209h2.33V207.8H294V209h1.07Z" style="fill:#fff"></path><path d="M299.22,210.45v.48h-3.76v-.39l2.23-2.18c.6-.59.71-1,.71-1.32,0-.62-.43-1-1.25-1a1.8,1.8,0,0,0-1.46.6l-.39-.34a2.41,2.41,0,0,1,1.9-.77c1.08,0,1.77.55,1.77,1.45a2.22,2.22,0,0,1-.88,1.68l-1.82,1.79Z" style="fill:#fff"></path><path d="M201.71,222.05a1.41,1.41,0,0,1,2.44-.87l-.38.35a.81.81,0,0,0-.64-.3.82.82,0,1,0,.64,1.33l.38.35a1.4,1.4,0,0,1-2.44-.86Z" style="fill:#fff"></path><path d="M206.18,222.78H205l-.22.55h-.61l1.14-2.56h.59l1.14,2.56h-.62Zm-.19-.45-.4-1-.41,1Z" style="fill:#fff"></path><path d="M208.93,223.33l-.5-.71h-.54v.71h-.59v-2.56h1.1c.69,0,1.11.36,1.11.93a.84.84,0,0,1-.52.81l.57.82Zm-.56-2.08h-.48v.89h.48c.36,0,.55-.16.55-.44S208.73,221.25,208.37,221.25Z" style="fill:#fff"></path><path d="M209.79,223.08l.2-.45a1.45,1.45,0,0,0,.84.27c.35,0,.49-.12.49-.28,0-.48-1.48-.15-1.48-1.1,0-.43.35-.79,1.07-.79a1.83,1.83,0,0,1,.89.22l-.18.45a1.5,1.5,0,0,0-.71-.2c-.35,0-.49.13-.49.29,0,.48,1.49.15,1.49,1.09,0,.43-.35.79-1.08.79A1.83,1.83,0,0,1,209.79,223.08Z" style="fill:#fff"></path><path d="M215.7,220.77v2.56h-.59v-1.05h-1.17v1.05h-.59v-2.56h.59v1h1.17v-1Z" style="fill:#fff"></path><path d="M216.15,222.05a1.4,1.4,0,1,1,1.4,1.32A1.32,1.32,0,0,1,216.15,222.05Zm2.19,0a.8.8,0,1,0-.79.82A.78.78,0,0,0,218.34,222.05Z" style="fill:#fff"></path><path d="M219.39,220.77H220v2.08h1.29v.48h-1.88Z" style="fill:#fff"></path><path d="M221.6,220.77h1.16a1.29,1.29,0,1,1,0,2.56H221.6Zm1.13,2.07a.79.79,0,1,0,0-1.58h-.54v1.58Z" style="fill:#fff"></path><path d="M226.6,222.85v.48h-2v-2.56h1.93v.48h-1.34v.55h1.19v.46h-1.19v.59Z" style="fill:#fff"></path><path d="M228.7,223.33l-.49-.71h-.54v.71h-.59v-2.56h1.1c.68,0,1.11.36,1.11.93a.84.84,0,0,1-.53.81l.58.82Zm-.55-2.08h-.48v.89h.48c.36,0,.54-.16.54-.44S228.51,221.25,228.15,221.25Z" style="fill:#fff"></path><path d="M201.45,232l.64-.76a1.11,1.11,0,0,0,.91.54c.46,0,.7-.28.7-.82v-2.34H202v-.91h2.86v3.19a1.59,1.59,0,0,1-1.77,1.81A2,2,0,0,1,201.45,232Z" style="fill:#fff"></path><path d="M205.56,232a.68.68,0,0,1,1.36,0,.68.68,0,1,1-1.36,0Z" style="fill:#fff"></path><path d="M214.92,227.75l-1.61,4.92h-1.23L211,229.34l-1.12,3.33h-1.22l-1.61-4.92h1.18l1.11,3.46,1.16-3.46h1.05l1.13,3.48,1.15-3.48Z" style="fill:#fff"></path><path d="M215.4,227.75a.69.69,0,0,1,1.37,0,.64.64,0,0,1-.69.63A.63.63,0,0,1,215.4,227.75Zm.14,1.14h1.09v3.78h-1.09Z" style="fill:#fff"></path><path d="M217.65,227.45h1.1v5.22h-1.1Z" style="fill:#fff"></path><path d="M219.76,227.45h1.1v5.22h-1.1Z" style="fill:#fff"></path><path d="M221.75,227.75a.62.62,0,0,1,.68-.61.61.61,0,0,1,.68.59.68.68,0,0,1-1.36,0Zm.13,1.14H223v3.78h-1.1Z" style="fill:#fff"></path><path d="M227.34,230.51v2.16h-1v-.47a1.24,1.24,0,0,1-1.15.53c-.88,0-1.41-.5-1.41-1.15s.47-1.13,1.62-1.13h.87c0-.47-.28-.75-.87-.75a1.89,1.89,0,0,0-1.09.35l-.39-.76a2.87,2.87,0,0,1,1.63-.46C226.67,228.83,227.34,229.36,227.34,230.51Zm-1.1,1v-.38h-.75c-.51,0-.67.19-.67.44s.23.46.62.46A.79.79,0,0,0,226.24,231.47Z" style="fill:#fff"></path><path d="M234.72,230.5v2.17h-1.1v-2c0-.61-.27-.89-.71-.89s-.84.32-.84,1v1.9H231v-2c0-.61-.26-.89-.71-.89s-.83.32-.83,1v1.9h-1.1v-3.78h1v.43a1.54,1.54,0,0,1,1.19-.49,1.41,1.41,0,0,1,1.24.62,1.68,1.68,0,0,1,1.36-.62A1.47,1.47,0,0,1,234.72,230.5Z" style="fill:#fff"></path><path d="M235.33,232.32l.37-.79a2.58,2.58,0,0,0,1.32.37c.5,0,.69-.14.69-.35,0-.62-2.28,0-2.28-1.5,0-.71.64-1.22,1.75-1.22a3.1,3.1,0,0,1,1.45.33l-.36.78a2.21,2.21,0,0,0-1.09-.28c-.5,0-.71.15-.71.35,0,.65,2.29,0,2.29,1.51,0,.71-.65,1.21-1.79,1.21A3.3,3.3,0,0,1,235.33,232.32Z" style="fill:#fff"></path><path d="M279.47,230.36c0-1.63.9-2.55,2.11-2.55s2.11.92,2.11,2.55-.89,2.54-2.11,2.54S279.47,232,279.47,230.36Zm3.07,0c0-1.12-.39-1.59-1-1.59s-1,.47-1,1.59.4,1.58,1,1.58S282.54,231.48,282.54,230.36Z" style="fill:#fff"></path><path d="M288.31,231.26a1.7,1.7,0,0,1-1.87,1.64c-1.35,0-2.2-.85-2.2-2.44a2.4,2.4,0,0,1,2.51-2.65,2.62,2.62,0,0,1,1.37.34l-.42.84a1.56,1.56,0,0,0-.92-.25,1.31,1.31,0,0,0-1.39,1.43,1.67,1.67,0,0,1,1.22-.44A1.57,1.57,0,0,1,288.31,231.26Zm-1.11.06a.74.74,0,0,0-.83-.74.78.78,0,0,0-.86.74c0,.42.32.73.87.73A.74.74,0,0,0,287.2,231.32Z" style="fill:#fff"></path><path d="M290.6,226.9h1l-2.32,6.62h-1Z" style="fill:#fff"></path><path d="M295.22,231.89v.93H291.5v-.74l1.9-1.79c.43-.42.51-.67.51-.91s-.27-.61-.79-.61a1.21,1.21,0,0,0-1,.49l-.83-.53a2.28,2.28,0,0,1,2-.92c1.1,0,1.83.56,1.83,1.46a2,2,0,0,1-.82,1.55l-1.14,1.07Z" style="fill:#fff"></path><path d="M300.12,231.79h-.8v1h-1.11v-1h-2.65V231l2.32-3.12h1.2l-2.16,3h1.33v-.92h1.07v.92h.8Z" style="fill:#fff"></path><g style="opacity:0.2"><path d="M279.5,189.19a7.7,7.7,0,0,0-8.1-5.62,9.67,9.67,0,0,0-3.28.78c-2.57,1.14-4.35,4.17-3.5,6.84.69,2.19,2.82,3.58,4.92,4.5s4.78,1.58,6.95.56a6,6,0,0,0,3.2-5.7A6.86,6.86,0,0,0,279.5,189.19Z" style="fill:#fff"></path></g><g style="opacity:0.2"><path d="M309.89,167.26h-116a4.12,4.12,0,0,0-4.12,4.12V192.2c7.34,5.11,17.4,6,26.34,4.14,10.53-2.2,20.07-7.59,29.88-12s20.59-8,31.19-6.14c10,1.71,18.54,8,27.59,12.56A53.74,53.74,0,0,0,314,194.5V171.38A4.11,4.11,0,0,0,309.89,167.26Z" style="fill:#fff"></path></g><path d="M236.41,290.15v1.91H234.7V290.2a8.1,8.1,0,0,1-4.24-1.36l.94-2.08a6.9,6.9,0,0,0,3.3,1.21v-2.84c-1.89-.46-4-1.09-4-3.53,0-1.8,1.31-3.35,4-3.66v-1.89h1.71v1.86a7.68,7.68,0,0,1,3.45,1L239,281a7.19,7.19,0,0,0-2.6-.89v2.9c1.89.44,4,1.07,4,3.47C240.38,288.29,239.08,289.83,236.41,290.15Zm-1.71-7.53V280.2c-.9.21-1.26.7-1.26,1.26S234,282.38,234.7,282.62Zm2.93,4.11c0-.6-.49-.92-1.22-1.18v2.35C237.26,287.71,237.63,287.27,237.63,286.73Z" style="fill:#263238"></path><path d="M247.27,290.15v1.91h-1.7V290.2a8,8,0,0,1-4.24-1.36l.93-2.08a6.9,6.9,0,0,0,3.31,1.21v-2.84c-1.89-.46-4-1.09-4-3.53,0-1.8,1.31-3.35,4-3.66v-1.89h1.7v1.86a7.76,7.76,0,0,1,3.46,1l-.85,2.1a7.23,7.23,0,0,0-2.61-.89v2.9c1.89.44,4,1.07,4,3.47C251.24,288.29,249.94,289.83,247.27,290.15Zm-1.7-7.53V280.2c-.91.21-1.26.7-1.26,1.26S244.82,282.38,245.57,282.62Zm2.93,4.11c0-.6-.5-.92-1.23-1.18v2.35C248.12,287.71,248.5,287.27,248.5,286.73Z" style="fill:#263238"></path><path d="M258.13,290.15v1.91h-1.7V290.2a8.07,8.07,0,0,1-4.24-1.36l.94-2.08a6.86,6.86,0,0,0,3.3,1.21v-2.84c-1.89-.46-4-1.09-4-3.53,0-1.8,1.31-3.35,4-3.66v-1.89h1.7v1.86a7.76,7.76,0,0,1,3.46,1l-.85,2.1a7.23,7.23,0,0,0-2.61-.89v2.9c1.89.44,4,1.07,4,3.47C262.1,288.29,260.81,289.83,258.13,290.15Zm-1.7-7.53V280.2c-.9.21-1.26.7-1.26,1.26S255.68,282.38,256.43,282.62Zm2.93,4.11c0-.6-.49-.92-1.23-1.18v2.35C259,287.71,259.36,287.27,259.36,286.73Z" style="fill:#263238"></path><path d="M269,290.15v1.91h-1.71V290.2a8.1,8.1,0,0,1-4.24-1.36l.94-2.08a6.9,6.9,0,0,0,3.3,1.21v-2.84c-1.89-.46-4-1.09-4-3.53,0-1.8,1.31-3.35,4-3.66v-1.89H269v1.86a7.72,7.72,0,0,1,3.45,1l-.85,2.1a7.19,7.19,0,0,0-2.6-.89v2.9c1.89.44,4,1.07,4,3.47C273,288.29,271.67,289.83,269,290.15Zm-1.71-7.53V280.2c-.9.21-1.26.7-1.26,1.26S266.54,282.38,267.29,282.62Zm2.93,4.11c0-.6-.49-.92-1.22-1.18v2.35C269.85,287.71,270.22,287.27,270.22,286.73Z" style="fill:#263238"></path><path d="M213.25,306.18l.75-1.64a5.52,5.52,0,0,0,3.11,1c1.3,0,1.82-.43,1.82-1,0-1.77-5.49-.55-5.49-4.06,0-1.61,1.3-2.94,4-2.94a6.37,6.37,0,0,1,3.28.83L220,300a5.33,5.33,0,0,0-2.62-.74c-1.29,0-1.79.49-1.79,1.08,0,1.74,5.49.54,5.49,4,0,1.58-1.31,2.93-4,2.93A6.73,6.73,0,0,1,213.25,306.18Z" style="fill:#263238"></path><path d="M229.77,299.86v7.25h-2v-.86a2.94,2.94,0,0,1-2.25,1c-1.82,0-3.1-1-3.1-3.26v-4.1h2.1v3.79c0,1.21.54,1.75,1.47,1.75s1.67-.62,1.67-2v-3.58Z" style="fill:#263238"></path><path d="M231.18,303.48a3.75,3.75,0,0,1,4-3.73,3.32,3.32,0,0,1,3.25,1.85l-1.63.87a1.8,1.8,0,0,0-1.63-1,2,2,0,0,0,0,4,1.78,1.78,0,0,0,1.63-1l1.63.89a3.35,3.35,0,0,1-3.25,1.83A3.76,3.76,0,0,1,231.18,303.48Z" style="fill:#263238"></path><path d="M239.06,303.48a3.75,3.75,0,0,1,4.05-3.73,3.32,3.32,0,0,1,3.25,1.85l-1.63.87a1.8,1.8,0,0,0-1.63-1,2,2,0,0,0,0,4,1.78,1.78,0,0,0,1.63-1l1.63.89a3.35,3.35,0,0,1-3.25,1.83A3.76,3.76,0,0,1,239.06,303.48Z" style="fill:#263238"></path><path d="M254.55,304.08h-5.49a1.93,1.93,0,0,0,2.08,1.45,2.43,2.43,0,0,0,1.82-.7l1.12,1.22a3.81,3.81,0,0,1-3,1.17c-2.51,0-4.15-1.58-4.15-3.74a3.69,3.69,0,0,1,3.88-3.73,3.59,3.59,0,0,1,3.77,3.76C254.59,303.67,254.57,303.9,254.55,304.08ZM249,302.85h3.58a1.82,1.82,0,0,0-3.58,0Z" style="fill:#263238"></path><path d="M255.29,306.44l.71-1.51a4.92,4.92,0,0,0,2.52.7c1,0,1.33-.26,1.33-.66,0-1.19-4.38,0-4.38-2.88,0-1.37,1.24-2.34,3.36-2.34a6,6,0,0,1,2.79.63l-.7,1.5a4.13,4.13,0,0,0-2.09-.54c-.95,0-1.35.3-1.35.67,0,1.25,4.38,0,4.38,2.9,0,1.35-1.25,2.31-3.42,2.31A6.32,6.32,0,0,1,255.29,306.44Z" style="fill:#263238"></path><path d="M262.46,306.44l.7-1.51a5,5,0,0,0,2.52.7c1,0,1.34-.26,1.34-.66,0-1.19-4.39,0-4.39-2.88,0-1.37,1.25-2.34,3.36-2.34a6.06,6.06,0,0,1,2.8.63l-.71,1.5a4.1,4.1,0,0,0-2.09-.54c-.94,0-1.35.3-1.35.67,0,1.25,4.39,0,4.39,2.9,0,1.35-1.26,2.31-3.43,2.31A6.25,6.25,0,0,1,262.46,306.44Z" style="fill:#263238"></path><path d="M272.63,300h1.86v1.62h-1.81v5.47h-2.1v-5.47h-1.12V300h1.12v-.33a2.53,2.53,0,0,1,2.81-2.69,3,3,0,0,1,1.6.39l-.55,1.52a1.49,1.49,0,0,0-.85-.25c-.62,0-1,.33-1,1Z" style="fill:#263238"></path><path d="M282.86,299.86v7.25h-2v-.86a2.94,2.94,0,0,1-2.25,1c-1.82,0-3.11-1-3.11-3.26v-4.1h2.11v3.79c0,1.21.54,1.75,1.47,1.75s1.67-.62,1.67-2v-3.58Z" style="fill:#263238"></path><path d="M284.81,297.1h2.11v10h-2.11Z" style="fill:#263238"></path><path d="M233.13,319.08a2,2,0,0,1-1.25.4,1.65,1.65,0,0,1-1.83-1.8v-3.16h-1v-.85h1v-1.26h1v1.26h1.64v.85H231.1v3.12a.84.84,0,0,0,.9,1,1.34,1.34,0,0,0,.81-.27Z" style="fill:#263238"></path><path d="M237.48,313.61v1h-.24a1.71,1.71,0,0,0-1.81,1.94v2.86h-1v-5.74h1v1A2.19,2.19,0,0,1,237.48,313.61Z" style="fill:#263238"></path><path d="M243.3,315.94v3.47h-1v-.75a2.11,2.11,0,0,1-1.88.82c-1.3,0-2.13-.69-2.13-1.69s.6-1.68,2.31-1.68h1.65v-.21c0-.88-.51-1.39-1.54-1.39a2.9,2.9,0,0,0-1.82.62l-.44-.78a3.84,3.84,0,0,1,2.38-.74C242.41,313.61,243.3,314.37,243.3,315.94Zm-1,1.72v-.8h-1.61c-1,0-1.32.4-1.32.88s.48.94,1.27.94A1.67,1.67,0,0,0,242.26,317.66Z" style="fill:#263238"></path><path d="M250.68,316.11v3.3h-1v-3.18c0-1.13-.56-1.68-1.55-1.68a1.7,1.7,0,0,0-1.82,1.9v3h-1v-5.74h1v.86a2.51,2.51,0,0,1,2.08-.92A2.23,2.23,0,0,1,250.68,316.11Z" style="fill:#263238"></path><path d="M251.88,318.81l.43-.83a3.68,3.68,0,0,0,2,.6c1,0,1.37-.29,1.37-.78,0-1.29-3.63-.18-3.63-2.46,0-1,.92-1.73,2.39-1.73a4.2,4.2,0,0,1,2.09.52l-.44.83a3,3,0,0,0-1.66-.46c-.91,0-1.35.34-1.35.79,0,1.36,3.64.25,3.64,2.49,0,1-1,1.7-2.48,1.7A4.16,4.16,0,0,1,251.88,318.81Z" style="fill:#263238"></path><path d="M259.21,313.17v.5h1.67v.85h-1.65v4.89h-1v-4.89h-1v-.85h1v-.51a1.73,1.73,0,0,1,1.9-1.86,2,2,0,0,1,1.17.34l-.32.79a1.35,1.35,0,0,0-.8-.27C259.52,312.16,259.21,312.51,259.21,313.17Z" style="fill:#263238"></path><path d="M267,316.89h-4.66a1.94,1.94,0,0,0,2.08,1.68,2.15,2.15,0,0,0,1.66-.7l.57.68a3.14,3.14,0,0,1-5.36-2,2.82,2.82,0,0,1,2.89-2.93,2.77,2.77,0,0,1,2.84,3C267,316.66,267,316.79,267,316.89Zm-4.66-.75H266a1.85,1.85,0,0,0-3.68,0Z" style="fill:#263238"></path><path d="M271.5,313.61v1h-.24a1.71,1.71,0,0,0-1.81,1.94v2.86h-1v-5.74h1v1A2.18,2.18,0,0,1,271.5,313.61Z" style="fill:#263238"></path><rect x="201.55" y="352.82" width="100.33" height="33" rx="15.6" style="fill:#3E54AC"></rect><path d="M238,365.53h2.76a3.28,3.28,0,1,1,0,6.54H238Zm2.7,5.73a2.47,2.47,0,1,0,0-4.92h-1.77v4.92Z" style="fill:#fff"></path><path d="M245.18,368.8a3.48,3.48,0,1,1,3.48,3.34A3.32,3.32,0,0,1,245.18,368.8Zm6,0a2.55,2.55,0,1,0-2.54,2.51A2.46,2.46,0,0,0,251.2,368.8Z" style="fill:#fff"></path><path d="M259.18,365.53v6.54h-.77l-3.92-4.88v4.88h-.94v-6.54h.77l3.92,4.88v-4.88Z" style="fill:#fff"></path><path d="M265.88,371.26v.81h-4.74v-6.54h4.61v.81h-3.68v2h3.28v.79h-3.28v2.12Z" style="fill:#fff"></path></g></svg>