<svg xmlns="http://www.w3.org/2000/svg" viewBox="0 0 500 500"><g id="freepik--Shadow--inject-71"><ellipse cx="254.15" cy="334.35" rx="13.02" ry="191.06" transform="translate(-87.02 579.26) rotate(-88.43)" style="fill:#263238"></ellipse></g><g id="freepik--Car--inject-71"><path d="M71.79,301.34,112.25,305s-4-39.58-11.31-48.62S77.76,245.6,70.41,260.3,71.79,301.34,71.79,301.34Z" style="fill:#263238"></path><path d="M112.8,305.52,71.42,301.8l-.11-.31C71,300.41,62.6,274.8,70,260.08c3.23-6.46,8.43-10.39,14.64-11.08a19.16,19.16,0,0,1,16.73,7c7.36,9.06,11.25,47.27,11.41,48.89Zm-40.64-4.65,39.53,3.55c-.54-5-4.46-39.54-11.14-47.76A18.13,18.13,0,0,0,84.71,250c-5.86.64-10.78,4.38-13.86,10.53C64.11,274,71.22,297.87,72.16,300.87Z" style="fill:#263238"></path><path d="M106,265.63H87.72v63.05H106c7.32,0,13.25-14.11,13.25-31.52S113.35,265.63,106,265.63Z" style="fill:#263238"></path><path d="M106,329.18H87.22V265.13H106c7.71,0,13.75,14.07,13.75,32S113.74,329.18,106,329.18Zm-17.81-1H106c7,0,12.75-13.92,12.75-31s-5.72-31-12.75-31H88.22Z" style="fill:#263238"></path><ellipse cx="87.72" cy="297.16" rx="13.25" ry="31.53" style="fill:#878787"></ellipse><path d="M87.72,329.18c-7.72,0-13.76-14.07-13.76-32s6-32,13.76-32,13.75,14.07,13.75,32S95.43,329.18,87.72,329.18Zm0-63.05c-7,0-12.76,13.92-12.76,31s5.72,31,12.76,31,12.75-13.92,12.75-31S94.75,266.13,87.72,266.13Z" style="fill:#263238"></path><ellipse cx="87.72" cy="298.45" rx="11.16" ry="25.46" style="fill:#fff"></ellipse><path d="M87.72,324.41c-6.54,0-11.67-11.4-11.67-26s5.13-26,11.67-26,11.66,11.4,11.66,26S94.26,324.41,87.72,324.41Zm0-50.92c-5.88,0-10.67,11.2-10.67,25s4.79,25,10.67,25,10.66-11.2,10.66-25S93.59,273.49,87.72,273.49Z" style="fill:#263238"></path><path d="M247.13,257.35H226.27c-8.34,0-15.1,14.94-15.1,33.37s6.76,33.36,15.1,33.36h20.86c8.35,0,15.11-14.94,15.11-33.36S255.48,257.35,247.13,257.35Z" style="fill:#263238"></path><path d="M247.13,324.58H226.27c-8.6,0-15.6-15.19-15.6-33.86s7-33.87,15.6-33.87h20.86c8.61,0,15.61,15.19,15.61,33.87S255.74,324.58,247.13,324.58Zm-20.86-66.73c-8.05,0-14.6,14.75-14.6,32.87s6.55,32.86,14.6,32.86h20.86c8.06,0,14.61-14.74,14.61-32.86s-6.55-32.87-14.61-32.87Z" style="fill:#263238"></path><path d="M268.15,267.72h-25V342h25c10,0,18.1-16.62,18.1-37.12S278.15,267.72,268.15,267.72Z" style="fill:#263238"></path><path d="M268.15,342.47h-25.5V267.22h25.5c10.26,0,18.6,16.88,18.6,37.63S278.41,342.47,268.15,342.47Zm-24.5-1h24.5c9.71,0,17.6-16.43,17.6-36.62s-7.89-36.63-17.6-36.63h-24.5Z" style="fill:#263238"></path><ellipse cx="243.15" cy="304.85" rx="18.1" ry="37.12" style="fill:#878787"></ellipse><path d="M243.15,342.47c-10.26,0-18.6-16.88-18.6-37.62s8.34-37.63,18.6-37.63,18.6,16.88,18.6,37.63S253.4,342.47,243.15,342.47Zm0-74.25c-9.71,0-17.6,16.43-17.6,36.63s7.89,36.62,17.6,36.62,17.6-16.43,17.6-36.62S252.85,268.22,243.15,268.22Z" style="fill:#263238"></path><ellipse cx="243.15" cy="306.37" rx="15.24" ry="29.98" style="fill:#fff"></ellipse><path d="M243.15,336.85c-8.68,0-15.74-13.67-15.74-30.48s7.06-30.48,15.74-30.48,15.74,13.68,15.74,30.48S251.83,336.85,243.15,336.85Zm0-60c-8.13,0-14.74,13.23-14.74,29.48s6.61,29.48,14.74,29.48,14.74-13.22,14.74-29.48S251.28,276.89,243.15,276.89Z" style="fill:#263238"></path><path d="M409.88,260.2h-25c-10,0-18.1,16.62-18.1,37.12s8.1,37.13,18.1,37.13h25c10,0,18.1-16.63,18.1-37.13S419.87,260.2,409.88,260.2Z" style="fill:#263238"></path><path d="M409.88,335h-25c-10.25,0-18.6-16.88-18.6-37.63s8.35-37.62,18.6-37.62h25c10.25,0,18.6,16.88,18.6,37.62S420.13,335,409.88,335Zm-25-74.25c-9.7,0-17.6,16.43-17.6,36.62s7.9,36.63,17.6,36.63h25c9.7,0,17.6-16.43,17.6-36.63s-7.9-36.62-17.6-36.62Z" style="fill:#263238"></path><path d="M164.53,175.3A89.67,89.67,0,0,0,152,177.57a170.07,170.07,0,0,0-26,8.88c-16.31,7.28-36.12,22.08-42.14,24.83s-15.3,3.27-16.31,7.28a107,107,0,0,0-1.75,11s-4,3.51-4.52,13.29-1.25,42.39-.5,46.66.5,5.26,4.27,7.27,6,4.52,6.77,4.52S67.52,270.23,75.55,263s20.07-5.52,25.08,11,3.26,34.37,5.27,35.37a14.94,14.94,0,0,0,4.52,1.26l111.12,9s-5.27-23.83.75-39.64,17.56-23.83,28.34-19.81,18.57,22.57,20.82,34.61,3,18.06,2.51,22.33-.5,6.27,2.76,6.52,146-4.26,157.28-5.52,18.81-2.76,19.56-5.77.75-1.25.75-3-1.25-31.6-2-35.87-1.26-7.27-3-9.78a89.89,89.89,0,0,0-6-7s.75-5.52-2.51-9.28-51.67-22.58-51.67-22.58-34.37-22.58-47.16-30.1-33.11-15-53.43-18.31-53.43-4.52-72.49-4.77C201.4,171.46,175.71,174.07,164.53,175.3Z" style="fill:#3E54AC"></path><path d="M277.45,324.17h-.77A3.63,3.63,0,0,1,274,323c-1-1.19-.84-3.12-.51-5.94.48-4.05-.15-9.65-2.5-22.17-2.07-11.06-9.47-30.14-20.5-34.24-10.45-3.89-21.84,4.14-27.7,19.52S222,319.3,222,319.54l.14.66-111.79-9.09a15.28,15.28,0,0,1-4.7-1.3c-1-.52-1.22-2.95-1.57-8.88-.4-6.8-1-17.08-4-26.79-2.37-7.8-6.55-12.89-11.79-14.34-4.18-1.16-8.73.13-12.48,3.53-6,5.45-4.44,25.29-3.77,33.76.32,4,.32,4.29.06,4.57l-.15.16h-.24c-.51,0-1.11-.46-2.19-1.31a32.75,32.75,0,0,0-4.82-3.26c-3.57-1.9-3.77-3.12-4.31-6.36-.06-.39-.13-.81-.21-1.27-.78-4.41,0-37.9.49-46.77s3.78-12.74,4.54-13.5A104.46,104.46,0,0,1,67,218.44c.72-2.88,5-4.06,9.57-5.31a46.82,46.82,0,0,0,7-2.3,127.18,127.18,0,0,0,11.44-7c8.61-5.59,20.41-13.24,30.7-17.83a168.37,168.37,0,0,1,26.07-8.91,91.78,91.78,0,0,1,12.65-2.29l.05.5-.05-.5c10.58-1.16,36.8-3.83,51.55-3.65,21.52.29,53.43,1.7,72.56,4.77,19,3.05,39.51,10.09,53.6,18.38,12.45,7.32,45.72,29.15,47.14,30.08,2.59,1,48.54,18.91,51.82,22.7,3,3.48,2.76,8.29,2.65,9.43a87.57,87.57,0,0,1,5.91,6.91c1.78,2.55,2.31,5.55,3,9.71l.05.28c.76,4.31,2,34.48,2,35.95,0,.94,0,1-.16,1.29a6.35,6.35,0,0,0-.6,1.84c-.84,3.36-8.28,4.85-20,6.15C423,319.86,289.36,324.17,277.45,324.17Zm-32.33-65.48a16.24,16.24,0,0,1,5.69,1c11.41,4.25,19,23.72,21.13,35,2.37,12.64,3,18.31,2.52,22.48-.29,2.48-.44,4.3.28,5.18a2.72,2.72,0,0,0,2,.78h0c2.29,0,144.42-4.1,157.16-5.52,9.05-1,18.4-2.43,19.14-5.39a7.25,7.25,0,0,1,.71-2.11,6.12,6.12,0,0,0,0-.78c0-1.46-1.24-31.49-2-35.78l0-.28c-.72-4-1.23-6.94-2.88-9.3a87.92,87.92,0,0,0-6-7l-.16-.17,0-.24c0-.05.68-5.35-2.39-8.89-2.51-2.9-34.77-15.94-51.47-22.43l-.1-.05c-.34-.23-34.5-22.66-47.14-30.09-14-8.23-34.39-15.22-53.25-18.25-19.07-3.06-50.93-4.47-72.42-4.76-14.71-.19-40.86,2.49-51.42,3.65a89.76,89.76,0,0,0-12.51,2.26,167.26,167.26,0,0,0-25.91,8.85c-10.22,4.56-22,12.19-30.57,17.76A127.8,127.8,0,0,1,84,211.74a48.44,48.44,0,0,1-7.16,2.36c-4.27,1.17-8.29,2.27-8.87,4.58a109.24,109.24,0,0,0-1.75,11l0,.19-.14.13s-3.87,3.53-4.35,12.95c-.52,10.13-1.24,42.39-.51,46.54.08.46.15.89.22,1.28.53,3.2.65,4,3.79,5.64a33,33,0,0,1,5,3.35c.4.31.83.65,1.15.87,0-.73-.12-2.06-.23-3.43-.75-9.35-2.29-28.8,4.08-34.58,4-3.64,8.91-5,13.43-3.76,5.58,1.55,10,6.88,12.47,15,3,9.83,3.59,20.18,4,27,.23,3.77.46,7.67,1,8a14.66,14.66,0,0,0,4.34,1.2l110.44,9c-.78-4-4.53-25,.91-39.25C226.85,266.63,235.9,258.69,245.12,258.69Z" style="fill:#263238"></path><polygon points="354.73 256.69 362 262.46 298.8 257.44 276.22 238.63 274.46 231.6 320.12 247.66 354.73 256.69" style="fill:#263238"></polygon><path d="M363.6,263.08l-65-5.16-.13-.1-22.7-18.91-2-8.09,46.53,16.36L355,256.23ZM299,257l61.42,4.88-5.91-4.69-34.51-9-44.82-15.76,1.49,6Z" style="fill:#263238"></path><path d="M327.06,259.68l5.6-3H353s-22.33-1.76-23.83-1.76-6.53,2-8.53,2.51-9.53.5-12.8-1.26-6.77-9-6.77-9l30.17,3.4-11.1-2.89L282.2,234.32c-3.22,1.42-3.66,5.48-3.72,6.19l.24.2,16.81,5.44L305.78,258Z" style="fill:#fff"></path><path d="M327.17,260.19l-21.63-1.71-10.29-11.9L278.4,241.1l-.43-.37,0-.25c.06-.84.55-5.09,4-6.62l.18-.08,38.11,13.4,11.07,2.89-.18,1-29.25-3.29c1,1.92,3.69,6.67,6.14,8,3.11,1.68,10.42,1.72,12.44,1.21.72-.18,1.89-.57,3.12-1a26.14,26.14,0,0,1,5.53-1.53c1.5,0,23,1.69,23.86,1.76l0,1H332.78ZM306,257.51,327,259.17l5.57-3H340c-5.22-.4-10.18-.76-10.85-.76a27.82,27.82,0,0,0-5.21,1.48c-1.25.42-2.43.82-3.2,1-2.19.55-9.79.51-13.15-1.3s-6.84-9-7-9.25l-.39-.81,24.13,2.72L320,248.14l-37.77-13.28c-2.51,1.24-3.09,4.32-3.21,5.42l16.81,5.44Z" style="fill:#263238"></path><rect x="418.23" y="256.34" width="5.23" height="1" transform="translate(-14.78 25.96) rotate(-3.47)" style="fill:#263238"></rect><path d="M369.55,258.7l-10.85-1,.09-1,10.73,1c1.22-.19,19.93-3,29.15-2.25,7.12.56,12.84,1,15.28,1.16l-.07,1c-2.44-.17-8.17-.59-15.29-1.16-9.38-.73-28.79,2.23-29,2.26Z" style="fill:#263238"></path><path d="M440.77,247.41c-.9-1-5.2-3.21-11-5.81l-.82.29s4.51,3.26,3.51,6.52-7,7-7,7l.25,5.52s14.55-1,17.56-4.26C443.28,256.69,444,251.17,440.77,247.41Z" style="fill:#fff"></path><path d="M425.24,261.48l-.29-6.32.25-.15c.06,0,5.88-3.7,6.81-6.75.89-2.88-3.28-5.94-3.32-6l-.78-.56,1.92-.67.18.09c6.62,3,10.27,4.92,11.14,5.93h0c3.37,3.89,2.65,9.44,2.62,9.67l0,.16-.11.12c-3.1,3.36-17.29,4.38-17.89,4.42Zm.74-5.78.21,4.71c2.55-.21,13.86-1.29,16.61-4,.08-.91.36-5.53-2.41-8.73-.51-.58-2.67-2-10-5.32,1.35,1.27,3.35,3.66,2.59,6.15C432,251.61,427.16,254.93,426,255.7Z" style="fill:#263238"></path><path d="M435.25,256.69c-1.51-1.51-8.28-.76-8.28-.76s3.26-.75,5-1.25,2-1,2.76-4.52a4.53,4.53,0,0,0-2-5l-3.48-3.36-.28.1s4.51,3.26,3.51,6.52-7,7-7,7l.25,5.52a86.35,86.35,0,0,0,10.94-1.54A5.28,5.28,0,0,0,435.25,256.69Z" style="fill:#263238"></path><path d="M425.24,261.48l-.29-6.32.25-.15c.06,0,5.88-3.7,6.81-6.75.89-2.88-3.28-5.94-3.32-6l-.78-.56,1.48-.52,3.66,3.54a5.09,5.09,0,0,1,2.19,5.52c-.77,3.56-1.09,4.31-3.11,4.89l-.4.11c1.61.09,3.17.37,3.87,1.06h0a5.8,5.8,0,0,1,1.55,3l.09.48-.47.11a85.74,85.74,0,0,1-11,1.55Zm.74-5.78.21,4.71a84.54,84.54,0,0,0,9.86-1.38,4.62,4.62,0,0,0-1.15-2h0c-1-1-5.35-.89-7.87-.61l-.17-1s3.27-.76,5-1.25c1.44-.41,1.65-.6,2.41-4.14a4.08,4.08,0,0,0-1.44-4.25,4.17,4.17,0,0,1,.15,2.75C432,251.61,427.16,254.93,426,255.7Z" style="fill:#263238"></path><path d="M444,267.72s-36.37,5.27-99.58,1.51c0,0,4.51,5.77,15.8,8s45.15,1.76,62.46,0,17.81-3,19.81-5A5.33,5.33,0,0,0,444,267.72Z" style="fill:#263238"></path><path d="M386.77,279.26c-11.06,0-21.26-.44-26.62-1.51-11.34-2.27-15.91-8-16.1-8.21l-.68-.88,1.11.07c62.42,3.71,99.11-1.45,99.48-1.5l.47-.07.09.46a5.8,5.8,0,0,1-1.64,5l-.26.26c-1.9,1.93-3.15,3.21-19.86,4.9C413.91,278.65,399.75,279.26,386.77,279.26Zm-41.09-9.46c1.76,1.68,6.36,5.3,14.67,7,10.78,2.16,44.24,1.83,62.31,0,16.35-1.66,17.5-2.83,19.24-4.61l.27-.27a4.81,4.81,0,0,0,1.41-3.59C438.94,268.89,403.45,273.15,345.68,269.8Z" style="fill:#263238"></path><path d="M452.06,309.36a455.62,455.62,0,0,1-53.93,4.52c-27.85.5-60.46-2.51-65.72-.5s-10.79,5.76-13.05,6.52-12.79,1.25-12.79,1.25,21.82-18.31,30.6-21.07,20.32-3,23.58-3S436,294.81,440,294.56s8,2,9.28,4.52S452.06,309.36,452.06,309.36Z" style="fill:#263238"></path><path d="M305.11,321.72l1.14-1c.89-.75,22-18.41,30.77-21.17,9.19-2.88,21.38-3,23.73-3,3.66,0,75.49-2.27,79.23-2.51,4.42-.27,8.5,2.27,9.76,4.79s2.74,10.1,2.81,10.42l.1.51-.52.08a462.12,462.12,0,0,1-54,4.52c-12.63.22-26-.26-37.85-.69-13.92-.51-24.91-.91-27.7.15a69.75,69.75,0,0,0-8.61,4.27,32,32,0,0,1-4.45,2.26c-2.3.77-12.49,1.26-12.93,1.28ZM440.63,295l-.58,0c-3.75.24-75.64,2.51-79.3,2.51-2.33,0-14.38.14-23.43,3-7.43,2.33-24.63,16.21-29.26,20,3-.17,9.48-.59,11.15-1.15a33.29,33.29,0,0,0,4.28-2.18,69.08,69.08,0,0,1,8.74-4.33c3-1.14,14-.73,28.08-.22,11.81.43,25.2.91,37.81.69A464,464,0,0,0,451.46,309c-.36-1.77-1.58-7.6-2.61-9.65S444.3,295,440.63,295Z" style="fill:#263238"></path><path d="M312.59,270.48s-13.8,42.39-15.55,41.89-3.51-2.51-3.51-3.51,3.26-29.1,6-34.36S312.59,270.48,312.59,270.48Z" style="fill:#263238"></path><path d="M297.13,312.89a.85.85,0,0,1-.23,0c-2-.56-3.87-2.76-3.87-4s3.26-29.23,6.07-34.6,13.12-4.33,13.55-4.27l.6.07-.18.58c0,.1-3.5,10.72-7.12,21.14C299.19,311.17,297.86,312.89,297.13,312.89Zm12.87-42c-3.14,0-8.26.53-10,3.87-2.63,5-6,33-6,34.13,0,.66,1.38,2.43,3,3,1.78-1.92,9.95-25.69,14.92-40.92C311.47,270.89,310.8,270.86,310,270.86Z" style="fill:#263238"></path><path d="M267.21,264.85l-.35-.94c.61-.22,1.25-.45,1.93-.67,4.49-1.5,26.21-6.34,27.14-6.54l.21,1c-.22.05-22.6,5-27,6.5C268.44,264.41,267.8,264.63,267.21,264.85Z" style="fill:#263238"></path><path d="M261.64,267.17l-.44-.9s.84-.42,2.24-1l.39.92C262.46,266.76,261.65,267.16,261.64,267.17Z" style="fill:#263238"></path><path d="M259.91,224.08s-9-.76-13-3.77-37.62-39.88-37.62-39.88,87.29,1.76,97.57,2.26,10.29,2.51,22.07,6.77,49.17,30.35,49.17,30.35l7.27,5s-17.56.5-60.2-.5S259.91,224.08,259.91,224.08Z" style="fill:#878787"></path><path d="M371.22,225.45c-9.75,0-24.84-.12-46.1-.62-42.14-1-65-.26-65.19-.25h-.06c-.37,0-9.22-.8-13.3-3.87s-36.32-38.43-37.69-39.94l-.79-.86,1.17,0c.87,0,87.41,1.76,97.59,2.26,7,.34,9.35,1.39,13.64,3.31,2.1.93,4.7,2.09,8.57,3.49,11.72,4.24,47.76,29.35,49.28,30.41l8.54,5.89-1.53,0C385.26,225.33,380.82,225.45,371.22,225.45Zm-87.38-2.14c10.49,0,24.33.12,41.3.52,35.22.83,53.49.63,58.63.53l-6-4.13c-.37-.27-37.45-26.11-49-30.3-3.9-1.41-6.53-2.58-8.64-3.52-4.32-1.92-6.48-2.89-13.28-3.22-9.52-.46-86-2-96.4-2.23,5.09,5.56,33.18,36.26,36.77,39,3.74,2.8,12.21,3.61,12.76,3.66S268.69,223.31,283.84,223.31Z" style="fill:#263238"></path><path d="M226.3,235.62s5.27-6.27,5-10.54S213,195.23,203.73,187.71s-21.32-10.54-28.1-10.54-26.84,3.76-39.38,8.53S107.41,198,107.41,198L87.59,211s24.33,7.28,69.23,14.05S226.3,235.62,226.3,235.62Z" style="fill:#878787"></path><path d="M226.51,236.15l-.28,0c-.25,0-25.1-3.84-69.48-10.53s-69.06-14-69.3-14.07l-1-.3,20.71-13.64c.23-.11,16.53-7.62,28.94-12.34,12.86-4.88,32.87-8.56,39.56-8.56C183,176.67,195,180,204,187.32c9.23,7.48,27.51,33.09,27.78,37.73.26,4.41-4.91,10.63-5.13,10.89ZM88.77,210.85c5.11,1.44,28.88,7.82,68.13,13.74,41.84,6.31,66.32,10,69.2,10.49.9-1.13,4.93-6.38,4.72-10-.23-4-17.94-29.34-27.41-37-8.83-7.16-20.59-10.42-27.78-10.42-6.62,0-26.44,3.65-39.2,8.5-12.38,4.7-28.65,12.2-28.81,12.27Z" style="fill:#263238"></path><path d="M203.73,187.71c-9.28-7.53-21.32-10.54-28.1-10.54s-26.84,3.76-39.38,8.53S107.41,198,107.41,198L87.59,211s6.56,2,19.12,4.79l11-19.59,9.28-4.76-9.88,26.58,2.08.43,9.56-27c8.53-4.52,33.11-10.54,33.11-10.54-7.28,9.85-12.91,35.4-14.41,42.68,3,.49,6.15,1,9.39,1.47l.51.08c.37-22.24,11-45,11-45s10-1,22.83,3.51A47.51,47.51,0,0,1,211,197l-6.54,35.3,2.65.4L212.76,200l7.77,9.78-3.89,24.36,9.66,1.48s5.27-6.27,5-10.54S213,195.23,203.73,187.71Z" style="fill:#263238"></path><path d="M226.51,236.15l-10.44-1.59L220,209.92l-6.95-8.74-5.54,32.08-3.65-.55,6.6-35.58a47.78,47.78,0,0,0-19.45-13,59.16,59.16,0,0,0-22.33-3.5c-1.17,2.6-10.52,23.91-10.86,44.51v.57l-1.07-.17c-3.25-.48-6.37-1-9.4-1.47l-.51-.08.1-.51c1.5-7.29,6.79-31.21,13.73-41.77-5.13,1.3-24.15,6.25-31.54,10.08l-9.64,27.23-3.07-.62,9.63-25.93-8,4.11L107,216.39l-.37-.08c-12.43-2.8-19.09-4.78-19.15-4.8l-1-.3,20.71-13.64c.23-.11,16.53-7.62,28.94-12.34,12.86-4.88,32.87-8.56,39.56-8.56C183,176.67,195,180,204,187.32h0c9.23,7.48,27.51,33.09,27.78,37.73.26,4.41-4.91,10.63-5.13,10.89Zm-9.29-2.43,8.88,1.36c.9-1.13,4.93-6.38,4.72-10-.23-4-17.94-29.34-27.41-37-8.83-7.16-20.59-10.42-27.78-10.42-6.62,0-26.44,3.65-39.2,8.5-12.38,4.7-28.65,12.2-28.81,12.27L88.77,210.85c2.29.65,8.3,2.28,17.69,4.4l10.87-19.39,10.56-5.42-10.13,27.24,1.08.22,9.48-26.78.17-.09c8.49-4.5,32.22-10.34,33.23-10.58l1.34-.33-.82,1.11c-7,9.52-12.53,33.89-14.21,42q4.26.69,8.81,1.38c.54-21.91,11-44.38,11.07-44.61l.12-.26.28,0a59.23,59.23,0,0,1,23,3.54,48.58,48.58,0,0,1,20,13.45l.14.18-6.49,35,1.66.25,5.75-33.31,8.61,10.83Z" style="fill:#263238"></path><path d="M223.29,218.06s-4.51-4-6.77-2.26a11.5,11.5,0,0,0-3.26,5l-4.52-.51s-4-10.53-7-10.78-17.31-1-20.57.25-3.76,4-4,5.77-.75,7.27,1.75,8.53,26.09,4,26.09,4l8,3-1.26,2.76,14.55,1.76s4.52-8,5-10.54S223.29,218.06,223.29,218.06Z" style="fill:#263238"></path><path d="M226.57,236.15,211,234.27l1.31-2.89-7.47-2.8c-1.6-.19-23.67-2.8-26.19-4.06-2.87-1.43-2.28-7.28-2-9,.22-1.55.68-4.76,4.33-6.17,3.5-1.34,18.63-.46,20.79-.28,3,.25,6.58,8.88,7.34,10.82l3.82.43a11.47,11.47,0,0,1,3.29-4.87c2.45-1.91,6.84,1.77,7.37,2.23,1.59.85,8.77,4.83,8.23,7.54-.51,2.56-4.89,10.35-5.07,10.68Zm-14.08-2.7L226,235.08c.81-1.46,4.37-8,4.8-10.1.29-1.47-4.37-4.68-7.77-6.48l-.1-.07c-1.17-1-4.55-3.46-6.13-2.24a11.14,11.14,0,0,0-3.09,4.77l-.13.4-5.22-.58-.11-.29c-1.51-4-4.64-10.3-6.6-10.46-3.44-.29-17.28-1-20.35.22s-3.49,3.91-3.7,5.37c-.44,3.13-.32,7.11,1.49,8,2,1,19.39,3.2,25.92,4l.12,0,8.53,3.2Z" style="fill:#263238"></path><path d="M207.24,221.57l1.5-1.26s-4-10.53-7-10.78-17.31-1-20.57.25-3.76,4-4,5.77a20.4,20.4,0,0,0-.13,4.7C184,220.84,206,222.62,207.24,221.57Z" style="fill:#fff"></path><path d="M203.37,222.38c-4.8,0-13.63-.55-26.4-1.63l-.41,0-.05-.41a21.78,21.78,0,0,1,.13-4.82c.22-1.55.68-4.76,4.33-6.17,3.5-1.34,18.63-.46,20.79-.28,3.23.27,7,10,7.45,11.11l.13.33L207.56,222C207.22,222.24,205.82,222.38,203.37,222.38Zm-25.9-2.59c16.82,1.42,28.36,2,29.46,1.38l1.22-1c-1.55-4-4.56-10-6.47-10.13-3.44-.29-17.28-1-20.35.22s-3.49,3.91-3.7,5.37A21.3,21.3,0,0,0,177.47,219.79Z" style="fill:#263238"></path><path d="M215.77,241.13l-1-.27c.82-2.91,1.48-4.88,1.49-4.9l.95.32S216.59,238.25,215.77,241.13Z" style="fill:#263238"></path><path d="M207.74,312.37c-1.87,0-87.55-9.94-88.36-10a8.24,8.24,0,0,1-4.19-1.88l-1-.71c-2.53-1.68-17.51-42.82-19-48.19a22.77,22.77,0,0,1-.63-3.77l1-.1a22.69,22.69,0,0,0,.6,3.6c1.93,6.89,16.54,46.15,18.61,47.63l1,.71a7.44,7.44,0,0,0,3.76,1.72c.8.1,86.47,10,88.23,10,1.42,0,1.8-.24,2.27-2.61.26-1.3.46-13.2.66-24.71.17-10.23.35-20.82.59-25.13a74.49,74.49,0,0,1,2.32-13.47l1,.24a73.58,73.58,0,0,0-2.3,13.28c-.23,4.3-.41,14.87-.58,25.1-.21,12.09-.4,23.5-.68,24.89C210.49,311.48,209.92,312.37,207.74,312.37Z" style="fill:#263238"></path><path d="M94.2,242.93a190.5,190.5,0,0,1,.43-20.48c.25-1,5.06-3.6,9-5.59l.45.89c-3.92,2-8.18,4.36-8.53,5a199.82,199.82,0,0,0-.39,20.16Z" style="fill:#263238"></path><path d="M148,302.59h-1v-1.26c0-.25-.16-2.73-.39-6.16-.26-4-.63-9.42-1-15.28l1-.06c.36,5.86.72,11.32,1,15.27s.39,6,.39,6.23Z" style="fill:#263238"></path><path d="M145.16,271.59c-.77-13.29-1.06-21.61-.88-24.72.5-8.49,4-19.82,4-19.93l1,.3c0,.11-3.5,11.32-4,19.69-.18,3.07.11,11.35.88,24.6Z" style="fill:#263238"></path><path d="M107.36,232.83c-.53,2.72-2.06,4.71-3.42,4.45s-2-2.68-1.5-5.4,2-4.71,3.41-4.45S107.89,230.11,107.36,232.83Z" style="fill:#263238"></path><path d="M104.19,237.8a2,2,0,0,1-.34,0,2.64,2.64,0,0,1-1.85-2.14,8.54,8.54,0,0,1-.06-3.85c.59-3,2.35-5.17,4-4.84s2.49,2.95,1.9,6h0a8.65,8.65,0,0,1-1.49,3.55A2.87,2.87,0,0,1,104.19,237.8Zm1.42-9.89c-.92,0-2.2,1.58-2.68,4.06a7.68,7.68,0,0,0,0,3.39c.23.82.62,1.34,1.08,1.43s1-.25,1.53-.92a7.59,7.59,0,0,0,1.3-3.13c.51-2.62-.18-4.64-1.11-4.82Z" style="fill:#263238"></path><path d="M107.14,230.92l-6-.62A1.9,1.9,0,0,0,99,232.07h0a1.89,1.89,0,0,0,1.66,2l6,.76a2,2,0,0,0,2.21-2h0A2,2,0,0,0,107.14,230.92Z" style="fill:#3E54AC"></path><path d="M106.94,235.35a1.62,1.62,0,0,1-.31,0l-6-.75A2.41,2.41,0,0,1,98.5,232a2.34,2.34,0,0,1,.85-1.67,2.38,2.38,0,0,1,1.79-.56l6,.62a2.47,2.47,0,0,1,1.39,4.31A2.5,2.5,0,0,1,106.94,235.35Zm-6-4.56a1.37,1.37,0,0,0-.9.33,1.39,1.39,0,0,0-.49,1,1.41,1.41,0,0,0,1.22,1.49l6,.75a1.47,1.47,0,1,0,.33-2.92h0l-6-.62Z" style="fill:#263238"></path><path d="M159.58,239.48c-.61,3.29-2.39,5.7-4,5.38s-2.36-3.25-1.75-6.54,2.4-5.7,4-5.38S160.19,236.19,159.58,239.48Z" style="fill:#263238"></path><path d="M155.89,245.39a2.58,2.58,0,0,1-.39,0c-1.87-.38-2.82-3.51-2.14-7.12.45-2.44,1.54-4.49,2.84-5.36a2.25,2.25,0,0,1,1.73-.42c1.87.38,2.82,3.51,2.14,7.12-.45,2.44-1.54,4.49-2.83,5.36A2.46,2.46,0,0,1,155.89,245.39Zm1.65-12a1.46,1.46,0,0,0-.78.28c-1.07.72-2,2.58-2.42,4.72-.6,3.23.24,5.73,1.36,6a1.32,1.32,0,0,0,1-.26c1.06-.72,2-2.57,2.41-4.72.6-3.23-.23-5.73-1.36-6Z" style="fill:#263238"></path><path d="M159.32,237.16l-7-.75a2.25,2.25,0,0,0-2.44,2.14h0a2.28,2.28,0,0,0,1.94,2.44l7,.91a2.32,2.32,0,0,0,2.57-2.36h0A2.35,2.35,0,0,0,159.32,237.16Z" style="fill:#3E54AC"></path><path d="M159.09,242.42l-.35,0-7-.91a2.8,2.8,0,0,1-2.37-3,2.86,2.86,0,0,1,1-2,2.66,2.66,0,0,1,2-.61l7,.75a2.83,2.83,0,0,1,2.5,2.87,2.9,2.9,0,0,1-1,2.19A2.73,2.73,0,0,1,159.09,242.42Zm-7-5.52a1.65,1.65,0,0,0-1.07.4,1.83,1.83,0,0,0,.86,3.19l7,.92a1.72,1.72,0,0,0,1.37-.43,1.9,1.9,0,0,0,.64-1.44,1.84,1.84,0,0,0-1.61-1.88l-7-.75Z" style="fill:#263238"></path><path d="M78.06,219.81c.15-1.68-3.34-3.55-6.08-4.75-2.32.85-4,1.89-4.46,3.5a107,107,0,0,0-1.75,11S77.81,222.57,78.06,219.81Z" style="fill:#263238"></path><path d="M65.17,230.53l.1-1A105.47,105.47,0,0,1,67,218.44c.51-2.05,2.82-3.13,4.77-3.85l.19-.07.18.08c4.44,1.94,6.52,3.66,6.38,5.26h0c-.26,2.87-10.49,9-12.54,10.17ZM72,215.6c-2.39.91-3.65,1.89-3.95,3.08a97.57,97.57,0,0,0-1.63,10c4.57-2.74,11-7.17,11.18-8.88C77.65,218.75,75.57,217.2,72,215.6Z" style="fill:#263238"></path><path d="M313.23,183.42l-46.41,40.51c8.35-.13,24.15-.25,46.95.16l22.08-31.32a55,55,0,0,0-7-3.31C320.23,186.33,317.93,184.41,313.23,183.42Z" style="fill:#fff"></path><path d="M314,224.6h-.26c-22.15-.4-37.74-.31-46.93-.16l-1.37,0,47.63-41.57.25.05a33.23,33.23,0,0,1,7.15,2.57c2.1.93,4.71,2.09,8.57,3.49a55.35,55.35,0,0,1,7,3.34l.5.27Zm-30.24-1.29c8.07,0,18,.07,29.73.28l21.61-30.65a52,52,0,0,0-6.4-3c-3.9-1.41-6.52-2.58-8.63-3.52a34,34,0,0,0-6.72-2.45l-45.19,39.45Q274.3,223.32,283.78,223.31Z" style="fill:#263238"></path><path d="M356.89,224.88l3-17.32c-3.43-2.25-7.07-4.6-10.65-6.84l-10.07,23.9C345.87,224.75,351.75,224.83,356.89,224.88Z" style="fill:#fff"></path><path d="M357.3,225.38h-.42c-5.51-.06-11.46-.14-17.69-.26h-.74l.28-.68c3.29-7.8,6.85-16.26,10.08-23.91L349,200l.5.31c3.3,2.07,6.88,4.38,10.65,6.85l.28.18Zm-17.36-1.24c5.8.1,11.36.18,16.53.23l2.9-16.57c-3.47-2.28-6.79-4.41-9.86-6.35C346.43,208.74,343.07,216.72,339.94,224.14Z" style="fill:#263238"></path></g></svg>