<svg xmlns="http://www.w3.org/2000/svg" viewBox="0 0 500 500"><g id="freepik--Plant--inject-186"><path d="M398.87,295.88A79.43,79.43,0,0,1,400.71,283,28.8,28.8,0,0,1,405.33,272a13.88,13.88,0,0,1,9.06-5.65c3.55-.43,6.88,1.15,9.53,3.39,3.29,2.76,5.81,6.43,8.17,10a120.84,120.84,0,0,1,7.06,12.36.12.12,0,0,1-.21.11,77.94,77.94,0,0,0-6.31-10.33,65.23,65.23,0,0,0-7.27-8.8c-2.44-2.38-5.53-4.6-9.06-4.71a11.13,11.13,0,0,0-8.86,4.56c-2.37,3-3.57,6.81-4.47,10.49a78.61,78.61,0,0,0-1.82,12.31c-.69,8.52-.88,17.09-1.07,25.64q-.16,7.25-.22,14.5l-.06,7.35a45.27,45.27,0,0,1-.28,7.09c-.08.48-.86.43-.94,0a41.86,41.86,0,0,1-.33-6.72q0-3.48-.08-7-.06-6.78-.05-13.55C398.15,314,398.26,304.92,398.87,295.88Z" style="fill:#263238"></path><path d="M411.05,289.46c.45-2.41,1.26-5.55,2.64-7.42,2.46-3.35,5.13-1.89,2.67,1.82a22.28,22.28,0,0,0-3.47,9.16s4.15,5.92,9.15,8.84c-.21-2.28-.85-5.78-.41-9.16,1-7.32,5.39-6.91,4.29-1.09a50.14,50.14,0,0,0-1,11.75,25,25,0,0,0,5.35,2.62c-.29-.84-.59-1.86-.93-3.1-1.77-6.56,2.6-8.6,2.74-4.91a52,52,0,0,0,1.7,9.3c2.4.81,4.39,1.36,5.61,1.79a20.45,20.45,0,0,1,8.2,5.6,25.46,25.46,0,0,0,5.59-7.23c-1.53-1.32-3.94-3.27-7.3-5.64-6.29-4.44-4.1-10.05.89-6.56,3.6,2.51,6.39,7.18,7.66,9.57a39.13,39.13,0,0,0,2.85-13.1c-4.94-4.64-17.16-11.1-13.48-11.1,3.32,0,10.73,4.86,13.45,6.74a32.89,32.89,0,0,0-.42-3.81c-4.65-3-19.77-7.79-17.36-9.16,2.65-1.5,13.2,3.39,16.39,4.93a19.09,19.09,0,0,0-2.8-5.78c-6.43-8.61-18-11.58-23.08-9.94-3.58,1.16-2.53,10.25-3.3,9.94C412.3,267.73,405.76,271.82,411.05,289.46Zm35.24-1c1-1.23,5.74,2.39,4.38,4.38S445,290,446.29,288.46Zm-24.65-7.74c1.24.79-.59,5.37-2.51,4C417.5,283.52,420.39,279.92,421.64,280.72Z" style="fill:#3E54AC"></path><path d="M423.52,282.12c.65-1.28,1.33-2.56,2.07-3.79a21.9,21.9,0,0,1,2.37-3.44c-.2-.26-.4-.51-.61-.76s.06-.24.15-.14c.24.27.47.55.7.83a.19.19,0,0,1,.1.12c.89,1.06,1.73,2.16,2.53,3.28a37.53,37.53,0,0,1,4.17,1.21c1.41.47,2.81,1,4.18,1.54.15.06.07.3-.07.23-1.36-.6-2.73-1.18-4.14-1.65s-2.69-.8-4-1.18c.44.62.87,1.24,1.29,1.88a49.23,49.23,0,0,1,7.38,3c2.5,1.18,4.9,2.56,7.29,3.94.13.08,0,.29-.13.21a81.43,81.43,0,0,0-7.25-3.75c-2.31-1.08-4.7-2-7-3,5.87,9.16,9.4,19.73,14.1,29.52.07.15-.15.26-.21.12-1.44-3.43-3.09-6.78-4.66-10.15-1.4-3-2.77-6.08-4.18-9.12-.41-.88-.84-1.77-1.27-2.65.26,4.89.16,9.87,1,14.71a.12.12,0,1,1-.24,0c-.34-5.23-1.26-10.37-1.23-15.63,0,0,0-.05,0-.07-1-2-2-4-3.2-5.89-1.95,4.58-4,9.23-4.9,14.15,0,.15-.27.08-.23-.08,1.32-4.93,2.55-9.86,4.92-14.42a55.48,55.48,0,0,0-4.13-6c-.66,1.22-1.49,2.37-2.23,3.53s-1.44,2.28-2.11,3.45a49.66,49.66,0,0,0-3.67,7.77c-.06.14-.3.07-.24-.08C421.1,287.28,422.24,284.66,423.52,282.12Z" style="fill:#263238"></path><path d="M377.24,293.27c3.76-3.78,8.14-8.74,14-8.73,5.62,0,9.75,4.53,12.13,9.2,2.48,4.88,3.38,10.41,4.08,15.79a190.76,190.76,0,0,1,1.49,19.41c.1,3.6.09,7.21,0,10.81a71.22,71.22,0,0,1-.83,10.92c-.1.58-1,.6-1.07,0-.17-3-.05-6.08,0-9.12s0-6-.14-9c-.22-6.05-.66-12.09-1.37-18.1-.62-5.25-1.12-10.64-2.69-15.71-1.41-4.58-4.07-9.81-8.71-11.82-6.32-2.74-12.5,2.27-16.65,6.5C377.32,293.53,377.13,293.38,377.24,293.27Z" style="fill:#263238"></path><path d="M358,301.71h0c0,.77.08,1.53.13,2.28a13.66,13.66,0,0,1,6.17-2.56c5.35-.57,5,3.5,1.44,3.67a20.29,20.29,0,0,0-7.34,1.47c.87,7.06,2.81,12.74,3.11,12.81a103.36,103.36,0,0,0,14.13-1.78c-1.33-2.84-4.36-6.6-2.82-6.9s3.23,3,4.09,6.64a66.56,66.56,0,0,0,10.27-2.83c-2.35-2-6-4.57-4.59-5.65s4.27,2.49,6,5.08a20.57,20.57,0,0,0,4.44-2.47c-3.17-4.66-10.89-5.61-9.88-9s8.23,1.3,11.48,7.53c3.81-4,4.92-9.54,4.52-14.32-3.32-.39-9.7.31-9.24-2.07s5.08-1.93,8.85-.54a13.22,13.22,0,0,0-2.21-5.25c-3.5-4.49-14.18,1.22-14.18,1.22s1.14-10.73-2.93-12.59c-2.34-1.06-6.48-1.05-10.64,1.39,2.33.2,5.15.93,6.28,2.55,1.45,2.06-.84,3.19-2.29,2.23-1-.67-2.93-2.79-6.38-3.07a21,21,0,0,0-3.85,4.26c-.4.56-.76,1.14-1.13,1.78a14.66,14.66,0,0,1,12.5.22c4.63,2.3,2,7.11-1.94,5.24s-7.77-3.7-12-2.65a29.82,29.82,0,0,0-2,12,20.72,20.72,0,0,1,6.85-3.29c4.6-1.21,6,1.54.94,2.05A20.26,20.26,0,0,0,358,301.71Zm5.6-7.39c-.32-1.49,2.95-1.92,3.49-.71C367.55,294.64,363.92,295.81,363.61,294.32Zm27.92,8.26c.31-.82,2.49.11,2.29,1.12C393.55,305.06,391.23,303.39,391.53,302.58Zm-15.41,5.23c1.59-.64,4.07,3.32,2.34,4.22S374.82,308.33,376.12,307.81Z" style="fill:#3E54AC"></path><path d="M362.14,318.58c2.4-4,4.77-8,7.29-12,1.17-1.83,2.4-3.63,3.67-5.39l-.57-.13-.95-.19c-.74-.13-1.48-.23-2.23-.31s-1.4-.11-2.1-.12a11.29,11.29,0,0,0-2.25.12c-.09,0-.11-.12,0-.12.75,0,1.52-.06,2.27-.08s1.45,0,2.18.06,1.36.11,2,.21c.38.06.75.12,1.12.2a5.32,5.32,0,0,1,.67.14q2-2.69,4-5.25a47.51,47.51,0,0,0-13.12-4.19c-.08,0-.05-.13,0-.12a44.22,44.22,0,0,1,13.31,4c.77-.94,1.54-1.88,2.32-2.81s1.79-2.06,2.58-3.17c.05-.07.15,0,.09.07a47.78,47.78,0,0,0-3,3.72s0,0,0,0a46,46,0,0,1,4.88,3.92q2.4,2.12,4.67,4.38c0,.05,0,.14-.09.08q-2.24-2.22-4.66-4.25c-1.62-1.34-3.33-2.58-5-3.91,0,0,0,0,0,0-.37.5-.74,1-1.12,1.47l-.56.74,0,.05c-.63.81-1.25,1.63-1.86,2.44a20.23,20.23,0,0,1,1.85,3.35c.54,1.13,1,2.3,1.44,3.47a51.44,51.44,0,0,1,2,7.52c0,.07-.11.11-.12,0a43.81,43.81,0,0,0-2.18-7.36c-.47-1.23-1-2.43-1.55-3.62s-1.1-2.12-1.57-3.22c-.53.71-1.07,1.43-1.6,2.16-.15.21-.29.42-.45.63,0,.05,0,.11-.05.11h0c-1.65,2.3-3.22,4.66-4.74,7a2.16,2.16,0,0,1,.2.52c.1.29.19.58.28.87.17.59.31,1.19.42,1.79s.18,1.13.24,1.71a15.68,15.68,0,0,0,.14,1.94c0,.09-.13.1-.12,0a6.15,6.15,0,0,0-.13-1.81c-.09-.62-.2-1.24-.35-1.85s-.27-1.1-.44-1.64c-.08-.27-.17-.54-.26-.81s-.12-.29-.17-.44c-.71,1.12-1.42,2.24-2.11,3.37-1.38,2.25-2.75,4.5-4.13,6.74C362.25,318.79,362.07,318.69,362.14,318.58Z" style="fill:#263238"></path><path d="M399.12,349.37c.07-2.27.43-4.56.67-6.82l.75-6.81a101.64,101.64,0,0,1,1.75-13.14,19.15,19.15,0,0,1,5.35-9.83,8.76,8.76,0,0,1,5.24-2.5,9.08,9.08,0,0,1,5.57,1.72,19.6,19.6,0,0,1,4.68,4.93,49.4,49.4,0,0,1,3.65,5.93c0,.08-.08.12-.13,0a30.35,30.35,0,0,0-7.89-8.85,9.39,9.39,0,0,0-5-2.07A6.74,6.74,0,0,0,409,313.9c-2.65,2.31-4.18,5.7-5.09,9a90.6,90.6,0,0,0-2,12.14c-.32,2.4-.63,4.81-.94,7.21s-.52,4.85-1,7.21A.4.4,0,0,1,399.12,349.37Z" style="fill:#263238"></path><path d="M410.3,331.72a12.81,12.81,0,0,0,2.47,2.53c-.37-2.22-.82-6.16.3-8.26,1.73-3.26,3.79-1.63,2.76,1.2a23,23,0,0,0-1.68,8,35,35,0,0,0,7.55,3.56,12.57,12.57,0,0,1-.25-3.88c.35-3.49,3-3.42,2.32.2a22,22,0,0,0-.36,4.26A79.21,79.21,0,0,0,435.17,342a34.6,34.6,0,0,0,4.87-8.67c-2.83-.71-8.57-.87-8.45-2.89.16-2.73,5.72-.63,9,1.35a22,22,0,0,0,1-7.34,36.94,36.94,0,0,0-7.82-1.29c-5.84-.51-5.55-3.82-1.32-3.74,3.12.06,7.07,2,8.94,3-1.22-7.94-7.28-13-12.13-13.22C421.05,308.84,424,319,424,319s-5.53-3.89-10.75-3.79S404.72,324,410.3,331.72ZM432.1,317c-.18-1.14,3.47-1.42,3.65,0C436,318.73,432.29,318.2,432.1,317ZM438,329c-.08-.75,1.49-.88,1.85.06C440.06,329.63,438,329.69,438,329Zm-19.61.69c1.23.17,1.93,4.57-.18,4.49C416.56,334.07,417.32,329.5,418.36,329.65Z" style="fill:#3E54AC"></path><path d="M420.07,334.54c.2-.55.38-1.11.55-1.67-.16.57-.3,1.14-.4,1.71C420.2,334.69,420,334.64,420.07,334.54Z" style="fill:#263238"></path><path d="M422.22,327.47c.38-1.13.81-2.25,1.25-3.35.24-.59.48-1.18.74-1.76a7.43,7.43,0,0,1,.72-1.47,12.22,12.22,0,0,1-.66-1.43,0,0,0,0,1,.08,0,17.53,17.53,0,0,1,1.59,2.46c.23.39.44.78.66,1.17a12.76,12.76,0,0,1,1.38.21c.49.09,1,.19,1.46.3l1.45.34c.49.11,1,.27,1.45.35.12,0,.07.19,0,.15a8.82,8.82,0,0,0-1.53-.4c-.47-.1-.93-.18-1.41-.25s-.95-.13-1.43-.18l-1.08-.08c.2.34.4.68.59,1l.09.17a4.68,4.68,0,0,1,1.17.14l1.26.24c.85.19,1.7.39,2.54.63,1.77.49,3.51,1.06,5.25,1.63.1,0,0,.17-.06.14a50.1,50.1,0,0,0-5.27-1.46l-2.51-.56-1.26-.26a8,8,0,0,1-1-.22c.89,1.66,1.74,3.35,2.52,5.07,1.69,3.74,3.12,7.6,4.57,11.44,0,.1-.12.16-.15.07a105.78,105.78,0,0,0-4.86-11.2l-1-2-.09.4-.24,1.37c-.15.91-.31,1.82-.44,2.73a31.1,31.1,0,0,0-.66,5.67c0,.12-.18.11-.16,0a25.43,25.43,0,0,0,.2-2.76c.06-.95.13-1.91.24-2.86s.23-1.83.38-2.74l.24-1.37a2.6,2.6,0,0,1,.26-1l-1.44-2.87c-.45-.9-.91-1.8-1.38-2.69l-.62-1.14a11,11,0,0,1-.54,1.38l-.63,1.54c-.47,1.14-.91,2.29-1.34,3.44-.62,1.64-1.3,3.31-1.81,5C421.24,330.81,421.66,329.11,422.22,327.47Z" style="fill:#263238"></path><path d="M420.62,332.87l.12-.39Z" style="fill:#263238"></path><polygon points="385.47 344.95 386.05 357.1 387.53 388.42 419.84 388.42 421.32 357.1 421.89 344.95 385.47 344.95" style="fill:#37474f"></polygon><polygon points="385.47 344.95 386.05 357.1 421.32 357.1 421.89 344.95 385.47 344.95" style="fill:#263238"></polygon><rect x="383.18" y="340.04" width="41.01" height="9.83" transform="translate(807.36 689.9) rotate(180)" style="fill:#37474f"></rect><rect x="411.55" y="388.42" width="5.67" height="5.14" style="fill:#37474f"></rect><rect x="411.55" y="388.42" width="5.67" height="2.57" style="fill:#263238"></rect><rect x="390.14" y="388.42" width="5.67" height="5.14" style="fill:#37474f"></rect><rect x="390.14" y="388.42" width="5.67" height="2.57" style="fill:#263238"></rect></g><g id="freepik--Floor--inject-186"><polygon points="39.97 393.56 92.48 393.32 144.99 393.23 250 393.07 355.01 393.23 407.52 393.32 460.03 393.56 407.52 393.81 355.01 393.9 250 394.06 144.99 393.9 92.48 393.81 39.97 393.56" style="fill:#263238"></polygon></g><g id="freepik--Device--inject-186"><path d="M331.37,62.42H168.2a16.66,16.66,0,0,0-16.51,16.82V415.13a16.67,16.67,0,0,0,16.51,16.81H331.37a16.68,16.68,0,0,0,16.52-16.81V79.24A16.67,16.67,0,0,0,331.37,62.42Zm6.19,342.32c0,8.84-6.62,16-14.78,16h-146c-8.18,0-14.8-7.16-14.8-16V92c0-18,6.62-18.89,14.8-18.89h29.25c1.7,0,3.09,1.93,3.09,4.32v1c0,5.6,3.07,5.62,6.83,5.62h67.62c3.8,0,6.85,0,6.85-5.62v-1c0-2.39,1.37-4.32,3.1-4.32h29.24c8.16,0,14.78,2.39,14.78,18.89Z" style="fill:#263238"></path><path d="M337.57,92.24V405c0,8.84-6.62,16-14.78,16h-146c-8.18,0-14.8-7.15-14.8-16V92.24c0-18,6.62-18.89,14.8-18.89h29.25c1.7,0,3.09,1.94,3.09,4.33v1c0,5.61,3.07,5.63,6.83,5.63H283.6c3.8,0,6.85,0,6.85-5.63v-1c0-2.39,1.37-4.33,3.1-4.33h29.24C331,73.35,337.57,75.75,337.57,92.24Z" style="fill:#fff"></path><path d="M337.57,92.25v28.37H162V92.25c0-18,6.62-18.89,14.8-18.89h29.25c1.7,0,3.09,1.93,3.09,4.32v1c0,5.6,3.07,5.62,6.83,5.62H283.6c3.8,0,6.85,0,6.85-5.62v-1c0-2.39,1.37-4.32,3.1-4.32h29.24C331,73.36,337.57,75.75,337.57,92.25Z" style="fill:#3E54AC"></path><path d="M259,77.06H240.56a1.14,1.14,0,0,1-1.13-1.14h0a1.14,1.14,0,0,1,1.13-1.14H259a1.14,1.14,0,0,1,1.14,1.14h0A1.14,1.14,0,0,1,259,77.06Z" style="fill:#fff"></path><g id="freepik--u5Zjqx--inject-186"><path d="M201,80.1l-.28.29a1.21,1.21,0,0,0-.16.16,3.85,3.85,0,0,0-5.45,0l-.15-.16-.28-.28h0l0,0,.36-.32a4.37,4.37,0,0,1,.82-.52,4.32,4.32,0,0,1,1.1-.37l.55-.07H198l.37,0a3.84,3.84,0,0,1,1,.24,3.26,3.26,0,0,1,.68.32,4.18,4.18,0,0,1,.65.45l.3.27Z" style="fill:#fff"></path><path d="M196,81.43l-.45-.44a3.11,3.11,0,0,1,1.82-.91,3.21,3.21,0,0,1,2.73.9l-.45.45a2.6,2.6,0,0,0-3.65,0Z" style="fill:#fff"></path><path d="M199.21,81.88l-.44.44a1.31,1.31,0,0,0-.94-.38,1.27,1.27,0,0,0-.93.39l-.45-.45A1.94,1.94,0,0,1,199.21,81.88Z" style="fill:#fff"></path><path d="M198.24,82.73a.41.41,0,1,1-.41-.4A.4.4,0,0,1,198.24,82.73Z" style="fill:#fff"></path></g><path d="M173.45,81a1.17,1.17,0,1,1,1.16,1.16A1.16,1.16,0,0,1,173.45,81Z" style="fill:#fff"></path><path d="M177.12,81a1.16,1.16,0,1,1,1.16,1.16A1.16,1.16,0,0,1,177.12,81Z" style="fill:#fff"></path><path d="M180.78,81a1.17,1.17,0,1,1,1.16,1.16A1.16,1.16,0,0,1,180.78,81Z" style="fill:#fff"></path><path d="M184.44,81a1.17,1.17,0,1,1,1.17,1.16A1.17,1.17,0,0,1,184.44,81Z" style="fill:#fff"></path><path d="M188.11,81a1.17,1.17,0,1,1,1.16,1.16A1.16,1.16,0,0,1,188.11,81Z" style="fill:#fff"></path><path d="M324.4,83.5h-9.47V79.11h9.47Zm-9-.48h8.5V79.59h-8.5Z" style="fill:#fff"></path><rect x="315.71" y="79.86" width="6.11" height="2.9" style="fill:#fff"></rect><rect x="324.4" y="80.13" width="0.84" height="2.35" style="fill:#fff"></rect><polygon points="178.64 109.77 173.45 104.91 178.64 100.05 179.44 100.9 175.17 104.91 179.44 108.91 178.64 109.77" style="fill:#fff"></polygon><path d="M321.65,110.12h-3.5V108.9a.28.28,0,0,0-.15-.24,3.64,3.64,0,0,1-.39-.23.29.29,0,0,0-.3,0l-1.05.61-1.75-3,1.06-.61a.3.3,0,0,0,.13-.26c0-.08,0-.15,0-.22s0-.15,0-.22a.31.31,0,0,0-.13-.27l-1.06-.61,1.75-3,1.05.61a.28.28,0,0,0,.29,0l.4-.22a.29.29,0,0,0,.15-.25V99.7h3.5v1.21a.29.29,0,0,0,.15.25,3.61,3.61,0,0,1,.39.22.3.3,0,0,0,.3,0l1.05-.61,1.75,3-1.06.6a.27.27,0,0,0-.13.27v.44a.26.26,0,0,0,.13.26l1.06.61-1.75,3-1.06-.61a.28.28,0,0,0-.29,0,3.64,3.64,0,0,1-.39.23.28.28,0,0,0-.15.24Zm-2.75-.75h2v-.47a1,1,0,0,1,.56-.91,3.37,3.37,0,0,0,.32-.19,1,1,0,0,1,1.08,0l.4.23,1-1.73-.41-.23a1,1,0,0,1-.5-1v-.37a1,1,0,0,1,.51-1l.4-.23-1-1.73-.4.23a1,1,0,0,1-1.08,0,1.65,1.65,0,0,0-.32-.18,1,1,0,0,1-.56-.92v-.46h-2v.46a1,1,0,0,1-.57.92,2.58,2.58,0,0,0-.32.18,1,1,0,0,1-1.07,0l-.41-.23-1,1.73.4.23a1,1,0,0,1,.51,1v.37a1,1,0,0,1-.51,1l-.4.23,1,1.73.41-.23a1,1,0,0,1,1.08,0,3.37,3.37,0,0,0,.32.19,1,1,0,0,1,.56.91Zm1-1.84a2.63,2.63,0,1,1,2.62-2.62A2.62,2.62,0,0,1,319.9,107.53Zm0-4.5a1.88,1.88,0,1,0,1.87,1.88A1.88,1.88,0,0,0,319.9,103Z" style="fill:#fff"></path><rect x="221.67" y="371.61" width="56.65" height="17.75" style="fill:#3E54AC"></rect><path d="M238.3,384.56a3.65,3.65,0,0,1-1.66-.37,4.14,4.14,0,0,1-1.29-1,4.46,4.46,0,0,1-.84-1.39,4.61,4.61,0,0,1-.29-1.59,4.26,4.26,0,0,1,.31-1.63,4.58,4.58,0,0,1,.86-1.39,4.28,4.28,0,0,1,1.3-1,3.85,3.85,0,0,1,1.63-.35,3.69,3.69,0,0,1,1.67.37,4.34,4.34,0,0,1,1.28,1,4.5,4.5,0,0,1,.83,1.38,4.55,4.55,0,0,1,.29,1.58,4.49,4.49,0,0,1-.3,1.63,4.3,4.3,0,0,1-.86,1.37,4.08,4.08,0,0,1-1.3.95A3.74,3.74,0,0,1,238.3,384.56Zm-2.71-4.32a3.48,3.48,0,0,0,.19,1.16,3.13,3.13,0,0,0,.55,1,2.59,2.59,0,0,0,.85.69,2.68,2.68,0,0,0,2.28,0,2.64,2.64,0,0,0,.84-.72,3.05,3.05,0,0,0,.53-1,3.66,3.66,0,0,0,.18-1.13,3.5,3.5,0,0,0-.19-1.17,3.19,3.19,0,0,0-.55-1,2.69,2.69,0,0,0-.85-.68,2.54,2.54,0,0,0-2.26,0,2.77,2.77,0,0,0-.85.7,3.38,3.38,0,0,0-.54,1A3.67,3.67,0,0,0,235.59,380.24Z" style="fill:#fff"></path><path d="M243.78,384.5V376h3.58a2.36,2.36,0,0,1,1.06.24,2.77,2.77,0,0,1,.84.63,2.87,2.87,0,0,1,.54.89,2.75,2.75,0,0,1,.2,1,2.82,2.82,0,0,1-.19,1,2.6,2.6,0,0,1-.52.88,2.4,2.4,0,0,1-.81.63,2.25,2.25,0,0,1-1,.23h-2.3v3Zm1.35-4.16h2.22a1.14,1.14,0,0,0,.52-.12,1.06,1.06,0,0,0,.4-.33,1.76,1.76,0,0,0,.27-.51,2.08,2.08,0,0,0,.09-.63,1.67,1.67,0,0,0-.11-.65,1.48,1.48,0,0,0-.3-.5,1.34,1.34,0,0,0-.43-.32,1.17,1.17,0,0,0-.51-.11h-2.15Z" style="fill:#fff"></path><path d="M257.1,383.31v1.19h-5.84V376H257v1.19h-4.4v2.42h3.81v1.12H252.6v2.6Z" style="fill:#fff"></path><path d="M259.84,378.5v6H258.5V376h1.05l4.87,6.14V376h1.36v8.51h-1.12Z" style="fill:#fff"></path></g><g id="freepik--Sparkles--inject-186"><path d="M316.74,157.35a4.85,4.85,0,0,1-.5-2.29,4.9,4.9,0,0,1,.5-2.29,5,5,0,0,1,.5,2.29A5.1,5.1,0,0,1,316.74,157.35Z" style="fill:#263238"></path><path d="M312.6,159.13a5,5,0,0,1-2-1.27,5,5,0,0,1-1.26-2,5.5,5.5,0,0,1,3.23,3.24Z" style="fill:#263238"></path><path d="M310.94,163.31a5.49,5.49,0,0,1-4.58,0,4.87,4.87,0,0,1,2.29-.5A5,5,0,0,1,310.94,163.31Z" style="fill:#263238"></path><path d="M312.72,167.44a5.53,5.53,0,0,1-3.25,3.24,5.53,5.53,0,0,1,3.25-3.24Z" style="fill:#263238"></path><path d="M316.9,169.1a5,5,0,0,1,.49,2.3,4.9,4.9,0,0,1-.5,2.29,5.16,5.16,0,0,1-.5-2.29A5.05,5.05,0,0,1,316.9,169.1Z" style="fill:#263238"></path><path d="M321,167.33a5.5,5.5,0,0,1,3.23,3.24,5.5,5.5,0,0,1-3.23-3.24Z" style="fill:#263238"></path><path d="M322.69,163.15a5.49,5.49,0,0,1,4.58,0,4.87,4.87,0,0,1-2.29.5A5.13,5.13,0,0,1,322.69,163.15Z" style="fill:#263238"></path><path d="M320.91,159a5.08,5.08,0,0,1,1.27-2,5,5,0,0,1,2-1.27,5.53,5.53,0,0,1-3.25,3.24Z" style="fill:#263238"></path><path d="M194.53,255.73a5,5,0,0,1-.5-2.3,5.16,5.16,0,0,1,.5-2.29,4.91,4.91,0,0,1,.5,2.3A5.16,5.16,0,0,1,194.53,255.73Z" style="fill:#263238"></path><path d="M190.4,257.5a5.48,5.48,0,0,1-3.24-3.24,5.55,5.55,0,0,1,3.24,3.24Z" style="fill:#263238"></path><path d="M188.73,261.68a5,5,0,0,1-2.29.5,5.13,5.13,0,0,1-2.29-.5,4.9,4.9,0,0,1,2.29-.5A5.1,5.1,0,0,1,188.73,261.68Z" style="fill:#263238"></path><path d="M190.51,265.81a5.55,5.55,0,0,1-3.24,3.24,5.55,5.55,0,0,1,3.24-3.24Z" style="fill:#263238"></path><path d="M194.69,267.48a5.1,5.1,0,0,1,.5,2.29,5,5,0,0,1-.51,2.29,5,5,0,0,1-.49-2.29A4.85,4.85,0,0,1,194.69,267.48Z" style="fill:#263238"></path><path d="M198.82,265.7a5.55,5.55,0,0,1,3.24,3.24,5,5,0,0,1-2-1.27A5.07,5.07,0,0,1,198.82,265.7Z" style="fill:#263238"></path><path d="M200.48,261.52a5.17,5.17,0,0,1,2.3-.5,5,5,0,0,1,2.29.51,5,5,0,0,1-2.3.49A4.9,4.9,0,0,1,200.48,261.52Z" style="fill:#263238"></path><path d="M198.71,257.39a5.48,5.48,0,0,1,3.24-3.24,5,5,0,0,1-1.27,2A5.07,5.07,0,0,1,198.71,257.39Z" style="fill:#263238"></path><path d="M299,330.3a1.6,1.6,0,0,1-.5-1.19,1.58,1.58,0,0,1,.5-1.18,1.66,1.66,0,0,1,.5,1.18A1.68,1.68,0,0,1,299,330.3Z" style="fill:#263238"></path><path d="M296.84,331.21a1.63,1.63,0,0,1-1.19-.48,1.66,1.66,0,0,1-.48-1.19,1.62,1.62,0,0,1,1.19.48A1.63,1.63,0,0,1,296.84,331.21Z" style="fill:#263238"></path><path d="M296,333.37a1.64,1.64,0,0,1-2.36,0,1.58,1.58,0,0,1,1.18-.5A1.64,1.64,0,0,1,296,333.37Z" style="fill:#263238"></path><path d="M296.9,335.5a1.66,1.66,0,0,1-.48,1.19,1.62,1.62,0,0,1-1.19.49,1.6,1.6,0,0,1,.48-1.19A1.62,1.62,0,0,1,296.9,335.5Z" style="fill:#263238"></path><path d="M299.06,336.36a1.68,1.68,0,0,1,.5,1.19,1.66,1.66,0,0,1-.5,1.18,1.6,1.6,0,0,1-.5-1.18A1.64,1.64,0,0,1,299.06,336.36Z" style="fill:#263238"></path><path d="M301.19,335.45a1.62,1.62,0,0,1,1.19.48,1.58,1.58,0,0,1,.48,1.19,1.66,1.66,0,0,1-1.19-.48A1.67,1.67,0,0,1,301.19,335.45Z" style="fill:#263238"></path><path d="M302.05,333.29a1.63,1.63,0,0,1,1.18-.5.7.7,0,1,1,0,1A1.68,1.68,0,0,1,302.05,333.29Z" style="fill:#263238"></path><path d="M301.13,331.16a1.67,1.67,0,1,1,1.19-.49A1.62,1.62,0,0,1,301.13,331.16Z" style="fill:#263238"></path></g><g id="freepik--paper-plane--inject-186"><path d="M150.43,244.88l-.52-.54,1.46-1.38.51.55Z" style="fill:#263238"></path><path d="M157,324.14c-1.36,0-2.72-.11-4-.25l.08-.74c1.3.13,2.63.21,4,.24Zm5-.08,0-.75c1.3-.08,2.64-.19,4-.35l.09.75C164.73,323.86,163.38,324,162.06,324.06ZM148,323.13c-1.34-.28-2.66-.63-3.92-1l.23-.71c1.23.38,2.52.72,3.84,1Zm23.07-.18-.13-.74c1.28-.24,2.6-.51,3.9-.82l.18.73C173.69,322.43,172.36,322.71,171.06,323Zm8.81-2.12-.21-.72c1.27-.37,2.55-.78,3.81-1.21l.24.71C182.44,320,181.15,320.45,179.87,320.83Zm-40.52-.55a33.59,33.59,0,0,1-3.55-1.95l.4-.63a32.06,32.06,0,0,0,3.47,1.9Zm49.09-2.39-.27-.7c1.22-.48,2.47-1,3.7-1.52l.29.69C190.93,316.89,189.67,317.41,188.44,317.89Zm-56.68-2.63a28.69,28.69,0,0,1-2.8-2.94l.58-.48a27.31,27.31,0,0,0,2.73,2.87Zm65-1-.32-.67c1.18-.57,2.38-1.17,3.58-1.79l.34.67C199.14,313.1,197.93,313.7,196.74,314.27Zm8-4.18-.37-.65q1.75-1,3.45-2l.39.64C207.1,308.76,205.94,309.43,204.77,310.09Zm-78.63-2a27,27,0,0,1-1.65-3.71l.71-.25a27.86,27.86,0,0,0,1.6,3.61Zm86.36-2.68-.41-.63q1.69-1.09,3.33-2.22l.42.62C214.74,303.94,213.63,304.68,212.5,305.41Zm7.43-5.14-.44-.6c1.08-.8,2.14-1.6,3.19-2.42l.46.59C222.08,298.66,221,299.47,219.93,300.27Zm-96.72-.8a31.06,31.06,0,0,1-.42-4l.74,0a31.66,31.66,0,0,0,.42,3.94Zm103.85-4.76-.48-.58c1-.85,2.06-1.71,3.07-2.58l.49.57C229.12,293,228.1,293.86,227.06,294.71Zm-103.39-4.26-.75-.07c.13-1.31.32-2.65.59-4l.73.14C124,287.85,123.79,289.17,123.67,290.45Zm110.24-1.65-.5-.55c1-.9,2-1.8,2.94-2.71l.51.55C235.88,287,234.9,287.91,233.91,288.8Zm6.58-6.16-.52-.54,2.86-2.8.53.53Zm-115-.95-.72-.22c.39-1.25.83-2.53,1.33-3.81l.69.27C126.27,279.19,125.83,280.46,125.45,281.69Zm121.45-5.42-.54-.52c.94-.95,1.87-1.91,2.8-2.87l.54.52Zm-118.16-2.91-.67-.33c.57-1.18,1.19-2.39,1.85-3.58l.66.36C129.92,271,129.31,272.19,128.74,273.36Zm124.44-3.57-.54-.52,2.77-2.9.54.52Zm-120-4.27-.63-.4c.7-1.11,1.46-2.23,2.24-3.35l.61.44C134.58,263.31,133.83,264.42,133.13,265.52Zm126.28-2.27-.55-.51,2.77-2.91.54.52Zm-121.08-5.06-.59-.46c.8-1,1.65-2.08,2.53-3.13l.57.48C140,256.12,139.12,257.17,138.33,258.19Zm127.31-1.46-.54-.52q1.38-1.44,2.79-2.88l.54.52Q267,255.29,265.64,256.73Zm-121.5-5.41-.55-.5c.89-1,1.81-1.95,2.76-2.93l.53.52C145.94,249.38,145,250.36,144.14,251.32Zm127.79-1-.53-.52c.94-.95,1.88-1.9,2.84-2.85l.52.54Zm6.41-6.34-.52-.54c.95-.93,1.92-1.86,2.89-2.78l.52.54C280.25,242.08,279.29,243,278.34,243.93Zm6.54-6.2-.5-.55c1-.9,2-1.8,3-2.71l.51.56Zm6.72-6-.5-.57c1-.87,2-1.74,3-2.61l.49.57C293.61,230,292.6,230.85,291.6,231.72Zm6.89-5.81-.47-.58c1-.84,2.07-1.68,3.13-2.51l.46.58Zm7.08-5.57-.46-.6c1.06-.8,2.13-1.61,3.22-2.41l.44.61C307.69,218.74,306.62,219.54,305.57,220.34Zm7.26-5.33-.43-.62c1.08-.76,2.18-1.53,3.29-2.29l.42.61C315,213.48,313.91,214.24,312.83,215Zm7.44-5.09-.41-.62c1.1-.73,2.23-1.46,3.37-2.19l.4.63C322.49,208.47,321.37,209.19,320.27,209.92Zm7.61-4.83-.4-.64c1.13-.69,2.28-1.38,3.44-2.07l.38.65C330.15,203.71,329,204.4,327.88,205.09Zm7.75-4.58-.37-.65c1.16-.66,2.32-1.31,3.51-2l.36.65C338,199.2,336.78,199.86,335.63,200.51Zm7.91-4.33-.36-.67c1.18-.62,2.36-1.24,3.57-1.85l.34.67C345.89,194.94,344.7,195.56,343.54,196.18Zm8-4.1-.33-.67c1.19-.59,2.39-1.17,3.61-1.75l.33.67C354,190.91,352.75,191.5,351.56,192.08Zm8.14-3.87-.31-.68,3.66-1.65.31.68Zm8.25-3.65-.3-.69c1.23-.52,2.46-1,3.71-1.55l.28.69Z" style="fill:#263238"></path><path d="M376.53,181l-.28-.7,1.86-.73.28.69Z" style="fill:#263238"></path><polygon points="374.15 168.5 367.54 186.65 381.42 175.82 434.46 156.58 374.15 168.5" style="fill:#3E54AC"></polygon><polygon points="374.15 168.5 367.54 186.65 381.42 175.82 434.46 156.58 374.15 168.5" style="opacity:0.1"></polygon><polygon points="383.19 180.05 367.54 186.65 381.42 175.82 383.19 180.05" style="fill:#263238"></polygon><polygon points="381.42 175.82 434.46 156.58 390.95 199.04 381.42 175.82" style="fill:#3E54AC"></polygon><polygon points="374.15 168.5 352.11 154.27 434.46 156.58 374.15 168.5" style="fill:#3E54AC"></polygon></g></svg>