<svg xmlns="http://www.w3.org/2000/svg" viewBox="0 0 750 500"><g id="freepik--Floor--inject-954"><path d="M686.66,441.88c0,.14-139.55.26-311.65.26S63.34,442,63.34,441.88s139.52-.26,311.67-.26S686.66,441.73,686.66,441.88Z" style="fill:#263238"></path></g><g id="freepik--Device--inject-954"><path d="M577.31,84.72H172.69a12.63,12.63,0,0,0-12.63,12.63V383.13a12.63,12.63,0,0,0,12.63,12.63H328s9.88,30.55-20.74,46.35h145.2s-34.57-11.85-25.68-46.35H577.31a12.63,12.63,0,0,0,12.63-12.63V97.35A12.63,12.63,0,0,0,577.31,84.72Z" style="fill:#455a64"></path><path d="M380.4,365.71c5.51,7.86-3.11,16.48-11,11a2.67,2.67,0,0,1-.67-.67c-5.49-7.87,3.11-16.47,11-11A2.89,2.89,0,0,1,380.4,365.71Z" style="fill:#263238"></path><rect x="169.19" y="101.85" width="410.77" height="243.65" rx="3.27" style="fill:#fafafa"></rect><path d="M576.69,346H172.47a3.78,3.78,0,0,1-3.78-3.77V105.12a3.78,3.78,0,0,1,3.78-3.77H576.69a3.77,3.77,0,0,1,3.77,3.77V342.23A3.77,3.77,0,0,1,576.69,346ZM172.47,102.35a2.78,2.78,0,0,0-2.78,2.77V342.23a2.78,2.78,0,0,0,2.78,2.77H576.69a2.77,2.77,0,0,0,2.77-2.77V105.12a2.77,2.77,0,0,0-2.77-2.77Z" style="fill:#fff"></path><path d="M202.88,111.26A3.28,3.28,0,1,1,199.6,108,3.28,3.28,0,0,1,202.88,111.26Z" style="fill:#455a64"></path><path d="M183,111.26a3.28,3.28,0,1,1-3.28-3.28A3.28,3.28,0,0,1,183,111.26Z" style="fill:#455a64"></path><path d="M192.54,111.26a3.28,3.28,0,1,1-3.28-3.28A3.28,3.28,0,0,1,192.54,111.26Z" style="fill:#455a64"></path><path d="M580.26,121.11c0,.14-92.1.26-205.67.26s-205.69-.12-205.69-.26,92.07-.26,205.69-.26S580.26,121,580.26,121.11Z" style="fill:#263238"></path><rect x="483.56" y="143.06" width="74.21" height="59.33" transform="translate(-0.32 0.96) rotate(-0.11)" style="fill:#f5f5f5"></rect><rect x="486.12" y="146.8" width="69" height="51.86" transform="translate(-0.32 0.96) rotate(-0.11)" style="fill:#ebebeb"></rect><polygon points="486.17 198.72 510.21 166.44 525.18 186.59 535.28 175.78 555.17 198.6 486.17 198.72" style="fill:#e0e0e0"></polygon><path d="M531.47,162.46A5.44,5.44,0,1,1,526,157,5.44,5.44,0,0,1,531.47,162.46Z" style="fill:#e0e0e0"></path><rect x="483.56" y="270.09" width="74.21" height="59.33" transform="translate(-0.55 0.96) rotate(-0.11)" style="fill:#f5f5f5"></rect><rect x="486.12" y="273.83" width="69" height="51.86" transform="translate(-0.55 0.96) rotate(-0.11)" style="fill:#ebebeb"></rect><polygon points="486.17 325.75 510.21 293.47 525.18 313.61 535.28 302.81 555.17 325.62 486.17 325.75" style="fill:#e0e0e0"></polygon><path d="M531.47,289.48a5.44,5.44,0,1,1-5.44-5.42A5.43,5.43,0,0,1,531.47,289.48Z" style="fill:#e0e0e0"></path><rect x="186.04" y="143.06" width="74.21" height="59.33" transform="translate(-0.32 0.41) rotate(-0.11)" style="fill:#f5f5f5"></rect><rect x="188.6" y="146.8" width="69" height="51.86" transform="translate(-0.32 0.41) rotate(-0.11)" style="fill:#ebebeb"></rect><polygon points="188.64 198.72 212.68 166.44 227.65 186.59 237.75 175.78 257.64 198.6 188.64 198.72" style="fill:#e0e0e0"></polygon><path d="M233.94,162.46A5.43,5.43,0,1,1,228.5,157,5.43,5.43,0,0,1,233.94,162.46Z" style="fill:#e0e0e0"></path><rect x="186.04" y="207.01" width="74.21" height="59.33" transform="translate(-0.43 0.41) rotate(-0.11)" style="fill:#f5f5f5"></rect><rect x="188.6" y="210.74" width="69" height="51.86" transform="translate(-0.43 0.41) rotate(-0.11)" style="fill:#ebebeb"></rect><polygon points="188.64 262.67 212.68 230.38 227.65 250.53 237.75 239.73 257.64 262.54 188.64 262.67" style="fill:#e0e0e0"></polygon><path d="M233.94,226.4A5.43,5.43,0,1,1,228.5,221,5.43,5.43,0,0,1,233.94,226.4Z" style="fill:#e0e0e0"></path><rect x="186.04" y="271.52" width="74.21" height="59.33" transform="translate(-0.55 0.41) rotate(-0.11)" style="fill:#f5f5f5"></rect><rect x="188.6" y="275.26" width="69" height="51.86" transform="translate(-0.55 0.41) rotate(-0.11)" style="fill:#ebebeb"></rect><polygon points="188.64 327.18 212.68 294.9 227.65 315.04 237.75 304.24 257.64 327.06 188.64 327.18" style="fill:#e0e0e0"></polygon><path d="M233.94,290.91a5.43,5.43,0,1,1-5.44-5.42A5.44,5.44,0,0,1,233.94,290.91Z" style="fill:#e0e0e0"></path></g><g id="freepik--Plants--inject-954"><path d="M123.23,326.26s6.58.29,4.27,14.83-4.7,22.16-4.7,22.16-.18,3.27,2.4,2.92,7.68-2.95,9.73-.32.84,6.38-2.88,10.43-11.55,13.2-12.26,14-1.12,2.45.68,2.5,14.28-2.63,15.19,3.37-11.3,15.56-12.62,16.63-1.47,1.83-1.08,2.62,4.51-.51,8.09-1.13,7.84-.7,8.08,2.81-5.76,13-25.07,21.44l-9.2,3.33-7.62-6.21c-15.5-14.28-18.08-25.2-16.71-28.44s5.37-1.76,8.55,0,6.65,4.31,7.28,3.7.73-1.38-.17-2.82-9.33-14.47-6.51-19.84,13.75,1.22,15.47,1.76,1.84-1.14,1.45-2.14-4.82-12.22-7-17.26-2.23-8.91.67-10.79,6.77,2.3,9.1,3.47,3.22-2,3.22-2,.21-8,2.78-22.48,9-12.56,9-12.56" style="fill:#3E54AC"></path><path d="M121.2,339.29l0,.27-.12.78c-.12.7-.28,1.71-.49,3-.45,2.62-1.08,6.37-1.86,11-1.53,9.31-3.65,22.13-6,36.29s-4.46,27-6.1,36.28l-2,11c-.25,1.27-.43,2.27-.57,3-.06.33-.11.58-.15.78a1.23,1.23,0,0,1-.07.26.93.93,0,0,1,0-.27l.12-.78c.11-.71.28-1.71.49-3,.44-2.62,1.08-6.37,1.86-11,1.56-9.29,3.67-22.12,6-36.3s4.46-27,6.1-36.27l2-11c.24-1.27.43-2.27.56-3,.07-.32.12-.58.16-.77A1.23,1.23,0,0,1,121.2,339.29Z" style="fill:#263238"></path><path d="M128,369.78a17.81,17.81,0,0,1-2,1.75l-4.81,4.13c-1.88,1.62-3.6,3.07-4.87,4.08-.64.51-1.16.91-1.53,1.17a2.84,2.84,0,0,1-.61.38,22.38,22.38,0,0,1,2-1.75l4.79-4.17c1.88-1.61,3.61-3.05,4.89-4.05l1.54-1.16A3,3,0,0,1,128,369.78Z" style="fill:#263238"></path><path d="M113.34,380.9c-.08.06-3-3.54-6.51-8s-6.31-8.21-6.23-8.28,3,3.54,6.52,8.05S113.43,380.83,113.34,380.9Z" style="fill:#263238"></path><path d="M110.45,406.11a3,3,0,0,1-.64-.35c-.4-.23-1-.6-1.66-1.06-1.38-.92-3.26-2.24-5.25-3.81s-3.73-3.07-5-4.2c-.61-.56-1.1-1-1.42-1.36a3.18,3.18,0,0,1-.49-.54,22.46,22.46,0,0,1,2.09,1.7c1.26,1.07,3,2.54,5,4.1s3.84,2.92,5.17,3.89A20.64,20.64,0,0,1,110.45,406.11Z" style="fill:#263238"></path><path d="M125.88,399a15.57,15.57,0,0,1-2.21,1.14c-1.38.66-3.31,1.54-5.44,2.49s-4.08,1.8-5.49,2.4a16.84,16.84,0,0,1-2.32.89,15.57,15.57,0,0,1,2.21-1.14c1.38-.65,3.31-1.54,5.44-2.49s4.08-1.8,5.49-2.4A16.29,16.29,0,0,1,125.88,399Z" style="fill:#263238"></path><path d="M126.15,421.54a4,4,0,0,1-.75.41l-2.11,1c-1.79.82-4.27,1.92-7,3.12s-5.24,2.27-7.06,3l-2.15.87a4.26,4.26,0,0,1-.81.28,3.12,3.12,0,0,1,.75-.41l2.11-1c1.78-.81,4.26-1.92,7-3.12s5.25-2.26,7.06-3l2.16-.88A3.72,3.72,0,0,1,126.15,421.54Z" style="fill:#263238"></path><path d="M106.66,429.88a5.3,5.3,0,0,1-.78-.49c-.48-.33-1.18-.82-2-1.44-1.7-1.25-4-3-6.48-5.07s-4.64-4-6.18-5.44c-.77-.72-1.38-1.32-1.79-1.74a4.74,4.74,0,0,1-.62-.67,3.59,3.59,0,0,1,.72.57c.5.43,1.13,1,1.87,1.64,1.58,1.39,3.77,3.3,6.24,5.35s4.75,3.85,6.4,5.15l2,1.53C106.43,429.64,106.68,429.85,106.66,429.88Z" style="fill:#263238"></path><path d="M658.21,378.2a11.94,11.94,0,0,1,6.17,7,21.05,21.05,0,0,1,.82,9.47c-.69,6.15-4.19,12.35-8,17.27-5.18-4.52-6.37-12.4-6.72-16.44-.56-6.38,2.31-18.25,7.68-17.3" style="fill:#3E54AC"></path><path d="M663.27,422.08a10.18,10.18,0,0,1,3.28-9.66,13.51,13.51,0,0,1,10-3.11c1.65.13,3.42.61,4.37,2a4.37,4.37,0,0,1,.07,4.41,8.84,8.84,0,0,1-3.27,3.21c-4.48,2.82-9.34,4.72-14.41,3.19" style="fill:#3E54AC"></path><path d="M656.63,440.93a7.68,7.68,0,0,1,.18-1.26c.17-.89.38-2,.63-3.41A35.85,35.85,0,0,1,661,425.35a21.87,21.87,0,0,1,7.83-8.32,14.86,14.86,0,0,1,3.19-1.41,8.63,8.63,0,0,1,.92-.23,1,1,0,0,1,.33-.05,23.63,23.63,0,0,0-4.28,2,22.63,22.63,0,0,0-7.59,8.27,38.15,38.15,0,0,0-3.61,10.75c-.31,1.43-.57,2.59-.77,3.39A6.2,6.2,0,0,1,656.63,440.93Z" style="fill:#263238"></path><path d="M656.82,387.43a2.26,2.26,0,0,1,.07.56c0,.4.05.93.09,1.58.08,1.38.16,3.37.24,5.83.15,4.93.28,11.74.25,19.26s-.22,14.33-.42,19.25c-.1,2.47-.2,4.46-.29,5.83,0,.65-.08,1.18-.1,1.59a3.06,3.06,0,0,1-.07.55,2.39,2.39,0,0,1,0-.56c0-.41,0-.93,0-1.58,0-1.44.08-3.42.14-5.84.12-4.92.26-11.73.29-19.24s0-14.32-.12-19.25c0-2.42-.07-4.4-.09-5.83,0-.66,0-1.18,0-1.59A3.53,3.53,0,0,1,656.82,387.43Z" style="fill:#263238"></path><path d="M654.31,425.83a23.78,23.78,0,0,0-13-17.42c-1.73-.83-4-1.37-5.41-.08s-1.11,3.6-.41,5.39a20.3,20.3,0,0,0,18.68,12.61" style="fill:#3E54AC"></path><path d="M642.17,414.24a5.81,5.81,0,0,1,1.1.48,12.16,12.16,0,0,1,1.24.66c.46.29,1,.57,1.58,1a20.78,20.78,0,0,1,1.8,1.36,23.32,23.32,0,0,1,1.93,1.75,26.48,26.48,0,0,1,3.66,4.7,25.36,25.36,0,0,1,2.4,5.44,21.44,21.44,0,0,1,.61,2.53,18.29,18.29,0,0,1,.31,2.25,15.67,15.67,0,0,1,.09,1.86,12.09,12.09,0,0,1,0,1.41,5.27,5.27,0,0,1-.14,1.19c-.1,0,.08-1.71-.22-4.43a20.06,20.06,0,0,0-.36-2.2,23.9,23.9,0,0,0-.64-2.48,26.78,26.78,0,0,0-2.4-5.34,27.68,27.68,0,0,0-3.57-4.64,22.85,22.85,0,0,0-1.86-1.75,21.23,21.23,0,0,0-1.76-1.39C643.68,415,642.12,414.33,642.17,414.24Z" style="fill:#263238"></path></g></svg>
