<svg xmlns="http://www.w3.org/2000/svg" viewBox="0 0 500 500"><g id="freepik--background-complete--inject-755"><rect y="382.4" width="500" height="0.25" style="fill:#ebebeb"></rect><rect x="416.78" y="398.49" width="33.12" height="0.25" style="fill:#ebebeb"></rect><rect x="322.53" y="401.21" width="8.69" height="0.25" style="fill:#ebebeb"></rect><rect x="396.59" y="389.21" width="19.19" height="0.25" style="fill:#ebebeb"></rect><rect x="52.46" y="390.89" width="43.19" height="0.25" style="fill:#ebebeb"></rect><rect x="104.56" y="390.89" width="6.33" height="0.25" style="fill:#ebebeb"></rect><rect x="131.47" y="395.11" width="93.68" height="0.25" style="fill:#ebebeb"></rect><path d="M237,337.8H43.91a5.71,5.71,0,0,1-5.7-5.71V60.66A5.71,5.71,0,0,1,43.91,55H237a5.71,5.71,0,0,1,5.71,5.71V332.09A5.71,5.71,0,0,1,237,337.8ZM43.91,55.2a5.46,5.46,0,0,0-5.45,5.46V332.09a5.46,5.46,0,0,0,5.45,5.46H237a5.47,5.47,0,0,0,5.46-5.46V60.66A5.47,5.47,0,0,0,237,55.2Z" style="fill:#ebebeb"></path><path d="M453.31,337.8H260.21a5.72,5.72,0,0,1-5.71-5.71V60.66A5.72,5.72,0,0,1,260.21,55h193.1A5.71,5.71,0,0,1,459,60.66V332.09A5.71,5.71,0,0,1,453.31,337.8ZM260.21,55.2a5.47,5.47,0,0,0-5.46,5.46V332.09a5.47,5.47,0,0,0,5.46,5.46h193.1a5.47,5.47,0,0,0,5.46-5.46V60.66a5.47,5.47,0,0,0-5.46-5.46Z" style="fill:#ebebeb"></path><path d="M227.33,158.82v22.77l11.72,1.1a60.89,60.89,0,0,0,8.75,21l-7.53,9.1,16.09,16.1,9.1-7.54a60.7,60.7,0,0,0,21,8.75l1.1,11.72h22.77l1.11-11.72a61,61,0,0,0,21-8.75l9.09,7.54,16.1-16.1-7.53-9.1a60.68,60.68,0,0,0,8.74-21l11.73-1.1V158.82l-11.73-1.11a60.63,60.63,0,0,0-8.74-21l7.53-9.1-16.1-16.1L332.5,119a60.76,60.76,0,0,0-21-8.74l-1.11-11.73H287.59l-1.1,11.73a60.68,60.68,0,0,0-21,8.74l-9.1-7.53-16.09,16.1,7.53,9.09a61,61,0,0,0-8.75,21ZM299,139.38a30.82,30.82,0,1,1-30.82,30.82A30.82,30.82,0,0,1,299,139.38Z" style="fill:#e0e0e0"></path><path d="M188.86,260.7l6.54,5.41L207,254.54,201.56,248a43.82,43.82,0,0,0,6.28-15.11l8.42-.79V215.75l-8.42-.8a43.69,43.69,0,0,0-6.28-15.1l5.41-6.54L195.4,181.74l-6.54,5.41a43.66,43.66,0,0,0-15.11-6.28l-.79-8.42H156.6l-.79,8.42a43.82,43.82,0,0,0-15.11,6.28l-6.54-5.41L122.6,193.31l5.41,6.54a43.5,43.5,0,0,0-6.28,15.1l-8.43.8v16.36l8.43.79A43.63,43.63,0,0,0,128,248l-5.41,6.53,11.56,11.57,6.54-5.41A43.63,43.63,0,0,0,155.81,267l.79,8.43H173l.79-8.43A43.47,43.47,0,0,0,188.86,260.7Zm-46.22-36.77a22.15,22.15,0,1,1,22.14,22.14A22.15,22.15,0,0,1,142.64,223.93Z" style="fill:#e0e0e0"></path><path d="M261.57,371.51a52.44,52.44,0,0,0,18-7.48l7.78,6.44,13.77-13.77-6.44-7.78a52.07,52.07,0,0,0,7.47-18l10-.95V310.51l-10-.95a52.07,52.07,0,0,0-7.47-18l6.44-7.78L287.34,270l-7.78,6.44a52.44,52.44,0,0,0-18-7.48l-.95-10H241.15l-1,10a52.28,52.28,0,0,0-18,7.48L214.43,270l-13.77,13.77,6.44,7.78a52.09,52.09,0,0,0-7.48,18l-10,.95V330l10,.95a52.09,52.09,0,0,0,7.48,18l-6.44,7.78,13.77,13.77,7.78-6.44a52.28,52.28,0,0,0,18,7.48l1,10h19.47Zm-37-51.27a26.37,26.37,0,1,1,26.36,26.37A26.36,26.36,0,0,1,224.52,320.24Z" style="fill:#e0e0e0"></path><path d="M401.55,211.23h21.51a2.7,2.7,0,0,0,2.34-4l-10.76-18.63a2.69,2.69,0,0,0-4.67,0l-10.75,18.63A2.7,2.7,0,0,0,401.55,211.23Zm12.2-17.6-.47,9.28h-2l-.49-9.28Zm-3,12.47a1.51,1.51,0,0,1,1.57-1.52,1.53,1.53,0,0,1,1.6,1.52,1.54,1.54,0,0,1-1.6,1.55A1.53,1.53,0,0,1,410.72,206.1Z" style="fill:#f0f0f0"></path><path d="M87,127.23h21.5a2.7,2.7,0,0,0,2.34-4L100,104.55a2.7,2.7,0,0,0-4.68,0L84.61,123.18A2.7,2.7,0,0,0,87,127.23Zm12.2-17.59-.48,9.27h-2l-.5-9.27Zm-3,12.47a1.51,1.51,0,0,1,1.56-1.53,1.54,1.54,0,1,1,0,3.07A1.52,1.52,0,0,1,96.12,122.11Z" style="fill:#f0f0f0"></path><path d="M144.65,356.39h21.5a2.7,2.7,0,0,0,2.34-4.05l-10.75-18.63a2.7,2.7,0,0,0-4.68,0l-10.75,18.63A2.7,2.7,0,0,0,144.65,356.39Zm12.2-17.6-.48,9.28h-2l-.5-9.28Zm-3,12.47a1.51,1.51,0,0,1,1.57-1.52,1.54,1.54,0,0,1,1.61,1.52,1.55,1.55,0,0,1-1.61,1.55A1.53,1.53,0,0,1,153.81,351.26Z" style="fill:#f0f0f0"></path><path d="M346,329.44h21.51a2.7,2.7,0,0,0,2.33-4.05L359.1,306.76a2.7,2.7,0,0,0-4.68,0l-10.75,18.63A2.7,2.7,0,0,0,346,329.44Zm12.2-17.6-.48,9.28h-2l-.5-9.28Zm-3,12.47a1.5,1.5,0,0,1,1.56-1.52,1.54,1.54,0,0,1,1.61,1.52,1.55,1.55,0,0,1-1.61,1.55A1.52,1.52,0,0,1,355.18,324.31Z" style="fill:#f0f0f0"></path><path d="M361.47,93.79h11.91a1.5,1.5,0,0,0,1.3-2.24l-6-10.31a1.49,1.49,0,0,0-2.59,0l-5.95,10.31A1.49,1.49,0,0,0,361.47,93.79Zm6.76-9.74L368,89.19h-1.09l-.28-5.14ZM366.55,91a.84.84,0,0,1,.87-.85.85.85,0,1,1,0,1.7A.84.84,0,0,1,366.55,91Z" style="fill:#f0f0f0"></path><path d="M64.44,251.5H76.35a1.49,1.49,0,0,0,1.3-2.24l-6-10.31a1.48,1.48,0,0,0-2.58,0l-6,10.31A1.49,1.49,0,0,0,64.44,251.5Zm6.76-9.74-.26,5.14H69.85l-.27-5.14Zm-1.68,6.91a.84.84,0,0,1,.87-.85.85.85,0,1,1,0,1.7A.84.84,0,0,1,69.52,248.67Z" style="fill:#f0f0f0"></path><path d="M292.48,175.29h11.91a1.5,1.5,0,0,0,1.29-2.25l-5.95-10.31a1.49,1.49,0,0,0-2.59,0l-6,10.31A1.5,1.5,0,0,0,292.48,175.29Zm6.75-9.75-.26,5.14h-1.09l-.27-5.14Zm-1.67,6.91a.84.84,0,0,1,.86-.85.86.86,0,1,1-.86.85Z" style="fill:#f0f0f0"></path><rect x="164.11" y="88.33" width="30.94" height="20.45" style="fill:#e0e0e0"></rect><rect x="164.11" y="88.33" width="31" height="3.36" style="fill:#f0f0f0"></rect><rect x="96.5" y="164.16" width="30.94" height="20.45" style="fill:#e0e0e0"></rect><rect x="96.5" y="164.16" width="31" height="3.36" style="fill:#f0f0f0"></rect><rect x="92.22" y="309.72" width="30.94" height="20.45" style="fill:#e0e0e0"></rect><rect x="92.22" y="309.72" width="31" height="3.36" style="fill:#f0f0f0"></rect><rect x="330.44" y="257.02" width="30.94" height="20.45" style="fill:#e0e0e0"></rect><rect x="330.44" y="257.02" width="31" height="3.36" style="fill:#f0f0f0"></rect><rect x="398.25" y="283.55" width="30.94" height="20.45" style="fill:#e0e0e0"></rect><rect x="398.25" y="283.55" width="31" height="3.36" style="fill:#f0f0f0"></rect><rect x="386.87" y="130.76" width="30.94" height="20.45" style="fill:#e0e0e0"></rect><rect x="386.87" y="130.76" width="31" height="3.36" style="fill:#f0f0f0"></rect></g><g id="freepik--Shadow--inject-755"><ellipse id="freepik--path--inject-755" cx="250" cy="416.24" rx="193.89" ry="11.32" style="fill:#f5f5f5"></ellipse></g><g id="freepik--speech-bubble--inject-755"><path d="M213.48,119.42H184.76a8.85,8.85,0,0,0-8.85,8.85v25a8.84,8.84,0,0,0,8.85,8.84h5.38l-2,7.9,8-7.9h17.4a8.84,8.84,0,0,0,8.84-8.84v-25A8.85,8.85,0,0,0,213.48,119.42Z" style="fill:#3E54AC"></path><path d="M213.48,119.42H184.76a8.85,8.85,0,0,0-8.85,8.85v25a8.84,8.84,0,0,0,8.85,8.84h5.38l-2,7.9,8-7.9h17.4a8.84,8.84,0,0,0,8.84-8.84v-25A8.85,8.85,0,0,0,213.48,119.42Z" style="fill:#fff;opacity:0.7000000000000001"></path><path d="M199.12,155.79a14.8,14.8,0,1,1,14.8-14.8A14.82,14.82,0,0,1,199.12,155.79Zm0-27.6a12.8,12.8,0,1,0,12.8,12.8A12.81,12.81,0,0,0,199.12,128.19Z" style="fill:#3E54AC"></path><path d="M196.85,146.71h0a1,1,0,0,1-.73-.32l-4.36-4.72a1,1,0,0,1,.06-1.42,1,1,0,0,1,1.41.06l3.63,3.94L205,135.6a1,1,0,0,1,1.41,0,1,1,0,0,1,0,1.42l-8.89,9.42A1,1,0,0,1,196.85,146.71Z" style="fill:#3E54AC"></path></g></svg>
