<svg xmlns="http://www.w3.org/2000/svg" viewBox="0 0 500 500"><g id="freepik--background-simple--inject-3"><path d="M329.22,43.77s-73.45-21.63-146,22.12S73.73,191.21,42,256.67,27.85,386.24,82.82,413.17s92.77-18.6,170.17-24.54,98.14,3.72,162.63-41.6,76.76-145.46,26.59-216.64S329.22,43.77,329.22,43.77Z" style="fill:#3E54AC"></path><path d="M329.22,43.77s-73.45-21.63-146,22.12S73.73,191.21,42,256.67,27.85,386.24,82.82,413.17s92.77-18.6,170.17-24.54,98.14,3.72,162.63-41.6,76.76-145.46,26.59-216.64S329.22,43.77,329.22,43.77Z" style="fill:#fff;opacity:0.7000000000000001"></path></g><g id="freepik--Clouds--inject-3"><path d="M133.38,79.61a17.5,17.5,0,0,0-4.14,7.8,10.3,10.3,0,0,0-13.36-2.83A20.19,20.19,0,0,0,76,82.15a13.13,13.13,0,0,0-17.91-.49" style="fill:none;stroke:#263238;stroke-miterlimit:10"></path><path d="M188.4,58.32A26.64,26.64,0,0,0,158.24,79a17.31,17.31,0,0,0-21.06-2.51" style="fill:none;stroke:#263238;stroke-miterlimit:10"></path><path d="M203.37,66.09A26.65,26.65,0,0,0,197,61.21" style="fill:none;stroke:#263238;stroke-miterlimit:10"></path><path d="M193.78,92H243a8.63,8.63,0,0,0-12.65-2.38,13.61,13.61,0,0,0-19.56-7.41,26.43,26.43,0,0,0-5.05-13.35" style="fill:none;stroke:#263238;stroke-miterlimit:10"></path><path d="M56.06,84a13.14,13.14,0,0,0-2.39,7.56c0,.17,0,.33,0,.49H184.09" style="fill:none;stroke:#263238;stroke-miterlimit:10"></path><path d="M230.66,100.76a11.83,11.83,0,0,0-19.25,6.52,7.7,7.7,0,0,0-12.9,3.73,4.57,4.57,0,0,0-3.68-1.85,4.67,4.67,0,0,0-2.26.59,9,9,0,0,0-17.72-1.08,5.85,5.85,0,0,0-9.95,4.17,1.49,1.49,0,0,0,0,.21H249.1a3.84,3.84,0,0,0-5.63-1,6,6,0,0,0-5.72-4.08,6.13,6.13,0,0,0-3,.78,11.76,11.76,0,0,0-.53-2.6" style="fill:none;stroke:#263238;stroke-miterlimit:10"></path><path d="M384.69,253a12.83,12.83,0,0,0-3.09,5.82,7.71,7.71,0,0,0-6.2-3.11,7.6,7.6,0,0,0-3.79,1,15.1,15.1,0,0,0-29.79-1.82,9.82,9.82,0,0,0-13.38-.37" style="fill:none;stroke:#263238;stroke-miterlimit:10"></path><path d="M425.81,237.09a21,21,0,0,0-3.09-.24,19.9,19.9,0,0,0-19.45,15.71,12.94,12.94,0,0,0-15.75-1.87" style="fill:none;stroke:#263238;stroke-miterlimit:10"></path><path d="M437,242.9a19.92,19.92,0,0,0-4.8-3.65" style="fill:none;stroke:#263238;stroke-miterlimit:10"></path><path d="M429.83,262.26H466.6a6.46,6.46,0,0,0-9.45-1.78A10.17,10.17,0,0,0,442.53,255a19.79,19.79,0,0,0-3.78-10" style="fill:none;stroke:#263238;stroke-miterlimit:10"></path><path d="M326.9,256.25a9.83,9.83,0,0,0-1.78,5.65c0,.12,0,.24,0,.36h97.45" style="fill:none;stroke:#263238;stroke-miterlimit:10"></path><path d="M457.39,268.81a8.76,8.76,0,0,0-5.73-2.11,8.86,8.86,0,0,0-8.66,7,5.75,5.75,0,0,0-9.63,2.79,3.44,3.44,0,0,0-2.76-1.38,3.39,3.39,0,0,0-1.68.44,6.71,6.71,0,0,0-13.25-.8,4.36,4.36,0,0,0-7.43,3.11.86.86,0,0,0,0,.16h62.91a2.85,2.85,0,0,0-4.2-.79,4.55,4.55,0,0,0-4.28-3,4.48,4.48,0,0,0-2.22.59,8.88,8.88,0,0,0-.4-1.95" style="fill:none;stroke:#263238;stroke-miterlimit:10"></path></g><g id="freepik--Binder--inject-3"><rect x="97.81" y="156.55" width="136.48" height="201.52" style="fill:#263238;stroke:#263238;stroke-linecap:round;stroke-linejoin:round"></rect><rect x="106.59" y="166.32" width="118.92" height="182.2" style="fill:#fff;stroke:#263238;stroke-linecap:round;stroke-linejoin:round"></rect><path d="M142.63,150.32h46.84a6.63,6.63,0,0,1,6.63,6.63v14.11a0,0,0,0,1,0,0H136a0,0,0,0,1,0,0V157A6.63,6.63,0,0,1,142.63,150.32Z" style="fill:#7d7d7d;stroke:#263238;stroke-linecap:round;stroke-linejoin:round"></path><path d="M162,141.84h8A7.12,7.12,0,0,1,177.2,149v1.3a0,0,0,0,1,0,0H154.91a0,0,0,0,1,0,0V149A7.12,7.12,0,0,1,162,141.84Z" style="fill:#7d7d7d;stroke:#263238;stroke-linecap:round;stroke-linejoin:round"></path><circle cx="196.09" cy="195.17" r="19.24" style="fill:#263238;stroke:#263238;stroke-linecap:round;stroke-linejoin:round"></circle><polygon points="209.39 190.36 201.18 190.36 201.18 182.16 191.56 182.16 191.56 190.36 183.36 190.36 183.36 199.98 191.56 199.98 191.56 208.19 201.18 208.19 201.18 199.98 209.39 199.98 209.39 190.36" style="fill:#3E54AC;stroke:#263238;stroke-linecap:round;stroke-linejoin:round"></polygon><line x1="116.87" y1="194.61" x2="163.27" y2="194.61" style="fill:none;stroke:#263238;stroke-linecap:round;stroke-linejoin:round"></line><line x1="116.87" y1="204.23" x2="163.27" y2="204.23" style="fill:none;stroke:#263238;stroke-linecap:round;stroke-linejoin:round"></line><line x1="116.87" y1="235.92" x2="214.76" y2="235.92" style="fill:none;stroke:#263238;stroke-linecap:round;stroke-linejoin:round"></line><rect x="117.44" y="244.97" width="11.32" height="11.88" style="fill:none;stroke:#263238;stroke-linecap:round;stroke-linejoin:round"></rect><rect x="170.06" y="244.97" width="11.32" height="11.88" style="fill:none;stroke:#263238;stroke-linecap:round;stroke-linejoin:round"></rect><line x1="133.28" y1="256.85" x2="161.01" y2="256.85" style="fill:none;stroke:#263238;stroke-linecap:round;stroke-linejoin:round"></line><line x1="185.9" y1="256.85" x2="213.63" y2="256.85" style="fill:none;stroke:#263238;stroke-linecap:round;stroke-linejoin:round"></line><rect x="117.44" y="268.17" width="11.32" height="11.88" style="fill:none;stroke:#263238;stroke-linecap:round;stroke-linejoin:round"></rect><rect x="170.06" y="268.17" width="11.32" height="11.88" style="fill:none;stroke:#263238;stroke-linecap:round;stroke-linejoin:round"></rect><line x1="133.28" y1="280.05" x2="161.01" y2="280.05" style="fill:none;stroke:#263238;stroke-linecap:round;stroke-linejoin:round"></line><line x1="185.9" y1="280.05" x2="213.63" y2="280.05" style="fill:none;stroke:#263238;stroke-linecap:round;stroke-linejoin:round"></line><rect x="117.44" y="291.37" width="11.32" height="11.88" style="fill:none;stroke:#263238;stroke-linecap:round;stroke-linejoin:round"></rect><rect x="170.06" y="291.37" width="11.32" height="11.88" style="fill:none;stroke:#263238;stroke-linecap:round;stroke-linejoin:round"></rect><line x1="133.28" y1="303.25" x2="161.01" y2="303.25" style="fill:none;stroke:#263238;stroke-linecap:round;stroke-linejoin:round"></line><line x1="185.9" y1="303.25" x2="213.63" y2="303.25" style="fill:none;stroke:#263238;stroke-linecap:round;stroke-linejoin:round"></line><rect x="117.44" y="314.57" width="11.32" height="11.88" style="fill:none;stroke:#263238;stroke-linecap:round;stroke-linejoin:round"></rect><rect x="170.06" y="314.57" width="11.32" height="11.88" style="fill:none;stroke:#263238;stroke-linecap:round;stroke-linejoin:round"></rect><line x1="133.28" y1="326.45" x2="161.01" y2="326.45" style="fill:none;stroke:#263238;stroke-linecap:round;stroke-linejoin:round"></line><line x1="185.9" y1="326.45" x2="213.63" y2="326.45" style="fill:none;stroke:#263238;stroke-linecap:round;stroke-linejoin:round"></line></g><g id="freepik--Money--inject-3"><rect x="252.35" y="100.73" width="104.49" height="196.26" style="fill:#3E54AC;stroke:#263238;stroke-linecap:round;stroke-linejoin:round"></rect><path d="M346.13,124.18a10.05,10.05,0,0,1-10.05-10.05H272.45a10.05,10.05,0,0,1-10.05,10.05v148.7a10.05,10.05,0,0,1,10.05,10.05c0,.23,0,.45,0,.67h63.71c0-.22,0-.44,0-.67a10.05,10.05,0,0,1,10.05-10.05c.23,0,.45,0,.67,0V124.14C346.58,124.16,346.36,124.18,346.13,124.18ZM304.6,229.34a30.48,30.48,0,1,1,30.48-30.48A30.48,30.48,0,0,1,304.6,229.34Z" style="fill:#fff;stroke:#263238;stroke-linecap:round;stroke-linejoin:round"></path><rect x="266.57" y="109.79" width="104.49" height="196.26" transform="translate(35.89 -46.69) rotate(8.87)" style="fill:#3E54AC;stroke:#263238;stroke-linecap:round;stroke-linejoin:round"></rect><path d="M371.37,140.53A10,10,0,0,1,363,129.06l-62.87-9.82a10.06,10.06,0,0,1-11.48,8.38L265.7,274.54A10.05,10.05,0,0,1,274.08,286c0,.22-.09.44-.14.65l62.94,9.83c0-.22,0-.44.07-.66a10,10,0,0,1,11.48-8.38c.22,0,.44.09.66.13l23-147C371.82,140.58,371.59,140.57,371.37,140.53ZM314.11,238a30.48,30.48,0,1,1,34.82-25.41A30.47,30.47,0,0,1,314.11,238Z" style="fill:#fff;stroke:#263238;stroke-linecap:round;stroke-linejoin:round"></path><rect x="284.17" y="126.38" width="104.49" height="196.26" transform="translate(106.42 -108.18) rotate(21.62)" style="fill:#3E54AC;stroke:#263238;stroke-linecap:round;stroke-linejoin:round"></rect><path d="M402.55,170.39a10.05,10.05,0,0,1-5.64-13l-59.16-23.46a10,10,0,0,1-13,5.64l-54.8,138.24a10,10,0,0,1,5.64,13c-.09.21-.18.41-.28.61l59.22,23.48c.07-.21.13-.43.21-.64a10.06,10.06,0,0,1,13.05-5.63c.21.08.41.18.61.27l54.82-138.3Q402.87,170.51,402.55,170.39Zm-77.36,82.46a30.48,30.48,0,1,1,39.56-17.1A30.49,30.49,0,0,1,325.19,252.85Z" style="fill:#fff;stroke:#263238;stroke-linecap:round;stroke-linejoin:round"></path><rect x="298.57" y="148.21" width="104.49" height="196.26" transform="translate(207.64 -157.71) rotate(35.41)" style="fill:#3E54AC;stroke:#263238;stroke-linecap:round;stroke-linejoin:round"></rect><path d="M427.94,209.53a10,10,0,0,1-2.36-14l-51.87-36.87a10.05,10.05,0,0,1-14,2.37L273.54,282.21a10,10,0,0,1,2.36,14c-.13.19-.27.35-.41.53l51.91,36.91c.12-.19.23-.38.37-.57a10,10,0,0,1,14-2.36c.18.13.35.27.52.41l86.21-121.25Q428.23,209.73,427.94,209.53Zm-94.78,61.65a30.48,30.48,0,1,1,42.5-7.18A30.48,30.48,0,0,1,333.16,271.18Z" style="fill:#fff;stroke:#263238;stroke-linecap:round;stroke-linejoin:round"></path><circle cx="276.82" cy="243.37" r="64.98" style="fill:#fff;stroke:#263238;stroke-linecap:round;stroke-linejoin:round"></circle><line x1="224.97" y1="204.84" x2="231.96" y2="204.84" style="fill:none;stroke:#263238;stroke-linecap:round;stroke-linejoin:round"></line><line x1="228.25" y1="200.59" x2="234.79" y2="200.59" style="fill:none;stroke:#263238;stroke-linecap:round;stroke-linejoin:round"></line><line x1="231.37" y1="197.29" x2="237.86" y2="197.29" style="fill:none;stroke:#263238;stroke-linecap:round;stroke-linejoin:round"></line><line x1="235.39" y1="193.79" x2="241.11" y2="193.79" style="fill:none;stroke:#263238;stroke-linecap:round;stroke-linejoin:round"></line><line x1="220.71" y1="211.21" x2="227.24" y2="211.21" style="fill:none;stroke:#263238;stroke-linecap:round;stroke-linejoin:round"></line><line x1="215.96" y1="221.35" x2="222.52" y2="221.35" style="fill:none;stroke:#263238;stroke-linecap:round;stroke-linejoin:round"></line><line x1="212.7" y1="233.62" x2="219.69" y2="233.62" style="fill:none;stroke:#263238;stroke-linecap:round;stroke-linejoin:round"></line><line x1="212.23" y1="247.31" x2="219.22" y2="247.31" style="fill:none;stroke:#263238;stroke-linecap:round;stroke-linejoin:round"></line><circle cx="282.96" cy="243.37" r="64.98" style="fill:#fff;stroke:#263238;stroke-linecap:round;stroke-linejoin:round"></circle><circle cx="282.96" cy="243.37" r="51.75" transform="translate(-17.78 464.38) rotate(-77.01)" style="fill:#fff;stroke:#263238;stroke-linecap:round;stroke-linejoin:round"></circle><path d="M283,191.62l-1,0a51.73,51.73,0,0,1,0,103.45l1,0a51.75,51.75,0,1,0,0-103.49Z" style="fill:#fff;stroke:#263238;stroke-linecap:round;stroke-linejoin:round"></path><path d="M285.38,275.64a.69.69,0,0,0-.55.65l.09,4.19a1.38,1.38,0,0,1-1.58,1.58h-5.49a1.38,1.38,0,0,1-1.58-1.58l.18-4.28a.67.67,0,0,0-.56-.65c-10.6-1.3-16.75-7.72-16.75-16.65v-4a1.43,1.43,0,0,1,1.59-1.58h9.67c1,0,1.59.47,1.59,1.21v1.3c0,4.75,3.07,8.84,9.39,8.84,6,0,8.47-3.63,8.47-7.35,0-6.6-12.1-7.63-21-13.4-5.77-3.53-9.77-8.09-9.77-16,0-9.77,6.05-16.66,16.75-18.24a.68.68,0,0,0,.56-.65l-.19-5a1.39,1.39,0,0,1,1.58-1.59h5.31a1.43,1.43,0,0,1,1.58,1.59l-.09,4.93a.67.67,0,0,0,.56.65c11.16,1.21,17.49,8,17.49,17.59v3.07a1.42,1.42,0,0,1-1.58,1.58h-9.77c-1,0-1.59-.37-1.59-.93V230c0-4.93-2.79-9.4-9.3-9.4-5.21,0-8.37,2.7-8.37,6.88,0,6.05,8.46,7,17.21,10.8,9.58,4.28,13.77,10.23,13.77,18.42C303,266.9,296.74,274.15,285.38,275.64Z" style="fill:#fff;stroke:#263238;stroke-linecap:round;stroke-linejoin:round"></path><path d="M287.37,275.64a.7.7,0,0,0-.56.65l.09,4.19a1.38,1.38,0,0,1-1.58,1.58h-5.49a1.38,1.38,0,0,1-1.58-1.58l.19-4.28a.68.68,0,0,0-.56-.65c-10.61-1.3-16.75-7.72-16.75-16.65v-4a1.42,1.42,0,0,1,1.58-1.58h9.68c1,0,1.58.47,1.58,1.21v1.3c0,4.75,3.07,8.84,9.4,8.84,5.95,0,8.47-3.63,8.47-7.35,0-6.6-12.1-7.63-21-13.4-5.77-3.53-9.77-8.09-9.77-16,0-9.77,6-16.66,16.74-18.24a.67.67,0,0,0,.56-.65l-.18-5a1.39,1.39,0,0,1,1.58-1.59H285a1.42,1.42,0,0,1,1.58,1.59l-.09,4.93a.68.68,0,0,0,.56.65c11.16,1.21,17.49,8,17.49,17.59v3.07a1.42,1.42,0,0,1-1.58,1.58h-9.77c-1,0-1.58-.37-1.58-.93V230c0-4.93-2.79-9.4-9.31-9.4-5.21,0-8.37,2.7-8.37,6.88,0,6.05,8.47,7,17.21,10.8,9.59,4.28,13.78,10.23,13.78,18.42C305,266.9,298.72,274.15,287.37,275.64Z" style="fill:#263238"></path></g><g id="freepik--House--inject-3"><polygon points="120.08 445.73 58.57 445.73 58.57 378.94 87.47 349.04 120.08 378.94 120.08 445.73" style="fill:#999;stroke:#263238;stroke-linecap:round;stroke-linejoin:round"></polygon><polygon points="321.81 445.73 174.41 445.73 174.41 302.94 259.48 267.42 321.81 302.94 321.81 445.73" style="fill:#999;stroke:#263238;stroke-linecap:round;stroke-linejoin:round"></polygon><rect x="117.35" y="366.35" width="76.73" height="79.47" style="fill:#fff;stroke:#263238;stroke-linecap:round;stroke-linejoin:round"></rect><rect x="240.5" y="378.94" width="42.15" height="66.88" style="fill:#c2c2c2;stroke:#263238;stroke-linecap:round;stroke-linejoin:round"></rect><rect x="249.94" y="388.38" width="19.34" height="57.44" style="fill:#fff;stroke:#263238;stroke-linecap:round;stroke-linejoin:round"></rect><rect x="252.99" y="388.38" width="13.24" height="57.44" style="fill:#263238;stroke:#263238;stroke-linecap:round;stroke-linejoin:round"></rect><rect x="229.99" y="439.72" width="36.24" height="3.69" style="fill:#fff;stroke:#263238;stroke-linecap:round;stroke-linejoin:round"></rect><rect x="249.94" y="388.38" width="19.34" height="4.72" style="fill:#fff;stroke:#263238;stroke-linecap:round;stroke-linejoin:round"></rect><rect x="74.53" y="388.38" width="31.02" height="57.44" style="fill:#fff;stroke:#263238;stroke-linecap:round;stroke-linejoin:round"></rect><rect x="79.41" y="388.38" width="21.24" height="57.44" style="fill:#263238;stroke:#263238;stroke-linecap:round;stroke-linejoin:round"></rect><rect x="74.53" y="388.38" width="31.02" height="4.72" style="fill:#fff;stroke:#263238;stroke-linecap:round;stroke-linejoin:round"></rect><rect x="190.93" y="377.59" width="24.65" height="44.62" style="fill:#c2c2c2;stroke:#263238;stroke-linecap:round;stroke-linejoin:round"></rect><polygon points="399.43 445.73 293.48 445.73 293.48 302.94 345.83 267.42 399.43 302.94 399.43 445.73" style="fill:#fff;stroke:#263238;stroke-linecap:round;stroke-linejoin:round"></polygon><polygon points="400.76 303.41 345.73 267.71 293.04 303.72 293.04 307.2 346.11 271.19 400.76 306.89 400.76 303.41" style="fill:#fff;stroke:#263238;stroke-linecap:round;stroke-linejoin:round"></polygon><polygon points="332.3 276.6 287.33 348.51 293.48 349.3 340.29 272.57 399.43 359.82 402.58 359.69 343.58 268.95 332.3 276.6" style="fill:#263238;stroke:#263238;stroke-linecap:round;stroke-linejoin:round"></polygon><polygon points="293.48 302.94 168.11 302.94 217.67 267.42 345.73 268.14 293.48 302.94" style="fill:#263238;stroke:#263238;stroke-linecap:round;stroke-linejoin:round"></polygon><rect x="312.02" y="364.55" width="59.44" height="81.18" style="fill:#bababa;stroke:#263238;stroke-linecap:round;stroke-linejoin:round"></rect><rect x="316.74" y="364.55" width="59.44" height="81.18" style="fill:#fff;stroke:#263238;stroke-linecap:round;stroke-linejoin:round"></rect><rect x="325.76" y="376.87" width="41.39" height="42.76" style="fill:#fff;stroke:#263238;stroke-linecap:round;stroke-linejoin:round;stroke-width:2px"></rect><rect x="337.76" y="376.87" width="17.4" height="42.76" style="fill:#fff;stroke:#263238;stroke-linecap:round;stroke-linejoin:round;stroke-width:2px"></rect><rect x="305.5" y="360.92" width="72.48" height="7.25" style="fill:#bababa;stroke:#263238;stroke-linecap:round;stroke-linejoin:round"></rect><rect x="310.22" y="360.92" width="72.48" height="7.25" style="fill:#fff;stroke:#263238;stroke-linecap:round;stroke-linejoin:round"></rect><rect x="267.51" y="377.59" width="3.68" height="39.14" style="fill:#fff;stroke:#263238;stroke-linecap:round;stroke-linejoin:round"></rect><rect x="277.76" y="377.59" width="3.68" height="39.14" style="fill:#fff;stroke:#263238;stroke-linecap:round;stroke-linejoin:round"></rect><rect x="266.23" y="416.19" width="6.09" height="4.39" style="fill:#fff;stroke:#263238;stroke-linecap:round;stroke-linejoin:round"></rect><rect x="276.55" y="416.19" width="6.09" height="4.39" style="fill:#fff;stroke:#263238;stroke-linecap:round;stroke-linejoin:round"></rect><rect x="266.23" y="381.5" width="6.09" height="2.47" style="fill:#fff;stroke:#263238;stroke-linecap:round;stroke-linejoin:round"></rect><rect x="276.55" y="381.5" width="6.09" height="2.47" style="fill:#fff;stroke:#263238;stroke-linecap:round;stroke-linejoin:round"></rect><rect x="263.31" y="420.21" width="21.53" height="25.52" style="fill:#fff;stroke:#263238;stroke-linecap:round;stroke-linejoin:round"></rect><rect x="215.58" y="377.59" width="3.68" height="39.14" style="fill:#fff;stroke:#263238;stroke-linecap:round;stroke-linejoin:round"></rect><rect x="225.83" y="377.59" width="3.68" height="39.14" style="fill:#fff;stroke:#263238;stroke-linecap:round;stroke-linejoin:round"></rect><rect x="214.3" y="416.19" width="6.09" height="4.39" style="fill:#fff;stroke:#263238;stroke-linecap:round;stroke-linejoin:round"></rect><rect x="224.62" y="416.19" width="6.09" height="4.39" style="fill:#fff;stroke:#263238;stroke-linecap:round;stroke-linejoin:round"></rect><rect x="214.3" y="381.5" width="6.09" height="2.47" style="fill:#fff;stroke:#263238;stroke-linecap:round;stroke-linejoin:round"></rect><rect x="224.62" y="381.5" width="6.09" height="2.47" style="fill:#fff;stroke:#263238;stroke-linecap:round;stroke-linejoin:round"></rect><rect x="211.39" y="420.21" width="21.53" height="25.52" style="fill:#fff;stroke:#263238;stroke-linecap:round;stroke-linejoin:round"></rect><rect x="185.67" y="420.21" width="26.25" height="25.52" style="fill:#999;stroke:#263238;stroke-linecap:round;stroke-linejoin:round"></rect><polygon points="284.85 381.22 203.67 381.22 217.44 373.97 284.85 373.97 284.85 381.22" style="fill:#fff;stroke:#263238;stroke-linecap:round;stroke-linejoin:round"></polygon><line x1="326.16" y1="387.74" x2="366.75" y2="387.74" style="fill:none;stroke:#263238;stroke-linecap:round;stroke-linejoin:round"></line><line x1="326.16" y1="397.89" x2="366.75" y2="397.89" style="fill:none;stroke:#263238;stroke-linecap:round;stroke-linejoin:round"></line><line x1="326.16" y1="408.04" x2="366.75" y2="408.04" style="fill:none;stroke:#263238;stroke-linecap:round;stroke-linejoin:round"></line><polygon points="83.88 347.66 54.46 379.57 56.92 379.57 85.81 349.04 83.88 347.66" style="fill:#263238;stroke:#263238;stroke-linecap:round;stroke-linejoin:round"></polygon><polygon points="114.99 378.15 195.65 378.15 256.08 347.66 83.88 347.66 114.99 378.15" style="fill:#263238;stroke:#263238;stroke-linecap:round;stroke-linejoin:round"></polygon><polygon points="298.07 347.66 251.36 347.66 168.11 378.15 209.81 378.15 298.07 347.66" style="fill:#263238;stroke:#263238;stroke-linecap:round;stroke-linejoin:round"></polygon><path d="M402.58,351.05l-54.87-84.19a2.35,2.35,0,0,0-4,.06l-49.37,81.54L198.8,379.2v4.93l97.78-31.41a2.36,2.36,0,0,0,1.33-1l47.89-79.12,56.78,87.12Z" style="fill:#fff;stroke:#263238;stroke-linecap:round;stroke-linejoin:round"></path><rect x="262.14" y="308.25" width="16.67" height="27.54" style="fill:none;stroke:#263238;stroke-linecap:round;stroke-linejoin:round;stroke-width:2px"></rect><line x1="270.47" y1="308.98" x2="270.47" y2="335.07" style="fill:none;stroke:#263238;stroke-linecap:round;stroke-linejoin:round"></line><line x1="278.44" y1="322.02" x2="262.5" y2="322.02" style="fill:none;stroke:#263238;stroke-linecap:round;stroke-linejoin:round"></line><rect x="144.83" y="388.77" width="16.67" height="27.54" style="fill:none;stroke:#263238;stroke-linecap:round;stroke-linejoin:round;stroke-width:2px"></rect><line x1="153.16" y1="389.49" x2="153.16" y2="415.59" style="fill:none;stroke:#263238;stroke-linecap:round;stroke-linejoin:round"></line><line x1="161.14" y1="402.54" x2="145.19" y2="402.54" style="fill:none;stroke:#263238;stroke-linecap:round;stroke-linejoin:round"></line><rect x="336.81" y="307.73" width="16.67" height="27.54" style="fill:none;stroke:#263238;stroke-linecap:round;stroke-linejoin:round;stroke-width:2px"></rect><line x1="345.14" y1="308.45" x2="345.14" y2="334.55" style="fill:none;stroke:#263238;stroke-linecap:round;stroke-linejoin:round"></line><line x1="353.11" y1="321.5" x2="337.17" y2="321.5" style="fill:none;stroke:#263238;stroke-linecap:round;stroke-linejoin:round"></line><rect x="226.5" y="308.25" width="16.67" height="27.54" style="fill:none;stroke:#263238;stroke-linecap:round;stroke-linejoin:round;stroke-width:2px"></rect><line x1="234.83" y1="308.98" x2="234.83" y2="335.07" style="fill:none;stroke:#263238;stroke-linecap:round;stroke-linejoin:round"></line><line x1="242.81" y1="322.02" x2="226.86" y2="322.02" style="fill:none;stroke:#263238;stroke-linecap:round;stroke-linejoin:round"></line><rect x="190.86" y="308.25" width="16.67" height="27.54" style="fill:none;stroke:#263238;stroke-linecap:round;stroke-linejoin:round;stroke-width:2px"></rect><line x1="199.2" y1="308.98" x2="199.2" y2="335.07" style="fill:none;stroke:#263238;stroke-linecap:round;stroke-linejoin:round"></line><line x1="207.17" y1="322.02" x2="191.22" y2="322.02" style="fill:none;stroke:#263238;stroke-linecap:round;stroke-linejoin:round"></line><polygon points="133.49 367.14 124.05 367.14 113.04 356.12 122.48 356.12 133.49 367.14" style="fill:#6e6e6e"></polygon><polygon points="162.6 367.14 153.16 367.14 142.15 356.12 151.59 356.12 162.6 367.14" style="fill:#6e6e6e"></polygon><rect x="80.49" y="397.03" width="3.42" height="11.02" style="fill:#b5b5b5;stroke:#263238;stroke-linecap:round;stroke-linejoin:round"></rect><rect x="84.29" y="397.03" width="3.42" height="11.02" style="fill:#b5b5b5;stroke:#263238;stroke-linecap:round;stroke-linejoin:round"></rect><rect x="88.09" y="397.03" width="3.43" height="11.02" style="fill:#b5b5b5;stroke:#263238;stroke-linecap:round;stroke-linejoin:round"></rect><rect x="91.9" y="397.03" width="3.43" height="11.02" style="fill:#b5b5b5;stroke:#263238;stroke-linecap:round;stroke-linejoin:round"></rect><rect x="95.7" y="397.03" width="3.42" height="11.02" style="fill:#b5b5b5;stroke:#263238;stroke-linecap:round;stroke-linejoin:round"></rect><rect x="114.2" y="378.58" width="84.6" height="5.55" style="fill:#fff;stroke:#263238;stroke-linecap:round;stroke-linejoin:round"></rect><rect x="167.05" y="378.58" width="31.75" height="5.55" style="fill:#bababa;stroke:#263238;stroke-linecap:round;stroke-linejoin:round"></rect><polygon points="114.2 378.58 83.88 347.66 54.46 379.57 58.57 379.57 83.99 352.47 114.2 384.13 114.2 378.58" style="fill:#bababa;stroke:#263238;stroke-linecap:round;stroke-linejoin:round"></polygon><rect x="229.99" y="442.37" width="36.24" height="3.45" style="fill:#fff;stroke:#263238;stroke-linecap:round;stroke-linejoin:round"></rect><rect x="167.63" y="303.72" width="125.41" height="3.47" style="fill:#bababa;stroke:#263238;stroke-linecap:round;stroke-linejoin:round"></rect></g><g id="freepik--Car--inject-3"><rect x="147.29" y="411.39" width="8.88" height="5.55" rx="2.36" style="fill:#263238;stroke:#263238;stroke-linecap:round;stroke-linejoin:round"></rect><path d="M177.93,397.69h36.36l18.51,13.7,31.83,5.55V433.6H122.12l-10.73-4.81v-6.3l44.42-9.25,18.95-14.48A5.24,5.24,0,0,1,177.93,397.69Z" style="fill:#3E54AC;stroke:#263238;stroke-linecap:round;stroke-linejoin:round"></path><path d="M184.31,413.24H155.44l18.95-14.48a5.24,5.24,0,0,1,3.17-1.07h27.11Z" style="fill:#fff;stroke:#263238;stroke-linecap:round;stroke-linejoin:round"></path><circle cx="166.17" cy="435.08" r="10.73" transform="translate(-258.98 244.93) rotate(-45)" style="fill:#fff;stroke:#263238;stroke-linecap:round;stroke-linejoin:round"></circle><circle cx="169.5" cy="435.08" r="10.73" transform="translate(-152.69 97.11) rotate(-22.35)" style="fill:#263238;stroke:#263238;stroke-linecap:round;stroke-linejoin:round"></circle><path d="M175.05,435.08a5.55,5.55,0,1,1-5.55-5.55A5.54,5.54,0,0,1,175.05,435.08Z" style="fill:#fff;stroke:#263238;stroke-linecap:round;stroke-linejoin:round"></path><path d="M141.74,424.35a10.26,10.26,0,0,0-1.67.14,10,10,0,0,0-1.66-.14,10.74,10.74,0,1,0,0,21.47,10,10,0,0,0,1.66-.15,10.27,10.27,0,0,0,1.67.15,10.74,10.74,0,0,0,0-21.47Z" style="fill:#263238;stroke:#263238;stroke-linecap:round;stroke-linejoin:round"></path><path d="M223.55,424.35a10.17,10.17,0,0,0-1.67.14,10.17,10.17,0,0,0-1.67-.14,10.74,10.74,0,0,0,0,21.47,10.17,10.17,0,0,0,1.67-.15,10.17,10.17,0,0,0,1.67.15,10.74,10.74,0,0,0,0-21.47Z" style="fill:#263238;stroke:#263238;stroke-linecap:round;stroke-linejoin:round"></path><circle cx="246.13" cy="435.08" r="10.73" transform="translate(-234.02 574.14) rotate(-76.65)" style="fill:#fff;stroke:#263238;stroke-linecap:round;stroke-linejoin:round"></circle><circle cx="249.46" cy="435.08" r="10.73" transform="translate(-146.68 127.51) rotate(-22.35)" style="fill:#263238;stroke:#263238;stroke-linecap:round;stroke-linejoin:round"></circle><path d="M255,435.08a5.56,5.56,0,1,1-5.55-5.55A5.55,5.55,0,0,1,255,435.08Z" style="fill:#fff;stroke:#263238;stroke-linecap:round;stroke-linejoin:round"></path><path d="M261.3,411.39l-16.38-12.13a8,8,0,0,0-4.77-1.57H204.67l-20.36,15.55-44.42,9.25v6.3l10.73,4.81h7.21a8.3,8.3,0,0,1-.17-1.67v-.37a8,8,0,0,1,8-7.95h8.15a8,8,0,0,1,8,7.95v.37c0,.58-.07,1.13-.18,5.74H237.6c-.11-4.61-.17-5.16-.17-5.74v-.37a8,8,0,0,1,7.95-7.95h8.15a8,8,0,0,1,8,7.95v.37a8.29,8.29,0,0,1-.18,1.67h11.84V421.24a6.76,6.76,0,0,0-3.89-6.12Z" style="fill:#3E54AC;stroke:#263238;stroke-linecap:round;stroke-linejoin:round"></path><polygon points="222.06 400.29 205.53 400.29 188.56 413.24 222.06 413.24 222.06 400.29" style="fill:#fff;stroke:#263238;stroke-linecap:round;stroke-linejoin:round"></polygon><path d="M224.84,400.29H238.3a8,8,0,0,1,4.86,1.64L258,413.24H224.84Z" style="fill:#fff;stroke:#263238;stroke-linecap:round;stroke-linejoin:round"></path><rect x="111.39" y="422.49" width="28.5" height="6.29" style="fill:#fff;stroke:#263238;stroke-linecap:round;stroke-linejoin:round"></rect><rect x="266.11" y="429.9" width="9.25" height="5.18" style="fill:#263238;stroke:#263238;stroke-linecap:round;stroke-linejoin:round"></rect><rect x="110.28" y="428.79" width="39.61" height="6.29" style="fill:#263238;stroke:#263238;stroke-linecap:round;stroke-linejoin:round"></rect><rect x="189.49" y="411.39" width="8.88" height="5.55" rx="2.36" style="fill:#263238;stroke:#263238;stroke-linecap:round;stroke-linejoin:round"></rect><rect x="131.74" y="422.87" width="6.66" height="5.18" style="fill:#fff;stroke:#263238;stroke-linecap:round;stroke-linejoin:round"></rect><rect x="112.5" y="422.87" width="6.66" height="5.18" style="fill:#fff;stroke:#263238;stroke-linecap:round;stroke-linejoin:round"></rect><line x1="119.16" y1="424.72" x2="131.37" y2="424.72" style="fill:none;stroke:#263238;stroke-linecap:round;stroke-linejoin:round"></line><line x1="119.16" y1="426.61" x2="131.37" y2="426.61" style="fill:none;stroke:#263238;stroke-linecap:round;stroke-linejoin:round"></line><line x1="186.06" y1="431.37" x2="234.62" y2="431.37" style="fill:none;stroke:#263238;stroke-linecap:round;stroke-linejoin:round;stroke-width:2px"></line><path d="M223.18,398.94v35.9h-38v-4.27a13,13,0,0,0-2.13-7.13l-1.17-1.78,6.59-5.9" style="fill:none;stroke:#263238;stroke-linecap:round;stroke-linejoin:round"></path><path d="M258.38,414v8.15H244a7.19,7.19,0,0,0-5.08,2.11l-.82.82a7.19,7.19,0,0,0-2.1,5.08v4.3H225.26" style="fill:none;stroke:#263238;stroke-linecap:round;stroke-linejoin:round"></path><rect x="217.49" y="417.15" width="4.51" height="2.58" style="fill:#263238;stroke:#263238;stroke-linecap:round;stroke-linejoin:round"></rect><rect x="252.49" y="417.15" width="4.51" height="2.58" style="fill:#263238;stroke:#263238;stroke-linecap:round;stroke-linejoin:round"></rect></g><g id="freepik--Plants--inject-3"><path d="M408.78,445.62s-8.62-8.62-6.2-15.18,9,3.11,9,3.11.69-15.18,5.52-15.18,3.8,12.76,3.8,12.76,2.75-3.45,5.86-1.38.34,12.76.34,12.76,2.07-9.31,6.56-9.31.34,12.07.34,12.07" style="fill:#3E54AC"></path><path d="M406.72,445.27s-5.52-7.58-3.8-9,4.14,2.76,4.14,2.76-1.72-10,3.79-10.35,3.45,12.07,3.45,12.07,2.76-7.59,5.52-5.52,1.73,8.28,1.73,8.28.34-5.17,3.79-5.17,5.52,4.13,5.52,4.13,3.1-5.17,5.52-3.44,0,6.55,0,6.55" style="fill:none;stroke:#263238;stroke-linecap:round;stroke-linejoin:round"></path><path d="M299.52,445.62s-6.11-6.11-4.4-10.75,6.35,2.2,6.35,2.2.49-10.76,3.91-10.76,2.69,9.05,2.69,9.05,2-2.45,4.16-1,.24,9,.24,9,1.47-6.6,4.64-6.6.25,8.55.25,8.55" style="fill:#3E54AC"></path><path d="M298.05,445.37s-3.91-5.37-2.68-6.35,2.93,2,2.93,2-1.22-7.09,2.69-7.33,2.44,8.55,2.44,8.55,1.95-5.38,3.91-3.91,1.22,5.86,1.22,5.86.25-3.66,2.69-3.66,3.91,2.93,3.91,2.93,2.2-3.67,3.91-2.44,0,4.64,0,4.64" style="fill:none;stroke:#263238;stroke-linecap:round;stroke-linejoin:round"></path><path d="M35.71,445.62s-6.4-6.4-4.61-11.27,6.66,2.3,6.66,2.3.52-11.26,4.1-11.26,2.82,9.47,2.82,9.47,2-2.56,4.35-1,.26,9.47.26,9.47,1.53-6.91,4.86-6.91.26,9,.26,9" style="fill:#3E54AC"></path><path d="M34.18,445.36s-4.1-5.63-2.82-6.66,3.07,2.05,3.07,2.05-1.28-7.42,2.82-7.68,2.56,9,2.56,9,2-5.63,4.1-4.1,1.28,6.15,1.28,6.15.26-3.84,2.82-3.84,4.1,3.07,4.1,3.07,2.3-3.84,4.09-2.56,0,4.87,0,4.87" style="fill:none;stroke:#263238;stroke-linecap:round;stroke-linejoin:round"></path></g><g id="freepik--Floor--inject-3"><line x1="29" y1="445.82" x2="440" y2="445.82" style="fill:none;stroke:#263238;stroke-linecap:round;stroke-linejoin:round"></line></g></svg>