<svg xmlns="http://www.w3.org/2000/svg" viewBox="0 0 500 500"><g id="freepik--background-complete--inject-19"><rect y="382.4" width="500" height="0.25" style="fill:#ebebeb"></rect><rect x="416.78" y="398.49" width="33.12" height="0.25" style="fill:#ebebeb"></rect><rect x="322.53" y="401.21" width="8.69" height="0.25" style="fill:#ebebeb"></rect><rect x="396.59" y="389.21" width="19.19" height="0.25" style="fill:#ebebeb"></rect><rect x="52.46" y="390.89" width="43.19" height="0.25" style="fill:#ebebeb"></rect><rect x="104.56" y="390.89" width="6.33" height="0.25" style="fill:#ebebeb"></rect><rect x="131.47" y="395.11" width="93.68" height="0.25" style="fill:#ebebeb"></rect><path d="M237,337.8H43.91a5.71,5.71,0,0,1-5.7-5.71V60.66A5.71,5.71,0,0,1,43.91,55H237a5.71,5.71,0,0,1,5.71,5.71V332.09A5.71,5.71,0,0,1,237,337.8ZM43.91,55.2a5.46,5.46,0,0,0-5.45,5.46V332.09a5.46,5.46,0,0,0,5.45,5.46H237a5.47,5.47,0,0,0,5.46-5.46V60.66A5.47,5.47,0,0,0,237,55.2Z" style="fill:#ebebeb"></path><path d="M453.31,337.8H260.21a5.72,5.72,0,0,1-5.71-5.71V60.66A5.72,5.72,0,0,1,260.21,55h193.1A5.71,5.71,0,0,1,459,60.66V332.09A5.71,5.71,0,0,1,453.31,337.8ZM260.21,55.2a5.47,5.47,0,0,0-5.46,5.46V332.09a5.47,5.47,0,0,0,5.46,5.46h193.1a5.47,5.47,0,0,0,5.46-5.46V60.66a5.47,5.47,0,0,0-5.46-5.46Z" style="fill:#ebebeb"></path><path d="M298.83,94.17A4.83,4.83,0,0,0,294,89.34a4.92,4.92,0,0,0-1.39.2,10.21,10.21,0,0,0-10.12-11.71,10.6,10.6,0,0,0-1.88.17A8.94,8.94,0,0,0,264,82.52h-.15a8.24,8.24,0,0,0,0,16.48h30.26A4.82,4.82,0,0,0,298.83,94.17Z" style="fill:#f5f5f5"></path><path d="M230.73,119a2.41,2.41,0,0,0-2.41-2.41,2.26,2.26,0,0,0-.69.1,6,6,0,0,0,.05-.74,5.11,5.11,0,0,0-5.11-5.12,4.94,4.94,0,0,0-.95.09,4.47,4.47,0,0,0-8.29,2.26h-.07a4.12,4.12,0,0,0,0,8.24h15.13A2.4,2.4,0,0,0,230.73,119Z" style="fill:#f5f5f5"></path><path d="M94.36,200.24A2.41,2.41,0,0,0,92,197.83a2.21,2.21,0,0,0-.69.1,6,6,0,0,0,0-.74,5.12,5.12,0,0,0-5.12-5.12,4.91,4.91,0,0,0-.94.09A4.47,4.47,0,0,0,77,194.42h-.07a4.12,4.12,0,0,0,0,8.24H92A2.4,2.4,0,0,0,94.36,200.24Z" style="fill:#f5f5f5"></path><path d="M420.56,201.22a2.42,2.42,0,0,0-2.42-2.42,2.26,2.26,0,0,0-.69.11,6.16,6.16,0,0,0,.05-.75,5.11,5.11,0,0,0-5.11-5.11,4.94,4.94,0,0,0-.95.09,4.46,4.46,0,0,0-8.28,2.26h-.08a4.12,4.12,0,1,0,0,8.24h15.13A2.42,2.42,0,0,0,420.56,201.22Z" style="fill:#f5f5f5"></path><path d="M166.28,94.39a3.16,3.16,0,0,0-3.17-3.16,3,3,0,0,0-.91.13,6.24,6.24,0,0,0,.07-1,6.7,6.7,0,0,0-6.71-6.71,6.26,6.26,0,0,0-1.23.12,5.86,5.86,0,0,0-10.87,3h-.1a5.4,5.4,0,0,0,0,10.8H163.2A3.17,3.17,0,0,0,166.28,94.39Z" style="fill:#f5f5f5"></path><path d="M403,170.37a8.72,8.72,0,0,0,.29-1.88c.23-3.9,3.95-3.28,7.11-3.81,2.47-.41-4.07-6.65.91-8.67a4.31,4.31,0,0,0,2.4-1.67,2.83,2.83,0,0,0-1.08-3.46,6.75,6.75,0,0,0-3.78-.95c-.82-1-.15-2.47.63-3.48s1.75-2.16,1.45-3.4c-.45-1.88-3.07-2-5-1.58-.7-1.14-.69-2.56-1-3.85s-1.36-2.64-2.69-2.48-2,1.56-3.23,1.85c-1.42.34-2.65-.92-3.76-1.86s-3.07-1.53-3.83-.29c-.46.74-.19,1.78-.67,2.51-.82,1.27-2.79.48-4-.42s-3.16-1.71-4-.46a5.19,5.19,0,0,0-.48,1.3c-.57,1.66-2.37,2.49-3.77,3.56s-2.51,3.19-1.33,4.49c.59.64,1.62.9,1.91,1.72.36,1-.68,1.94-1.51,2.64-1.38,1.17-1.63,4.68.19,5.63.77.41,1.89.53,2.07,1.37s-.59,1.34-1.1,1.92a3.61,3.61,0,0,0,1.11,5.39c.43.21,1,.38,1.13.84a1.72,1.72,0,0,1-.1,1,5.33,5.33,0,0,0-.18,2,.9.9,0,0,0,.24.61.94.94,0,0,0,.58.16c2.63.12,3.89-.81,5.5,1.47a1.82,1.82,0,0,0,.55.59,1.74,1.74,0,0,0,.72.18c1.81.15,3-1,4.64-1.19,2.29-.29,2.78.89,4.79,1.84C400.83,173.45,402.37,172.53,403,170.37Z" style="fill:#f5f5f5"></path><path d="M372.69,167.09a8.53,8.53,0,0,0,.29-1.87c.23-3.9,3.95-3.28,7.11-3.81,2.47-.41-4.07-6.65.91-8.67a4.31,4.31,0,0,0,2.4-1.67,2.82,2.82,0,0,0-1.08-3.46,6.75,6.75,0,0,0-3.78-1c-.82-1-.16-2.47.63-3.48s1.75-2.16,1.45-3.4c-.45-1.88-3.07-1.95-5-1.58-.7-1.14-.69-2.56-1-3.85s-1.36-2.64-2.69-2.48-2,1.56-3.23,1.85c-1.42.33-2.65-.92-3.77-1.86s-3.06-1.53-3.83-.29c-.46.74-.18,1.78-.66,2.51-.83,1.27-2.79.48-4-.42s-3.16-1.71-4-.47a5.41,5.41,0,0,0-.48,1.31c-.57,1.66-2.37,2.49-3.77,3.56s-2.51,3.18-1.33,4.49c.59.64,1.62.9,1.91,1.72.36,1-.69,1.94-1.51,2.64-1.38,1.17-1.63,4.68.19,5.63.77.41,1.89.53,2.07,1.37s-.59,1.34-1.1,1.92a3.61,3.61,0,0,0,1.11,5.39c.43.21,1,.38,1.13.84a1.69,1.69,0,0,1-.1,1,5.37,5.37,0,0,0-.18,2,.9.9,0,0,0,.24.62.94.94,0,0,0,.58.16c2.62.12,3.89-.81,5.5,1.47a1.77,1.77,0,0,0,.54.58,1.84,1.84,0,0,0,.73.19c1.81.14,3-1,4.64-1.19,2.29-.3,2.77.89,4.79,1.83C370.56,170.18,372.1,169.26,372.69,167.09Z" style="fill:#f5f5f5"></path><path d="M369.78,147.82a9.31,9.31,0,0,0,.28-1.88c.23-3.9,3.95-3.28,7.11-3.81,2.47-.41-4.07-6.65.91-8.67a4.37,4.37,0,0,0,2.41-1.67,2.85,2.85,0,0,0-1.09-3.46,6.66,6.66,0,0,0-3.78-.94c-.81-1-.15-2.48.63-3.49s1.75-2.15,1.46-3.4c-.45-1.88-3.08-1.94-5-1.58-.7-1.13-.68-2.55-1-3.84s-1.37-2.65-2.69-2.49-2,1.56-3.24,1.85c-1.42.34-2.65-.92-3.76-1.86s-3.07-1.53-3.83-.29c-.46.74-.19,1.78-.67,2.51-.82,1.27-2.79.48-4-.42s-3.16-1.71-4-.46a5.17,5.17,0,0,0-.47,1.3c-.58,1.66-2.38,2.49-3.78,3.56s-2.51,3.19-1.32,4.49c.58.64,1.61.9,1.9,1.72.36,1-.68,1.94-1.51,2.64-1.38,1.17-1.63,4.68.19,5.64.77.4,1.89.52,2.08,1.36s-.6,1.34-1.11,1.93a3.62,3.62,0,0,0,1.11,5.38c.44.21,1,.38,1.13.84a1.72,1.72,0,0,1-.1,1,5.33,5.33,0,0,0-.18,1.95,1,1,0,0,0,.24.61,1,1,0,0,0,.58.16c2.63.12,3.9-.81,5.5,1.48a1.79,1.79,0,0,0,.55.58,1.74,1.74,0,0,0,.72.18c1.81.15,3-1,4.64-1.19,2.29-.29,2.78.89,4.8,1.84C367.64,150.9,369.18,150,369.78,147.82Z" style="fill:#f5f5f5"></path><path d="M349.84,157.42a9.2,9.2,0,0,0,.28-1.88c.23-3.89,3.95-3.28,7.11-3.8,2.47-.42-4.07-6.66.91-8.67a4.43,4.43,0,0,0,2.41-1.68,2.83,2.83,0,0,0-1.09-3.45,6.59,6.59,0,0,0-3.78-.95c-.81-1-.15-2.48.63-3.49s1.75-2.15,1.45-3.4c-.45-1.88-3.07-1.94-5-1.58-.7-1.13-.68-2.55-1-3.84s-1.37-2.65-2.69-2.48-2,1.56-3.24,1.84c-1.42.34-2.65-.92-3.76-1.86s-3.07-1.53-3.83-.29c-.46.74-.19,1.78-.67,2.51-.82,1.27-2.79.48-4-.42s-3.16-1.71-4-.46a5.17,5.17,0,0,0-.47,1.3c-.58,1.66-2.38,2.49-3.78,3.56s-2.51,3.19-1.32,4.49c.58.64,1.61.9,1.9,1.72.36,1-.68,1.94-1.51,2.65-1.38,1.17-1.63,4.67.19,5.63.77.4,1.89.52,2.08,1.37s-.6,1.34-1.11,1.92a3.61,3.61,0,0,0,1.11,5.38c.43.21,1,.38,1.13.84a1.72,1.72,0,0,1-.1,1,5.35,5.35,0,0,0-.18,1.95,1,1,0,0,0,.24.61,1,1,0,0,0,.58.16c2.63.12,3.89-.81,5.5,1.48a1.79,1.79,0,0,0,.55.58,1.6,1.6,0,0,0,.72.18c1.81.15,3-1,4.64-1.19,2.29-.29,2.78.89,4.8,1.84C347.7,160.5,349.24,159.58,349.84,157.42Z" style="fill:#f5f5f5"></path><path d="M329.68,153a9.92,9.92,0,0,0,.29-1.87c.23-3.9,3.95-3.28,7.11-3.81,2.47-.41-4.07-6.65.91-8.67a4.39,4.39,0,0,0,2.4-1.67,2.82,2.82,0,0,0-1.08-3.46,6.77,6.77,0,0,0-3.78-.95c-.82-1-.16-2.47.63-3.48s1.75-2.16,1.45-3.4c-.45-1.88-3.07-2-5-1.58-.7-1.14-.69-2.56-1-3.85s-1.36-2.64-2.69-2.48-2,1.56-3.23,1.85c-1.42.33-2.65-.92-3.77-1.86s-3.06-1.54-3.83-.29c-.46.74-.18,1.78-.66,2.51-.83,1.27-2.79.48-4-.42s-3.16-1.72-4-.47a5.38,5.38,0,0,0-.47,1.31c-.57,1.66-2.37,2.49-3.77,3.56s-2.51,3.18-1.33,4.49c.59.64,1.61.9,1.91,1.72.36,1-.69,1.94-1.51,2.64-1.38,1.17-1.63,4.68.19,5.63.76.41,1.89.53,2.07,1.37s-.59,1.34-1.1,1.92a3.62,3.62,0,0,0,1.1,5.39c.44.21,1,.38,1.14.84a1.69,1.69,0,0,1-.1,1,5.37,5.37,0,0,0-.18,1.95.9.9,0,0,0,.24.62.93.93,0,0,0,.57.16c2.63.12,3.9-.81,5.51,1.47a1.77,1.77,0,0,0,.54.58,1.67,1.67,0,0,0,.73.18c1.81.15,3-1,4.64-1.18,2.29-.3,2.77.88,4.79,1.83C327.55,156.07,329.09,155.15,329.68,153Z" style="fill:#f5f5f5"></path><path d="M329.42,174.54a7,7,0,0,0,.22-1.48c.18-3.06,3.11-2.58,5.6-3,1.95-.33-3.2-5.24.72-6.83a3.42,3.42,0,0,0,1.89-1.32,2.22,2.22,0,0,0-.85-2.72,5.28,5.28,0,0,0-3-.75c-.64-.77-.12-1.94.5-2.74s1.38-1.7,1.14-2.68c-.35-1.48-2.42-1.53-3.91-1.24a10.93,10.93,0,0,1-.81-3c-.27-1-1.08-2.08-2.12-1.95s-1.58,1.23-2.54,1.45c-1.12.27-2.09-.72-3-1.47s-2.41-1.2-3-.22c-.36.58-.14,1.4-.52,2-.65,1-2.19.38-3.15-.33s-2.49-1.34-3.17-.36a4.43,4.43,0,0,0-.37,1c-.45,1.31-1.87,2-3,2.81s-2,2.51-1.05,3.53c.47.51,1.27.71,1.5,1.36.29.8-.53,1.53-1.18,2.08-1.09.92-1.29,3.68.15,4.43.6.32,1.48.42,1.63,1.08s-.47,1.06-.87,1.52a2.85,2.85,0,0,0,.87,4.24c.35.16.77.3.9.66a1.33,1.33,0,0,1-.09.8,4.15,4.15,0,0,0-.13,1.53.66.66,0,0,0,.18.48.73.73,0,0,0,.46.13c2.07.09,3.06-.64,4.33,1.16a1.46,1.46,0,0,0,.43.46,1.23,1.23,0,0,0,.57.14c1.42.12,2.35-.77,3.65-.93,1.81-.23,2.19.7,3.78,1.44C327.74,177,329,176.24,329.42,174.54Z" style="fill:#f5f5f5"></path><path d="M318.13,167.09a9.2,9.2,0,0,0,.28-1.87c.23-3.9,3.95-3.28,7.11-3.81,2.47-.41-4.07-6.65.91-8.67a4.37,4.37,0,0,0,2.41-1.67,2.84,2.84,0,0,0-1.09-3.46,6.75,6.75,0,0,0-3.78-1c-.81-1-.15-2.47.63-3.48s1.75-2.16,1.46-3.4c-.45-1.88-3.08-1.95-5-1.58-.7-1.14-.68-2.56-1-3.85s-1.37-2.64-2.69-2.48-2,1.56-3.24,1.85c-1.42.33-2.65-.92-3.76-1.86s-3.06-1.53-3.83-.29c-.46.74-.19,1.78-.66,2.51-.83,1.27-2.79.48-4-.42s-3.16-1.71-4-.47a5.38,5.38,0,0,0-.47,1.31c-.58,1.66-2.38,2.49-3.78,3.56s-2.51,3.18-1.32,4.49c.58.64,1.61.9,1.9,1.72.36,1-.68,1.94-1.51,2.64-1.38,1.17-1.62,4.68.19,5.63.77.41,1.89.53,2.08,1.37s-.6,1.34-1.11,1.92a3.63,3.63,0,0,0,1.11,5.39c.44.21,1,.38,1.13.84a1.69,1.69,0,0,1-.1,1,5.16,5.16,0,0,0-.17,2,.9.9,0,0,0,.23.62,1,1,0,0,0,.58.16c2.63.12,3.9-.81,5.5,1.47a1.8,1.8,0,0,0,.55.58,1.75,1.75,0,0,0,.72.19c1.81.14,3-1,4.64-1.19,2.29-.3,2.78.89,4.8,1.83C316,170.18,317.53,169.26,318.13,167.09Z" style="fill:#f5f5f5"></path><path d="M349.84,133.71a9.31,9.31,0,0,0,.28-1.88c.23-3.9,3.95-3.28,7.11-3.81,2.47-.41-4.07-6.65.91-8.67a4.37,4.37,0,0,0,2.41-1.67,2.85,2.85,0,0,0-1.09-3.46,6.75,6.75,0,0,0-3.78-1c-.81-1-.15-2.47.63-3.48s1.75-2.16,1.45-3.4c-.45-1.88-3.07-2-5-1.58-.7-1.14-.68-2.55-1-3.84s-1.37-2.65-2.69-2.49-2,1.56-3.24,1.85c-1.42.34-2.65-.92-3.76-1.86s-3.07-1.53-3.83-.29c-.46.74-.19,1.78-.67,2.51-.82,1.27-2.79.48-4-.42s-3.16-1.71-4-.46a5.17,5.17,0,0,0-.47,1.3c-.58,1.66-2.38,2.49-3.78,3.56s-2.51,3.19-1.32,4.49c.58.64,1.61.9,1.9,1.72.36,1-.68,1.94-1.51,2.64-1.38,1.17-1.63,4.68.19,5.64.77.4,1.89.52,2.08,1.36s-.6,1.34-1.11,1.93a3.61,3.61,0,0,0,1.11,5.38c.43.21,1,.38,1.13.84a1.72,1.72,0,0,1-.1,1,5.33,5.33,0,0,0-.18,1.95,1,1,0,0,0,.24.61,1,1,0,0,0,.58.16c2.63.12,3.89-.81,5.5,1.47a1.82,1.82,0,0,0,.55.59,1.74,1.74,0,0,0,.72.18c1.81.15,3-1,4.64-1.19,2.29-.29,2.78.89,4.8,1.84C347.7,136.79,349.24,135.87,349.84,133.71Z" style="fill:#f5f5f5"></path><path d="M375.73,135a9.2,9.2,0,0,0,.28-1.88c.23-3.89,3.95-3.27,7.11-3.8,2.47-.42-4.07-6.66.91-8.67a4.43,4.43,0,0,0,2.41-1.68,2.83,2.83,0,0,0-1.09-3.45,6.67,6.67,0,0,0-3.78-1c-.81-1-.15-2.48.63-3.48s1.75-2.16,1.45-3.41c-.45-1.87-3.07-1.94-5-1.58-.7-1.13-.68-2.55-1-3.84s-1.37-2.64-2.69-2.48-2,1.56-3.24,1.85c-1.42.33-2.65-.93-3.76-1.87s-3.07-1.53-3.83-.29c-.46.75-.19,1.78-.67,2.51-.82,1.27-2.79.48-4-.41s-3.16-1.72-4-.47a5.17,5.17,0,0,0-.47,1.3c-.58,1.67-2.38,2.49-3.78,3.56s-2.51,3.19-1.32,4.49c.58.64,1.61.9,1.9,1.72.36,1-.68,1.94-1.51,2.65-1.38,1.17-1.63,4.67.19,5.63.77.4,1.89.53,2.08,1.37s-.6,1.34-1.11,1.92a3.61,3.61,0,0,0,1.11,5.38c.43.21,1,.39,1.13.84a1.71,1.71,0,0,1-.1,1,5.35,5.35,0,0,0-.18,2,.88.88,0,0,0,.24.61.84.84,0,0,0,.58.16c2.63.12,3.89-.81,5.5,1.48a1.7,1.7,0,0,0,.55.58,1.6,1.6,0,0,0,.72.18c1.81.15,3-1,4.64-1.19,2.29-.29,2.78.89,4.8,1.84C373.59,138.11,375.13,137.19,375.73,135Z" style="fill:#f5f5f5"></path><path d="M391.45,145.62a9.92,9.92,0,0,0,.29-1.87c.23-3.9,3.94-3.28,7.11-3.81,2.47-.41-4.07-6.65.91-8.67a4.34,4.34,0,0,0,2.4-1.67,2.84,2.84,0,0,0-1.08-3.46,6.78,6.78,0,0,0-3.79-1c-.81-1-.15-2.47.64-3.48s1.75-2.16,1.45-3.4c-.45-1.88-3.07-2-5-1.58-.7-1.14-.69-2.56-1-3.85s-1.36-2.64-2.69-2.48-2,1.56-3.23,1.85c-1.42.34-2.65-.92-3.77-1.86s-3.06-1.53-3.83-.29c-.46.74-.18,1.78-.66,2.51-.83,1.27-2.79.48-4-.42s-3.16-1.71-4-.47a5.38,5.38,0,0,0-.47,1.31c-.58,1.66-2.37,2.49-3.77,3.56s-2.51,3.19-1.33,4.49c.59.64,1.61.9,1.9,1.72.37,1-.68,1.94-1.5,2.64-1.38,1.17-1.63,4.68.19,5.63.76.41,1.88.53,2.07,1.37s-.6,1.34-1.1,1.92a3.62,3.62,0,0,0,1.1,5.39c.44.21,1,.38,1.14.84a1.62,1.62,0,0,1-.11,1,5.63,5.63,0,0,0-.17,2,.9.9,0,0,0,.24.61.93.93,0,0,0,.57.16c2.63.12,3.9-.81,5.5,1.47a2.07,2.07,0,0,0,.55.59,1.83,1.83,0,0,0,.73.18c1.8.14,3-1,4.64-1.19,2.29-.3,2.77.89,4.79,1.83C389.32,148.71,390.86,147.79,391.45,145.62Z" style="fill:#f5f5f5"></path><path d="M386.68,159s-6.57,9.29-8.84,12.24-13.61,21.32-15.15,33.47c-.17,1.3-.33,2.41-.49,3.39,4.88,32.19,4.12,155.09,3.94,165.17h-20c3.8-75.53,3.1-179.31,2.61-182.48-.51-3.36-7-16.15-16.95-21.4s-18.6-22.64-18.6-22.64h3.18s5.9,10.66,14.29,16.56a33.59,33.59,0,0,0,3.77,2.23,53.56,53.56,0,0,1,3.34-18.79l1.72,1.59c-2.32,9.49-2,15.57-1.31,19.06a34.68,34.68,0,0,1,8.67,5.81c8.71-11.32,13.6-37.2,13.6-37.2l2.23,1.22a132.83,132.83,0,0,1-2.88,15.87c-1.63,6.7-6.43,19.31-8.66,25a59.3,59.3,0,0,1,6.57,12.34,5.43,5.43,0,0,1,.84-1c5.67-5.13,16.33-29.35,16.33-29.35,2.58-5.63-1.36-20.41-1.36-20.41h3l1.33,12.93,7.48-8.17,1.36,1.14-7.93,10.2-4.09,12.93L385.32,157Z" style="fill:#f5f5f5"></path><path d="M85.89,177.45a8.92,8.92,0,0,1-.27-1.76c-.21-3.67-3.72-3.09-6.7-3.59-2.32-.39,3.84-6.27-.85-8.16a4.21,4.21,0,0,1-2.27-1.58,2.68,2.68,0,0,1,1-3.26,6.28,6.28,0,0,1,3.57-.89c.76-.93.14-2.33-.6-3.28s-1.65-2-1.37-3.21c.43-1.77,2.9-1.83,4.69-1.48.66-1.07.64-2.41,1-3.63s1.29-2.49,2.54-2.33,1.89,1.47,3,1.74c1.34.31,2.5-.87,3.55-1.76s2.88-1.44,3.61-.27c.43.7.17,1.67.62,2.36.78,1.2,2.63.46,3.78-.39s3-1.61,3.78-.44a5.17,5.17,0,0,1,.45,1.23c.54,1.57,2.23,2.35,3.55,3.35s2.37,3,1.25,4.23c-.55.61-1.52.85-1.79,1.62-.35,1,.64,1.83,1.42,2.49,1.29,1.11,1.53,4.41-.18,5.31-.72.38-1.78.49-2,1.29s.57,1.26,1,1.81a3.4,3.4,0,0,1-1,5.07c-.41.2-.92.36-1.07.79a1.61,1.61,0,0,0,.1,1,5.14,5.14,0,0,1,.17,1.83.86.86,0,0,1-.23.58.78.78,0,0,1-.54.15c-2.48.11-3.67-.76-5.18,1.39a1.82,1.82,0,0,1-.52.55,1.59,1.59,0,0,1-.68.17c-1.7.14-2.82-.92-4.37-1.12-2.16-.28-2.62.84-4.52,1.73C87.9,180.36,86.45,179.49,85.89,177.45Z" style="fill:#f5f5f5"></path><path d="M114.4,174.37a8.26,8.26,0,0,1-.26-1.77c-.22-3.66-3.72-3.08-6.7-3.58-2.33-.39,3.83-6.27-.86-8.17a4.18,4.18,0,0,1-2.27-1.57,2.68,2.68,0,0,1,1-3.26,6.24,6.24,0,0,1,3.56-.89c.77-.93.14-2.33-.6-3.28s-1.65-2-1.37-3.21c.43-1.77,2.9-1.83,4.69-1.49.66-1.06.65-2.4,1-3.62s1.28-2.49,2.53-2.34,1.89,1.47,3,1.75c1.34.31,2.5-.87,3.55-1.76s2.89-1.44,3.61-.27c.43.7.17,1.67.62,2.36.78,1.2,2.63.46,3.78-.39s3-1.61,3.78-.44a4.77,4.77,0,0,1,.45,1.23c.54,1.56,2.24,2.35,3.55,3.35s2.37,3,1.25,4.23c-.55.61-1.52.85-1.79,1.62-.34,1,.64,1.83,1.42,2.49,1.3,1.1,1.53,4.4-.18,5.31-.72.38-1.78.49-1.95,1.29s.56,1.26,1,1.81a3.4,3.4,0,0,1-1,5.07c-.41.2-.91.36-1.06.79a1.68,1.68,0,0,0,.09,1,4.92,4.92,0,0,1,.17,1.83.82.82,0,0,1-.23.58.9.9,0,0,1-.54.15c-2.47.11-3.67-.76-5.18,1.39a1.82,1.82,0,0,1-.52.55,1.55,1.55,0,0,1-.68.17c-1.7.14-2.81-.92-4.37-1.12-2.16-.28-2.61.84-4.51,1.73C116.41,177.28,115,176.41,114.4,174.37Z" style="fill:#f5f5f5"></path><path d="M117.15,156.21a8.8,8.8,0,0,1-.27-1.76c-.21-3.67-3.72-3.09-6.7-3.59-2.32-.39,3.84-6.27-.85-8.16a4.19,4.19,0,0,1-2.27-1.58,2.68,2.68,0,0,1,1-3.26,6.36,6.36,0,0,1,3.57-.89c.76-.93.14-2.33-.6-3.28s-1.65-2-1.37-3.21c.43-1.76,2.9-1.83,4.69-1.48.66-1.07.64-2.41,1-3.63s1.29-2.49,2.54-2.33,1.89,1.47,3,1.74c1.34.31,2.5-.87,3.55-1.76s2.88-1.44,3.61-.27c.43.7.17,1.68.62,2.36.78,1.2,2.63.46,3.78-.39s3-1.61,3.78-.44a5.17,5.17,0,0,1,.45,1.23c.54,1.57,2.23,2.35,3.55,3.35s2.37,3,1.25,4.23c-.55.61-1.52.85-1.79,1.62-.34,1,.64,1.83,1.42,2.49,1.3,1.11,1.53,4.41-.18,5.31-.72.38-1.78.49-2,1.29s.57,1.26,1,1.81a3.41,3.41,0,0,1-1,5.07c-.41.2-.91.36-1.07.79a1.61,1.61,0,0,0,.1,1,5.17,5.17,0,0,1,.17,1.84.84.84,0,0,1-.23.57.78.78,0,0,1-.54.15c-2.48.11-3.67-.76-5.18,1.39a1.82,1.82,0,0,1-.52.55,1.59,1.59,0,0,1-.68.17c-1.7.14-2.82-.92-4.37-1.12-2.16-.27-2.62.84-4.52,1.73C119.16,159.12,117.71,158.25,117.15,156.21Z" style="fill:#f5f5f5"></path><path d="M135.93,165.26a8.94,8.94,0,0,1-.26-1.77c-.22-3.67-3.72-3.09-6.7-3.58-2.33-.39,3.83-6.27-.86-8.17a4.08,4.08,0,0,1-2.26-1.58,2.66,2.66,0,0,1,1-3.25,6.33,6.33,0,0,1,3.56-.9c.77-.93.14-2.33-.6-3.28s-1.65-2-1.36-3.2c.42-1.77,2.89-1.83,4.68-1.49.66-1.07.65-2.41,1-3.62s1.28-2.49,2.53-2.34,1.89,1.47,3,1.74c1.33.32,2.49-.87,3.54-1.75s2.89-1.45,3.61-.28c.43.7.17,1.68.62,2.37.78,1.19,2.63.45,3.78-.39s3-1.62,3.78-.44a4.7,4.7,0,0,1,.45,1.22c.54,1.57,2.24,2.35,3.56,3.36s2.36,3,1.24,4.23c-.55.6-1.52.85-1.79,1.62-.34,1,.64,1.82,1.42,2.49,1.3,1.1,1.53,4.4-.18,5.3-.72.38-1.78.5-1.95,1.29s.56,1.26,1,1.81a3.42,3.42,0,0,1-1,5.08c-.42.19-.92.35-1.07.78a1.67,1.67,0,0,0,.09,1,5,5,0,0,1,.17,1.84.85.85,0,0,1-.22.58,1,1,0,0,1-.55.15c-2.47.11-3.67-.77-5.18,1.39a1.82,1.82,0,0,1-.52.55,1.71,1.71,0,0,1-.68.17c-1.7.14-2.81-.93-4.37-1.12-2.16-.28-2.61.83-4.51,1.73C138,168.16,136.5,167.3,135.93,165.26Z" style="fill:#f5f5f5"></path><path d="M154.92,161.08a8.23,8.23,0,0,1-.27-1.77c-.22-3.67-3.72-3.08-6.7-3.58-2.33-.39,3.84-6.27-.86-8.17a4.08,4.08,0,0,1-2.26-1.58,2.67,2.67,0,0,1,1-3.25,6.26,6.26,0,0,1,3.56-.89c.77-.93.15-2.33-.59-3.28s-1.65-2-1.37-3.21c.42-1.77,2.89-1.83,4.68-1.49.66-1.07.65-2.4,1-3.62s1.29-2.49,2.53-2.34,1.9,1.47,3.05,1.75c1.34.31,2.49-.87,3.54-1.76s2.89-1.44,3.61-.27c.44.7.18,1.67.63,2.36.78,1.2,2.63.46,3.77-.39s3-1.62,3.79-.44a5,5,0,0,1,.44,1.23c.55,1.56,2.24,2.34,3.56,3.35s2.36,3,1.25,4.23c-.55.6-1.52.85-1.8,1.62-.34,1,.65,1.83,1.42,2.49,1.3,1.1,1.54,4.4-.18,5.31-.72.37-1.77.49-2,1.29s.56,1.26,1,1.8a3.41,3.41,0,0,1-1,5.08c-.41.19-.92.36-1.07.79a1.57,1.57,0,0,0,.1.95,5.21,5.21,0,0,1,.16,1.84.85.85,0,0,1-.22.58.93.93,0,0,1-.55.15c-2.47.11-3.67-.76-5.18,1.39a1.68,1.68,0,0,1-.51.55,1.63,1.63,0,0,1-.69.17c-1.7.14-2.81-.92-4.36-1.12-2.16-.28-2.62.84-4.52,1.73C156.93,164,155.48,163.12,154.92,161.08Z" style="fill:#f5f5f5"></path><path d="M155.16,181.39A7,7,0,0,1,155,180c-.17-2.88-2.92-2.43-5.27-2.82-1.83-.3,3-4.93-.68-6.43a3.23,3.23,0,0,1-1.78-1.24,2.1,2.1,0,0,1,.81-2.56,4.9,4.9,0,0,1,2.8-.71c.6-.73.11-1.83-.47-2.58s-1.3-1.6-1.08-2.52c.34-1.4,2.28-1.45,3.69-1.17a10.15,10.15,0,0,0,.76-2.86c.26-.95,1-2,2-1.84s1.49,1.16,2.4,1.37,2-.68,2.79-1.38,2.27-1.13,2.84-.21c.34.55.14,1.32.49,1.86.61.94,2.07.36,3-.31s2.35-1.27,3-.35a3.76,3.76,0,0,1,.35,1c.43,1.23,1.77,1.85,2.8,2.64s1.87,2.37,1,3.33c-.44.48-1.2.67-1.41,1.28s.5,1.44,1.11,2c1,.87,1.21,3.47-.14,4.18-.57.29-1.4.39-1.54,1s.45,1,.82,1.43a2.67,2.67,0,0,1-.82,4c-.32.16-.72.28-.84.62a1.26,1.26,0,0,0,.08.76,4.1,4.1,0,0,1,.13,1.44.68.68,0,0,1-.18.46.77.77,0,0,1-.43.12c-2,.08-2.89-.61-4.08,1.09a1.37,1.37,0,0,1-.4.43,1.24,1.24,0,0,1-.54.14c-1.34.11-2.22-.73-3.44-.89-1.7-.21-2.06.66-3.56,1.37C156.75,183.67,155.61,183,155.16,181.39Z" style="fill:#f5f5f5"></path><path d="M165.8,174.37a8.91,8.91,0,0,1-.27-1.77c-.21-3.66-3.72-3.08-6.7-3.58-2.32-.39,3.84-6.27-.85-8.17a4.18,4.18,0,0,1-2.27-1.57,2.68,2.68,0,0,1,1-3.26,6.28,6.28,0,0,1,3.57-.89c.76-.93.14-2.33-.6-3.28s-1.65-2-1.37-3.21c.43-1.77,2.9-1.83,4.69-1.49.66-1.06.64-2.4,1-3.62s1.29-2.49,2.54-2.34,1.89,1.47,3,1.75c1.34.31,2.5-.87,3.55-1.76s2.88-1.44,3.61-.27c.43.7.17,1.67.62,2.36.78,1.2,2.63.46,3.78-.39s3-1.61,3.78-.44a5.17,5.17,0,0,1,.45,1.23c.54,1.56,2.23,2.35,3.55,3.35s2.37,3,1.25,4.23c-.55.61-1.52.85-1.79,1.62-.34,1,.64,1.83,1.42,2.49,1.3,1.1,1.53,4.4-.18,5.31-.72.38-1.78.49-2,1.29s.57,1.26,1.05,1.81a3.41,3.41,0,0,1-1.05,5.07c-.41.2-.91.36-1.07.79a1.61,1.61,0,0,0,.1,1,5.14,5.14,0,0,1,.17,1.83.86.86,0,0,1-.23.58.9.9,0,0,1-.54.15c-2.48.11-3.67-.76-5.18,1.39a1.82,1.82,0,0,1-.52.55,1.59,1.59,0,0,1-.68.17c-1.7.14-2.82-.92-4.37-1.12-2.16-.28-2.62.84-4.52,1.73C167.81,177.28,166.36,176.41,165.8,174.37Z" style="fill:#f5f5f5"></path><path d="M135.93,142.92a8.94,8.94,0,0,1-.26-1.77c-.22-3.66-3.72-3.08-6.7-3.58-2.33-.39,3.83-6.27-.86-8.17a4.11,4.11,0,0,1-2.26-1.57,2.67,2.67,0,0,1,1-3.26,6.24,6.24,0,0,1,3.56-.89c.77-.93.14-2.33-.6-3.28s-1.65-2-1.36-3.21c.42-1.77,2.89-1.83,4.68-1.49.66-1.06.65-2.4,1-3.62s1.28-2.49,2.53-2.33,1.89,1.47,3,1.74c1.33.31,2.49-.87,3.54-1.76s2.89-1.44,3.61-.27c.43.7.17,1.67.62,2.36.78,1.2,2.63.46,3.78-.39s3-1.61,3.78-.44a4.77,4.77,0,0,1,.45,1.23c.54,1.57,2.24,2.35,3.56,3.35s2.36,3,1.24,4.23c-.55.61-1.52.85-1.79,1.62-.34,1,.64,1.83,1.42,2.49,1.3,1.1,1.53,4.4-.18,5.31-.72.38-1.78.49-1.95,1.29s.56,1.26,1,1.81a3.41,3.41,0,0,1-1,5.07c-.42.2-.92.36-1.07.79a1.68,1.68,0,0,0,.09,1A4.92,4.92,0,0,1,157,141a.85.85,0,0,1-.22.58.88.88,0,0,1-.55.15c-2.47.11-3.67-.76-5.18,1.39a1.71,1.71,0,0,1-.52.55,1.55,1.55,0,0,1-.68.17c-1.7.14-2.81-.92-4.37-1.12-2.16-.28-2.61.84-4.51,1.73C138,145.83,136.5,145,135.93,142.92Z" style="fill:#f5f5f5"></path><path d="M111.55,144.17a8.23,8.23,0,0,1-.27-1.77c-.22-3.67-3.72-3.09-6.7-3.58-2.33-.39,3.84-6.27-.86-8.17a4.08,4.08,0,0,1-2.26-1.58,2.67,2.67,0,0,1,1-3.25,6.26,6.26,0,0,1,3.56-.89c.77-.94.15-2.34-.59-3.29s-1.65-2-1.37-3.2c.42-1.77,2.9-1.83,4.68-1.49.66-1.07.65-2.4,1-3.62s1.29-2.49,2.53-2.34,1.9,1.47,3,1.74c1.34.32,2.5-.86,3.55-1.75s2.88-1.44,3.6-.27c.44.7.18,1.67.63,2.36.78,1.2,2.63.45,3.77-.39s3-1.62,3.79-.44a4.62,4.62,0,0,1,.44,1.23c.55,1.56,2.24,2.34,3.56,3.35s2.36,3,1.25,4.23c-.55.6-1.52.85-1.8,1.62-.34,1,.65,1.83,1.43,2.49,1.29,1.1,1.53,4.4-.19,5.3-.72.38-1.77.5-2,1.29s.56,1.27,1,1.81a3.41,3.41,0,0,1-1,5.08c-.41.19-.92.36-1.07.79a1.57,1.57,0,0,0,.1.95,5.21,5.21,0,0,1,.16,1.84.85.85,0,0,1-.22.58.92.92,0,0,1-.54.15c-2.48.11-3.67-.77-5.19,1.39a1.68,1.68,0,0,1-.51.55,1.63,1.63,0,0,1-.68.17c-1.71.14-2.82-.93-4.37-1.12-2.16-.28-2.62.83-4.52,1.73C113.56,147.07,112.11,146.21,111.55,144.17Z" style="fill:#f5f5f5"></path><path d="M96.73,154.15a8.94,8.94,0,0,1-.26-1.77c-.22-3.67-3.72-3.09-6.7-3.58-2.33-.39,3.83-6.27-.86-8.17a4.08,4.08,0,0,1-2.26-1.58,2.66,2.66,0,0,1,1-3.25,6.24,6.24,0,0,1,3.56-.89c.77-.94.14-2.34-.6-3.29s-1.64-2-1.36-3.2c.42-1.77,2.89-1.83,4.68-1.49.66-1.07.65-2.4,1-3.62s1.28-2.49,2.53-2.34,1.89,1.47,3,1.74c1.33.32,2.49-.86,3.54-1.75s2.89-1.44,3.61-.27c.43.7.17,1.67.62,2.36.78,1.2,2.63.45,3.78-.39s3-1.62,3.79-.44a5,5,0,0,1,.44,1.23c.54,1.56,2.24,2.34,3.56,3.35s2.36,3,1.24,4.23c-.55.6-1.52.85-1.79,1.62-.34,1,.64,1.83,1.42,2.49,1.3,1.1,1.53,4.4-.18,5.3-.72.38-1.78.5-2,1.29s.56,1.27,1,1.81a3.42,3.42,0,0,1-1,5.08c-.42.19-.92.36-1.07.79a1.65,1.65,0,0,0,.09,1,5,5,0,0,1,.17,1.84.85.85,0,0,1-.22.58,1,1,0,0,1-.55.15c-2.47.11-3.67-.77-5.18,1.39a1.79,1.79,0,0,1-.51.55,1.63,1.63,0,0,1-.69.17c-1.7.14-2.81-.93-4.37-1.12-2.16-.28-2.61.83-4.51,1.73C98.75,157.05,97.3,156.19,96.73,154.15Z" style="fill:#f5f5f5"></path><path d="M101.23,166.76s6.19,8.76,8.33,11.54,12.81,20.08,14.27,31.52c.15,1.22.3,2.28.45,3.19-4.59,30.33-3.87,152.81-3.71,162.3h20.56c-2.25-93.82-4.63-175.61-4.18-178.6.49-3.16,6.57-15.21,16-20.16s17.52-21.32,17.52-21.32h-3s-5.56,10-13.46,15.59a30,30,0,0,1-3.56,2.11,50.29,50.29,0,0,0-3.14-17.7l-1.62,1.49c2.19,8.95,1.9,14.67,1.24,18a32.52,32.52,0,0,0-8.18,5.47c-8.19-10.66-12.8-35-12.8-35l-2.1,1.15a123.68,123.68,0,0,0,2.71,15c1.53,6.31,6,18.19,8.16,23.59a55.89,55.89,0,0,0-6.2,11.62,4.49,4.49,0,0,0-.79-.95c-5.34-4.83-15.38-27.64-15.38-27.64-2.42-5.3,1.29-19.22,1.29-19.22h-2.81l-1.25,12.17-7-7.69-1.28,1.07,7.47,9.61L112.55,176l-10-11.11Z" style="fill:#f5f5f5"></path><rect x="62.14" y="292.38" width="358.42" height="12.15" transform="translate(482.69 596.91) rotate(180)" style="fill:#e0e0e0"></rect><polygon points="412.12 367.83 429 367.83 429 261.26 420.56 255.26 412.12 261.26 412.12 367.83" style="fill:#e6e6e6"></polygon><polygon points="382.25 367.83 399.13 367.83 399.13 261.26 390.69 255.26 382.25 261.26 382.25 367.83" style="fill:#e6e6e6"></polygon><polygon points="352.38 367.83 369.26 367.83 369.26 261.26 360.82 255.26 352.38 261.26 352.38 367.83" style="fill:#e6e6e6"></polygon><polygon points="322.51 367.83 339.39 367.83 339.39 261.26 330.95 255.26 322.51 261.26 322.51 367.83" style="fill:#e6e6e6"></polygon><polygon points="292.64 367.83 309.52 367.83 309.52 261.26 301.08 255.26 292.64 261.26 292.64 367.83" style="fill:#e6e6e6"></polygon><polygon points="262.77 367.83 279.65 367.83 279.65 261.26 271.21 255.26 262.77 261.26 262.77 367.83" style="fill:#e6e6e6"></polygon><polygon points="232.91 367.83 249.79 367.83 249.79 261.26 241.35 255.26 232.91 261.26 232.91 367.83" style="fill:#e6e6e6"></polygon><polygon points="203.04 367.83 219.92 367.83 219.92 261.26 211.48 255.26 203.04 261.26 203.04 367.83" style="fill:#e6e6e6"></polygon><polygon points="173.17 367.83 190.05 367.83 190.05 261.26 181.61 255.26 173.17 261.26 173.17 367.83" style="fill:#e6e6e6"></polygon><polygon points="143.3 367.83 160.18 367.83 160.18 261.26 151.74 255.26 143.3 261.26 143.3 367.83" style="fill:#e6e6e6"></polygon><polygon points="113.44 367.83 130.31 367.83 130.31 261.26 121.87 255.26 113.44 261.26 113.44 367.83" style="fill:#e6e6e6"></polygon><polygon points="83.57 367.83 100.45 367.83 100.45 261.26 92.01 255.26 83.57 261.26 83.57 367.83" style="fill:#e6e6e6"></polygon><polygon points="53.7 367.83 70.58 367.83 70.58 261.26 62.14 255.26 53.7 261.26 53.7 367.83" style="fill:#e6e6e6"></polygon><path d="M66.53,369s-2.79-9.36,2.86-11.23,9-6.24,8.82-11.19,5.76-9.77,10.22-5.13,3.87-3.57,9.82-5.56,11,2.84,9.36,7.27,4.24,7.18,11.27,3.42,14.77,3.08,13.28,8.44-.27,5.95,4.18,4.16,12.4,3.27,9.61,9.82S66.53,369,66.53,369Z" style="fill:#e0e0e0"></path><path d="M366.86,367.65s-2.16-7.27,2.22-8.72,7-4.84,6.85-8.69,4.47-7.58,7.93-4,3-2.77,7.62-4.32,8.54,2.21,7.27,5.65,3.29,5.57,8.75,2.65,11.46,2.4,10.31,6.55-.21,4.62,3.24,3.23,9.63,2.55,7.47,7.63S366.86,367.65,366.86,367.65Z" style="fill:#e0e0e0"></path><path d="M258.31,368.51c-5-5-.5-13.5,4.5-14.5s10-9.8,10.26-15.4,9.24-22.83,23.24-12.19,9.74,1.56,19.87-1.42,16.52,5.61,12.07,12.06c0,0,10.18-2.55,14.37,6.95s0,15.4,0,15.4,19.13-.57,17.41,11.26S258.31,368.51,258.31,368.51Z" style="fill:#e0e0e0"></path><path d="M436.14,368.81v13.7h-386v-13.7a4.08,4.08,0,0,1,4-4.3H432.1A4.08,4.08,0,0,1,436.14,368.81Z" style="fill:#ebebeb"></path><rect x="72.14" y="364.51" width="24" height="18" style="fill:#f5f5f5"></rect><rect x="118.14" y="364.51" width="23" height="18" style="fill:#f5f5f5"></rect><rect x="163.14" y="364.51" width="24" height="18" style="fill:#f5f5f5"></rect><rect x="209.14" y="364.51" width="23" height="18" style="fill:#f5f5f5"></rect><rect x="254.14" y="364.51" width="23" height="18" style="fill:#f5f5f5"></rect><rect x="299.14" y="364.51" width="24" height="18" style="fill:#f5f5f5"></rect><rect x="345.14" y="364.51" width="23" height="18" style="fill:#f5f5f5"></rect><rect x="390.14" y="364.51" width="24" height="18" style="fill:#f5f5f5"></rect></g><g id="freepik--Shadow--inject-19"><ellipse id="freepik--path--inject-19" cx="250" cy="416.24" rx="193.89" ry="11.32" style="fill:#f5f5f5"></ellipse></g><g id="freepik--trash-bin--inject-19"><rect x="391.78" y="312.86" width="33.78" height="23.61" style="fill:#263238"></rect><path d="M380.92,307.51V417.2h46.63V307.51Zm41.55,22.06H407.64v-8.94a3.77,3.77,0,0,1,3.77-3.77h7.29a3.77,3.77,0,0,1,3.77,3.77Z" style="fill:#3E54AC"></path><path d="M380.92,307.51V417.2h46.63V307.51Zm41.55,22.06H407.64v-8.94a3.77,3.77,0,0,1,3.77-3.77h7.29a3.77,3.77,0,0,1,3.77,3.77Z" style="fill:#fff;isolation:isolate;opacity:0.6000000000000001"></path><rect x="380.92" y="307.51" width="20" height="109.7" style="fill:#fff;isolation:isolate;opacity:0.4"></rect><rect x="379.72" y="303.57" width="48.93" height="7.22" style="fill:#3E54AC"></rect><rect x="379.72" y="303.57" width="22.58" height="7.22" style="fill:#fff;isolation:isolate;opacity:0.2"></rect></g><g id="freepik--Plant--inject-19"><path d="M98.75,386.05s6.13-13.36-.87-26.54-9-16.28-4.57-19,6.51,10.54,6.51,10.54,3.76-9.11.66-18.64-5.06-25.06-.82-26.72.81,19.37,4.49,26.54a61.91,61.91,0,0,0,3.6-15.64c.51-7.66-.28-19.88,3.07-23s5.49-1,2.2,15.93a177.14,177.14,0,0,0-3.27,30.63S117,318,121.9,317.34s4.87,6.53.7,12.76-12.23,17.38-13.55,23.12c0,0,8-16.68,15.15-11.57S118,356.84,112,360.48s-10.14,26.46-10.14,26.46Z" style="fill:#3E54AC"></path><path d="M98.75,386.05s6.13-13.36-.87-26.54-9-16.28-4.57-19,6.51,10.54,6.51,10.54,3.76-9.11.66-18.64-5.06-25.06-.82-26.72.81,19.37,4.49,26.54a61.91,61.91,0,0,0,3.6-15.64c.51-7.66-.28-19.88,3.07-23s5.49-1,2.2,15.93a177.14,177.14,0,0,0-3.27,30.63S117,318,121.9,317.34s4.87,6.53.7,12.76-12.23,17.38-13.55,23.12c0,0,8-16.68,15.15-11.57S118,356.84,112,360.48s-10.14,26.46-10.14,26.46Z" style="isolation:isolate;opacity:0.2"></path><path d="M103.59,391.54s-6-13.46,1.19-26.53,9.22-16.14,4.79-18.91-6.63,10.44-6.63,10.44-3.65-9.16-.43-18.65,5.35-25,1.13-26.71-1,19.36-4.81,26.47A62,62,0,0,1,95.42,322c-.42-7.66.52-19.88-2.79-23.06s-5.48-1-2.39,15.9a176.67,176.67,0,0,1,2.9,30.67s-7-22.27-11.88-23-5,6.46-.85,12.75,12,17.56,13.28,23.32c0,0-7.78-16.8-15-11.8s6.06,15.28,12,19,9.82,26.61,9.82,26.61Z" style="fill:#3E54AC"></path><polygon points="76.07 381.94 125.35 381.94 121.36 417.21 80.06 417.21 76.07 381.94" style="fill:#263238"></polygon></g><g id="freepik--speech-bubble-3--inject-19"><path d="M357.28,226.56c0-5.86-3.06-11.15-8-14.95a11.4,11.4,0,0,0,.24-2.34c0-7.81-7.93-14.15-17.79-14.33-3-7.54-11.93-13-22.5-13-8.43,0-15.82,3.49-20,8.72a23.69,23.69,0,0,0-3.18-.22c-10.07,0-18.23,6.41-18.23,14.33a11.36,11.36,0,0,0,.71,3.94c-6.42,3.37-10.64,9.11-10.64,15.62,0,6.28,3.92,11.84,9.94,15.25,0,.06,0,.13,0,.2,0,7.68,7.69,14,17.34,14.31,5.33,5.2,13.49,8.53,22.63,8.53A34.38,34.38,0,0,0,325,258.18a22.48,22.48,0,0,0,2.48.14c10.06,0,18.22-6.42,18.22-14.33v-.15C352.69,240.07,357.28,233.73,357.28,226.56Z" style="fill:#3E54AC"></path><path d="M226.07,216.63c0,1.31-1.52,2.37-3.39,2.37s-3.39-1.06-3.39-2.37,1.51-2.37,3.39-2.37S226.07,215.32,226.07,216.63Z" style="fill:#3E54AC"></path><path d="M252.55,215c0,3.79-4.41,6.86-9.85,6.86s-9.85-3.07-9.85-6.86,4.41-6.86,9.85-6.86S252.55,211.21,252.55,215Z" style="fill:#3E54AC"></path><path d="M357.28,226.56c0-5.86-3.06-11.15-8-14.95a11.4,11.4,0,0,0,.24-2.34c0-7.81-7.93-14.15-17.79-14.33-3-7.54-11.93-13-22.5-13-8.43,0-15.82,3.49-20,8.72a23.69,23.69,0,0,0-3.18-.22c-10.07,0-18.23,6.41-18.23,14.33a11.36,11.36,0,0,0,.71,3.94c-6.42,3.37-10.64,9.11-10.64,15.62,0,6.28,3.92,11.84,9.94,15.25,0,.06,0,.13,0,.2,0,7.68,7.69,14,17.34,14.31,5.33,5.2,13.49,8.53,22.63,8.53A34.38,34.38,0,0,0,325,258.18a22.48,22.48,0,0,0,2.48.14c10.06,0,18.22-6.42,18.22-14.33v-.15C352.69,240.07,357.28,233.73,357.28,226.56Z" style="fill:#fff;isolation:isolate;opacity:0.7000000000000001"></path><path d="M226.07,216.63c0,1.31-1.52,2.37-3.39,2.37s-3.39-1.06-3.39-2.37,1.51-2.37,3.39-2.37S226.07,215.32,226.07,216.63Z" style="fill:#fff;isolation:isolate;opacity:0.7000000000000001"></path><path d="M252.55,215c0,3.79-4.41,6.86-9.85,6.86s-9.85-3.07-9.85-6.86,4.41-6.86,9.85-6.86S252.55,211.21,252.55,215Z" style="fill:#fff;isolation:isolate;opacity:0.7000000000000001"></path></g><g id="freepik--speech-bubble-2--inject-19"><path d="M296,139.15c0-7.18-5.08-13.34-12.37-16.09a15,15,0,0,0,.38-3.3c0-8.58-7.27-15.72-16.89-17.3-6.57-8.82-18-14.67-31-14.67s-24.26,5.74-30.86,14.43c-10.59.86-18.86,8.38-18.86,17.54a14.9,14.9,0,0,0,.82,4.87c-5.46,3.18-9,8.5-9,14.52,0,8.45,7,15.5,16.43,17.22,1.44,8.56,10.11,15.14,20.64,15.15a41.36,41.36,0,0,0,47.8-.23c9.13-1.18,16.3-7.35,17.49-15.12C289.43,154.17,296,147.32,296,139.15Z" style="fill:#3E54AC"></path><ellipse cx="222.59" cy="189.51" rx="10.15" ry="7.5" style="fill:#3E54AC"></ellipse><path d="M214.83,203.14c0,1.3-1.52,2.37-3.39,2.37s-3.39-1.07-3.39-2.37,1.52-2.37,3.39-2.37S214.83,201.83,214.83,203.14Z" style="fill:#3E54AC"></path><path d="M296,139.15c0-7.18-5.08-13.34-12.37-16.09a15,15,0,0,0,.38-3.3c0-8.58-7.27-15.72-16.89-17.3-6.57-8.82-18-14.67-31-14.67s-24.26,5.74-30.86,14.43c-10.59.86-18.86,8.38-18.86,17.54a14.9,14.9,0,0,0,.82,4.87c-5.46,3.18-9,8.5-9,14.52,0,8.45,7,15.5,16.43,17.22,1.44,8.56,10.11,15.14,20.64,15.15a41.36,41.36,0,0,0,47.8-.23c9.13-1.18,16.3-7.35,17.49-15.12C289.43,154.17,296,147.32,296,139.15Z" style="fill:#fff;isolation:isolate;opacity:0.7000000000000001"></path><ellipse cx="222.59" cy="189.51" rx="10.15" ry="7.5" style="fill:#fff;isolation:isolate;opacity:0.7000000000000001"></ellipse><path d="M214.83,203.14c0,1.3-1.52,2.37-3.39,2.37s-3.39-1.07-3.39-2.37,1.52-2.37,3.39-2.37S214.83,201.83,214.83,203.14Z" style="fill:#fff;isolation:isolate;opacity:0.7000000000000001"></path></g><g id="freepik--speech-bubble-1--inject-19"><path d="M180.14,191.91c0,2.74-3,5-6.72,5s-6.72-2.22-6.72-5,3-5,6.72-5S180.14,189.17,180.14,191.91Z" style="fill:#3E54AC"></path><path d="M189.12,201c0,1.31-1.51,2.37-3.39,2.37s-3.39-1.06-3.39-2.37,1.52-2.37,3.39-2.37S189.12,199.68,189.12,201Z" style="fill:#3E54AC"></path><path d="M180.14,191.91c0,2.74-3,5-6.72,5s-6.72-2.22-6.72-5,3-5,6.72-5S180.14,189.17,180.14,191.91Z" style="fill:#fff;isolation:isolate;opacity:0.7000000000000001"></path><path d="M189.12,201c0,1.31-1.51,2.37-3.39,2.37s-3.39-1.06-3.39-2.37,1.52-2.37,3.39-2.37S189.12,199.68,189.12,201Z" style="fill:#fff;isolation:isolate;opacity:0.7000000000000001"></path><path d="M167.75,173.25a10.72,10.72,0,0,0-5.35-7.92,6.56,6.56,0,0,0,0-1.33c-.46-4.38-5.28-7.47-10.82-7-2.11-4.06-7.45-6.61-13.38-6a14.36,14.36,0,0,0-10.7,6.05,13.65,13.65,0,0,0-1.8.06c-5.65.59-9.85,4.66-9.39,9.1a6.62,6.62,0,0,0,.62,2.17c-3.4,2.27-5.43,5.73-5,9.39s2.89,6.41,6.46,8a.37.37,0,0,0,0,.11c.45,4.31,5.12,7.38,10.56,7a18.3,18.3,0,0,0,13.19,3.46,19.36,19.36,0,0,0,9.38-3.48,10.93,10.93,0,0,0,1.39-.06c5.65-.59,9.85-4.66,9.39-9.11,0,0,0,0,0-.08C166,181.1,168.17,177.28,167.75,173.25Z" style="fill:#3E54AC"></path><path d="M167.75,173.25a10.72,10.72,0,0,0-5.35-7.92,6.56,6.56,0,0,0,0-1.33c-.46-4.38-5.28-7.47-10.82-7-2.11-4.06-7.45-6.61-13.38-6a14.36,14.36,0,0,0-10.7,6.05,13.65,13.65,0,0,0-1.8.06c-5.65.59-9.85,4.66-9.39,9.1a6.62,6.62,0,0,0,.62,2.17c-3.4,2.27-5.43,5.73-5,9.39s2.89,6.41,6.46,8a.37.37,0,0,0,0,.11c.45,4.31,5.12,7.38,10.56,7a18.3,18.3,0,0,0,13.19,3.46,19.36,19.36,0,0,0,9.38-3.48,10.93,10.93,0,0,0,1.39-.06c5.65-.59,9.85-4.66,9.39-9.11,0,0,0,0,0-.08C166,181.1,168.17,177.28,167.75,173.25Z" style="fill:#fff;isolation:isolate;opacity:0.7000000000000001"></path></g><g id="freepik--Symbol--inject-19"><path d="M314.06,218.88c.19-2.67-2-4.65-5.65-4.91a9,9,0,0,0-8,3.11L296,213.74c2.93-3.43,7.39-5.32,13.35-4.89,7,.5,11.46,4,11.07,9.52-.56,7.78-8.77,7.91-9.18,13.54l-6.06-.43C305.65,224.42,313.71,223.65,314.06,218.88ZM303.83,239.1a3.81,3.81,0,0,1,7.59.55,3.81,3.81,0,0,1-7.59-.55Z" style="fill:#3E54AC"></path></g><g id="freepik--light-bulb--inject-19"><path d="M244.65,158.87c-.14,2.73-4,4.76-8.63,4.52s-8.27-2.64-8.13-5.38,4-4.76,8.63-4.52S244.79,156.13,244.65,158.87Z" style="fill:#263238"></path><path d="M248.73,150a2.41,2.41,0,0,0,.84-1.6c.14-2.68-5.46-5.15-12.5-5.51s-12.86,1.53-13,4.21a2.42,2.42,0,0,0,.67,1.67,1.87,1.87,0,0,0-.26.85,2.36,2.36,0,0,0,.68,1.65,1.81,1.81,0,0,0-.27.86,2.26,2.26,0,0,0,.71,1.64,1.75,1.75,0,0,0-.3.88,2.25,2.25,0,0,0,.73,1.63,1.78,1.78,0,0,0-.32.89c-.12,2.23,4.54,4.28,10.39,4.58s10.7-1.26,10.81-3.5a1.69,1.69,0,0,0-.23-.91,2.19,2.19,0,0,0,.89-1.55,1.72,1.72,0,0,0-.2-.9,2.29,2.29,0,0,0,.87-1.56,1.88,1.88,0,0,0-.19-.89,2.3,2.3,0,0,0,.85-1.57A1.88,1.88,0,0,0,248.73,150Z" style="fill:#263238"></path><path d="M248.73,150a2.41,2.41,0,0,0,.84-1.6c.14-2.68-5.46-5.15-12.5-5.51s-12.86,1.53-13,4.21a2.42,2.42,0,0,0,.67,1.67,1.87,1.87,0,0,0-.26.85,2.36,2.36,0,0,0,.68,1.65,1.81,1.81,0,0,0-.27.86,2.26,2.26,0,0,0,.71,1.64,1.75,1.75,0,0,0-.3.88,2.25,2.25,0,0,0,.73,1.63,1.78,1.78,0,0,0-.32.89c-.12,2.23,4.54,4.28,10.39,4.58s10.7-1.26,10.81-3.5a1.69,1.69,0,0,0-.23-.91,2.19,2.19,0,0,0,.89-1.55,1.72,1.72,0,0,0-.2-.9,2.29,2.29,0,0,0,.87-1.56,1.88,1.88,0,0,0-.19-.89,2.3,2.3,0,0,0,.85-1.57A1.88,1.88,0,0,0,248.73,150Z" style="fill:#fff;opacity:0.30000000000000004"></path><path d="M260.52,126.69a22.59,22.59,0,1,0-37.76,15.56,3.71,3.71,0,0,1,1.2,3.27,1.1,1.1,0,0,0,0,.18c-.14,2.73,5.55,5.23,12.7,5.6s13.06-1.55,13.2-4.27v-.18a3.72,3.72,0,0,1,1.56-3.16A22.56,22.56,0,0,0,260.52,126.69Z" style="fill:#3E54AC"></path><path d="M260.52,126.69a22.59,22.59,0,1,0-37.76,15.56,3.71,3.71,0,0,1,1.2,3.27,1.1,1.1,0,0,0,0,.18c-.14,2.73,5.55,5.23,12.7,5.6s13.06-1.55,13.2-4.27v-.18a3.72,3.72,0,0,1,1.56-3.16A22.56,22.56,0,0,0,260.52,126.69Z" style="fill:#fff;opacity:0.30000000000000004"></path><path d="M240.77,147.81h-.06a.27.27,0,0,1-.21-.32c.08-.43,2-10.21,7.37-13.76l-3.34-.17a.27.27,0,0,1-.24-.18l-1-2.7-2.82,5.18a.28.28,0,0,1-.49,0l-2.3-5.51-2.79,4.56a.23.23,0,0,1-.24.13.25.25,0,0,1-.23-.15l-2.3-4.8-1.27,2.62a.26.26,0,0,1-.26.15l-3.6-.18c1.42,1.68,5.83,7.49,5.47,14.46a.27.27,0,1,1-.54,0c.41-8-5.7-14.48-5.76-14.55a.26.26,0,0,1,0-.3.27.27,0,0,1,.26-.16l4.07.21,1.44-3a.28.28,0,0,1,.24-.15.29.29,0,0,1,.25.15l2.32,4.86,2.81-4.6a.26.26,0,0,1,.25-.12.26.26,0,0,1,.23.16l2.28,5.48,2.84-5.22a.27.27,0,0,1,.25-.14.28.28,0,0,1,.24.18l1.13,3.09,4.07.21a.27.27,0,0,1,.25.21.26.26,0,0,1-.14.3c-5.7,2.95-7.86,13.75-7.88,13.85A.27.27,0,0,1,240.77,147.81Z" style="fill:#263238"></path><path d="M245.17,109.77c2,4.56-1.72,10.54-8.25,13.37s-13.43,1.42-15.4-3.13,1.72-10.55,8.25-13.38S243.19,105.21,245.17,109.77Z" style="fill:#fff;opacity:0.4"></path><path d="M243,126.1c.79,1.83-.7,4.23-3.32,5.37s-5.39.57-6.18-1.26.69-4.23,3.31-5.37S242.22,124.27,243,126.1Z" style="fill:#fff;opacity:0.4"></path></g><g id="freepik--Gear--inject-19"><path d="M144.67,182.59l1.44,1.19,2.55-2.55-1.19-1.44a9.54,9.54,0,0,0,1.39-3.33l1.85-.18v-3.6l-1.85-.18a9.54,9.54,0,0,0-1.39-3.33l1.19-1.44-2.55-2.55-1.44,1.19a9.63,9.63,0,0,0-3.33-1.38l-.17-1.86h-3.61l-.17,1.86a9.63,9.63,0,0,0-3.33,1.38l-1.44-1.19-2.55,2.55,1.19,1.44a9.54,9.54,0,0,0-1.39,3.33l-1.85.18v3.6l1.85.18a9.54,9.54,0,0,0,1.39,3.33l-1.19,1.44,2.55,2.55,1.44-1.19a9.63,9.63,0,0,0,3.33,1.38l.17,1.86h3.61l.17-1.86A9.63,9.63,0,0,0,144.67,182.59Zm-10.19-8.11a4.89,4.89,0,1,1,4.89,4.88A4.88,4.88,0,0,1,134.48,174.48Z" style="fill:#3E54AC"></path></g><g id="freepik--Character--inject-19"><polygon points="144.1 417.21 137.5 417.21 151 346.02 157.6 346.02 144.1 417.21" style="fill:#3E54AC"></polygon><polygon points="289.26 417.21 282.65 417.21 296.15 346.02 302.76 346.02 289.26 417.21" style="fill:#3E54AC"></polygon><polygon points="144.1 417.21 137.5 417.21 151 346.02 157.6 346.02 144.1 417.21" style="fill:#fff;opacity:0.30000000000000004"></polygon><polygon points="289.26 417.21 282.65 417.21 296.15 346.02 302.76 346.02 289.26 417.21" style="fill:#fff;opacity:0.30000000000000004"></polygon><rect x="147.55" y="379.11" width="199.15" height="6.69" style="fill:#3E54AC"></rect><rect x="147.55" y="379.11" width="199.15" height="6.69" style="fill:#fff;opacity:0.5"></rect><polygon points="205 417.21 211.6 417.21 198.1 346.02 191.5 346.02 205 417.21" style="fill:#3E54AC"></polygon><polygon points="350.15 417.21 356.75 417.21 343.25 346.02 336.65 346.02 350.15 417.21" style="fill:#3E54AC"></polygon><polygon points="205 417.21 211.6 417.21 198.1 346.02 191.5 346.02 205 417.21" style="fill:#fff;opacity:0.30000000000000004"></polygon><polygon points="350.15 417.21 356.75 417.21 343.25 346.02 336.65 346.02 350.15 417.21" style="fill:#fff;opacity:0.30000000000000004"></polygon><polygon points="290.27 343.06 283.7 343.06 272.7 281.91 279.27 281.91 290.27 343.06" style="fill:#3E54AC"></polygon><polygon points="290.27 343.06 283.7 343.06 272.7 281.91 279.27 281.91 290.27 343.06" style="fill:#fff;opacity:0.30000000000000004"></polygon><polygon points="159.78 343.06 153.21 343.06 142.21 281.91 148.78 281.91 159.78 343.06" style="fill:#3E54AC"></polygon><polygon points="225.03 343.06 218.45 343.06 207.45 281.91 214.03 281.91 225.03 343.06" style="fill:#3E54AC"></polygon><polygon points="159.78 343.06 153.21 343.06 142.21 281.91 148.78 281.91 159.78 343.06" style="fill:#fff;opacity:0.30000000000000004"></polygon><polygon points="225.03 343.06 218.45 343.06 207.45 281.91 214.03 281.91 225.03 343.06" style="fill:#fff;opacity:0.30000000000000004"></polygon><polygon points="301.62 286.08 129.05 286.08 126.99 274.64 299.56 274.64 301.62 286.08" style="fill:#3E54AC"></polygon><polygon points="305.34 306.79 132.77 306.79 130.71 295.34 303.28 295.34 305.34 306.79" style="fill:#3E54AC"></polygon><polygon points="309.06 327.49 136.5 327.49 134.44 316.04 307.01 316.04 309.06 327.49" style="fill:#3E54AC"></polygon><rect x="138.2" y="341.25" width="219.93" height="7.92" style="fill:#3E54AC"></rect><polygon points="301.62 286.08 129.05 286.08 126.99 274.64 299.56 274.64 301.62 286.08" style="fill:#fff;opacity:0.5"></polygon><polygon points="305.34 306.79 132.77 306.79 130.71 295.34 303.28 295.34 305.34 306.79" style="fill:#fff;opacity:0.5"></polygon><polygon points="309.06 327.49 136.5 327.49 134.44 316.04 307.01 316.04 309.06 327.49" style="fill:#fff;opacity:0.5"></polygon><rect x="138.2" y="341.25" width="219.93" height="7.92" style="fill:#fff;opacity:0.5"></rect><rect x="192.2" y="341.25" width="165.93" height="7.92" style="fill:#fff;opacity:0.2"></rect><g id="freepik--group--inject-19"><path d="M225.89,242.42c7.46.81,15.91,2.24,23.15,1.43a4.48,4.48,0,0,0-1.48,5.86c.31.47.35.42.33.4a32,32,0,0,0-5.85-3.79c-4.32-2.42-15.31-7.8-19.88-10.12l1.93-5.3a159.4,159.4,0,0,1,22,7c4,1.88,10.35,3.83,11.14,9.06.48,8.37-11.8,8.05-17.39,8.12a105.86,105.86,0,0,1-15.64-1.43l1.73-11.27Z" style="fill:#ebc0bb"></path><path d="M241,256.78l-5.12.59-4.48.51-2.59-6.72-3.59-9.33L235.93,243l4.61,1.86A41.09,41.09,0,0,1,241,256.78Z" style="fill:#3E54AC"></path><path d="M235.86,257.37l-4.48.51-2.59-6.72C230.92,252.14,234.17,254.1,235.86,257.37Z" style="opacity:0.2"></path><path d="M191.42,251a14,14,0,0,1,9.23-9.13c7.45-2.28,15.63-.37,18.53,1.74S207.25,254.58,191.42,251Z" style="fill:#3E54AC"></path><path d="M225.2,241.83s14,20,13.71,58.4l-39.44,7.11c-.71-2.66-1.53-10.65-3.57-21-.87-4.43-2-9.29-3.36-14.35a138,138,0,0,0-7.7-21.3s14.32-4.51,19.51-5.65C209.25,244,225.2,241.83,225.2,241.83Z" style="fill:#263238"></path><path d="M195.75,228.11v0c.39.94.8,2,1.19,3.2,0,0,0,0,0,0,1.78,5.31,3.28,12.39.77,16a16.92,16.92,0,0,0,13.92,2.53c4.61-1,4.23-4.33,2.85-5.92a7,7,0,0,1-5-1.84c-1.7-1.76-1.92-4.54-1.77-7.28Z" style="fill:#eec1bb"></path><path d="M195.75,228.11v0a31.07,31.07,0,0,0,1.19,3.2s0,0,0,0c1.82,4.17,5.79,10.81,12.55,10.72-1.7-1.76-1.92-4.54-1.77-7.28Z" style="opacity:0.2"></path><path d="M317.11,393.08s-16.62-60.17-19.36-63.62c-4.49-5.65-47.5-11.62-47.5-11.62L239,298.39l-40.62,5.69s3,28.57,8,35.93,70.45,6.13,74.81,7.56S302,396,302,396Z" style="fill:#263238"></path><polygon points="211.09 303.45 198.38 305.04 198.86 308.9 212.41 307.3 211.09 303.45" style="fill:#fff;opacity:0.4"></polygon><polygon points="213.02 303.1 214.36 306.99 240.54 302.84 238.91 299.35 213.02 303.1" style="fill:#fff;opacity:0.4"></polygon><path d="M226.81,302.11l.89,2.57a1.45,1.45,0,0,0,1.57.93l4.49-.78a1,1,0,0,0,.8-1.34l-.89-2.57a1.46,1.46,0,0,0-1.58-.93l-4.49.78A1,1,0,0,0,226.81,302.11Z" style="fill:#fff"></path><polygon points="250.25 317.84 235.58 316.19 248.68 315.13 250.25 317.84" style="isolation:isolate;opacity:0.2"></polygon><path d="M210.8,212.66c2.17,1.92.43,5,.83,7.16s1.17,4.87-2,2.31S207.47,210,210.8,212.66Z" style="fill:#263238"></path><path d="M213.94,232a5.74,5.74,0,0,1-3,5.67c-3.17,1.71-8.27,1-12.39-1.66-4.37-2.85-3.6-4.2-5.56-11.21a10,10,0,0,1,11.31-12.69c7,1.17,9.1,11.43,9.56,18.29C213.9,231,213.92,231.49,213.94,232Z" style="fill:#eec1bb"></path><path d="M194.74,229.46c3.51,1.48,3.9-3.22,3.63-3.54-1.2-1.39-1.34-2.71-.6-5.82s-5.65-5.65-9.74-3.76c-3.78,1.74.66,4.24.52,6.88C188.31,227.93,191.91,228.26,194.74,229.46Z" style="fill:#263238"></path><path d="M190.76,230.24a6.61,6.61,0,0,0,4,2.77c2.08.42,2.73-1.66,1.84-3.7-.81-1.84-2.86-4.27-4.8-3.76S189.54,228.46,190.76,230.24Z" style="fill:#eec1bb"></path><path d="M202.18,222.49c.16.6.44.6.84.49s.74-.26.59-.86-.6-1-1-.9S202,221.89,202.18,222.49Z" style="fill:#263238"></path><path d="M209.26,221.57c.15.61.44.6.84.5s.74-.27.58-.87-.59-1-1-.9S209.11,221,209.26,221.57Z" style="fill:#263238"></path><path d="M208.06,222.53a16.73,16.73,0,0,0,3,3.56,2.76,2.76,0,0,1-2.15.87Z" style="fill:#ed847e"></path><path d="M200,221.2a.41.41,0,0,1-.18,0,.37.37,0,0,1-.13-.5,3.68,3.68,0,0,1,2.77-1.87.36.36,0,0,1,.39.34.37.37,0,0,1-.35.39h0a2.94,2.94,0,0,0-2.18,1.51A.38.38,0,0,1,200,221.2Z" style="fill:#263238"></path><path d="M211.45,219a.37.37,0,0,1-.34,0,2.88,2.88,0,0,0-2.59-.44.36.36,0,0,1-.47-.21.37.37,0,0,1,.2-.47,3.62,3.62,0,0,1,3.28.52.38.38,0,0,1,.09.51A.36.36,0,0,1,211.45,219Z" style="fill:#263238"></path><path d="M203.11,215.06s5.76,1.61,7.47-3.46-5.12-7-5.12-7a4,4,0,0,1,.48,3.29s-1.59-3.26-6-1.51-11.37,4.21-12.51,6.85a4.1,4.1,0,0,0,.22,3.95l7.65.71A5.85,5.85,0,0,1,203.11,215.06Z" style="fill:#263238"></path><path d="M208.92,230.54a7.53,7.53,0,0,1-4.82-1.67.37.37,0,0,1,0-.51.36.36,0,0,1,.51,0,7.1,7.1,0,0,0,5.22,1.42.37.37,0,0,1,.4.32.36.36,0,0,1-.31.4A8.44,8.44,0,0,1,208.92,230.54Z" style="fill:#263238"></path><path d="M317.11,393.07,302,396S285.51,349,281.15,347.57s-69.83-.2-74.8-7.56-8-35.93-8-35.93L239,298.39l3.32,5.74,1.86,3.21,6.07,10.5s43,6,47.5,11.62C300.5,332.91,317.11,393.07,317.11,393.07Z" style="fill:#fff;opacity:0.2"></path><path d="M219.77,315.13s47.17-18.07,60-13.06,53.44,50.31,53.44,50.31L324.05,364s-41.11-39.08-45.92-41.31S225,344.74,225,344.74Z" style="fill:#263238"></path><path d="M219.77,315.13s47.17-18.07,60-13.06,53.44,50.31,53.44,50.31L324.05,364s-41.11-39.08-45.92-41.31S225,344.74,225,344.74Z" style="fill:#fff;opacity:0.2"></path><polygon points="339.98 370.54 344.08 363.66 331.64 352.04 327.56 358.92 339.98 370.54" style="fill:#eec1bb"></polygon><polygon points="327.56 358.92 331.65 352.05 338.76 358.69 334.4 365.33 327.56 358.92" style="isolation:isolate;opacity:0.2"></polygon><path d="M344.89,362.82s0,0,.06,0a.21.21,0,0,0,0-.06,10.13,10.13,0,0,0,1.62-1.37,2.2,2.2,0,0,0,.72-1.38,1,1,0,0,0-.62-.87.72.72,0,0,0-.68,0c-.51.26-.84,1.15-1.06,2a2.89,2.89,0,0,0-.92-1.78.71.71,0,0,0-.87.11.89.89,0,0,0-.32.73c0,1.11,1.87,2.44,2,2.52l.06-.12h0l-.05.13a.65.65,0,0,0,0,.13A.14.14,0,0,0,344.89,362.82Zm-.14-.73q0,.11,0,.18c-.57-.49-1.47-1.39-1.49-2a.56.56,0,0,1,.14-.41l.07-.06c.2-.18.34-.14.43-.08A3.69,3.69,0,0,1,344.75,362.09Zm.39.16c.18-1.09.58-2.53,1.08-2.78a.35.35,0,0,1,.33,0,.71.71,0,0,1,.41.55C347,360.56,346.3,361.37,345.14,362.25Z" style="fill:#3E54AC"></path><path d="M343.7,362.59l-6,6.66a.57.57,0,0,0,0,.81h0l5,5.1a1.4,1.4,0,0,0,2-.09c2.07-2.36,2.94-3.59,5.56-6.54a74.54,74.54,0,0,0,6.83-8c1.83-2.82-1-4.55-2-3.52-2.43,2.43-7.22,4.41-10.05,4.9A2.22,2.22,0,0,0,343.7,362.59Z" style="fill:#263238"></path><polygon points="325.52 367.68 337.36 354.67 332.42 348.81 319.7 363.34 325.52 367.68" style="fill:#3E54AC"></polygon><polygon points="325.52 367.68 337.36 354.67 332.42 348.81 319.7 363.34 325.52 367.68" style="fill:#fff;opacity:0.2"></polygon><path d="M320,406.56s0,0,.06,0l.06,0a9.91,9.91,0,0,0,2.09-.41,2.11,2.11,0,0,0,1.29-.85,1,1,0,0,0-.11-1.06.74.74,0,0,0-.58-.37c-.56,0-1.29.6-1.88,1.21a2.94,2.94,0,0,0,.06-2,.71.71,0,0,0-.81-.33.9.9,0,0,0-.64.48c-.5,1,.44,3.05.49,3.16l.11-.07h0l-.12.08s-.1.09-.1.1Zm.25-.7a1.58,1.58,0,0,0-.12.15,4,4,0,0,1-.3-2.53.52.52,0,0,1,.32-.28l.09,0c.26-.05.37.05.42.15A3.79,3.79,0,0,1,320.26,405.86Zm.25.32c.7-.85,1.74-1.92,2.3-1.89a.35.35,0,0,1,.29.18.7.7,0,0,1,.08.67C322.94,405.61,322,406,320.51,406.18Z" style="fill:#3E54AC"></path><polygon points="311.96 410.9 318.9 406.9 313.37 390.07 306.45 394.08 311.96 410.9" style="fill:#eec1bb"></polygon><polygon points="306.45 394.08 313.38 390.08 316.53 399.7 309.48 403.35 306.45 394.08" style="isolation:isolate;opacity:0.2"></polygon><path d="M319.09,405.78l-8.51,2.88a.56.56,0,0,0-.39.7h0l1.87,6.88a1.41,1.41,0,0,0,1.77.89c2.95-1.05,4.31-1.7,8.05-3,2.29-.78,6.91-2.11,9.88-3.67s1.34-4.46-.05-4.06c-3.32.94-8.47.32-11.17-.63A2.25,2.25,0,0,0,319.09,405.78Z" style="fill:#263238"></path><polygon points="302.61 401.35 319.3 395.77 317.85 388.24 299.65 394.71 302.61 401.35" style="fill:#3E54AC"></polygon><polygon points="302.61 401.35 319.3 395.77 317.85 388.24 299.65 394.71 302.61 401.35" style="fill:#fff;opacity:0.2"></polygon><path d="M229.63,342.45s42-21.14,49.64-24,24.06,6.23,26.85,28.7l-3.36-3.69s-3.92-12.27-5-14-21.24-4.72-21.24-4.72S245.38,340.35,229.63,342.45Z" style="opacity:0.2"></path><path d="M244.18,307.34,225,313.2s11.17-6.28,17.29-9.07Z" style="opacity:0.2"></path><path d="M189.64,262.17c-3.31,1.22-7.88,2.94-11.08,4.26-3.59,1.52-7.68,3.11-10.69,5.3-.18.12-.28.25-.12,0a3.77,3.77,0,0,0,.14-3,2.94,2.94,0,0,0-1.34-1.66c1.25.82,3.52,2.15,4.89,2.94,3.42,2,7,3.92,10.48,6l-1.81,5.35a70,70,0,0,1-15.46-4c-4-1.32-7.75-3.83-6.82-8.77,1.49-8,21-14.64,28.13-17.16l3.68,10.79Z" style="fill:#ebc0bb"></path><path d="M201,314.25l-7.52,4.22s-3-25.42-5.47-45.17c-.34-2.73-.67-5.36-1-7.79-1-7.89-1.85-13.77-2.17-14.84l10.88-3.73S203.28,272.32,201,314.25Z" style="fill:#3E54AC"></path><path d="M198,243c-1.45,3,0,8.33,0,8.33L192.61,255s-1.24-1.51-.85-5S198,243,198,243Z" style="fill:#3E54AC"></path><path d="M198,243c-1.45,3,0,8.33,0,8.33L192.61,255s-1.24-1.51-.85-5S198,243,198,243Z" style="fill:#fff;opacity:0.5"></path><path d="M181.83,275.71l6.31,4.28-8.29,4.94s-4.54-4.84-2.22-7.53Z" style="fill:#eec1bb"></path><polygon points="190.06 285.94 183.01 289.7 179.85 284.93 188.14 279.99 190.06 285.94" style="fill:#eec1bb"></polygon><path d="M216.64,242.5s7,6.48,14,25.21c5.77,15.39,4,32.47,11.94,36.94l-2.74-8.33s-1.67-40.54-14.68-54.49Z" style="fill:#3E54AC"></path><path d="M210.34,240.91s4.49.22,8.91,5.4l5,.63A19.9,19.9,0,0,0,210.34,240.91Z" style="fill:#3E54AC"></path><path d="M210.34,240.91s4.49.22,8.91,5.4l5,.63A19.9,19.9,0,0,0,210.34,240.91Z" style="fill:#fff;opacity:0.5"></path><path d="M188,273.3c-.34-2.73-.67-5.36-1-7.79,1.14-2.51,2.09-4.42,2.09-4.42S190.29,268.24,188,273.3Z" style="opacity:0.2"></path><path d="M184.84,250.67s-9.64,4-17.45,8.1l8,11.67,12.17-.91A17.81,17.81,0,0,0,184.84,250.67Z" style="fill:#3E54AC"></path><path d="M213.94,232a5.74,5.74,0,0,1-3,5.67,30.63,30.63,0,0,0-2.17-6l5.09-1.24C213.9,231,213.92,231.49,213.94,232Z" style="opacity:0.1"></path><path d="M224.15,230.94l-7.51-1.54,2.05,8.25s6.78,1,7.13-2.55Z" style="fill:#eec1bb"></path><polygon points="209.5 231.97 213.67 238.46 218.69 237.65 216.64 229.4 209.5 231.97" style="fill:#eec1bb"></polygon></g></g></svg>